G75*
%MOIN*%
%OFA0B0*%
%FSLAX24Y24*%
%IPPOS*%
%LPD*%
%AMOC8*
5,1,8,0,0,1.08239X$1,22.5*
%
%ADD10C,0.1379*%
%ADD11R,0.5250X0.6750*%
%ADD12C,0.0600*%
%ADD13C,0.0710*%
%ADD14C,0.1458*%
%ADD15OC8,0.0680*%
%ADD16C,0.2080*%
%ADD17C,0.0600*%
%ADD18OC8,0.0600*%
%ADD19OC8,0.0710*%
%ADD20C,0.0710*%
%ADD21C,0.0680*%
%ADD22C,0.1380*%
%ADD23C,0.0840*%
%ADD24C,0.1970*%
%ADD25C,0.0749*%
D10*
X002982Y002420D03*
X026232Y002420D03*
X026232Y026670D03*
X002982Y026670D03*
D11*
X013982Y022045D03*
D12*
X011367Y015295D02*
X010847Y015295D01*
X010847Y014295D02*
X011367Y014295D01*
X011367Y013295D02*
X010847Y013295D01*
X010847Y012295D02*
X011367Y012295D01*
X011367Y011295D02*
X010847Y011295D01*
X010847Y010295D02*
X011367Y010295D01*
X011367Y009295D02*
X010847Y009295D01*
X010847Y008295D02*
X011367Y008295D01*
X011367Y007295D02*
X010847Y007295D01*
X010847Y006295D02*
X011367Y006295D01*
X011367Y005295D02*
X010847Y005295D01*
X010847Y004295D02*
X011367Y004295D01*
X011367Y003295D02*
X010847Y003295D01*
X010847Y002295D02*
X011367Y002295D01*
X008367Y002295D02*
X007847Y002295D01*
X007847Y003295D02*
X008367Y003295D01*
X008367Y004295D02*
X007847Y004295D01*
X007847Y005295D02*
X008367Y005295D01*
X008367Y006295D02*
X007847Y006295D01*
X007847Y007295D02*
X008367Y007295D01*
X008367Y008295D02*
X007847Y008295D01*
X007847Y009295D02*
X008367Y009295D01*
X008367Y010295D02*
X007847Y010295D01*
X007847Y011295D02*
X008367Y011295D01*
X008367Y012295D02*
X007847Y012295D01*
X007847Y013295D02*
X008367Y013295D01*
X008367Y014295D02*
X007847Y014295D01*
X007847Y015295D02*
X008367Y015295D01*
X016472Y014795D02*
X016992Y014795D01*
X016992Y013795D02*
X016472Y013795D01*
X016472Y012795D02*
X016992Y012795D01*
X016992Y011795D02*
X016472Y011795D01*
X016472Y010795D02*
X016992Y010795D01*
X016992Y009795D02*
X016472Y009795D01*
X016472Y008795D02*
X016992Y008795D01*
X016992Y007795D02*
X016472Y007795D01*
X016472Y006795D02*
X016992Y006795D01*
X016992Y005795D02*
X016472Y005795D01*
X019472Y005795D02*
X019992Y005795D01*
X019992Y006795D02*
X019472Y006795D01*
X019472Y007795D02*
X019992Y007795D01*
X019992Y008795D02*
X019472Y008795D01*
X019472Y009795D02*
X019992Y009795D01*
X019992Y010795D02*
X019472Y010795D01*
X019472Y011795D02*
X019992Y011795D01*
X019992Y012795D02*
X019472Y012795D01*
X019472Y013795D02*
X019992Y013795D01*
X019992Y014795D02*
X019472Y014795D01*
D13*
X025152Y020206D03*
X026136Y020206D03*
X026136Y021033D03*
X026136Y022057D03*
X026136Y022884D03*
X025152Y022884D03*
D14*
X027232Y024295D03*
X027632Y021545D03*
X027232Y018795D03*
D15*
X024482Y013580D03*
X024482Y012500D03*
X025482Y011960D03*
X024482Y011420D03*
X025482Y010880D03*
X024482Y010340D03*
X025482Y009800D03*
X024482Y009260D03*
X025482Y013040D03*
X015232Y003670D03*
X014232Y003670D03*
X013232Y003670D03*
X013232Y002670D03*
X014232Y002670D03*
X015232Y002670D03*
D16*
X024982Y006490D03*
X024982Y016350D03*
D17*
X005357Y008245D03*
X005357Y006345D03*
D18*
X003482Y006045D03*
X003482Y005045D03*
X003482Y008545D03*
X003482Y009545D03*
X006732Y012670D03*
X006732Y015670D03*
X010482Y017795D03*
X011482Y017795D03*
X016357Y017795D03*
X017357Y017795D03*
X022732Y019295D03*
X023732Y019295D03*
X023732Y020545D03*
X022732Y020545D03*
X023732Y021670D03*
X023732Y023670D03*
X015357Y009795D03*
X015357Y008795D03*
X012607Y008295D03*
X012607Y009295D03*
D19*
X014607Y006795D03*
X003982Y011670D03*
D20*
X004982Y011670D03*
X013607Y006795D03*
D21*
X013982Y017495D02*
X013982Y018095D01*
X012982Y018095D02*
X012982Y017495D01*
X014982Y017495D02*
X014982Y018095D01*
D22*
X013982Y023695D03*
D23*
X004982Y017670D03*
X004982Y013670D03*
D24*
X004334Y019859D03*
X003192Y021709D03*
X005515Y021709D03*
D25*
X013607Y015920D03*
X017857Y014795D03*
X017857Y012795D03*
X013607Y008295D03*
X022107Y018170D03*
X023732Y018170D03*
M02*
