G75*
%MOIN*%
%OFA0B0*%
%FSLAX24Y24*%
%IPPOS*%
%LPD*%
%AMOC8*
5,1,8,0,0,1.08239X$1,22.5*
%
%ADD10C,0.0520*%
%ADD11C,0.0630*%
%ADD12C,0.1378*%
%ADD13OC8,0.0600*%
%ADD14C,0.2000*%
%ADD15C,0.0520*%
%ADD16OC8,0.0520*%
%ADD17OC8,0.0630*%
%ADD18C,0.0630*%
%ADD19C,0.0600*%
%ADD20C,0.0760*%
%ADD21C,0.1890*%
%ADD22R,0.0900X0.1100*%
%ADD23C,0.0120*%
%ADD24C,0.0160*%
%ADD25C,0.0320*%
%ADD26C,0.0140*%
%ADD27C,0.0669*%
D10*
X007847Y002295D02*
X008367Y002295D01*
X008367Y003295D02*
X007847Y003295D01*
X007847Y004295D02*
X008367Y004295D01*
X008367Y005295D02*
X007847Y005295D01*
X007847Y006295D02*
X008367Y006295D01*
X008367Y007295D02*
X007847Y007295D01*
X007847Y008295D02*
X008367Y008295D01*
X008367Y009295D02*
X007847Y009295D01*
X007847Y010295D02*
X008367Y010295D01*
X008367Y011295D02*
X007847Y011295D01*
X007847Y012295D02*
X008367Y012295D01*
X008367Y013295D02*
X007847Y013295D01*
X007847Y014295D02*
X008367Y014295D01*
X008367Y015295D02*
X007847Y015295D01*
X010847Y015295D02*
X011367Y015295D01*
X011367Y014295D02*
X010847Y014295D01*
X010847Y013295D02*
X011367Y013295D01*
X011367Y012295D02*
X010847Y012295D01*
X010847Y011295D02*
X011367Y011295D01*
X011367Y010295D02*
X010847Y010295D01*
X010847Y009295D02*
X011367Y009295D01*
X011367Y008295D02*
X010847Y008295D01*
X010847Y007295D02*
X011367Y007295D01*
X011367Y006295D02*
X010847Y006295D01*
X010847Y005295D02*
X011367Y005295D01*
X011367Y004295D02*
X010847Y004295D01*
X010847Y003295D02*
X011367Y003295D01*
X011367Y002295D02*
X010847Y002295D01*
X016472Y005795D02*
X016992Y005795D01*
X016992Y006795D02*
X016472Y006795D01*
X016472Y007795D02*
X016992Y007795D01*
X016992Y008795D02*
X016472Y008795D01*
X016472Y009795D02*
X016992Y009795D01*
X016992Y010795D02*
X016472Y010795D01*
X016472Y011795D02*
X016992Y011795D01*
X016992Y012795D02*
X016472Y012795D01*
X016472Y013795D02*
X016992Y013795D01*
X016992Y014795D02*
X016472Y014795D01*
X019472Y014795D02*
X019992Y014795D01*
X019992Y013795D02*
X019472Y013795D01*
X019472Y012795D02*
X019992Y012795D01*
X019992Y011795D02*
X019472Y011795D01*
X019472Y010795D02*
X019992Y010795D01*
X019992Y009795D02*
X019472Y009795D01*
X019472Y008795D02*
X019992Y008795D01*
X019992Y007795D02*
X019472Y007795D01*
X019472Y006795D02*
X019992Y006795D01*
X019992Y005795D02*
X019472Y005795D01*
D11*
X025152Y020206D03*
X026136Y020206D03*
X026136Y021033D03*
X026136Y022057D03*
X026136Y022884D03*
X025152Y022884D03*
D12*
X027232Y024295D03*
X027632Y021545D03*
X027232Y018795D03*
D13*
X024482Y013580D03*
X024482Y012500D03*
X025482Y011960D03*
X024482Y011420D03*
X025482Y010880D03*
X024482Y010340D03*
X025482Y009800D03*
X024482Y009260D03*
X025482Y013040D03*
X015232Y003670D03*
X014232Y003670D03*
X013232Y003670D03*
X013232Y002670D03*
X014232Y002670D03*
X015232Y002670D03*
D14*
X024982Y006490D03*
X024982Y016350D03*
D15*
X005357Y008245D03*
X005357Y006345D03*
D16*
X003482Y006045D03*
X003482Y005045D03*
X003482Y008545D03*
X003482Y009545D03*
X006732Y012670D03*
X006732Y015670D03*
X010482Y017795D03*
X011482Y017795D03*
X016357Y017795D03*
X017357Y017795D03*
X022732Y019295D03*
X023732Y019295D03*
X023732Y020545D03*
X022732Y020545D03*
X023732Y021670D03*
X023732Y023670D03*
X015357Y009795D03*
X015357Y008795D03*
X012607Y008295D03*
X012607Y009295D03*
D17*
X014607Y006795D03*
X003982Y011670D03*
D18*
X004982Y011670D03*
X013607Y006795D03*
D19*
X013982Y017495D02*
X013982Y018095D01*
X012982Y018095D02*
X012982Y017495D01*
X014982Y017495D02*
X014982Y018095D01*
D20*
X004982Y017670D03*
X004982Y013670D03*
D21*
X004334Y019859D03*
X003192Y021709D03*
X005515Y021709D03*
D22*
X005677Y023795D03*
X007288Y023795D03*
D23*
X019732Y011795D02*
X020732Y011795D01*
X020857Y011670D01*
X020857Y006920D01*
X020732Y006795D01*
X019732Y006795D01*
X019732Y005795D02*
X018982Y005795D01*
X018607Y006170D01*
X018607Y009420D01*
X018982Y009795D01*
X019732Y009795D01*
X019732Y010795D02*
X018982Y010795D01*
X017982Y009795D01*
X017982Y006045D01*
X017732Y005795D01*
X016732Y005795D01*
D24*
X015232Y004045D02*
X015232Y003670D01*
X015232Y004045D02*
X014232Y005045D01*
X012107Y005045D01*
X011857Y005295D01*
X011107Y005295D01*
X010482Y004795D02*
X010357Y004920D01*
X010357Y006170D01*
X010482Y006295D01*
X011107Y006295D01*
X009982Y007045D02*
X009357Y007670D01*
X009357Y008170D01*
X008732Y008795D01*
X007607Y008795D01*
X006732Y009670D01*
X006732Y012670D01*
X006732Y014670D01*
X007357Y015295D01*
X008107Y015295D01*
X007482Y014795D02*
X016732Y014795D01*
X017857Y014795D02*
X018607Y014795D01*
X019107Y015295D01*
X020607Y015295D01*
X022732Y017420D01*
X022732Y019295D01*
X022107Y019920D01*
X022107Y021295D01*
X023696Y022884D01*
X025152Y022884D01*
X024345Y022057D02*
X024220Y022182D01*
X023494Y022182D01*
X022732Y021420D01*
X022732Y020545D01*
X023232Y019920D01*
X023232Y018670D01*
X023107Y018545D01*
X023107Y017170D01*
X020232Y014295D01*
X019232Y014295D01*
X018482Y013545D01*
X017607Y013545D01*
X017357Y013295D01*
X015982Y013295D01*
X014982Y012295D01*
X011107Y012295D01*
X011107Y013295D02*
X011857Y013295D01*
X012357Y013795D01*
X016732Y013795D01*
X017857Y012795D02*
X017482Y012295D01*
X015982Y012295D01*
X014982Y011295D01*
X011107Y011295D01*
X010482Y013795D02*
X011732Y013795D01*
X012232Y014295D01*
X018607Y014295D01*
X019107Y014795D01*
X019732Y014795D01*
X019732Y013795D02*
X023857Y013795D01*
X024357Y014295D01*
X025232Y014295D01*
X026232Y013295D01*
X026232Y011795D01*
X025857Y011420D01*
X024482Y011420D01*
X024022Y010880D02*
X025482Y010880D01*
X025482Y011960D02*
X025107Y012335D01*
X025107Y012545D01*
X024982Y012670D01*
X024982Y012795D01*
X024732Y013045D01*
X024107Y013045D01*
X023857Y013295D01*
X019232Y013295D01*
X018857Y012920D01*
X018857Y012795D01*
X017857Y011795D01*
X016732Y011795D01*
X016732Y010795D02*
X017982Y010795D01*
X018982Y011795D01*
X018982Y012045D01*
X019232Y012295D01*
X022607Y012295D01*
X024022Y010880D01*
X023902Y012500D02*
X024482Y012500D01*
X023902Y012500D02*
X023607Y012795D01*
X019732Y012795D01*
X013732Y004670D02*
X011857Y004670D01*
X011732Y004795D01*
X010482Y004795D01*
X009982Y004420D02*
X009982Y007045D01*
X008107Y007295D02*
X006307Y007295D01*
X005357Y008245D01*
X003807Y008245D01*
X003482Y008545D01*
X003807Y006345D02*
X003482Y006045D01*
X003807Y006345D02*
X005357Y006345D01*
X005407Y006295D01*
X008107Y006295D01*
X009982Y004420D02*
X010607Y003795D01*
X011607Y003795D01*
X011732Y003670D01*
X013232Y003670D01*
X013732Y004045D02*
X013482Y004295D01*
X011107Y004295D01*
X013732Y004045D02*
X013732Y003170D01*
X014232Y002670D01*
X014232Y003670D02*
X014232Y004170D01*
X013732Y004670D01*
X008107Y013295D02*
X007482Y013295D01*
X007357Y013420D01*
X007357Y014670D01*
X007482Y014795D01*
X008107Y014295D02*
X009982Y014295D01*
X010482Y013795D01*
X024345Y022057D02*
X026136Y022057D01*
D25*
X026136Y022884D02*
X026136Y023641D01*
X026107Y023670D01*
X023732Y023670D01*
X022107Y023670D01*
X017357Y018920D01*
X017357Y017795D01*
X016357Y017795D02*
X016357Y015920D01*
X019857Y015920D01*
X022107Y018170D01*
X023732Y018170D02*
X023732Y019295D01*
X025857Y019295D01*
X026136Y019574D01*
X026136Y020206D01*
X023732Y020545D02*
X023732Y019295D01*
X023732Y020545D02*
X023732Y021670D01*
X017357Y018920D02*
X013982Y018920D01*
X013982Y017795D01*
X012982Y017795D02*
X011482Y017795D01*
X010607Y016920D01*
X006732Y016920D01*
X004982Y015170D01*
X004982Y013670D01*
X004982Y011670D01*
X003982Y011670D02*
X002732Y011670D01*
X002732Y009545D01*
X002732Y005045D01*
X003482Y005045D01*
X006982Y005045D01*
X006982Y001420D01*
X013232Y001420D01*
X016732Y001420D01*
X023107Y001420D01*
X023107Y007170D01*
X024482Y008545D01*
X024482Y009260D01*
X017607Y009670D02*
X017607Y006920D01*
X017482Y006795D01*
X016732Y006795D01*
X014607Y006795D01*
X014607Y006170D01*
X016732Y004045D01*
X016732Y001420D01*
X015732Y002670D02*
X015232Y002670D01*
X015732Y002670D02*
X015982Y002920D01*
X015982Y003920D01*
X013607Y006295D01*
X013607Y006795D01*
X013607Y008295D01*
X014857Y008295D01*
X015357Y008795D01*
X016732Y008795D01*
X016732Y009795D02*
X015357Y009795D01*
X014857Y009295D01*
X012607Y009295D01*
X011107Y009295D01*
X009857Y008420D02*
X008982Y009295D01*
X008107Y009295D01*
X008107Y008295D02*
X007357Y008295D01*
X006107Y009545D01*
X003482Y009545D01*
X002732Y009545D01*
X002732Y011670D02*
X002732Y016920D01*
X002732Y020170D01*
X003107Y020545D01*
X003147Y021709D01*
X003192Y021709D01*
X005515Y021709D02*
X005608Y021803D01*
X005608Y023670D01*
X005677Y023795D01*
X007038Y022601D02*
X007232Y022795D01*
X007232Y023739D01*
X007288Y023795D01*
X007038Y022601D02*
X007038Y019726D01*
X004982Y017670D01*
X005607Y016920D02*
X006482Y017795D01*
X010482Y017795D01*
X011607Y018920D01*
X013982Y018920D01*
X014982Y017795D02*
X016357Y017795D01*
X016357Y015920D02*
X013607Y015920D01*
X011857Y015920D01*
X011607Y016170D01*
X007232Y016170D01*
X006732Y015670D01*
X005607Y016920D02*
X002732Y016920D01*
X009857Y008420D02*
X009857Y007920D01*
X010482Y007295D01*
X011107Y007295D01*
X012107Y007295D01*
X012607Y007795D01*
X012607Y008295D01*
X013607Y008295D01*
X016732Y009795D02*
X017482Y009795D01*
X017607Y009670D01*
X013232Y002670D02*
X013232Y001420D01*
D26*
X001702Y001140D02*
X001702Y028071D01*
X028132Y028071D01*
X028132Y024523D01*
X028011Y024816D01*
X027753Y025074D01*
X027415Y025214D01*
X027049Y025214D01*
X026712Y025074D01*
X026453Y024816D01*
X026313Y024478D01*
X026313Y024112D01*
X026453Y023774D01*
X026712Y023516D01*
X027049Y023376D01*
X027415Y023376D01*
X027753Y023516D01*
X028011Y023774D01*
X028132Y024067D01*
X028132Y022332D01*
X027815Y022464D01*
X027449Y022464D01*
X027111Y022324D01*
X026853Y022066D01*
X026713Y021728D01*
X026713Y021362D01*
X026853Y021024D01*
X027111Y020766D01*
X027449Y020626D01*
X027815Y020626D01*
X028132Y020758D01*
X028132Y019023D01*
X028011Y019316D01*
X027753Y019574D01*
X027415Y019714D01*
X027049Y019714D01*
X026712Y019574D01*
X026453Y019316D01*
X026313Y018978D01*
X026313Y018612D01*
X026453Y018274D01*
X026712Y018016D01*
X027049Y017876D01*
X027415Y017876D01*
X027753Y018016D01*
X028011Y018274D01*
X028132Y018567D01*
X028132Y001140D01*
X001702Y001140D01*
X001702Y001224D02*
X028132Y001224D01*
X028132Y001363D02*
X026611Y001363D01*
X026664Y001377D02*
X026920Y001524D01*
X027128Y001733D01*
X027276Y001988D01*
X027352Y002273D01*
X027352Y002567D01*
X027276Y002852D01*
X027128Y003107D01*
X026920Y003316D01*
X026664Y003463D01*
X026380Y003540D01*
X026085Y003540D01*
X025800Y003463D01*
X025545Y003316D01*
X025336Y003107D01*
X025189Y002852D01*
X025113Y002567D01*
X025113Y002273D01*
X025189Y001988D01*
X025336Y001733D01*
X025545Y001524D01*
X025800Y001377D01*
X026085Y001300D01*
X026380Y001300D01*
X026664Y001377D01*
X026880Y001501D02*
X028132Y001501D01*
X028132Y001640D02*
X027035Y001640D01*
X027154Y001778D02*
X028132Y001778D01*
X028132Y001917D02*
X027234Y001917D01*
X027294Y002055D02*
X028132Y002055D01*
X028132Y002194D02*
X027331Y002194D01*
X027352Y002332D02*
X028132Y002332D01*
X028132Y002471D02*
X027352Y002471D01*
X027341Y002609D02*
X028132Y002609D01*
X028132Y002748D02*
X027304Y002748D01*
X027256Y002886D02*
X028132Y002886D01*
X028132Y003025D02*
X027176Y003025D01*
X027073Y003163D02*
X028132Y003163D01*
X028132Y003302D02*
X026934Y003302D01*
X026705Y003440D02*
X028132Y003440D01*
X028132Y003579D02*
X016372Y003579D01*
X016372Y003717D02*
X028132Y003717D01*
X028132Y003856D02*
X016372Y003856D01*
X016372Y003994D02*
X028132Y003994D01*
X028132Y004133D02*
X016316Y004133D01*
X016313Y004141D02*
X016203Y004251D01*
X014018Y006435D01*
X014069Y006486D01*
X014122Y006614D01*
X014122Y006594D01*
X014406Y006310D01*
X014597Y006310D01*
X014597Y006785D01*
X014617Y006785D01*
X014617Y006310D01*
X014808Y006310D01*
X015092Y006594D01*
X015092Y006785D01*
X014617Y006785D01*
X014617Y006805D01*
X014597Y006805D01*
X014597Y007280D01*
X014406Y007280D01*
X014122Y006996D01*
X014122Y006976D01*
X014069Y007104D01*
X013997Y007176D01*
X013997Y007886D01*
X014016Y007905D01*
X014935Y007905D01*
X015078Y007964D01*
X015419Y008305D01*
X015560Y008305D01*
X015660Y008405D01*
X016169Y008405D01*
X016195Y008380D01*
X016375Y008305D01*
X017090Y008305D01*
X017270Y008380D01*
X017408Y008517D01*
X017482Y008698D01*
X017482Y008892D01*
X017408Y009073D01*
X017270Y009210D01*
X017090Y009285D01*
X016375Y009285D01*
X016195Y009210D01*
X016169Y009185D01*
X015660Y009185D01*
X015560Y009285D01*
X015154Y009285D01*
X014867Y008998D01*
X014867Y008857D01*
X014696Y008685D01*
X014016Y008685D01*
X013927Y008774D01*
X013720Y008860D01*
X013495Y008860D01*
X013287Y008774D01*
X013199Y008685D01*
X012910Y008685D01*
X012810Y008785D01*
X012404Y008785D01*
X012117Y008498D01*
X012117Y008092D01*
X012217Y007992D01*
X012217Y007957D01*
X011946Y007685D01*
X011670Y007685D01*
X011645Y007710D01*
X011465Y007785D01*
X010750Y007785D01*
X010604Y007725D01*
X010247Y008082D01*
X010247Y008498D01*
X010188Y008641D01*
X009313Y009516D01*
X009203Y009626D01*
X009060Y009685D01*
X008670Y009685D01*
X008645Y009710D01*
X008465Y009785D01*
X007750Y009785D01*
X007570Y009710D01*
X007432Y009573D01*
X007384Y009457D01*
X007042Y009798D01*
X007042Y012287D01*
X007222Y012467D01*
X007222Y012873D01*
X007042Y013053D01*
X007042Y014542D01*
X007047Y014547D01*
X007047Y013358D01*
X007094Y013244D01*
X007182Y013157D01*
X007307Y013032D01*
X007421Y012985D01*
X007464Y012985D01*
X007570Y012880D01*
X007750Y012805D01*
X008465Y012805D01*
X008645Y012880D01*
X008783Y013017D01*
X008857Y013198D01*
X008857Y013392D01*
X008783Y013573D01*
X008645Y013710D01*
X008465Y013785D01*
X007750Y013785D01*
X007667Y013751D01*
X007667Y013839D01*
X007750Y013805D01*
X008465Y013805D01*
X008645Y013880D01*
X008750Y013985D01*
X009854Y013985D01*
X010219Y013619D01*
X010307Y013532D01*
X010399Y013494D01*
X010357Y013392D01*
X010357Y013198D01*
X010432Y013017D01*
X010570Y012880D01*
X010750Y012805D01*
X011465Y012805D01*
X011645Y012880D01*
X011750Y012985D01*
X011919Y012985D01*
X012033Y013032D01*
X012486Y013485D01*
X015734Y013485D01*
X014854Y012605D01*
X011750Y012605D01*
X011645Y012710D01*
X011465Y012785D01*
X010750Y012785D01*
X010570Y012710D01*
X010432Y012573D01*
X010357Y012392D01*
X010357Y012198D01*
X010432Y012017D01*
X010570Y011880D01*
X010750Y011805D01*
X011465Y011805D01*
X011645Y011880D01*
X011750Y011985D01*
X015044Y011985D01*
X015158Y012032D01*
X015982Y012857D01*
X015982Y012698D01*
X016021Y012605D01*
X015921Y012605D01*
X015807Y012558D01*
X015719Y012471D01*
X015719Y012471D01*
X014854Y011605D01*
X011750Y011605D01*
X011645Y011710D01*
X011465Y011785D01*
X010750Y011785D01*
X010570Y011710D01*
X010432Y011573D01*
X010357Y011392D01*
X010357Y011198D01*
X010432Y011017D01*
X010570Y010880D01*
X010750Y010805D01*
X011465Y010805D01*
X011645Y010880D01*
X011750Y010985D01*
X015044Y010985D01*
X015158Y011032D01*
X015245Y011119D01*
X015245Y011119D01*
X015982Y011857D01*
X015982Y011698D01*
X016057Y011517D01*
X016195Y011380D01*
X016375Y011305D01*
X017090Y011305D01*
X017270Y011380D01*
X017375Y011485D01*
X017919Y011485D01*
X018033Y011532D01*
X018718Y012218D01*
X018672Y012107D01*
X018672Y011923D01*
X017854Y011105D01*
X017375Y011105D01*
X017270Y011210D01*
X017090Y011285D01*
X016375Y011285D01*
X016195Y011210D01*
X016057Y011073D01*
X015982Y010892D01*
X015982Y010698D01*
X016057Y010517D01*
X016195Y010380D01*
X016375Y010305D01*
X017090Y010305D01*
X017270Y010380D01*
X017375Y010485D01*
X018044Y010485D01*
X018158Y010532D01*
X019100Y011474D01*
X019195Y011380D01*
X019375Y011305D01*
X020090Y011305D01*
X020270Y011380D01*
X020395Y011505D01*
X020567Y011505D01*
X020567Y007085D01*
X020395Y007085D01*
X020270Y007210D01*
X020090Y007285D01*
X019375Y007285D01*
X019195Y007210D01*
X019057Y007073D01*
X018982Y006892D01*
X018982Y006698D01*
X019057Y006517D01*
X019195Y006380D01*
X019375Y006305D01*
X020090Y006305D01*
X020270Y006380D01*
X020395Y006505D01*
X020790Y006505D01*
X020897Y006549D01*
X021022Y006674D01*
X021103Y006756D01*
X021147Y006862D01*
X021147Y011728D01*
X021103Y011834D01*
X020978Y011959D01*
X020952Y011985D01*
X022479Y011985D01*
X023759Y010704D01*
X023847Y010617D01*
X023961Y010570D01*
X023963Y010570D01*
X023952Y010560D01*
X023952Y010120D01*
X024263Y009810D01*
X024702Y009810D01*
X025012Y010120D01*
X025012Y010560D01*
X025002Y010570D01*
X025043Y010570D01*
X025263Y010350D01*
X025702Y010350D01*
X026012Y010660D01*
X026012Y011100D01*
X025978Y011134D01*
X026033Y011157D01*
X026408Y011532D01*
X026495Y011619D01*
X026542Y011733D01*
X026542Y013357D01*
X026495Y013471D01*
X025495Y014471D01*
X025408Y014558D01*
X025294Y014605D01*
X024296Y014605D01*
X024182Y014558D01*
X023729Y014105D01*
X020481Y014105D01*
X023283Y016907D01*
X023370Y016994D01*
X023417Y017108D01*
X023417Y017689D01*
X023620Y017605D01*
X023845Y017605D01*
X024052Y017691D01*
X024211Y017850D01*
X024297Y018058D01*
X024297Y018282D01*
X024211Y018490D01*
X024122Y018579D01*
X024122Y018905D01*
X025935Y018905D01*
X026078Y018964D01*
X026188Y019074D01*
X026466Y019353D01*
X026526Y019496D01*
X026526Y019826D01*
X026598Y019898D01*
X026681Y020098D01*
X026681Y020315D01*
X026598Y020515D01*
X026493Y020620D01*
X026598Y020724D01*
X026681Y020925D01*
X026681Y021142D01*
X026598Y021342D01*
X026445Y021495D01*
X026324Y021545D01*
X026445Y021595D01*
X026598Y021748D01*
X026681Y021948D01*
X026681Y022165D01*
X026598Y022366D01*
X026451Y022513D01*
X026452Y022514D01*
X026506Y022568D01*
X026551Y022629D01*
X026585Y022697D01*
X026609Y022770D01*
X026621Y022845D01*
X026621Y022860D01*
X026159Y022860D01*
X026159Y022907D01*
X026112Y022907D01*
X026112Y023369D01*
X026098Y023369D01*
X026022Y023357D01*
X025950Y023333D01*
X025882Y023298D01*
X025820Y023253D01*
X025766Y023200D01*
X025721Y023138D01*
X025686Y023070D01*
X025677Y023040D01*
X025614Y023192D01*
X025460Y023346D01*
X025260Y023429D01*
X025043Y023429D01*
X024843Y023346D01*
X024691Y023194D01*
X023634Y023194D01*
X023520Y023146D01*
X023433Y023059D01*
X021844Y021471D01*
X021797Y021357D01*
X021797Y019858D01*
X021844Y019744D01*
X021932Y019657D01*
X022242Y019347D01*
X022242Y019092D01*
X022422Y018912D01*
X022422Y018651D01*
X022220Y018735D01*
X021995Y018735D01*
X021787Y018649D01*
X021629Y018490D01*
X021543Y018282D01*
X021543Y018157D01*
X019696Y016310D01*
X016747Y016310D01*
X016747Y017492D01*
X016847Y017592D01*
X016847Y017998D01*
X016560Y018285D01*
X016154Y018285D01*
X016054Y018185D01*
X015512Y018185D01*
X015512Y018200D01*
X015432Y018395D01*
X015283Y018544D01*
X015088Y018625D01*
X014877Y018625D01*
X014682Y018544D01*
X014533Y018395D01*
X014452Y018200D01*
X014452Y017390D01*
X014533Y017195D01*
X014682Y017046D01*
X014877Y016965D01*
X015088Y016965D01*
X015283Y017046D01*
X015432Y017195D01*
X015512Y017390D01*
X015512Y017405D01*
X015967Y017405D01*
X015967Y016310D01*
X014016Y016310D01*
X013927Y016399D01*
X013720Y016485D01*
X013495Y016485D01*
X013287Y016399D01*
X013199Y016310D01*
X012019Y016310D01*
X011938Y016391D01*
X011828Y016501D01*
X011685Y016560D01*
X010757Y016560D01*
X010828Y016589D01*
X010938Y016699D01*
X011544Y017305D01*
X011685Y017305D01*
X011785Y017405D01*
X012452Y017405D01*
X012452Y017390D01*
X012533Y017195D01*
X012682Y017046D01*
X012877Y016965D01*
X013088Y016965D01*
X013283Y017046D01*
X013432Y017195D01*
X013512Y017390D01*
X013512Y018200D01*
X013432Y018395D01*
X013283Y018544D01*
X013088Y018625D01*
X012877Y018625D01*
X012682Y018544D01*
X012533Y018395D01*
X012452Y018200D01*
X012452Y018185D01*
X011785Y018185D01*
X011685Y018285D01*
X011279Y018285D01*
X010992Y017998D01*
X010992Y017857D01*
X010912Y017777D01*
X010912Y017785D01*
X010492Y017785D01*
X010492Y017365D01*
X010501Y017365D01*
X010446Y017310D01*
X006655Y017310D01*
X006511Y017251D01*
X006402Y017141D01*
X004652Y015391D01*
X004592Y015248D01*
X004592Y014143D01*
X004465Y014016D01*
X004372Y013791D01*
X004372Y013549D01*
X004465Y013324D01*
X004592Y013197D01*
X004592Y012051D01*
X004520Y011979D01*
X004467Y011851D01*
X004467Y011871D01*
X004183Y012155D01*
X003992Y012155D01*
X003992Y011680D01*
X003972Y011680D01*
X003972Y011660D01*
X003497Y011660D01*
X003497Y011469D01*
X003781Y011185D01*
X003972Y011185D01*
X003972Y011660D01*
X003992Y011660D01*
X003992Y011185D01*
X004183Y011185D01*
X004467Y011469D01*
X004467Y011489D01*
X004520Y011361D01*
X004674Y011208D01*
X004874Y011125D01*
X005091Y011125D01*
X005291Y011208D01*
X005444Y011361D01*
X005527Y011562D01*
X005527Y011778D01*
X005444Y011979D01*
X005372Y012051D01*
X005372Y013197D01*
X005499Y013324D01*
X005592Y013549D01*
X005592Y013791D01*
X005499Y014016D01*
X005372Y014143D01*
X005372Y015008D01*
X006894Y016530D01*
X007082Y016530D01*
X007011Y016501D01*
X006671Y016160D01*
X006529Y016160D01*
X006242Y015873D01*
X006242Y015467D01*
X006529Y015180D01*
X006804Y015180D01*
X006469Y014846D01*
X006422Y014732D01*
X006422Y013053D01*
X006242Y012873D01*
X006242Y012467D01*
X006422Y012287D01*
X006422Y009608D01*
X006469Y009494D01*
X007432Y008532D01*
X007476Y008514D01*
X007449Y008460D01*
X007428Y008396D01*
X007417Y008329D01*
X007417Y008305D01*
X008097Y008305D01*
X008097Y008285D01*
X007417Y008285D01*
X007417Y008261D01*
X007428Y008194D01*
X007449Y008130D01*
X007480Y008070D01*
X007519Y008015D01*
X007567Y007967D01*
X007622Y007927D01*
X007682Y007897D01*
X007747Y007876D01*
X007813Y007865D01*
X008097Y007865D01*
X008097Y008285D01*
X008117Y008285D01*
X008117Y007865D01*
X008401Y007865D01*
X008468Y007876D01*
X008532Y007897D01*
X008593Y007927D01*
X008647Y007967D01*
X008695Y008015D01*
X008735Y008070D01*
X008766Y008130D01*
X008787Y008194D01*
X008797Y008261D01*
X008797Y008285D01*
X008117Y008285D01*
X008117Y008305D01*
X008784Y008305D01*
X009047Y008042D01*
X009047Y007608D01*
X009094Y007494D01*
X009182Y007407D01*
X009672Y006917D01*
X009672Y004358D01*
X009719Y004244D01*
X009807Y004157D01*
X010420Y003544D01*
X010357Y003392D01*
X010357Y003198D01*
X010432Y003017D01*
X010570Y002880D01*
X010750Y002805D01*
X011465Y002805D01*
X011645Y002880D01*
X011783Y003017D01*
X011857Y003198D01*
X011857Y003360D01*
X012793Y003360D01*
X013013Y003140D01*
X013422Y003140D01*
X013262Y003140D01*
X013262Y002700D01*
X013202Y002700D01*
X013202Y002640D01*
X012762Y002640D01*
X012762Y002475D01*
X013038Y002200D01*
X013202Y002200D01*
X013202Y002640D01*
X013262Y002640D01*
X013262Y002200D01*
X013427Y002200D01*
X013702Y002475D01*
X013702Y002640D01*
X013262Y002640D01*
X013262Y002700D01*
X013702Y002700D01*
X013702Y002762D01*
X013702Y002762D01*
X013702Y002450D01*
X014013Y002140D01*
X014452Y002140D01*
X014732Y002420D01*
X015013Y002140D01*
X015452Y002140D01*
X015592Y002280D01*
X015810Y002280D01*
X015953Y002339D01*
X016063Y002449D01*
X016313Y002699D01*
X016372Y002842D01*
X016372Y003998D01*
X016313Y004141D01*
X016183Y004271D02*
X028132Y004271D01*
X028132Y004410D02*
X016044Y004410D01*
X015906Y004548D02*
X028132Y004548D01*
X028132Y004687D02*
X015767Y004687D01*
X015629Y004825D02*
X028132Y004825D01*
X028132Y004964D02*
X015490Y004964D01*
X015352Y005102D02*
X028132Y005102D01*
X028132Y005241D02*
X015213Y005241D01*
X015075Y005379D02*
X016196Y005379D01*
X016195Y005380D02*
X016375Y005305D01*
X017090Y005305D01*
X017270Y005380D01*
X017395Y005505D01*
X017790Y005505D01*
X017897Y005549D01*
X018147Y005799D01*
X018228Y005881D01*
X018272Y005987D01*
X018272Y009675D01*
X019086Y010488D01*
X019195Y010380D01*
X019375Y010305D01*
X020090Y010305D01*
X020270Y010380D01*
X020408Y010517D01*
X020482Y010698D01*
X020482Y010892D01*
X020408Y011073D01*
X020270Y011210D01*
X020090Y011285D01*
X019375Y011285D01*
X019195Y011210D01*
X019069Y011085D01*
X018925Y011085D01*
X018818Y011041D01*
X018736Y010959D01*
X017736Y009959D01*
X017692Y009853D01*
X017692Y006165D01*
X017612Y006085D01*
X017395Y006085D01*
X017270Y006210D01*
X017692Y006210D01*
X017692Y006349D02*
X014847Y006349D01*
X014985Y006487D02*
X016172Y006487D01*
X016192Y006467D02*
X016247Y006427D01*
X016307Y006397D01*
X016372Y006376D01*
X016438Y006365D01*
X016722Y006365D01*
X016722Y006785D01*
X016042Y006785D01*
X016042Y006761D01*
X016053Y006694D01*
X016074Y006630D01*
X016105Y006570D01*
X016144Y006515D01*
X016192Y006467D01*
X016076Y006626D02*
X015092Y006626D01*
X015092Y006764D02*
X016042Y006764D01*
X016042Y006805D02*
X016722Y006805D01*
X016722Y006785D01*
X016742Y006785D01*
X016742Y006365D01*
X017026Y006365D01*
X017093Y006376D01*
X017157Y006397D01*
X017218Y006427D01*
X017272Y006467D01*
X017320Y006515D01*
X017360Y006570D01*
X017391Y006630D01*
X017412Y006694D01*
X017422Y006761D01*
X017422Y006785D01*
X016742Y006785D01*
X016742Y006805D01*
X016722Y006805D01*
X016722Y007225D01*
X016438Y007225D01*
X016372Y007214D01*
X016307Y007193D01*
X016247Y007163D01*
X016192Y007123D01*
X016144Y007075D01*
X016105Y007020D01*
X016074Y006960D01*
X016053Y006896D01*
X016042Y006829D01*
X016042Y006805D01*
X016055Y006903D02*
X015092Y006903D01*
X015092Y006996D02*
X015092Y006805D01*
X014617Y006805D01*
X014617Y007280D01*
X014808Y007280D01*
X015092Y006996D01*
X015047Y007041D02*
X016120Y007041D01*
X016280Y007180D02*
X014909Y007180D01*
X014617Y007180D02*
X014597Y007180D01*
X014597Y007041D02*
X014617Y007041D01*
X014617Y006903D02*
X014597Y006903D01*
X014597Y006764D02*
X014617Y006764D01*
X014617Y006626D02*
X014597Y006626D01*
X014597Y006487D02*
X014617Y006487D01*
X014617Y006349D02*
X014597Y006349D01*
X014368Y006349D02*
X014105Y006349D01*
X014070Y006487D02*
X014229Y006487D01*
X014244Y006210D02*
X016194Y006210D01*
X016195Y006210D02*
X016057Y006073D01*
X015982Y005892D01*
X015982Y005698D01*
X016057Y005517D01*
X016195Y005380D01*
X016057Y005518D02*
X014936Y005518D01*
X014798Y005656D02*
X015999Y005656D01*
X015982Y005795D02*
X014659Y005795D01*
X014521Y005933D02*
X015999Y005933D01*
X016056Y006072D02*
X014382Y006072D01*
X014167Y007041D02*
X014095Y007041D01*
X013997Y007180D02*
X014306Y007180D01*
X013997Y007318D02*
X016343Y007318D01*
X016375Y007305D02*
X017090Y007305D01*
X017270Y007380D01*
X017408Y007517D01*
X017482Y007698D01*
X017482Y007892D01*
X017408Y008073D01*
X017270Y008210D01*
X017090Y008285D01*
X016375Y008285D01*
X016195Y008210D01*
X016057Y008073D01*
X015982Y007892D01*
X015982Y007698D01*
X016057Y007517D01*
X016195Y007380D01*
X016375Y007305D01*
X016118Y007457D02*
X013997Y007457D01*
X013997Y007595D02*
X016025Y007595D01*
X015982Y007734D02*
X013997Y007734D01*
X013997Y007872D02*
X015982Y007872D01*
X016031Y008011D02*
X015124Y008011D01*
X015263Y008149D02*
X016133Y008149D01*
X015401Y008288D02*
X017692Y008288D01*
X017692Y008426D02*
X017316Y008426D01*
X017427Y008565D02*
X017692Y008565D01*
X017692Y008703D02*
X017482Y008703D01*
X017482Y008842D02*
X017692Y008842D01*
X017692Y008980D02*
X017446Y008980D01*
X017362Y009119D02*
X017692Y009119D01*
X017692Y009257D02*
X017157Y009257D01*
X017093Y009376D02*
X017026Y009365D01*
X016742Y009365D01*
X016742Y009785D01*
X016722Y009785D01*
X016042Y009785D01*
X016042Y009761D01*
X016053Y009694D01*
X016074Y009630D01*
X016105Y009570D01*
X016144Y009515D01*
X016192Y009467D01*
X016247Y009427D01*
X016307Y009397D01*
X016372Y009376D01*
X016438Y009365D01*
X016722Y009365D01*
X016722Y009785D01*
X016722Y009805D01*
X016042Y009805D01*
X016042Y009829D01*
X016053Y009896D01*
X016074Y009960D01*
X016105Y010020D01*
X016144Y010075D01*
X016192Y010123D01*
X016247Y010163D01*
X016307Y010193D01*
X016372Y010214D01*
X016438Y010225D01*
X016722Y010225D01*
X016722Y009805D01*
X016742Y009805D01*
X016742Y010225D01*
X017026Y010225D01*
X017093Y010214D01*
X017157Y010193D01*
X017218Y010163D01*
X017272Y010123D01*
X017320Y010075D01*
X017360Y010020D01*
X017391Y009960D01*
X017412Y009896D01*
X017422Y009829D01*
X017422Y009805D01*
X016742Y009805D01*
X016742Y009785D01*
X017422Y009785D01*
X017422Y009761D01*
X017412Y009694D01*
X017391Y009630D01*
X017360Y009570D01*
X017320Y009515D01*
X017272Y009467D01*
X017218Y009427D01*
X017157Y009397D01*
X017093Y009376D01*
X017154Y009396D02*
X017692Y009396D01*
X017692Y009534D02*
X017334Y009534D01*
X017405Y009673D02*
X017692Y009673D01*
X017692Y009811D02*
X017422Y009811D01*
X017394Y009950D02*
X017732Y009950D01*
X017865Y010088D02*
X017307Y010088D01*
X017235Y010365D02*
X018142Y010365D01*
X018089Y010504D02*
X018281Y010504D01*
X018268Y010642D02*
X018419Y010642D01*
X018406Y010781D02*
X018558Y010781D01*
X018545Y010919D02*
X018696Y010919D01*
X018683Y011058D02*
X018858Y011058D01*
X018822Y011196D02*
X019180Y011196D01*
X019304Y011335D02*
X018960Y011335D01*
X019099Y011473D02*
X019101Y011473D01*
X018637Y011889D02*
X018389Y011889D01*
X018499Y011750D02*
X018251Y011750D01*
X018360Y011612D02*
X018112Y011612D01*
X018222Y011473D02*
X017363Y011473D01*
X017161Y011335D02*
X018083Y011335D01*
X017945Y011196D02*
X017284Y011196D01*
X016304Y011335D02*
X015460Y011335D01*
X015599Y011473D02*
X016101Y011473D01*
X016018Y011612D02*
X015737Y011612D01*
X015876Y011750D02*
X015982Y011750D01*
X016180Y011196D02*
X015322Y011196D01*
X015183Y011058D02*
X016051Y011058D01*
X015993Y010919D02*
X011684Y010919D01*
X011645Y010710D02*
X011465Y010785D01*
X010750Y010785D01*
X010570Y010710D01*
X010432Y010573D01*
X010357Y010392D01*
X010357Y010198D01*
X010432Y010017D01*
X010570Y009880D01*
X010750Y009805D01*
X011465Y009805D01*
X011645Y009880D01*
X011783Y010017D01*
X011857Y010198D01*
X011857Y010392D01*
X011783Y010573D01*
X011645Y010710D01*
X011713Y010642D02*
X016005Y010642D01*
X015982Y010781D02*
X011476Y010781D01*
X011811Y010504D02*
X016071Y010504D01*
X016230Y010365D02*
X011857Y010365D01*
X011857Y010227D02*
X018004Y010227D01*
X018408Y009811D02*
X018588Y009811D01*
X018547Y009950D02*
X018727Y009950D01*
X018736Y009959D02*
X018361Y009584D01*
X018317Y009478D01*
X018317Y006112D01*
X018361Y006006D01*
X018443Y005924D01*
X018818Y005549D01*
X018925Y005505D01*
X019069Y005505D01*
X019195Y005380D01*
X019375Y005305D01*
X020090Y005305D01*
X020270Y005380D01*
X020408Y005517D01*
X020482Y005698D01*
X020482Y005892D01*
X020408Y006073D01*
X020270Y006210D01*
X023784Y006210D01*
X023752Y006328D02*
X023836Y006015D01*
X023998Y005735D01*
X024227Y005506D01*
X024508Y005344D01*
X024820Y005260D01*
X025144Y005260D01*
X025457Y005344D01*
X025738Y005506D01*
X025967Y005735D01*
X026128Y006015D01*
X026212Y006328D01*
X026212Y006652D01*
X026128Y006965D01*
X025967Y007245D01*
X025738Y007474D01*
X025457Y007636D01*
X025144Y007720D01*
X024820Y007720D01*
X024508Y007636D01*
X024227Y007474D01*
X023998Y007245D01*
X023836Y006965D01*
X023752Y006652D01*
X023752Y006328D01*
X023752Y006349D02*
X020195Y006349D01*
X020090Y006285D02*
X019375Y006285D01*
X019195Y006210D01*
X019086Y006102D01*
X018897Y006290D01*
X018897Y009300D01*
X019086Y009488D01*
X019195Y009380D01*
X019375Y009305D01*
X020090Y009305D01*
X020270Y009380D01*
X020408Y009517D01*
X020482Y009698D01*
X020482Y009892D01*
X020408Y010073D01*
X020270Y010210D01*
X020090Y010285D01*
X019375Y010285D01*
X019195Y010210D01*
X019069Y010085D01*
X018925Y010085D01*
X018818Y010041D01*
X018736Y009959D01*
X018685Y010088D02*
X019072Y010088D01*
X019234Y010227D02*
X018824Y010227D01*
X018962Y010365D02*
X019230Y010365D01*
X018450Y009673D02*
X018272Y009673D01*
X018272Y009534D02*
X018341Y009534D01*
X018317Y009396D02*
X018272Y009396D01*
X018272Y009257D02*
X018317Y009257D01*
X018317Y009119D02*
X018272Y009119D01*
X018272Y008980D02*
X018317Y008980D01*
X018317Y008842D02*
X018272Y008842D01*
X018272Y008703D02*
X018317Y008703D01*
X018317Y008565D02*
X018272Y008565D01*
X018272Y008426D02*
X018317Y008426D01*
X018317Y008288D02*
X018272Y008288D01*
X018272Y008149D02*
X018317Y008149D01*
X018317Y008011D02*
X018272Y008011D01*
X018272Y007872D02*
X018317Y007872D01*
X018317Y007734D02*
X018272Y007734D01*
X018272Y007595D02*
X018317Y007595D01*
X018317Y007457D02*
X018272Y007457D01*
X018272Y007318D02*
X018317Y007318D01*
X018317Y007180D02*
X018272Y007180D01*
X018272Y007041D02*
X018317Y007041D01*
X018317Y006903D02*
X018272Y006903D01*
X018272Y006764D02*
X018317Y006764D01*
X018317Y006626D02*
X018272Y006626D01*
X018272Y006487D02*
X018317Y006487D01*
X018317Y006349D02*
X018272Y006349D01*
X018272Y006210D02*
X018317Y006210D01*
X018334Y006072D02*
X018272Y006072D01*
X018250Y005933D02*
X018434Y005933D01*
X018573Y005795D02*
X018142Y005795D01*
X018003Y005656D02*
X018711Y005656D01*
X018894Y005518D02*
X017820Y005518D01*
X017268Y005379D02*
X019196Y005379D01*
X019194Y006210D02*
X018977Y006210D01*
X018897Y006349D02*
X019270Y006349D01*
X019087Y006487D02*
X018897Y006487D01*
X018897Y006626D02*
X019012Y006626D01*
X018982Y006764D02*
X018897Y006764D01*
X018897Y006903D02*
X018986Y006903D01*
X019044Y007041D02*
X018897Y007041D01*
X018897Y007180D02*
X019164Y007180D01*
X019195Y007380D02*
X019375Y007305D01*
X020090Y007305D01*
X020270Y007380D01*
X020408Y007517D01*
X020482Y007698D01*
X020482Y007892D01*
X020408Y008073D01*
X020270Y008210D01*
X020090Y008285D01*
X019375Y008285D01*
X019195Y008210D01*
X019057Y008073D01*
X018982Y007892D01*
X018982Y007698D01*
X019057Y007517D01*
X019195Y007380D01*
X019118Y007457D02*
X018897Y007457D01*
X018897Y007595D02*
X019025Y007595D01*
X018982Y007734D02*
X018897Y007734D01*
X018897Y007872D02*
X018982Y007872D01*
X019031Y008011D02*
X018897Y008011D01*
X018897Y008149D02*
X019133Y008149D01*
X019195Y008380D02*
X019375Y008305D01*
X020090Y008305D01*
X020270Y008380D01*
X020408Y008517D01*
X020482Y008698D01*
X020482Y008892D01*
X020408Y009073D01*
X020270Y009210D01*
X020090Y009285D01*
X019375Y009285D01*
X019195Y009210D01*
X019057Y009073D01*
X018982Y008892D01*
X018982Y008698D01*
X019057Y008517D01*
X019195Y008380D01*
X019148Y008426D02*
X018897Y008426D01*
X018897Y008288D02*
X020567Y008288D01*
X020567Y008426D02*
X020316Y008426D01*
X020427Y008565D02*
X020567Y008565D01*
X020567Y008703D02*
X020482Y008703D01*
X020482Y008842D02*
X020567Y008842D01*
X020567Y008980D02*
X020446Y008980D01*
X020362Y009119D02*
X020567Y009119D01*
X020567Y009257D02*
X020157Y009257D01*
X020286Y009396D02*
X020567Y009396D01*
X020567Y009534D02*
X020415Y009534D01*
X020472Y009673D02*
X020567Y009673D01*
X020567Y009811D02*
X020482Y009811D01*
X020459Y009950D02*
X020567Y009950D01*
X020567Y010088D02*
X020392Y010088D01*
X020231Y010227D02*
X020567Y010227D01*
X020567Y010365D02*
X020235Y010365D01*
X020394Y010504D02*
X020567Y010504D01*
X020567Y010642D02*
X020459Y010642D01*
X020482Y010781D02*
X020567Y010781D01*
X020567Y010919D02*
X020471Y010919D01*
X020414Y011058D02*
X020567Y011058D01*
X020567Y011196D02*
X020284Y011196D01*
X020161Y011335D02*
X020567Y011335D01*
X020567Y011473D02*
X020363Y011473D01*
X021147Y011473D02*
X022991Y011473D01*
X023129Y011335D02*
X021147Y011335D01*
X021147Y011196D02*
X023268Y011196D01*
X023406Y011058D02*
X021147Y011058D01*
X021147Y010919D02*
X023545Y010919D01*
X023683Y010781D02*
X021147Y010781D01*
X021147Y010642D02*
X023822Y010642D01*
X023952Y010504D02*
X021147Y010504D01*
X021147Y010365D02*
X023952Y010365D01*
X023952Y010227D02*
X021147Y010227D01*
X021147Y010088D02*
X023985Y010088D01*
X024123Y009950D02*
X021147Y009950D01*
X021147Y009811D02*
X024262Y009811D01*
X024288Y009730D02*
X024012Y009455D01*
X024012Y009290D01*
X024452Y009290D01*
X024452Y009230D01*
X024012Y009230D01*
X024012Y009065D01*
X024288Y008790D01*
X024452Y008790D01*
X024452Y009230D01*
X024512Y009230D01*
X024512Y008790D01*
X024677Y008790D01*
X024952Y009065D01*
X024952Y009230D01*
X024512Y009230D01*
X024512Y009290D01*
X024452Y009290D01*
X024452Y009730D01*
X024288Y009730D01*
X024230Y009673D02*
X021147Y009673D01*
X021147Y009534D02*
X024092Y009534D01*
X024012Y009396D02*
X021147Y009396D01*
X021147Y009257D02*
X024452Y009257D01*
X024512Y009257D02*
X028132Y009257D01*
X028132Y009119D02*
X024952Y009119D01*
X024867Y008980D02*
X028132Y008980D01*
X028132Y008842D02*
X024728Y008842D01*
X024512Y008842D02*
X024452Y008842D01*
X024452Y008980D02*
X024512Y008980D01*
X024512Y009119D02*
X024452Y009119D01*
X024512Y009290D02*
X024952Y009290D01*
X024952Y009455D01*
X024677Y009730D01*
X024512Y009730D01*
X024512Y009290D01*
X024512Y009396D02*
X024452Y009396D01*
X024452Y009534D02*
X024512Y009534D01*
X024512Y009673D02*
X024452Y009673D01*
X024734Y009673D02*
X024952Y009673D01*
X024952Y009580D02*
X025263Y009270D01*
X025702Y009270D01*
X026012Y009580D01*
X026012Y010020D01*
X025702Y010330D01*
X025263Y010330D01*
X024952Y010020D01*
X024952Y009580D01*
X024999Y009534D02*
X024873Y009534D01*
X024952Y009396D02*
X025137Y009396D01*
X024952Y009811D02*
X024703Y009811D01*
X024841Y009950D02*
X024952Y009950D01*
X024980Y010088D02*
X025021Y010088D01*
X025012Y010227D02*
X025159Y010227D01*
X025248Y010365D02*
X025012Y010365D01*
X025012Y010504D02*
X025109Y010504D01*
X025717Y010365D02*
X028132Y010365D01*
X028132Y010227D02*
X025805Y010227D01*
X025944Y010088D02*
X028132Y010088D01*
X028132Y009950D02*
X026012Y009950D01*
X026012Y009811D02*
X028132Y009811D01*
X028132Y009673D02*
X026012Y009673D01*
X025966Y009534D02*
X028132Y009534D01*
X028132Y009396D02*
X025827Y009396D01*
X025855Y010504D02*
X028132Y010504D01*
X028132Y010642D02*
X025994Y010642D01*
X026012Y010781D02*
X028132Y010781D01*
X028132Y010919D02*
X026012Y010919D01*
X026012Y011058D02*
X028132Y011058D01*
X028132Y011196D02*
X026072Y011196D01*
X026210Y011335D02*
X028132Y011335D01*
X028132Y011473D02*
X026349Y011473D01*
X026487Y011612D02*
X028132Y011612D01*
X028132Y011750D02*
X026542Y011750D01*
X026542Y011889D02*
X028132Y011889D01*
X028132Y012027D02*
X026542Y012027D01*
X026542Y012166D02*
X028132Y012166D01*
X028132Y012304D02*
X026542Y012304D01*
X026542Y012443D02*
X028132Y012443D01*
X028132Y012581D02*
X026542Y012581D01*
X026542Y012720D02*
X028132Y012720D01*
X028132Y012858D02*
X026542Y012858D01*
X026542Y012997D02*
X028132Y012997D01*
X028132Y013135D02*
X026542Y013135D01*
X026542Y013274D02*
X028132Y013274D01*
X028132Y013412D02*
X026519Y013412D01*
X026415Y013551D02*
X028132Y013551D01*
X028132Y013689D02*
X026277Y013689D01*
X026138Y013828D02*
X028132Y013828D01*
X028132Y013966D02*
X026000Y013966D01*
X025861Y014105D02*
X028132Y014105D01*
X028132Y014243D02*
X025723Y014243D01*
X025584Y014382D02*
X028132Y014382D01*
X028132Y014520D02*
X025446Y014520D01*
X025144Y015120D02*
X024820Y015120D01*
X024508Y015204D01*
X024227Y015366D01*
X023998Y015595D01*
X023836Y015875D01*
X023752Y016188D01*
X023752Y016512D01*
X023836Y016825D01*
X023998Y017105D01*
X024227Y017334D01*
X024508Y017496D01*
X024820Y017580D01*
X025144Y017580D01*
X025457Y017496D01*
X025738Y017334D01*
X025967Y017105D01*
X026128Y016825D01*
X026212Y016512D01*
X026212Y016188D01*
X026128Y015875D01*
X025967Y015595D01*
X025738Y015366D01*
X025457Y015204D01*
X025144Y015120D01*
X025472Y015213D02*
X028132Y015213D01*
X028132Y015351D02*
X025712Y015351D01*
X025861Y015490D02*
X028132Y015490D01*
X028132Y015628D02*
X025986Y015628D01*
X026066Y015767D02*
X028132Y015767D01*
X028132Y015905D02*
X026136Y015905D01*
X026174Y016044D02*
X028132Y016044D01*
X028132Y016182D02*
X026211Y016182D01*
X026212Y016321D02*
X028132Y016321D01*
X028132Y016459D02*
X026212Y016459D01*
X026189Y016598D02*
X028132Y016598D01*
X028132Y016736D02*
X026152Y016736D01*
X026100Y016875D02*
X028132Y016875D01*
X028132Y017013D02*
X026020Y017013D01*
X025920Y017152D02*
X028132Y017152D01*
X028132Y017290D02*
X025782Y017290D01*
X025574Y017429D02*
X028132Y017429D01*
X028132Y017567D02*
X025193Y017567D01*
X024772Y017567D02*
X023417Y017567D01*
X023417Y017429D02*
X024390Y017429D01*
X024183Y017290D02*
X023417Y017290D01*
X023417Y017152D02*
X024044Y017152D01*
X023945Y017013D02*
X023378Y017013D01*
X023250Y016875D02*
X023865Y016875D01*
X023812Y016736D02*
X023112Y016736D01*
X022973Y016598D02*
X023775Y016598D01*
X023752Y016459D02*
X022835Y016459D01*
X022696Y016321D02*
X023752Y016321D01*
X023754Y016182D02*
X022558Y016182D01*
X022419Y016044D02*
X023791Y016044D01*
X023828Y015905D02*
X022281Y015905D01*
X022142Y015767D02*
X023899Y015767D01*
X023979Y015628D02*
X022004Y015628D01*
X021865Y015490D02*
X024103Y015490D01*
X024253Y015351D02*
X021727Y015351D01*
X021588Y015213D02*
X024492Y015213D01*
X024144Y014520D02*
X020896Y014520D01*
X021034Y014659D02*
X028132Y014659D01*
X028132Y014797D02*
X021173Y014797D01*
X021311Y014936D02*
X028132Y014936D01*
X028132Y015074D02*
X021450Y015074D01*
X020757Y014382D02*
X024005Y014382D01*
X023867Y014243D02*
X020619Y014243D01*
X019706Y016321D02*
X016747Y016321D01*
X016747Y016459D02*
X019845Y016459D01*
X019983Y016598D02*
X016747Y016598D01*
X016747Y016736D02*
X020122Y016736D01*
X020260Y016875D02*
X016747Y016875D01*
X016747Y017013D02*
X020399Y017013D01*
X020537Y017152D02*
X016747Y017152D01*
X016747Y017290D02*
X020676Y017290D01*
X020814Y017429D02*
X017599Y017429D01*
X017535Y017365D02*
X017367Y017365D01*
X017367Y017785D01*
X017347Y017785D01*
X016927Y017785D01*
X016927Y017617D01*
X017179Y017365D01*
X017347Y017365D01*
X017347Y017785D01*
X017347Y017805D01*
X016927Y017805D01*
X016927Y017973D01*
X017179Y018225D01*
X017347Y018225D01*
X017347Y017805D01*
X017367Y017805D01*
X017367Y018225D01*
X017535Y018225D01*
X017787Y017973D01*
X017787Y017805D01*
X017367Y017805D01*
X017367Y017785D01*
X017787Y017785D01*
X017787Y017617D01*
X017535Y017365D01*
X017367Y017429D02*
X017347Y017429D01*
X017347Y017567D02*
X017367Y017567D01*
X017367Y017706D02*
X017347Y017706D01*
X017347Y017844D02*
X017367Y017844D01*
X017367Y017983D02*
X017347Y017983D01*
X017347Y018121D02*
X017367Y018121D01*
X017639Y018121D02*
X021507Y018121D01*
X021543Y018260D02*
X016586Y018260D01*
X016724Y018121D02*
X017075Y018121D01*
X016937Y017983D02*
X016847Y017983D01*
X016847Y017844D02*
X016927Y017844D01*
X016927Y017706D02*
X016847Y017706D01*
X016822Y017567D02*
X016977Y017567D01*
X017116Y017429D02*
X016747Y017429D01*
X015967Y017290D02*
X015471Y017290D01*
X015388Y017152D02*
X015967Y017152D01*
X015967Y017013D02*
X015204Y017013D01*
X014761Y017013D02*
X013204Y017013D01*
X013388Y017152D02*
X013661Y017152D01*
X013676Y017137D02*
X013736Y017093D01*
X013802Y017059D01*
X013872Y017037D01*
X013945Y017025D01*
X013952Y017025D01*
X013952Y017765D01*
X013512Y017765D01*
X013512Y017458D01*
X013524Y017385D01*
X013547Y017315D01*
X013580Y017249D01*
X013624Y017189D01*
X013676Y017137D01*
X013559Y017290D02*
X013471Y017290D01*
X013512Y017429D02*
X013517Y017429D01*
X013512Y017567D02*
X013512Y017567D01*
X013512Y017706D02*
X013512Y017706D01*
X013512Y017825D02*
X013952Y017825D01*
X013952Y017765D01*
X014012Y017765D01*
X014012Y017025D01*
X014019Y017025D01*
X014092Y017037D01*
X014163Y017059D01*
X014229Y017093D01*
X014288Y017137D01*
X014341Y017189D01*
X014384Y017249D01*
X014418Y017315D01*
X014441Y017385D01*
X014452Y017458D01*
X014452Y017765D01*
X014012Y017765D01*
X014012Y017825D01*
X013952Y017825D01*
X013952Y018565D01*
X013945Y018565D01*
X013872Y018553D01*
X013802Y018531D01*
X013736Y018497D01*
X013676Y018453D01*
X013624Y018401D01*
X013580Y018341D01*
X013547Y018275D01*
X013524Y018205D01*
X013512Y018132D01*
X013512Y017825D01*
X013512Y017844D02*
X013512Y017844D01*
X013512Y017983D02*
X013512Y017983D01*
X013512Y018121D02*
X013512Y018121D01*
X013488Y018260D02*
X013542Y018260D01*
X013621Y018398D02*
X013429Y018398D01*
X013290Y018537D02*
X013820Y018537D01*
X013952Y018537D02*
X014012Y018537D01*
X014012Y018565D02*
X014012Y017825D01*
X014452Y017825D01*
X014452Y018132D01*
X014441Y018205D01*
X014418Y018275D01*
X014384Y018341D01*
X014341Y018401D01*
X014288Y018453D01*
X014229Y018497D01*
X014163Y018531D01*
X014092Y018553D01*
X014019Y018565D01*
X014012Y018565D01*
X014144Y018537D02*
X014674Y018537D01*
X014536Y018398D02*
X014343Y018398D01*
X014423Y018260D02*
X014477Y018260D01*
X014452Y018121D02*
X014452Y018121D01*
X014452Y017983D02*
X014452Y017983D01*
X014452Y017844D02*
X014452Y017844D01*
X014452Y017706D02*
X014452Y017706D01*
X014452Y017567D02*
X014452Y017567D01*
X014448Y017429D02*
X014452Y017429D01*
X014494Y017290D02*
X014405Y017290D01*
X014303Y017152D02*
X014576Y017152D01*
X014012Y017152D02*
X013952Y017152D01*
X013952Y017290D02*
X014012Y017290D01*
X014012Y017429D02*
X013952Y017429D01*
X013952Y017567D02*
X014012Y017567D01*
X014012Y017706D02*
X013952Y017706D01*
X013952Y017844D02*
X014012Y017844D01*
X014012Y017983D02*
X013952Y017983D01*
X013952Y018121D02*
X014012Y018121D01*
X014012Y018260D02*
X013952Y018260D01*
X013952Y018398D02*
X014012Y018398D01*
X015290Y018537D02*
X021675Y018537D01*
X021591Y018398D02*
X015429Y018398D01*
X015488Y018260D02*
X016129Y018260D01*
X015967Y016875D02*
X011113Y016875D01*
X011252Y017013D02*
X012761Y017013D01*
X012576Y017152D02*
X011390Y017152D01*
X011529Y017290D02*
X012494Y017290D01*
X011870Y016459D02*
X013433Y016459D01*
X013209Y016321D02*
X012008Y016321D01*
X010975Y016736D02*
X015967Y016736D01*
X015967Y016598D02*
X010836Y016598D01*
X010472Y017365D02*
X010472Y017785D01*
X010052Y017785D01*
X010052Y017617D01*
X010304Y017365D01*
X010472Y017365D01*
X010472Y017429D02*
X010492Y017429D01*
X010492Y017567D02*
X010472Y017567D01*
X010472Y017706D02*
X010492Y017706D01*
X010492Y017785D02*
X010472Y017785D01*
X010472Y017805D01*
X010052Y017805D01*
X010052Y017973D01*
X010304Y018225D01*
X010472Y018225D01*
X010472Y017805D01*
X010492Y017805D01*
X010492Y018225D01*
X010660Y018225D01*
X010912Y017973D01*
X010912Y017805D01*
X010492Y017805D01*
X010492Y017785D01*
X010492Y017844D02*
X010472Y017844D01*
X010472Y017983D02*
X010492Y017983D01*
X010492Y018121D02*
X010472Y018121D01*
X010200Y018121D02*
X005985Y018121D01*
X006123Y018260D02*
X011254Y018260D01*
X011115Y018121D02*
X010764Y018121D01*
X010903Y017983D02*
X010992Y017983D01*
X010980Y017844D02*
X010912Y017844D01*
X010241Y017429D02*
X005543Y017429D01*
X005499Y017324D02*
X005592Y017549D01*
X005592Y017728D01*
X007368Y019505D01*
X007428Y019648D01*
X007428Y022439D01*
X007453Y022464D01*
X007563Y022574D01*
X007622Y022717D01*
X007622Y022780D01*
X008060Y022780D01*
X008203Y022839D01*
X008313Y022949D01*
X008372Y023092D01*
X008372Y024498D01*
X008313Y024641D01*
X008203Y024751D01*
X008060Y024810D01*
X004905Y024810D01*
X004761Y024751D01*
X004652Y024641D01*
X004592Y024498D01*
X004592Y022957D01*
X004152Y022516D01*
X004092Y022373D01*
X004092Y022368D01*
X004025Y022453D01*
X003936Y022542D01*
X003838Y022620D01*
X003732Y022687D01*
X003619Y022741D01*
X003501Y022782D01*
X003379Y022810D01*
X003262Y022823D01*
X003262Y021779D01*
X003122Y021779D01*
X003122Y021639D01*
X003262Y021639D01*
X003262Y020595D01*
X003379Y020609D01*
X003434Y020621D01*
X003394Y020580D01*
X003239Y020312D01*
X003159Y020014D01*
X003159Y019704D01*
X003239Y019405D01*
X003394Y019138D01*
X003612Y018919D01*
X003880Y018764D01*
X004179Y018684D01*
X004488Y018684D01*
X004787Y018764D01*
X005055Y018919D01*
X005274Y019138D01*
X005428Y019405D01*
X005509Y019704D01*
X005509Y020014D01*
X005471Y020155D01*
X006060Y020155D01*
X006203Y020214D01*
X006313Y020324D01*
X006648Y020659D01*
X006648Y019887D01*
X005041Y018280D01*
X004861Y018280D01*
X004637Y018187D01*
X004465Y018016D01*
X004372Y017791D01*
X004372Y017549D01*
X004465Y017324D01*
X004637Y017153D01*
X004861Y017060D01*
X005104Y017060D01*
X005328Y017153D01*
X005499Y017324D01*
X005465Y017290D02*
X006606Y017290D01*
X006412Y017152D02*
X005325Y017152D01*
X005592Y017567D02*
X010102Y017567D01*
X010052Y017706D02*
X005592Y017706D01*
X005708Y017844D02*
X010052Y017844D01*
X010062Y017983D02*
X005846Y017983D01*
X006262Y018398D02*
X012536Y018398D01*
X012477Y018260D02*
X011711Y018260D01*
X012674Y018537D02*
X006400Y018537D01*
X006539Y018675D02*
X021851Y018675D01*
X022364Y018675D02*
X022422Y018675D01*
X022422Y018814D02*
X006677Y018814D01*
X006816Y018952D02*
X022382Y018952D01*
X022244Y019091D02*
X006954Y019091D01*
X007093Y019229D02*
X022242Y019229D01*
X022221Y019368D02*
X007231Y019368D01*
X007369Y019506D02*
X022083Y019506D01*
X021944Y019645D02*
X007426Y019645D01*
X007428Y019783D02*
X021828Y019783D01*
X021797Y019922D02*
X007428Y019922D01*
X007428Y020060D02*
X021797Y020060D01*
X021797Y020199D02*
X007428Y020199D01*
X007428Y020337D02*
X021797Y020337D01*
X021797Y020476D02*
X007428Y020476D01*
X007428Y020614D02*
X021797Y020614D01*
X021797Y020753D02*
X007428Y020753D01*
X007428Y020891D02*
X021797Y020891D01*
X021797Y021030D02*
X007428Y021030D01*
X007428Y021168D02*
X021797Y021168D01*
X021797Y021307D02*
X007428Y021307D01*
X007428Y021445D02*
X021834Y021445D01*
X021957Y021584D02*
X007428Y021584D01*
X007428Y021722D02*
X022096Y021722D01*
X022234Y021861D02*
X014400Y021861D01*
X014230Y021815D02*
X014708Y021943D01*
X015137Y022191D01*
X015487Y022541D01*
X015734Y022969D01*
X015862Y023447D01*
X015862Y023943D01*
X015734Y024421D01*
X015487Y024849D01*
X015137Y025199D01*
X014708Y025447D01*
X014230Y025575D01*
X013735Y025575D01*
X013257Y025447D01*
X012828Y025199D01*
X012478Y024849D01*
X012230Y024421D01*
X012102Y023943D01*
X012102Y023447D01*
X012230Y022969D01*
X012478Y022541D01*
X012828Y022191D01*
X013257Y021943D01*
X013735Y021815D01*
X014230Y021815D01*
X014805Y021999D02*
X022373Y021999D01*
X022511Y022138D02*
X015045Y022138D01*
X015222Y022276D02*
X022650Y022276D01*
X022788Y022415D02*
X015361Y022415D01*
X015494Y022553D02*
X022927Y022553D01*
X023065Y022692D02*
X015574Y022692D01*
X015654Y022830D02*
X023204Y022830D01*
X023342Y022969D02*
X015734Y022969D01*
X015771Y023107D02*
X023481Y023107D01*
X023433Y023059D02*
X023433Y023059D01*
X023554Y023240D02*
X023302Y023492D01*
X023302Y023660D01*
X023722Y023660D01*
X023722Y023680D01*
X023302Y023680D01*
X023302Y023848D01*
X023554Y024100D01*
X023722Y024100D01*
X023722Y023680D01*
X023742Y023680D01*
X023742Y024100D01*
X023910Y024100D01*
X024162Y023848D01*
X024162Y023680D01*
X023742Y023680D01*
X023742Y023660D01*
X023742Y023240D01*
X023910Y023240D01*
X024162Y023492D01*
X024162Y023660D01*
X023742Y023660D01*
X023722Y023660D01*
X023722Y023240D01*
X023554Y023240D01*
X023549Y023246D02*
X015808Y023246D01*
X015845Y023384D02*
X023410Y023384D01*
X023302Y023523D02*
X015862Y023523D01*
X015862Y023661D02*
X023722Y023661D01*
X023742Y023661D02*
X026567Y023661D01*
X026443Y023800D02*
X024162Y023800D01*
X024072Y023938D02*
X026385Y023938D01*
X026328Y024077D02*
X023934Y024077D01*
X023742Y024077D02*
X023722Y024077D01*
X023722Y023938D02*
X023742Y023938D01*
X023742Y023800D02*
X023722Y023800D01*
X023722Y023523D02*
X023742Y023523D01*
X023742Y023384D02*
X023722Y023384D01*
X023722Y023246D02*
X023742Y023246D01*
X023916Y023246D02*
X024743Y023246D01*
X024936Y023384D02*
X024054Y023384D01*
X024162Y023523D02*
X026705Y023523D01*
X027030Y023384D02*
X025367Y023384D01*
X025560Y023246D02*
X025812Y023246D01*
X025705Y023107D02*
X025649Y023107D01*
X026112Y023107D02*
X026159Y023107D01*
X026159Y022969D02*
X026112Y022969D01*
X026159Y022907D02*
X026159Y023369D01*
X026174Y023369D01*
X026249Y023357D01*
X026322Y023333D01*
X026390Y023298D01*
X026452Y023253D01*
X026506Y023200D01*
X026551Y023138D01*
X026585Y023070D01*
X026609Y022997D01*
X026621Y022922D01*
X026621Y022907D01*
X026159Y022907D01*
X026159Y023246D02*
X026112Y023246D01*
X026460Y023246D02*
X028132Y023246D01*
X028132Y023384D02*
X027434Y023384D01*
X027759Y023523D02*
X028132Y023523D01*
X028132Y023661D02*
X027898Y023661D01*
X028022Y023800D02*
X028132Y023800D01*
X028132Y023938D02*
X028079Y023938D01*
X028088Y024631D02*
X028132Y024631D01*
X028132Y024769D02*
X028031Y024769D01*
X028132Y024908D02*
X027919Y024908D01*
X027781Y025046D02*
X028132Y025046D01*
X028132Y025185D02*
X027486Y025185D01*
X026978Y025185D02*
X015151Y025185D01*
X015290Y025046D02*
X026684Y025046D01*
X026545Y024908D02*
X015428Y024908D01*
X015533Y024769D02*
X026434Y024769D01*
X026377Y024631D02*
X015613Y024631D01*
X015693Y024492D02*
X026319Y024492D01*
X026313Y024354D02*
X015752Y024354D01*
X015789Y024215D02*
X026313Y024215D01*
X026566Y023107D02*
X028132Y023107D01*
X028132Y022969D02*
X026613Y022969D01*
X026618Y022830D02*
X028132Y022830D01*
X028132Y022692D02*
X026582Y022692D01*
X026491Y022553D02*
X028132Y022553D01*
X028132Y022415D02*
X027934Y022415D01*
X027330Y022415D02*
X026549Y022415D01*
X026635Y022276D02*
X027063Y022276D01*
X026925Y022138D02*
X026681Y022138D01*
X026681Y021999D02*
X026825Y021999D01*
X026768Y021861D02*
X026644Y021861D01*
X026713Y021722D02*
X026572Y021722D01*
X026713Y021584D02*
X026417Y021584D01*
X026495Y021445D02*
X026713Y021445D01*
X026736Y021307D02*
X026612Y021307D01*
X026670Y021168D02*
X026793Y021168D01*
X026851Y021030D02*
X026681Y021030D01*
X026667Y020891D02*
X026986Y020891D01*
X027144Y020753D02*
X026609Y020753D01*
X026499Y020614D02*
X028132Y020614D01*
X028132Y020476D02*
X026614Y020476D01*
X026672Y020337D02*
X028132Y020337D01*
X028132Y020199D02*
X026681Y020199D01*
X026665Y020060D02*
X028132Y020060D01*
X028132Y019922D02*
X026608Y019922D01*
X026526Y019783D02*
X028132Y019783D01*
X028132Y019645D02*
X027583Y019645D01*
X027821Y019506D02*
X028132Y019506D01*
X028132Y019368D02*
X027959Y019368D01*
X028047Y019229D02*
X028132Y019229D01*
X028132Y019091D02*
X028105Y019091D01*
X028120Y018537D02*
X028132Y018537D01*
X028132Y018398D02*
X028063Y018398D01*
X027996Y018260D02*
X028132Y018260D01*
X028132Y018121D02*
X027858Y018121D01*
X027672Y017983D02*
X028132Y017983D01*
X028132Y017844D02*
X024205Y017844D01*
X024266Y017983D02*
X026792Y017983D01*
X026607Y018121D02*
X024297Y018121D01*
X024297Y018260D02*
X026468Y018260D01*
X026402Y018398D02*
X024249Y018398D01*
X024164Y018537D02*
X026345Y018537D01*
X026313Y018675D02*
X024122Y018675D01*
X024122Y018814D02*
X026313Y018814D01*
X026313Y018952D02*
X026048Y018952D01*
X026204Y019091D02*
X026360Y019091D01*
X026343Y019229D02*
X026417Y019229D01*
X026473Y019368D02*
X026505Y019368D01*
X026526Y019506D02*
X026644Y019506D01*
X026526Y019645D02*
X026882Y019645D01*
X028120Y020753D02*
X028132Y020753D01*
X028132Y017706D02*
X024066Y017706D01*
X021368Y017983D02*
X017778Y017983D01*
X017787Y017844D02*
X021230Y017844D01*
X021091Y017706D02*
X017787Y017706D01*
X017737Y017567D02*
X020953Y017567D01*
X015967Y016459D02*
X013781Y016459D01*
X014005Y016321D02*
X015967Y016321D01*
X015661Y013412D02*
X012413Y013412D01*
X012274Y013274D02*
X015522Y013274D01*
X015384Y013135D02*
X012136Y013135D01*
X011947Y012997D02*
X015245Y012997D01*
X015107Y012858D02*
X011593Y012858D01*
X011623Y012720D02*
X014968Y012720D01*
X015430Y012304D02*
X015553Y012304D01*
X015568Y012443D02*
X015691Y012443D01*
X015707Y012581D02*
X015863Y012581D01*
X015845Y012720D02*
X015982Y012720D01*
X015414Y012166D02*
X015291Y012166D01*
X015276Y012027D02*
X015145Y012027D01*
X015137Y011889D02*
X011654Y011889D01*
X011549Y011750D02*
X014999Y011750D01*
X014860Y011612D02*
X011744Y011612D01*
X010665Y011750D02*
X008549Y011750D01*
X008465Y011785D02*
X008645Y011710D01*
X008783Y011573D01*
X008857Y011392D01*
X008857Y011198D01*
X008783Y011017D01*
X008645Y010880D01*
X008465Y010805D01*
X007750Y010805D01*
X007570Y010880D01*
X007432Y011017D01*
X007357Y011198D01*
X007357Y011392D01*
X007432Y011573D01*
X007570Y011710D01*
X007750Y011785D01*
X008465Y011785D01*
X008465Y011805D02*
X008645Y011880D01*
X008783Y012017D01*
X008857Y012198D01*
X008857Y012392D01*
X008783Y012573D01*
X008645Y012710D01*
X008465Y012785D01*
X007750Y012785D01*
X007570Y012710D01*
X007432Y012573D01*
X007357Y012392D01*
X007357Y012198D01*
X007432Y012017D01*
X007570Y011880D01*
X007750Y011805D01*
X008465Y011805D01*
X008654Y011889D02*
X010561Y011889D01*
X010428Y012027D02*
X008787Y012027D01*
X008844Y012166D02*
X010371Y012166D01*
X010357Y012304D02*
X008857Y012304D01*
X008837Y012443D02*
X010378Y012443D01*
X010440Y012581D02*
X008774Y012581D01*
X008623Y012720D02*
X010592Y012720D01*
X010622Y012858D02*
X008593Y012858D01*
X008762Y012997D02*
X010453Y012997D01*
X010383Y013135D02*
X008831Y013135D01*
X008857Y013274D02*
X010357Y013274D01*
X010365Y013412D02*
X008849Y013412D01*
X008792Y013551D02*
X010288Y013551D01*
X010219Y013619D02*
X010219Y013619D01*
X010150Y013689D02*
X008666Y013689D01*
X008519Y013828D02*
X010011Y013828D01*
X009873Y013966D02*
X008731Y013966D01*
X007695Y013828D02*
X007667Y013828D01*
X007047Y013828D02*
X007042Y013828D01*
X007042Y013966D02*
X007047Y013966D01*
X007042Y014105D02*
X007047Y014105D01*
X007042Y014243D02*
X007047Y014243D01*
X007042Y014382D02*
X007047Y014382D01*
X007042Y014520D02*
X007047Y014520D01*
X006559Y014936D02*
X005372Y014936D01*
X005372Y014797D02*
X006449Y014797D01*
X006422Y014659D02*
X005372Y014659D01*
X005372Y014520D02*
X006422Y014520D01*
X006422Y014382D02*
X005372Y014382D01*
X005372Y014243D02*
X006422Y014243D01*
X006422Y014105D02*
X005410Y014105D01*
X005520Y013966D02*
X006422Y013966D01*
X006422Y013828D02*
X005577Y013828D01*
X005592Y013689D02*
X006422Y013689D01*
X006422Y013551D02*
X005592Y013551D01*
X005536Y013412D02*
X006422Y013412D01*
X006422Y013274D02*
X005448Y013274D01*
X005372Y013135D02*
X006422Y013135D01*
X006366Y012997D02*
X005372Y012997D01*
X005372Y012858D02*
X006242Y012858D01*
X006242Y012720D02*
X005372Y012720D01*
X005372Y012581D02*
X006242Y012581D01*
X006267Y012443D02*
X005372Y012443D01*
X005372Y012304D02*
X006405Y012304D01*
X006422Y012166D02*
X005372Y012166D01*
X005396Y012027D02*
X006422Y012027D01*
X006422Y011889D02*
X005482Y011889D01*
X005527Y011750D02*
X006422Y011750D01*
X006422Y011612D02*
X005527Y011612D01*
X005491Y011473D02*
X006422Y011473D01*
X006422Y011335D02*
X005418Y011335D01*
X005262Y011196D02*
X006422Y011196D01*
X006422Y011058D02*
X001702Y011058D01*
X001702Y011196D02*
X003770Y011196D01*
X003632Y011335D02*
X001702Y011335D01*
X001702Y011473D02*
X003497Y011473D01*
X003497Y011612D02*
X001702Y011612D01*
X001702Y011750D02*
X003497Y011750D01*
X003497Y011680D02*
X003972Y011680D01*
X003972Y012155D01*
X003781Y012155D01*
X003497Y011871D01*
X003497Y011680D01*
X003515Y011889D02*
X001702Y011889D01*
X001702Y012027D02*
X003653Y012027D01*
X003972Y012027D02*
X003992Y012027D01*
X003992Y011889D02*
X003972Y011889D01*
X003972Y011750D02*
X003992Y011750D01*
X003992Y011612D02*
X003972Y011612D01*
X003972Y011473D02*
X003992Y011473D01*
X003992Y011335D02*
X003972Y011335D01*
X003972Y011196D02*
X003992Y011196D01*
X004194Y011196D02*
X004702Y011196D01*
X004547Y011335D02*
X004333Y011335D01*
X004467Y011473D02*
X004474Y011473D01*
X004450Y011889D02*
X004483Y011889D01*
X004569Y012027D02*
X004311Y012027D01*
X004592Y012166D02*
X001702Y012166D01*
X001702Y012304D02*
X004592Y012304D01*
X004592Y012443D02*
X001702Y012443D01*
X001702Y012581D02*
X004592Y012581D01*
X004592Y012720D02*
X001702Y012720D01*
X001702Y012858D02*
X004592Y012858D01*
X004592Y012997D02*
X001702Y012997D01*
X001702Y013135D02*
X004592Y013135D01*
X004516Y013274D02*
X001702Y013274D01*
X001702Y013412D02*
X004429Y013412D01*
X004372Y013551D02*
X001702Y013551D01*
X001702Y013689D02*
X004372Y013689D01*
X004387Y013828D02*
X001702Y013828D01*
X001702Y013966D02*
X004445Y013966D01*
X004554Y014105D02*
X001702Y014105D01*
X001702Y014243D02*
X004592Y014243D01*
X004592Y014382D02*
X001702Y014382D01*
X001702Y014520D02*
X004592Y014520D01*
X004592Y014659D02*
X001702Y014659D01*
X001702Y014797D02*
X004592Y014797D01*
X004592Y014936D02*
X001702Y014936D01*
X001702Y015074D02*
X004592Y015074D01*
X004592Y015213D02*
X001702Y015213D01*
X001702Y015351D02*
X004635Y015351D01*
X004750Y015490D02*
X001702Y015490D01*
X001702Y015628D02*
X004889Y015628D01*
X005027Y015767D02*
X001702Y015767D01*
X001702Y015905D02*
X005166Y015905D01*
X005304Y016044D02*
X001702Y016044D01*
X001702Y016182D02*
X005443Y016182D01*
X005581Y016321D02*
X001702Y016321D01*
X001702Y016459D02*
X005720Y016459D01*
X005858Y016598D02*
X001702Y016598D01*
X001702Y016736D02*
X005997Y016736D01*
X006135Y016875D02*
X001702Y016875D01*
X001702Y017013D02*
X006274Y017013D01*
X006823Y016459D02*
X006970Y016459D01*
X006831Y016321D02*
X006684Y016321D01*
X006693Y016182D02*
X006546Y016182D01*
X006413Y016044D02*
X006407Y016044D01*
X006274Y015905D02*
X006269Y015905D01*
X006242Y015767D02*
X006130Y015767D01*
X006242Y015628D02*
X005992Y015628D01*
X005853Y015490D02*
X006242Y015490D01*
X006358Y015351D02*
X005715Y015351D01*
X005576Y015213D02*
X006497Y015213D01*
X006698Y015074D02*
X005438Y015074D01*
X007042Y013689D02*
X007047Y013689D01*
X007042Y013551D02*
X007047Y013551D01*
X007042Y013412D02*
X007047Y013412D01*
X007042Y013274D02*
X007082Y013274D01*
X007042Y013135D02*
X007204Y013135D01*
X007099Y012997D02*
X007393Y012997D01*
X007222Y012858D02*
X007622Y012858D01*
X007592Y012720D02*
X007222Y012720D01*
X007222Y012581D02*
X007440Y012581D01*
X007378Y012443D02*
X007198Y012443D01*
X007059Y012304D02*
X007357Y012304D01*
X007371Y012166D02*
X007042Y012166D01*
X007042Y012027D02*
X007428Y012027D01*
X007561Y011889D02*
X007042Y011889D01*
X007042Y011750D02*
X007665Y011750D01*
X007471Y011612D02*
X007042Y011612D01*
X007042Y011473D02*
X007391Y011473D01*
X007357Y011335D02*
X007042Y011335D01*
X007042Y011196D02*
X007358Y011196D01*
X007415Y011058D02*
X007042Y011058D01*
X007042Y010919D02*
X007530Y010919D01*
X007570Y010710D02*
X007432Y010573D01*
X007357Y010392D01*
X007357Y010198D01*
X007432Y010017D01*
X007570Y009880D01*
X007750Y009805D01*
X008465Y009805D01*
X008645Y009880D01*
X008783Y010017D01*
X008857Y010198D01*
X008857Y010392D01*
X008783Y010573D01*
X008645Y010710D01*
X008465Y010785D01*
X007750Y010785D01*
X007570Y010710D01*
X007501Y010642D02*
X007042Y010642D01*
X007042Y010504D02*
X007403Y010504D01*
X007357Y010365D02*
X007042Y010365D01*
X007042Y010227D02*
X007357Y010227D01*
X007403Y010088D02*
X007042Y010088D01*
X007042Y009950D02*
X007500Y009950D01*
X007735Y009811D02*
X007042Y009811D01*
X007168Y009673D02*
X007532Y009673D01*
X007416Y009534D02*
X007307Y009534D01*
X006845Y009119D02*
X003664Y009119D01*
X003660Y009115D02*
X003912Y009367D01*
X003912Y009535D01*
X003492Y009535D01*
X003492Y009115D01*
X003660Y009115D01*
X003685Y009035D02*
X003279Y009035D01*
X002992Y008748D01*
X002992Y008342D01*
X003279Y008055D01*
X003556Y008055D01*
X003592Y008021D01*
X003632Y007982D01*
X003638Y007980D01*
X003642Y007975D01*
X003694Y007956D01*
X003746Y007935D01*
X003752Y007935D01*
X003758Y007933D01*
X003813Y007935D01*
X004974Y007935D01*
X005080Y007830D01*
X005260Y007755D01*
X005409Y007755D01*
X006132Y007032D01*
X006246Y006985D01*
X007464Y006985D01*
X007570Y006880D01*
X007750Y006805D01*
X008465Y006805D01*
X008645Y006880D01*
X008783Y007017D01*
X008857Y007198D01*
X008857Y007392D01*
X008783Y007573D01*
X008645Y007710D01*
X008465Y007785D01*
X007750Y007785D01*
X007570Y007710D01*
X007464Y007605D01*
X006436Y007605D01*
X005847Y008193D01*
X005847Y008342D01*
X005773Y008523D01*
X005635Y008660D01*
X005455Y008735D01*
X005260Y008735D01*
X005080Y008660D01*
X004974Y008555D01*
X003972Y008555D01*
X003972Y008748D01*
X003685Y009035D01*
X003740Y008980D02*
X006984Y008980D01*
X007122Y008842D02*
X003879Y008842D01*
X003972Y008703D02*
X005183Y008703D01*
X004984Y008565D02*
X003972Y008565D01*
X003603Y008011D02*
X001702Y008011D01*
X001702Y008149D02*
X003185Y008149D01*
X003047Y008288D02*
X001702Y008288D01*
X001702Y008426D02*
X002992Y008426D01*
X002992Y008565D02*
X001702Y008565D01*
X001702Y008703D02*
X002992Y008703D01*
X003086Y008842D02*
X001702Y008842D01*
X001702Y008980D02*
X003224Y008980D01*
X003304Y009115D02*
X003052Y009367D01*
X003052Y009535D01*
X003472Y009535D01*
X003472Y009555D01*
X003052Y009555D01*
X003052Y009723D01*
X003304Y009975D01*
X003472Y009975D01*
X003472Y009555D01*
X003492Y009555D01*
X003492Y009975D01*
X003660Y009975D01*
X003912Y009723D01*
X003912Y009555D01*
X003492Y009555D01*
X003492Y009535D01*
X003472Y009535D01*
X003472Y009115D01*
X003304Y009115D01*
X003301Y009119D02*
X001702Y009119D01*
X001702Y009257D02*
X003162Y009257D01*
X003052Y009396D02*
X001702Y009396D01*
X001702Y009534D02*
X003052Y009534D01*
X003052Y009673D02*
X001702Y009673D01*
X001702Y009811D02*
X003140Y009811D01*
X003279Y009950D02*
X001702Y009950D01*
X001702Y010088D02*
X006422Y010088D01*
X006422Y009950D02*
X003686Y009950D01*
X003492Y009950D02*
X003472Y009950D01*
X003472Y009811D02*
X003492Y009811D01*
X003492Y009673D02*
X003472Y009673D01*
X003472Y009534D02*
X003492Y009534D01*
X003492Y009396D02*
X003472Y009396D01*
X003472Y009257D02*
X003492Y009257D01*
X003492Y009119D02*
X003472Y009119D01*
X003802Y009257D02*
X006707Y009257D01*
X006568Y009396D02*
X003912Y009396D01*
X003912Y009534D02*
X006453Y009534D01*
X006422Y009673D02*
X003912Y009673D01*
X003824Y009811D02*
X006422Y009811D01*
X006422Y010227D02*
X001702Y010227D01*
X001702Y010365D02*
X006422Y010365D01*
X006422Y010504D02*
X001702Y010504D01*
X001702Y010642D02*
X006422Y010642D01*
X006422Y010781D02*
X001702Y010781D01*
X001702Y010919D02*
X006422Y010919D01*
X007042Y010781D02*
X007739Y010781D01*
X008476Y010781D02*
X010739Y010781D01*
X010530Y010919D02*
X008684Y010919D01*
X008799Y011058D02*
X010415Y011058D01*
X010358Y011196D02*
X008857Y011196D01*
X008857Y011335D02*
X010357Y011335D01*
X010391Y011473D02*
X008824Y011473D01*
X008744Y011612D02*
X010471Y011612D01*
X010501Y010642D02*
X008713Y010642D01*
X008811Y010504D02*
X010403Y010504D01*
X010357Y010365D02*
X008857Y010365D01*
X008857Y010227D02*
X010357Y010227D01*
X010403Y010088D02*
X008812Y010088D01*
X008715Y009950D02*
X010500Y009950D01*
X010735Y009811D02*
X008479Y009811D01*
X009090Y009673D02*
X010641Y009673D01*
X010622Y009663D02*
X010567Y009623D01*
X010519Y009575D01*
X010480Y009520D01*
X010449Y009460D01*
X010428Y009396D01*
X010417Y009329D01*
X010417Y009305D01*
X011097Y009305D01*
X011097Y009285D01*
X010417Y009285D01*
X010417Y009261D01*
X010428Y009194D01*
X010449Y009130D01*
X010480Y009070D01*
X010519Y009015D01*
X010567Y008967D01*
X010622Y008927D01*
X010682Y008897D01*
X010747Y008876D01*
X010813Y008865D01*
X011097Y008865D01*
X011097Y009285D01*
X011117Y009285D01*
X011117Y008865D01*
X011401Y008865D01*
X011468Y008876D01*
X011532Y008897D01*
X011593Y008927D01*
X011647Y008967D01*
X011695Y009015D01*
X011735Y009070D01*
X011766Y009130D01*
X011787Y009194D01*
X011797Y009261D01*
X011797Y009285D01*
X011117Y009285D01*
X011117Y009305D01*
X011097Y009305D01*
X011097Y009725D01*
X010813Y009725D01*
X010747Y009714D01*
X010682Y009693D01*
X010622Y009663D01*
X010489Y009534D02*
X009295Y009534D01*
X009433Y009396D02*
X010428Y009396D01*
X010418Y009257D02*
X009572Y009257D01*
X009710Y009119D02*
X010455Y009119D01*
X010554Y008980D02*
X009849Y008980D01*
X009987Y008842D02*
X013451Y008842D01*
X013217Y008703D02*
X012892Y008703D01*
X012785Y008865D02*
X013037Y009117D01*
X013037Y009285D01*
X012617Y009285D01*
X012617Y008865D01*
X012785Y008865D01*
X012900Y008980D02*
X014867Y008980D01*
X014852Y008842D02*
X013763Y008842D01*
X013998Y008703D02*
X014714Y008703D01*
X014988Y009119D02*
X013037Y009119D01*
X013037Y009257D02*
X015126Y009257D01*
X015179Y009365D02*
X014927Y009617D01*
X014927Y009785D01*
X015347Y009785D01*
X015347Y009805D01*
X014927Y009805D01*
X014927Y009973D01*
X015179Y010225D01*
X015347Y010225D01*
X015347Y009805D01*
X015367Y009805D01*
X015367Y010225D01*
X015535Y010225D01*
X015787Y009973D01*
X015787Y009805D01*
X015367Y009805D01*
X015367Y009785D01*
X015367Y009365D01*
X015535Y009365D01*
X015787Y009617D01*
X015787Y009785D01*
X015367Y009785D01*
X015347Y009785D01*
X015347Y009365D01*
X015179Y009365D01*
X015149Y009396D02*
X013037Y009396D01*
X013037Y009473D02*
X012785Y009725D01*
X012617Y009725D01*
X012617Y009305D01*
X012597Y009305D01*
X012597Y009285D01*
X012177Y009285D01*
X012177Y009117D01*
X012429Y008865D01*
X012597Y008865D01*
X012597Y009285D01*
X012617Y009285D01*
X012617Y009305D01*
X013037Y009305D01*
X013037Y009473D01*
X012976Y009534D02*
X015010Y009534D01*
X014927Y009673D02*
X012838Y009673D01*
X012617Y009673D02*
X012597Y009673D01*
X012597Y009725D02*
X012429Y009725D01*
X012177Y009473D01*
X012177Y009305D01*
X012597Y009305D01*
X012597Y009725D01*
X012597Y009534D02*
X012617Y009534D01*
X012617Y009396D02*
X012597Y009396D01*
X012597Y009257D02*
X012617Y009257D01*
X012617Y009119D02*
X012597Y009119D01*
X012597Y008980D02*
X012617Y008980D01*
X012314Y008980D02*
X011660Y008980D01*
X011760Y009119D02*
X012177Y009119D01*
X012177Y009257D02*
X011797Y009257D01*
X011797Y009305D02*
X011797Y009329D01*
X011787Y009396D01*
X011766Y009460D01*
X011735Y009520D01*
X011695Y009575D01*
X011647Y009623D01*
X011593Y009663D01*
X011532Y009693D01*
X011468Y009714D01*
X011401Y009725D01*
X011117Y009725D01*
X011117Y009305D01*
X011797Y009305D01*
X011787Y009396D02*
X012177Y009396D01*
X012238Y009534D02*
X011725Y009534D01*
X011574Y009673D02*
X012377Y009673D01*
X011812Y010088D02*
X015042Y010088D01*
X014927Y009950D02*
X011715Y009950D01*
X011479Y009811D02*
X014927Y009811D01*
X015347Y009811D02*
X015367Y009811D01*
X015367Y009673D02*
X015347Y009673D01*
X015347Y009534D02*
X015367Y009534D01*
X015367Y009396D02*
X015347Y009396D01*
X015566Y009396D02*
X016310Y009396D01*
X016307Y009257D02*
X015588Y009257D01*
X015704Y009534D02*
X016130Y009534D01*
X016060Y009673D02*
X015787Y009673D01*
X015787Y009811D02*
X016042Y009811D01*
X016070Y009950D02*
X015787Y009950D01*
X015672Y010088D02*
X016157Y010088D01*
X016722Y010088D02*
X016742Y010088D01*
X016742Y009950D02*
X016722Y009950D01*
X016722Y009811D02*
X016742Y009811D01*
X016742Y009673D02*
X016722Y009673D01*
X016722Y009534D02*
X016742Y009534D01*
X016742Y009396D02*
X016722Y009396D01*
X017331Y008149D02*
X017692Y008149D01*
X017692Y008011D02*
X017433Y008011D01*
X017482Y007872D02*
X017692Y007872D01*
X017692Y007734D02*
X017482Y007734D01*
X017440Y007595D02*
X017692Y007595D01*
X017692Y007457D02*
X017347Y007457D01*
X017121Y007318D02*
X017692Y007318D01*
X017692Y007180D02*
X017185Y007180D01*
X017157Y007193D02*
X017093Y007214D01*
X017026Y007225D01*
X016742Y007225D01*
X016742Y006805D01*
X017422Y006805D01*
X017422Y006829D01*
X017412Y006896D01*
X017391Y006960D01*
X017360Y007020D01*
X017320Y007075D01*
X017272Y007123D01*
X017218Y007163D01*
X017157Y007193D01*
X017345Y007041D02*
X017692Y007041D01*
X017692Y006903D02*
X017409Y006903D01*
X017422Y006764D02*
X017692Y006764D01*
X017692Y006626D02*
X017389Y006626D01*
X017292Y006487D02*
X017692Y006487D01*
X017270Y006210D02*
X017090Y006285D01*
X016375Y006285D01*
X016195Y006210D01*
X016722Y006487D02*
X016742Y006487D01*
X016742Y006626D02*
X016722Y006626D01*
X016722Y006764D02*
X016742Y006764D01*
X016742Y006903D02*
X016722Y006903D01*
X016722Y007041D02*
X016742Y007041D01*
X016742Y007180D02*
X016722Y007180D01*
X018897Y007318D02*
X019343Y007318D01*
X020121Y007318D02*
X020567Y007318D01*
X020567Y007180D02*
X020301Y007180D01*
X020347Y007457D02*
X020567Y007457D01*
X020567Y007595D02*
X020440Y007595D01*
X020482Y007734D02*
X020567Y007734D01*
X020567Y007872D02*
X020482Y007872D01*
X020433Y008011D02*
X020567Y008011D01*
X020567Y008149D02*
X020331Y008149D01*
X021147Y008149D02*
X028132Y008149D01*
X028132Y008011D02*
X021147Y008011D01*
X021147Y007872D02*
X028132Y007872D01*
X028132Y007734D02*
X021147Y007734D01*
X021147Y007595D02*
X024436Y007595D01*
X024209Y007457D02*
X021147Y007457D01*
X021147Y007318D02*
X024071Y007318D01*
X023960Y007180D02*
X021147Y007180D01*
X021147Y007041D02*
X023880Y007041D01*
X023819Y006903D02*
X021147Y006903D01*
X021107Y006764D02*
X023782Y006764D01*
X023752Y006626D02*
X020973Y006626D01*
X020377Y006487D02*
X023752Y006487D01*
X023821Y006072D02*
X020408Y006072D01*
X020465Y005933D02*
X023884Y005933D01*
X023964Y005795D02*
X020482Y005795D01*
X020465Y005656D02*
X024077Y005656D01*
X024215Y005518D02*
X020408Y005518D01*
X020268Y005379D02*
X024447Y005379D01*
X025518Y005379D02*
X028132Y005379D01*
X028132Y005518D02*
X025749Y005518D01*
X025888Y005656D02*
X028132Y005656D01*
X028132Y005795D02*
X026001Y005795D01*
X026081Y005933D02*
X028132Y005933D01*
X028132Y006072D02*
X026144Y006072D01*
X026181Y006210D02*
X028132Y006210D01*
X028132Y006349D02*
X026212Y006349D01*
X026212Y006487D02*
X028132Y006487D01*
X028132Y006626D02*
X026212Y006626D01*
X026182Y006764D02*
X028132Y006764D01*
X028132Y006903D02*
X026145Y006903D01*
X026084Y007041D02*
X028132Y007041D01*
X028132Y007180D02*
X026004Y007180D01*
X025894Y007318D02*
X028132Y007318D01*
X028132Y007457D02*
X025755Y007457D01*
X025528Y007595D02*
X028132Y007595D01*
X028132Y008288D02*
X021147Y008288D01*
X021147Y008426D02*
X028132Y008426D01*
X028132Y008565D02*
X021147Y008565D01*
X021147Y008703D02*
X028132Y008703D01*
X024236Y008842D02*
X021147Y008842D01*
X021147Y008980D02*
X024098Y008980D01*
X024012Y009119D02*
X021147Y009119D01*
X019307Y009257D02*
X018897Y009257D01*
X018897Y009119D02*
X019103Y009119D01*
X019019Y008980D02*
X018897Y008980D01*
X018897Y008842D02*
X018982Y008842D01*
X018982Y008703D02*
X018897Y008703D01*
X018897Y008565D02*
X019037Y008565D01*
X018993Y009396D02*
X019179Y009396D01*
X021147Y011612D02*
X022852Y011612D01*
X022714Y011750D02*
X021138Y011750D01*
X021049Y011889D02*
X022575Y011889D01*
X018697Y012166D02*
X018666Y012166D01*
X018672Y012027D02*
X018528Y012027D01*
X015367Y010088D02*
X015347Y010088D01*
X015347Y009950D02*
X015367Y009950D01*
X012322Y008703D02*
X011652Y008703D01*
X011645Y008710D02*
X011465Y008785D01*
X010750Y008785D01*
X010570Y008710D01*
X010432Y008573D01*
X010357Y008392D01*
X010357Y008198D01*
X010432Y008017D01*
X010570Y007880D01*
X010750Y007805D01*
X011465Y007805D01*
X011645Y007880D01*
X011783Y008017D01*
X011857Y008198D01*
X011857Y008392D01*
X011783Y008573D01*
X011645Y008710D01*
X011786Y008565D02*
X012184Y008565D01*
X012117Y008426D02*
X011843Y008426D01*
X011857Y008288D02*
X012117Y008288D01*
X012117Y008149D02*
X011837Y008149D01*
X011776Y008011D02*
X012199Y008011D01*
X012133Y007872D02*
X011627Y007872D01*
X011589Y007734D02*
X011994Y007734D01*
X010626Y007734D02*
X010595Y007734D01*
X010588Y007872D02*
X010457Y007872D01*
X010439Y008011D02*
X010318Y008011D01*
X010377Y008149D02*
X010247Y008149D01*
X010247Y008288D02*
X010357Y008288D01*
X010371Y008426D02*
X010247Y008426D01*
X010220Y008565D02*
X010429Y008565D01*
X010562Y008703D02*
X010126Y008703D01*
X011097Y008980D02*
X011117Y008980D01*
X011117Y009119D02*
X011097Y009119D01*
X011097Y009257D02*
X011117Y009257D01*
X011117Y009396D02*
X011097Y009396D01*
X011097Y009534D02*
X011117Y009534D01*
X011117Y009673D02*
X011097Y009673D01*
X009047Y008011D02*
X008691Y008011D01*
X008772Y008149D02*
X008940Y008149D01*
X008801Y008288D02*
X008117Y008288D01*
X008097Y008288D02*
X005847Y008288D01*
X005813Y008426D02*
X007438Y008426D01*
X007399Y008565D02*
X005731Y008565D01*
X005532Y008703D02*
X007261Y008703D01*
X007443Y008149D02*
X005892Y008149D01*
X006030Y008011D02*
X007524Y008011D01*
X007769Y007872D02*
X006169Y007872D01*
X006307Y007734D02*
X007626Y007734D01*
X008097Y007872D02*
X008117Y007872D01*
X008117Y008011D02*
X008097Y008011D01*
X008097Y008149D02*
X008117Y008149D01*
X008445Y007872D02*
X009047Y007872D01*
X009047Y007734D02*
X008589Y007734D01*
X008760Y007595D02*
X009053Y007595D01*
X009132Y007457D02*
X008831Y007457D01*
X008857Y007318D02*
X009271Y007318D01*
X009409Y007180D02*
X008850Y007180D01*
X008792Y007041D02*
X009548Y007041D01*
X009672Y006903D02*
X008668Y006903D01*
X008645Y006710D02*
X008465Y006785D01*
X007750Y006785D01*
X007570Y006710D01*
X007464Y006605D01*
X005780Y006605D01*
X005773Y006623D01*
X005635Y006760D01*
X005455Y006835D01*
X005260Y006835D01*
X005080Y006760D01*
X004974Y006655D01*
X003813Y006655D01*
X003758Y006657D01*
X003752Y006655D01*
X003746Y006655D01*
X003694Y006634D01*
X003642Y006615D01*
X003638Y006610D01*
X003632Y006608D01*
X003592Y006569D01*
X003556Y006535D01*
X003279Y006535D01*
X002992Y006248D01*
X002992Y005842D01*
X003279Y005555D01*
X003685Y005555D01*
X003972Y005842D01*
X003972Y006035D01*
X004974Y006035D01*
X005080Y005930D01*
X005260Y005855D01*
X005455Y005855D01*
X005635Y005930D01*
X005690Y005985D01*
X007464Y005985D01*
X007570Y005880D01*
X007750Y005805D01*
X008465Y005805D01*
X008645Y005880D01*
X008783Y006017D01*
X008857Y006198D01*
X008857Y006392D01*
X008783Y006573D01*
X008645Y006710D01*
X008730Y006626D02*
X009672Y006626D01*
X009672Y006764D02*
X008515Y006764D01*
X008818Y006487D02*
X009672Y006487D01*
X009672Y006349D02*
X008857Y006349D01*
X008857Y006210D02*
X009672Y006210D01*
X009672Y006072D02*
X008805Y006072D01*
X008698Y005933D02*
X009672Y005933D01*
X009672Y005795D02*
X003925Y005795D01*
X003972Y005933D02*
X005076Y005933D01*
X005638Y005933D02*
X007516Y005933D01*
X007570Y005710D02*
X007432Y005573D01*
X007357Y005392D01*
X007357Y005198D01*
X007432Y005017D01*
X007570Y004880D01*
X007750Y004805D01*
X008465Y004805D01*
X008645Y004880D01*
X008783Y005017D01*
X008857Y005198D01*
X008857Y005392D01*
X008783Y005573D01*
X008645Y005710D01*
X008465Y005785D01*
X007750Y005785D01*
X007570Y005710D01*
X007515Y005656D02*
X003786Y005656D01*
X003660Y005475D02*
X003492Y005475D01*
X003492Y005055D01*
X003472Y005055D01*
X003472Y005035D01*
X003052Y005035D01*
X003052Y004867D01*
X003304Y004615D01*
X003472Y004615D01*
X003472Y005035D01*
X003492Y005035D01*
X003492Y004615D01*
X003660Y004615D01*
X003912Y004867D01*
X003912Y005035D01*
X003492Y005035D01*
X003492Y005055D01*
X003912Y005055D01*
X003912Y005223D01*
X003660Y005475D01*
X003756Y005379D02*
X007357Y005379D01*
X007357Y005241D02*
X003895Y005241D01*
X003912Y005102D02*
X007397Y005102D01*
X007486Y004964D02*
X003912Y004964D01*
X003870Y004825D02*
X007702Y004825D01*
X007750Y004785D02*
X007570Y004710D01*
X007432Y004573D01*
X007357Y004392D01*
X007357Y004198D01*
X007432Y004017D01*
X007570Y003880D01*
X007750Y003805D01*
X008465Y003805D01*
X008645Y003880D01*
X008783Y004017D01*
X008857Y004198D01*
X008857Y004392D01*
X008783Y004573D01*
X008645Y004710D01*
X008465Y004785D01*
X007750Y004785D01*
X007546Y004687D02*
X003732Y004687D01*
X003492Y004687D02*
X003472Y004687D01*
X003472Y004825D02*
X003492Y004825D01*
X003492Y004964D02*
X003472Y004964D01*
X003472Y005055D02*
X003052Y005055D01*
X003052Y005223D01*
X003304Y005475D01*
X003472Y005475D01*
X003472Y005055D01*
X003472Y005102D02*
X003492Y005102D01*
X003492Y005241D02*
X003472Y005241D01*
X003472Y005379D02*
X003492Y005379D01*
X003208Y005379D02*
X001702Y005379D01*
X001702Y005241D02*
X003070Y005241D01*
X003052Y005102D02*
X001702Y005102D01*
X001702Y004964D02*
X003052Y004964D01*
X003094Y004825D02*
X001702Y004825D01*
X001702Y004687D02*
X003233Y004687D01*
X003178Y005656D02*
X001702Y005656D01*
X001702Y005518D02*
X007409Y005518D01*
X007485Y006626D02*
X005770Y006626D01*
X005626Y006764D02*
X007699Y006764D01*
X007547Y006903D02*
X001702Y006903D01*
X001702Y007041D02*
X006123Y007041D01*
X005984Y007180D02*
X001702Y007180D01*
X001702Y007318D02*
X005846Y007318D01*
X005707Y007457D02*
X001702Y007457D01*
X001702Y007595D02*
X005569Y007595D01*
X005430Y007734D02*
X001702Y007734D01*
X001702Y007872D02*
X005037Y007872D01*
X005088Y006764D02*
X001702Y006764D01*
X001702Y006626D02*
X003672Y006626D01*
X003231Y006487D02*
X001702Y006487D01*
X001702Y006349D02*
X003093Y006349D01*
X002992Y006210D02*
X001702Y006210D01*
X001702Y006072D02*
X002992Y006072D01*
X002992Y005933D02*
X001702Y005933D01*
X001702Y005795D02*
X003040Y005795D01*
X001702Y004548D02*
X007422Y004548D01*
X007364Y004410D02*
X001702Y004410D01*
X001702Y004271D02*
X007357Y004271D01*
X007384Y004133D02*
X001702Y004133D01*
X001702Y003994D02*
X007455Y003994D01*
X007628Y003856D02*
X001702Y003856D01*
X001702Y003717D02*
X007586Y003717D01*
X007570Y003710D02*
X007432Y003573D01*
X007357Y003392D01*
X007357Y003198D01*
X007432Y003017D01*
X007570Y002880D01*
X007750Y002805D01*
X008465Y002805D01*
X008645Y002880D01*
X008783Y003017D01*
X008857Y003198D01*
X008857Y003392D01*
X008783Y003573D01*
X008645Y003710D01*
X008465Y003785D01*
X007750Y003785D01*
X007570Y003710D01*
X007438Y003579D02*
X001702Y003579D01*
X001702Y003440D02*
X002510Y003440D01*
X002550Y003463D02*
X002295Y003316D01*
X002086Y003107D01*
X001939Y002852D01*
X001863Y002567D01*
X001863Y002273D01*
X001939Y001988D01*
X002086Y001733D01*
X002295Y001524D01*
X002550Y001377D01*
X002835Y001300D01*
X003130Y001300D01*
X003414Y001377D01*
X003670Y001524D01*
X003878Y001733D01*
X004026Y001988D01*
X004102Y002273D01*
X004102Y002567D01*
X004026Y002852D01*
X003878Y003107D01*
X003670Y003316D01*
X003414Y003463D01*
X003130Y003540D01*
X002835Y003540D01*
X002550Y003463D01*
X002280Y003302D02*
X001702Y003302D01*
X001702Y003163D02*
X002142Y003163D01*
X002038Y003025D02*
X001702Y003025D01*
X001702Y002886D02*
X001959Y002886D01*
X001911Y002748D02*
X001702Y002748D01*
X001702Y002609D02*
X001874Y002609D01*
X001863Y002471D02*
X001702Y002471D01*
X001702Y002332D02*
X001863Y002332D01*
X001884Y002194D02*
X001702Y002194D01*
X001702Y002055D02*
X001921Y002055D01*
X001980Y001917D02*
X001702Y001917D01*
X001702Y001778D02*
X002060Y001778D01*
X002179Y001640D02*
X001702Y001640D01*
X001702Y001501D02*
X002335Y001501D01*
X002603Y001363D02*
X001702Y001363D01*
X003361Y001363D02*
X025853Y001363D01*
X025585Y001501D02*
X003630Y001501D01*
X003785Y001640D02*
X025429Y001640D01*
X025310Y001778D02*
X003904Y001778D01*
X003984Y001917D02*
X007533Y001917D01*
X007570Y001880D02*
X007750Y001805D01*
X008465Y001805D01*
X008645Y001880D01*
X008783Y002017D01*
X008857Y002198D01*
X008857Y002392D01*
X008783Y002573D01*
X008645Y002710D01*
X008465Y002785D01*
X007750Y002785D01*
X007570Y002710D01*
X007432Y002573D01*
X007357Y002392D01*
X007357Y002198D01*
X007432Y002017D01*
X007570Y001880D01*
X007416Y002055D02*
X004044Y002055D01*
X004081Y002194D02*
X007359Y002194D01*
X007357Y002332D02*
X004102Y002332D01*
X004102Y002471D02*
X007390Y002471D01*
X007468Y002609D02*
X004091Y002609D01*
X004054Y002748D02*
X007659Y002748D01*
X007563Y002886D02*
X004006Y002886D01*
X003926Y003025D02*
X007429Y003025D01*
X007372Y003163D02*
X003823Y003163D01*
X003684Y003302D02*
X007357Y003302D01*
X007377Y003440D02*
X003455Y003440D01*
X008555Y002748D02*
X010659Y002748D01*
X010570Y002710D02*
X010750Y002785D01*
X011465Y002785D01*
X011645Y002710D01*
X011783Y002573D01*
X011857Y002392D01*
X011857Y002198D01*
X011783Y002017D01*
X011645Y001880D01*
X011465Y001805D01*
X010750Y001805D01*
X010570Y001880D01*
X010432Y002017D01*
X010357Y002198D01*
X010357Y002392D01*
X010432Y002573D01*
X010570Y002710D01*
X010468Y002609D02*
X008746Y002609D01*
X008825Y002471D02*
X010390Y002471D01*
X010357Y002332D02*
X008857Y002332D01*
X008856Y002194D02*
X010359Y002194D01*
X010416Y002055D02*
X008798Y002055D01*
X008682Y001917D02*
X010533Y001917D01*
X010563Y002886D02*
X008651Y002886D01*
X008786Y003025D02*
X010429Y003025D01*
X010372Y003163D02*
X008843Y003163D01*
X008857Y003302D02*
X010357Y003302D01*
X010377Y003440D02*
X008838Y003440D01*
X008777Y003579D02*
X010385Y003579D01*
X010247Y003717D02*
X008629Y003717D01*
X008587Y003856D02*
X010108Y003856D01*
X009970Y003994D02*
X008759Y003994D01*
X008830Y004133D02*
X009831Y004133D01*
X009708Y004271D02*
X008857Y004271D01*
X008850Y004410D02*
X009672Y004410D01*
X009672Y004548D02*
X008793Y004548D01*
X008669Y004687D02*
X009672Y004687D01*
X009672Y004825D02*
X008513Y004825D01*
X008729Y004964D02*
X009672Y004964D01*
X009672Y005102D02*
X008818Y005102D01*
X008857Y005241D02*
X009672Y005241D01*
X009672Y005379D02*
X008857Y005379D01*
X008805Y005518D02*
X009672Y005518D01*
X009672Y005656D02*
X008699Y005656D01*
X011857Y003302D02*
X012851Y003302D01*
X012990Y003163D02*
X011843Y003163D01*
X011786Y003025D02*
X012922Y003025D01*
X013038Y003140D02*
X012762Y002865D01*
X012762Y002700D01*
X013202Y002700D01*
X013202Y003140D01*
X013038Y003140D01*
X013202Y003025D02*
X013262Y003025D01*
X013262Y002886D02*
X013202Y002886D01*
X013202Y002748D02*
X013262Y002748D01*
X013262Y002609D02*
X013202Y002609D01*
X013202Y002471D02*
X013262Y002471D01*
X013262Y002332D02*
X013202Y002332D01*
X012906Y002332D02*
X011857Y002332D01*
X011856Y002194D02*
X013959Y002194D01*
X013821Y002332D02*
X013559Y002332D01*
X013697Y002471D02*
X013702Y002471D01*
X013702Y002609D02*
X013702Y002609D01*
X013702Y002748D02*
X013702Y002748D01*
X013422Y003140D02*
X013422Y003140D01*
X012784Y002886D02*
X011651Y002886D01*
X011555Y002748D02*
X012762Y002748D01*
X012762Y002609D02*
X011746Y002609D01*
X011825Y002471D02*
X012767Y002471D01*
X011798Y002055D02*
X025171Y002055D01*
X025134Y002194D02*
X015505Y002194D01*
X015935Y002332D02*
X025113Y002332D01*
X025113Y002471D02*
X016084Y002471D01*
X016223Y002609D02*
X025124Y002609D01*
X025161Y002748D02*
X016333Y002748D01*
X016372Y002886D02*
X025209Y002886D01*
X025288Y003025D02*
X016372Y003025D01*
X016372Y003163D02*
X025392Y003163D01*
X025530Y003302D02*
X016372Y003302D01*
X016372Y003440D02*
X025760Y003440D01*
X025230Y001917D02*
X011682Y001917D01*
X014505Y002194D02*
X014959Y002194D01*
X014821Y002332D02*
X014644Y002332D01*
X020090Y006285D02*
X020270Y006210D01*
X006128Y019368D02*
X005407Y019368D01*
X005455Y019506D02*
X006267Y019506D01*
X006405Y019645D02*
X005493Y019645D01*
X005509Y019783D02*
X006544Y019783D01*
X006648Y019922D02*
X005509Y019922D01*
X005496Y020060D02*
X006648Y020060D01*
X006648Y020199D02*
X006165Y020199D01*
X006326Y020337D02*
X006648Y020337D01*
X006648Y020476D02*
X006464Y020476D01*
X006603Y020614D02*
X006648Y020614D01*
X007428Y021861D02*
X013565Y021861D01*
X013160Y021999D02*
X007428Y021999D01*
X007428Y022138D02*
X012920Y022138D01*
X012743Y022276D02*
X007428Y022276D01*
X007428Y022415D02*
X012604Y022415D01*
X012471Y022553D02*
X007542Y022553D01*
X007612Y022692D02*
X012391Y022692D01*
X012311Y022830D02*
X008181Y022830D01*
X008321Y022969D02*
X012231Y022969D01*
X012194Y023107D02*
X008372Y023107D01*
X008372Y023246D02*
X012156Y023246D01*
X012119Y023384D02*
X008372Y023384D01*
X008372Y023523D02*
X012102Y023523D01*
X012102Y023661D02*
X008372Y023661D01*
X008372Y023800D02*
X012102Y023800D01*
X012102Y023938D02*
X008372Y023938D01*
X008372Y024077D02*
X012138Y024077D01*
X012175Y024215D02*
X008372Y024215D01*
X008372Y024354D02*
X012212Y024354D01*
X012272Y024492D02*
X008372Y024492D01*
X008317Y024631D02*
X012352Y024631D01*
X012432Y024769D02*
X008159Y024769D01*
X004806Y024769D02*
X001702Y024769D01*
X001702Y024631D02*
X004647Y024631D01*
X004592Y024492D02*
X001702Y024492D01*
X001702Y024354D02*
X004592Y024354D01*
X004592Y024215D02*
X001702Y024215D01*
X001702Y024077D02*
X004592Y024077D01*
X004592Y023938D02*
X001702Y023938D01*
X001702Y023800D02*
X004592Y023800D01*
X004592Y023661D02*
X001702Y023661D01*
X001702Y023523D02*
X004592Y023523D01*
X004592Y023384D02*
X001702Y023384D01*
X001702Y023246D02*
X004592Y023246D01*
X004592Y023107D02*
X001702Y023107D01*
X001702Y022969D02*
X004592Y022969D01*
X004466Y022830D02*
X001702Y022830D01*
X001702Y022692D02*
X002662Y022692D01*
X002652Y022687D02*
X002546Y022620D01*
X002448Y022542D01*
X002359Y022453D01*
X002281Y022356D01*
X002215Y022250D01*
X002160Y022137D01*
X002119Y022018D01*
X002091Y021896D01*
X002078Y021779D01*
X003122Y021779D01*
X003122Y022823D01*
X003005Y022810D01*
X002883Y022782D01*
X002765Y022741D01*
X002652Y022687D01*
X002462Y022553D02*
X001702Y022553D01*
X001702Y022415D02*
X002328Y022415D01*
X002231Y022276D02*
X001702Y022276D01*
X001702Y022138D02*
X002161Y022138D01*
X002114Y021999D02*
X001702Y021999D01*
X001702Y021861D02*
X002087Y021861D01*
X002078Y021639D02*
X002091Y021522D01*
X002119Y021400D01*
X002160Y021282D01*
X002215Y021169D01*
X002281Y021063D01*
X002359Y020965D01*
X002448Y020877D01*
X002546Y020799D01*
X002652Y020732D01*
X002765Y020678D01*
X002883Y020636D01*
X003005Y020609D01*
X003122Y020595D01*
X003122Y021639D01*
X002078Y021639D01*
X002084Y021584D02*
X001702Y021584D01*
X001702Y021722D02*
X003122Y021722D01*
X003122Y021584D02*
X003262Y021584D01*
X003262Y021445D02*
X003122Y021445D01*
X003122Y021307D02*
X003262Y021307D01*
X003262Y021168D02*
X003122Y021168D01*
X003122Y021030D02*
X003262Y021030D01*
X003262Y020891D02*
X003122Y020891D01*
X003122Y020753D02*
X003262Y020753D01*
X003262Y020614D02*
X003122Y020614D01*
X002981Y020614D02*
X001702Y020614D01*
X001702Y020476D02*
X003333Y020476D01*
X003403Y020614D02*
X003427Y020614D01*
X003253Y020337D02*
X001702Y020337D01*
X001702Y020199D02*
X003208Y020199D01*
X003171Y020060D02*
X001702Y020060D01*
X001702Y019922D02*
X003159Y019922D01*
X003159Y019783D02*
X001702Y019783D01*
X001702Y019645D02*
X003175Y019645D01*
X003212Y019506D02*
X001702Y019506D01*
X001702Y019368D02*
X003261Y019368D01*
X003341Y019229D02*
X001702Y019229D01*
X001702Y019091D02*
X003441Y019091D01*
X003579Y018952D02*
X001702Y018952D01*
X001702Y018814D02*
X003795Y018814D01*
X004451Y017983D02*
X001702Y017983D01*
X001702Y018121D02*
X004571Y018121D01*
X004812Y018260D02*
X001702Y018260D01*
X001702Y018398D02*
X005159Y018398D01*
X005297Y018537D02*
X001702Y018537D01*
X001702Y018675D02*
X005436Y018675D01*
X005574Y018814D02*
X004873Y018814D01*
X005088Y018952D02*
X005713Y018952D01*
X005851Y019091D02*
X005227Y019091D01*
X005327Y019229D02*
X005990Y019229D01*
X004394Y017844D02*
X001702Y017844D01*
X001702Y017706D02*
X004372Y017706D01*
X004372Y017567D02*
X001702Y017567D01*
X001702Y017429D02*
X004422Y017429D01*
X004500Y017290D02*
X001702Y017290D01*
X001702Y017152D02*
X004640Y017152D01*
X002619Y020753D02*
X001702Y020753D01*
X001702Y020891D02*
X002434Y020891D01*
X002308Y021030D02*
X001702Y021030D01*
X001702Y021168D02*
X002215Y021168D01*
X002152Y021307D02*
X001702Y021307D01*
X001702Y021445D02*
X002109Y021445D01*
X003122Y021861D02*
X003262Y021861D01*
X003262Y021999D02*
X003122Y021999D01*
X003122Y022138D02*
X003262Y022138D01*
X003262Y022276D02*
X003122Y022276D01*
X003122Y022415D02*
X003262Y022415D01*
X003262Y022553D02*
X003122Y022553D01*
X003122Y022692D02*
X003262Y022692D01*
X003722Y022692D02*
X004327Y022692D01*
X004189Y022553D02*
X003922Y022553D01*
X004056Y022415D02*
X004110Y022415D01*
X001702Y024908D02*
X012536Y024908D01*
X012675Y025046D02*
X001702Y025046D01*
X001702Y025185D02*
X012813Y025185D01*
X013042Y025323D02*
X001702Y025323D01*
X001702Y025462D02*
X013311Y025462D01*
X014653Y025462D02*
X028132Y025462D01*
X028132Y025600D02*
X026565Y025600D01*
X026664Y025627D02*
X026920Y025774D01*
X027128Y025983D01*
X027276Y026238D01*
X027352Y026523D01*
X027352Y026817D01*
X027276Y027102D01*
X027128Y027357D01*
X026920Y027566D01*
X026664Y027713D01*
X026380Y027790D01*
X026085Y027790D01*
X025800Y027713D01*
X025545Y027566D01*
X025336Y027357D01*
X025189Y027102D01*
X025113Y026817D01*
X025113Y026523D01*
X025189Y026238D01*
X025336Y025983D01*
X025545Y025774D01*
X025800Y025627D01*
X026085Y025550D01*
X026380Y025550D01*
X026664Y025627D01*
X026858Y025739D02*
X028132Y025739D01*
X028132Y025877D02*
X027023Y025877D01*
X027147Y026016D02*
X028132Y026016D01*
X028132Y026154D02*
X027227Y026154D01*
X027290Y026293D02*
X028132Y026293D01*
X028132Y026431D02*
X027327Y026431D01*
X027352Y026570D02*
X028132Y026570D01*
X028132Y026708D02*
X027352Y026708D01*
X027344Y026847D02*
X028132Y026847D01*
X028132Y026985D02*
X027307Y026985D01*
X027263Y027124D02*
X028132Y027124D01*
X028132Y027262D02*
X027183Y027262D01*
X027085Y027401D02*
X028132Y027401D01*
X028132Y027539D02*
X026947Y027539D01*
X026726Y027678D02*
X028132Y027678D01*
X028132Y027816D02*
X001702Y027816D01*
X001702Y027678D02*
X002488Y027678D01*
X002550Y027713D02*
X002295Y027566D01*
X002086Y027357D01*
X001939Y027102D01*
X001863Y026817D01*
X001863Y026523D01*
X001939Y026238D01*
X002086Y025983D01*
X002295Y025774D01*
X002550Y025627D01*
X002835Y025550D01*
X003130Y025550D01*
X003414Y025627D01*
X003670Y025774D01*
X003878Y025983D01*
X004026Y026238D01*
X004102Y026523D01*
X004102Y026817D01*
X004026Y027102D01*
X003878Y027357D01*
X003670Y027566D01*
X003414Y027713D01*
X003130Y027790D01*
X002835Y027790D01*
X002550Y027713D01*
X002268Y027539D02*
X001702Y027539D01*
X001702Y027401D02*
X002129Y027401D01*
X002031Y027262D02*
X001702Y027262D01*
X001702Y027124D02*
X001951Y027124D01*
X001908Y026985D02*
X001702Y026985D01*
X001702Y026847D02*
X001870Y026847D01*
X001863Y026708D02*
X001702Y026708D01*
X001702Y026570D02*
X001863Y026570D01*
X001887Y026431D02*
X001702Y026431D01*
X001702Y026293D02*
X001924Y026293D01*
X001987Y026154D02*
X001702Y026154D01*
X001702Y026016D02*
X002067Y026016D01*
X002192Y025877D02*
X001702Y025877D01*
X001702Y025739D02*
X002356Y025739D01*
X002650Y025600D02*
X001702Y025600D01*
X003315Y025600D02*
X025900Y025600D01*
X025606Y025739D02*
X003608Y025739D01*
X003773Y025877D02*
X025442Y025877D01*
X025317Y026016D02*
X003897Y026016D01*
X003977Y026154D02*
X025237Y026154D01*
X025174Y026293D02*
X004040Y026293D01*
X004077Y026431D02*
X025137Y026431D01*
X025113Y026570D02*
X004102Y026570D01*
X004102Y026708D02*
X025113Y026708D01*
X025120Y026847D02*
X004094Y026847D01*
X004057Y026985D02*
X025158Y026985D01*
X025201Y027124D02*
X004013Y027124D01*
X003933Y027262D02*
X025281Y027262D01*
X025379Y027401D02*
X003835Y027401D01*
X003697Y027539D02*
X025518Y027539D01*
X025738Y027678D02*
X003476Y027678D01*
X001702Y027955D02*
X028132Y027955D01*
X028132Y025323D02*
X014922Y025323D01*
X015826Y024077D02*
X023531Y024077D01*
X023392Y023938D02*
X015862Y023938D01*
X015862Y023800D02*
X023302Y023800D01*
D27*
X023732Y018170D03*
X022107Y018170D03*
X017857Y014795D03*
X017857Y012795D03*
X013607Y015920D03*
X013607Y008295D03*
M02*
