G75*
%MOIN*%
%OFA0B0*%
%FSLAX24Y24*%
%IPPOS*%
%LPD*%
%AMOC8*
5,1,8,0,0,1.08239X$1,22.5*
%
%ADD10C,0.0000*%
%ADD11C,0.0060*%
%ADD12C,0.0070*%
%ADD13C,0.0040*%
%ADD14C,0.0080*%
%ADD15C,0.0010*%
%ADD16C,0.0050*%
%ADD17R,0.0300X0.7300*%
%ADD18R,0.0200X1.2200*%
%ADD19R,0.2850X0.0320*%
%ADD20R,0.1850X0.0320*%
%ADD21C,0.0160*%
%ADD22C,0.0120*%
%ADD23C,0.0240*%
%ADD24C,0.0020*%
%ADD25R,0.0500X0.0350*%
%ADD26R,0.1000X0.0200*%
%ADD27R,0.0300X0.0750*%
D10*
X001232Y000670D02*
X001232Y028541D01*
X028602Y028541D01*
X028602Y000670D01*
X001232Y000670D01*
X002332Y002420D02*
X002334Y002470D01*
X002340Y002520D01*
X002350Y002570D01*
X002363Y002618D01*
X002380Y002666D01*
X002401Y002712D01*
X002425Y002756D01*
X002453Y002798D01*
X002484Y002838D01*
X002518Y002875D01*
X002555Y002910D01*
X002594Y002941D01*
X002635Y002970D01*
X002679Y002995D01*
X002725Y003017D01*
X002772Y003035D01*
X002820Y003049D01*
X002869Y003060D01*
X002919Y003067D01*
X002969Y003070D01*
X003020Y003069D01*
X003070Y003064D01*
X003120Y003055D01*
X003168Y003043D01*
X003216Y003026D01*
X003262Y003006D01*
X003307Y002983D01*
X003350Y002956D01*
X003390Y002926D01*
X003428Y002893D01*
X003463Y002857D01*
X003496Y002818D01*
X003525Y002777D01*
X003551Y002734D01*
X003574Y002689D01*
X003593Y002642D01*
X003608Y002594D01*
X003620Y002545D01*
X003628Y002495D01*
X003632Y002445D01*
X003632Y002395D01*
X003628Y002345D01*
X003620Y002295D01*
X003608Y002246D01*
X003593Y002198D01*
X003574Y002151D01*
X003551Y002106D01*
X003525Y002063D01*
X003496Y002022D01*
X003463Y001983D01*
X003428Y001947D01*
X003390Y001914D01*
X003350Y001884D01*
X003307Y001857D01*
X003262Y001834D01*
X003216Y001814D01*
X003168Y001797D01*
X003120Y001785D01*
X003070Y001776D01*
X003020Y001771D01*
X002969Y001770D01*
X002919Y001773D01*
X002869Y001780D01*
X002820Y001791D01*
X002772Y001805D01*
X002725Y001823D01*
X002679Y001845D01*
X002635Y001870D01*
X002594Y001899D01*
X002555Y001930D01*
X002518Y001965D01*
X002484Y002002D01*
X002453Y002042D01*
X002425Y002084D01*
X002401Y002128D01*
X002380Y002174D01*
X002363Y002222D01*
X002350Y002270D01*
X002340Y002320D01*
X002334Y002370D01*
X002332Y002420D01*
X013332Y023695D02*
X013334Y023745D01*
X013340Y023795D01*
X013350Y023845D01*
X013363Y023893D01*
X013380Y023941D01*
X013401Y023987D01*
X013425Y024031D01*
X013453Y024073D01*
X013484Y024113D01*
X013518Y024150D01*
X013555Y024185D01*
X013594Y024216D01*
X013635Y024245D01*
X013679Y024270D01*
X013725Y024292D01*
X013772Y024310D01*
X013820Y024324D01*
X013869Y024335D01*
X013919Y024342D01*
X013969Y024345D01*
X014020Y024344D01*
X014070Y024339D01*
X014120Y024330D01*
X014168Y024318D01*
X014216Y024301D01*
X014262Y024281D01*
X014307Y024258D01*
X014350Y024231D01*
X014390Y024201D01*
X014428Y024168D01*
X014463Y024132D01*
X014496Y024093D01*
X014525Y024052D01*
X014551Y024009D01*
X014574Y023964D01*
X014593Y023917D01*
X014608Y023869D01*
X014620Y023820D01*
X014628Y023770D01*
X014632Y023720D01*
X014632Y023670D01*
X014628Y023620D01*
X014620Y023570D01*
X014608Y023521D01*
X014593Y023473D01*
X014574Y023426D01*
X014551Y023381D01*
X014525Y023338D01*
X014496Y023297D01*
X014463Y023258D01*
X014428Y023222D01*
X014390Y023189D01*
X014350Y023159D01*
X014307Y023132D01*
X014262Y023109D01*
X014216Y023089D01*
X014168Y023072D01*
X014120Y023060D01*
X014070Y023051D01*
X014020Y023046D01*
X013969Y023045D01*
X013919Y023048D01*
X013869Y023055D01*
X013820Y023066D01*
X013772Y023080D01*
X013725Y023098D01*
X013679Y023120D01*
X013635Y023145D01*
X013594Y023174D01*
X013555Y023205D01*
X013518Y023240D01*
X013484Y023277D01*
X013453Y023317D01*
X013425Y023359D01*
X013401Y023403D01*
X013380Y023449D01*
X013363Y023497D01*
X013350Y023545D01*
X013340Y023595D01*
X013334Y023645D01*
X013332Y023695D01*
X002332Y026670D02*
X002334Y026720D01*
X002340Y026770D01*
X002350Y026820D01*
X002363Y026868D01*
X002380Y026916D01*
X002401Y026962D01*
X002425Y027006D01*
X002453Y027048D01*
X002484Y027088D01*
X002518Y027125D01*
X002555Y027160D01*
X002594Y027191D01*
X002635Y027220D01*
X002679Y027245D01*
X002725Y027267D01*
X002772Y027285D01*
X002820Y027299D01*
X002869Y027310D01*
X002919Y027317D01*
X002969Y027320D01*
X003020Y027319D01*
X003070Y027314D01*
X003120Y027305D01*
X003168Y027293D01*
X003216Y027276D01*
X003262Y027256D01*
X003307Y027233D01*
X003350Y027206D01*
X003390Y027176D01*
X003428Y027143D01*
X003463Y027107D01*
X003496Y027068D01*
X003525Y027027D01*
X003551Y026984D01*
X003574Y026939D01*
X003593Y026892D01*
X003608Y026844D01*
X003620Y026795D01*
X003628Y026745D01*
X003632Y026695D01*
X003632Y026645D01*
X003628Y026595D01*
X003620Y026545D01*
X003608Y026496D01*
X003593Y026448D01*
X003574Y026401D01*
X003551Y026356D01*
X003525Y026313D01*
X003496Y026272D01*
X003463Y026233D01*
X003428Y026197D01*
X003390Y026164D01*
X003350Y026134D01*
X003307Y026107D01*
X003262Y026084D01*
X003216Y026064D01*
X003168Y026047D01*
X003120Y026035D01*
X003070Y026026D01*
X003020Y026021D01*
X002969Y026020D01*
X002919Y026023D01*
X002869Y026030D01*
X002820Y026041D01*
X002772Y026055D01*
X002725Y026073D01*
X002679Y026095D01*
X002635Y026120D01*
X002594Y026149D01*
X002555Y026180D01*
X002518Y026215D01*
X002484Y026252D01*
X002453Y026292D01*
X002425Y026334D01*
X002401Y026378D01*
X002380Y026424D01*
X002363Y026472D01*
X002350Y026520D01*
X002340Y026570D01*
X002334Y026620D01*
X002332Y026670D01*
X025582Y026670D02*
X025584Y026720D01*
X025590Y026770D01*
X025600Y026820D01*
X025613Y026868D01*
X025630Y026916D01*
X025651Y026962D01*
X025675Y027006D01*
X025703Y027048D01*
X025734Y027088D01*
X025768Y027125D01*
X025805Y027160D01*
X025844Y027191D01*
X025885Y027220D01*
X025929Y027245D01*
X025975Y027267D01*
X026022Y027285D01*
X026070Y027299D01*
X026119Y027310D01*
X026169Y027317D01*
X026219Y027320D01*
X026270Y027319D01*
X026320Y027314D01*
X026370Y027305D01*
X026418Y027293D01*
X026466Y027276D01*
X026512Y027256D01*
X026557Y027233D01*
X026600Y027206D01*
X026640Y027176D01*
X026678Y027143D01*
X026713Y027107D01*
X026746Y027068D01*
X026775Y027027D01*
X026801Y026984D01*
X026824Y026939D01*
X026843Y026892D01*
X026858Y026844D01*
X026870Y026795D01*
X026878Y026745D01*
X026882Y026695D01*
X026882Y026645D01*
X026878Y026595D01*
X026870Y026545D01*
X026858Y026496D01*
X026843Y026448D01*
X026824Y026401D01*
X026801Y026356D01*
X026775Y026313D01*
X026746Y026272D01*
X026713Y026233D01*
X026678Y026197D01*
X026640Y026164D01*
X026600Y026134D01*
X026557Y026107D01*
X026512Y026084D01*
X026466Y026064D01*
X026418Y026047D01*
X026370Y026035D01*
X026320Y026026D01*
X026270Y026021D01*
X026219Y026020D01*
X026169Y026023D01*
X026119Y026030D01*
X026070Y026041D01*
X026022Y026055D01*
X025975Y026073D01*
X025929Y026095D01*
X025885Y026120D01*
X025844Y026149D01*
X025805Y026180D01*
X025768Y026215D01*
X025734Y026252D01*
X025703Y026292D01*
X025675Y026334D01*
X025651Y026378D01*
X025630Y026424D01*
X025613Y026472D01*
X025600Y026520D01*
X025590Y026570D01*
X025584Y026620D01*
X025582Y026670D01*
X025582Y002420D02*
X025584Y002470D01*
X025590Y002520D01*
X025600Y002570D01*
X025613Y002618D01*
X025630Y002666D01*
X025651Y002712D01*
X025675Y002756D01*
X025703Y002798D01*
X025734Y002838D01*
X025768Y002875D01*
X025805Y002910D01*
X025844Y002941D01*
X025885Y002970D01*
X025929Y002995D01*
X025975Y003017D01*
X026022Y003035D01*
X026070Y003049D01*
X026119Y003060D01*
X026169Y003067D01*
X026219Y003070D01*
X026270Y003069D01*
X026320Y003064D01*
X026370Y003055D01*
X026418Y003043D01*
X026466Y003026D01*
X026512Y003006D01*
X026557Y002983D01*
X026600Y002956D01*
X026640Y002926D01*
X026678Y002893D01*
X026713Y002857D01*
X026746Y002818D01*
X026775Y002777D01*
X026801Y002734D01*
X026824Y002689D01*
X026843Y002642D01*
X026858Y002594D01*
X026870Y002545D01*
X026878Y002495D01*
X026882Y002445D01*
X026882Y002395D01*
X026878Y002345D01*
X026870Y002295D01*
X026858Y002246D01*
X026843Y002198D01*
X026824Y002151D01*
X026801Y002106D01*
X026775Y002063D01*
X026746Y002022D01*
X026713Y001983D01*
X026678Y001947D01*
X026640Y001914D01*
X026600Y001884D01*
X026557Y001857D01*
X026512Y001834D01*
X026466Y001814D01*
X026418Y001797D01*
X026370Y001785D01*
X026320Y001776D01*
X026270Y001771D01*
X026219Y001770D01*
X026169Y001773D01*
X026119Y001780D01*
X026070Y001791D01*
X026022Y001805D01*
X025975Y001823D01*
X025929Y001845D01*
X025885Y001870D01*
X025844Y001899D01*
X025805Y001930D01*
X025768Y001965D01*
X025734Y002002D01*
X025703Y002042D01*
X025675Y002084D01*
X025651Y002128D01*
X025630Y002174D01*
X025613Y002222D01*
X025600Y002270D01*
X025590Y002320D01*
X025584Y002370D01*
X025582Y002420D01*
D11*
X023932Y005320D02*
X027932Y005320D01*
X027982Y005320D01*
X027982Y007320D01*
X027982Y007670D01*
X023932Y007670D01*
X023732Y007470D01*
X023732Y005520D01*
X023932Y005320D01*
X024332Y006490D02*
X024334Y006540D01*
X024340Y006590D01*
X024350Y006640D01*
X024363Y006688D01*
X024380Y006736D01*
X024401Y006782D01*
X024425Y006826D01*
X024453Y006868D01*
X024484Y006908D01*
X024518Y006945D01*
X024555Y006980D01*
X024594Y007011D01*
X024635Y007040D01*
X024679Y007065D01*
X024725Y007087D01*
X024772Y007105D01*
X024820Y007119D01*
X024869Y007130D01*
X024919Y007137D01*
X024969Y007140D01*
X025020Y007139D01*
X025070Y007134D01*
X025120Y007125D01*
X025168Y007113D01*
X025216Y007096D01*
X025262Y007076D01*
X025307Y007053D01*
X025350Y007026D01*
X025390Y006996D01*
X025428Y006963D01*
X025463Y006927D01*
X025496Y006888D01*
X025525Y006847D01*
X025551Y006804D01*
X025574Y006759D01*
X025593Y006712D01*
X025608Y006664D01*
X025620Y006615D01*
X025628Y006565D01*
X025632Y006515D01*
X025632Y006465D01*
X025628Y006415D01*
X025620Y006365D01*
X025608Y006316D01*
X025593Y006268D01*
X025574Y006221D01*
X025551Y006176D01*
X025525Y006133D01*
X025496Y006092D01*
X025463Y006053D01*
X025428Y006017D01*
X025390Y005984D01*
X025350Y005954D01*
X025307Y005927D01*
X025262Y005904D01*
X025216Y005884D01*
X025168Y005867D01*
X025120Y005855D01*
X025070Y005846D01*
X025020Y005841D01*
X024969Y005840D01*
X024919Y005843D01*
X024869Y005850D01*
X024820Y005861D01*
X024772Y005875D01*
X024725Y005893D01*
X024679Y005915D01*
X024635Y005940D01*
X024594Y005969D01*
X024555Y006000D01*
X024518Y006035D01*
X024484Y006072D01*
X024453Y006112D01*
X024425Y006154D01*
X024401Y006198D01*
X024380Y006244D01*
X024363Y006292D01*
X024350Y006340D01*
X024340Y006390D01*
X024334Y006440D01*
X024332Y006490D01*
X027682Y007770D02*
X027982Y007770D01*
X027982Y007670D01*
X027982Y007770D02*
X027982Y015070D01*
X027682Y015070D01*
X027682Y007770D01*
X027982Y007620D02*
X027984Y007590D01*
X027989Y007560D01*
X027998Y007531D01*
X028011Y007504D01*
X028026Y007478D01*
X028045Y007454D01*
X028066Y007433D01*
X028090Y007414D01*
X028116Y007399D01*
X028143Y007386D01*
X028172Y007377D01*
X028202Y007372D01*
X028232Y007370D01*
X029182Y007370D01*
X029182Y007320D01*
X029382Y007320D01*
X029382Y006320D01*
X029382Y005320D01*
X029182Y005320D01*
X027982Y005320D01*
X029382Y005320D02*
X029582Y005320D01*
X029582Y008370D01*
X029582Y014470D01*
X029582Y017520D01*
X029382Y017520D01*
X029382Y016520D01*
X029382Y015520D01*
X029382Y007320D01*
X029582Y007970D02*
X029584Y008000D01*
X029589Y008030D01*
X029598Y008059D01*
X029611Y008086D01*
X029626Y008112D01*
X029645Y008136D01*
X029666Y008157D01*
X029690Y008176D01*
X029716Y008191D01*
X029743Y008204D01*
X029772Y008213D01*
X029802Y008218D01*
X029832Y008220D01*
X031832Y008220D01*
X031858Y008222D01*
X031884Y008227D01*
X031909Y008235D01*
X031932Y008247D01*
X031954Y008261D01*
X031973Y008279D01*
X031991Y008298D01*
X032005Y008320D01*
X032017Y008343D01*
X032025Y008368D01*
X032030Y008394D01*
X032032Y008420D01*
X032032Y008520D01*
X032032Y014320D01*
X032032Y014420D01*
X032030Y014446D01*
X032025Y014472D01*
X032017Y014497D01*
X032005Y014520D01*
X031991Y014542D01*
X031973Y014561D01*
X031954Y014579D01*
X031932Y014593D01*
X031909Y014605D01*
X031884Y014613D01*
X031858Y014618D01*
X031832Y014620D01*
X029832Y014620D01*
X029802Y014622D01*
X029772Y014627D01*
X029743Y014636D01*
X029716Y014649D01*
X029690Y014664D01*
X029666Y014683D01*
X029645Y014704D01*
X029626Y014728D01*
X029611Y014754D01*
X029598Y014781D01*
X029589Y014810D01*
X029584Y014840D01*
X029582Y014870D01*
X029382Y015520D02*
X029182Y015520D01*
X029182Y015470D01*
X028232Y015470D01*
X028202Y015468D01*
X028172Y015463D01*
X028143Y015454D01*
X028116Y015441D01*
X028090Y015426D01*
X028066Y015407D01*
X028045Y015386D01*
X028026Y015362D01*
X028011Y015336D01*
X027998Y015309D01*
X027989Y015280D01*
X027984Y015250D01*
X027982Y015220D01*
X027982Y015170D02*
X023932Y015170D01*
X023732Y015370D01*
X023732Y017270D01*
X023982Y017520D01*
X027932Y017520D01*
X027982Y017520D01*
X029182Y017520D01*
X029382Y017520D01*
X027982Y017520D02*
X027982Y015520D01*
X027982Y015170D01*
X027982Y015070D01*
X024332Y016350D02*
X024334Y016400D01*
X024340Y016450D01*
X024350Y016500D01*
X024363Y016548D01*
X024380Y016596D01*
X024401Y016642D01*
X024425Y016686D01*
X024453Y016728D01*
X024484Y016768D01*
X024518Y016805D01*
X024555Y016840D01*
X024594Y016871D01*
X024635Y016900D01*
X024679Y016925D01*
X024725Y016947D01*
X024772Y016965D01*
X024820Y016979D01*
X024869Y016990D01*
X024919Y016997D01*
X024969Y017000D01*
X025020Y016999D01*
X025070Y016994D01*
X025120Y016985D01*
X025168Y016973D01*
X025216Y016956D01*
X025262Y016936D01*
X025307Y016913D01*
X025350Y016886D01*
X025390Y016856D01*
X025428Y016823D01*
X025463Y016787D01*
X025496Y016748D01*
X025525Y016707D01*
X025551Y016664D01*
X025574Y016619D01*
X025593Y016572D01*
X025608Y016524D01*
X025620Y016475D01*
X025628Y016425D01*
X025632Y016375D01*
X025632Y016325D01*
X025628Y016275D01*
X025620Y016225D01*
X025608Y016176D01*
X025593Y016128D01*
X025574Y016081D01*
X025551Y016036D01*
X025525Y015993D01*
X025496Y015952D01*
X025463Y015913D01*
X025428Y015877D01*
X025390Y015844D01*
X025350Y015814D01*
X025307Y015787D01*
X025262Y015764D01*
X025216Y015744D01*
X025168Y015727D01*
X025120Y015715D01*
X025070Y015706D01*
X025020Y015701D01*
X024969Y015700D01*
X024919Y015703D01*
X024869Y015710D01*
X024820Y015721D01*
X024772Y015735D01*
X024725Y015753D01*
X024679Y015775D01*
X024635Y015800D01*
X024594Y015829D01*
X024555Y015860D01*
X024518Y015895D01*
X024484Y015932D01*
X024453Y015972D01*
X024425Y016014D01*
X024401Y016058D01*
X024380Y016104D01*
X024363Y016152D01*
X024350Y016200D01*
X024340Y016250D01*
X024334Y016300D01*
X024332Y016350D01*
X022232Y019295D02*
X022234Y019339D01*
X022240Y019383D01*
X022250Y019426D01*
X022263Y019468D01*
X022280Y019509D01*
X022301Y019548D01*
X022325Y019585D01*
X022352Y019620D01*
X022382Y019652D01*
X022415Y019682D01*
X022451Y019708D01*
X022488Y019732D01*
X022528Y019751D01*
X022569Y019768D01*
X022612Y019780D01*
X022655Y019789D01*
X022699Y019794D01*
X022743Y019795D01*
X022787Y019792D01*
X022831Y019785D01*
X022874Y019774D01*
X022916Y019760D01*
X022956Y019742D01*
X022995Y019720D01*
X023031Y019696D01*
X023065Y019668D01*
X023097Y019637D01*
X023126Y019603D01*
X023152Y019567D01*
X023174Y019529D01*
X023193Y019489D01*
X023208Y019447D01*
X023220Y019405D01*
X023228Y019361D01*
X023232Y019317D01*
X023232Y019273D01*
X023228Y019229D01*
X023220Y019185D01*
X023208Y019143D01*
X023193Y019101D01*
X023174Y019061D01*
X023152Y019023D01*
X023126Y018987D01*
X023097Y018953D01*
X023065Y018922D01*
X023031Y018894D01*
X022995Y018870D01*
X022956Y018848D01*
X022916Y018830D01*
X022874Y018816D01*
X022831Y018805D01*
X022787Y018798D01*
X022743Y018795D01*
X022699Y018796D01*
X022655Y018801D01*
X022612Y018810D01*
X022569Y018822D01*
X022528Y018839D01*
X022488Y018858D01*
X022451Y018882D01*
X022415Y018908D01*
X022382Y018938D01*
X022352Y018970D01*
X022325Y019005D01*
X022301Y019042D01*
X022280Y019081D01*
X022263Y019122D01*
X022250Y019164D01*
X022240Y019207D01*
X022234Y019251D01*
X022232Y019295D01*
X022232Y020545D02*
X022234Y020589D01*
X022240Y020633D01*
X022250Y020676D01*
X022263Y020718D01*
X022280Y020759D01*
X022301Y020798D01*
X022325Y020835D01*
X022352Y020870D01*
X022382Y020902D01*
X022415Y020932D01*
X022451Y020958D01*
X022488Y020982D01*
X022528Y021001D01*
X022569Y021018D01*
X022612Y021030D01*
X022655Y021039D01*
X022699Y021044D01*
X022743Y021045D01*
X022787Y021042D01*
X022831Y021035D01*
X022874Y021024D01*
X022916Y021010D01*
X022956Y020992D01*
X022995Y020970D01*
X023031Y020946D01*
X023065Y020918D01*
X023097Y020887D01*
X023126Y020853D01*
X023152Y020817D01*
X023174Y020779D01*
X023193Y020739D01*
X023208Y020697D01*
X023220Y020655D01*
X023228Y020611D01*
X023232Y020567D01*
X023232Y020523D01*
X023228Y020479D01*
X023220Y020435D01*
X023208Y020393D01*
X023193Y020351D01*
X023174Y020311D01*
X023152Y020273D01*
X023126Y020237D01*
X023097Y020203D01*
X023065Y020172D01*
X023031Y020144D01*
X022995Y020120D01*
X022956Y020098D01*
X022916Y020080D01*
X022874Y020066D01*
X022831Y020055D01*
X022787Y020048D01*
X022743Y020045D01*
X022699Y020046D01*
X022655Y020051D01*
X022612Y020060D01*
X022569Y020072D01*
X022528Y020089D01*
X022488Y020108D01*
X022451Y020132D01*
X022415Y020158D01*
X022382Y020188D01*
X022352Y020220D01*
X022325Y020255D01*
X022301Y020292D01*
X022280Y020331D01*
X022263Y020372D01*
X022250Y020414D01*
X022240Y020457D01*
X022234Y020501D01*
X022232Y020545D01*
X023282Y022020D02*
X023282Y023320D01*
X023284Y023346D01*
X023289Y023372D01*
X023297Y023397D01*
X023309Y023420D01*
X023323Y023442D01*
X023341Y023461D01*
X023360Y023479D01*
X023382Y023493D01*
X023405Y023505D01*
X023430Y023513D01*
X023456Y023518D01*
X023482Y023520D01*
X023982Y023520D02*
X024008Y023518D01*
X024034Y023513D01*
X024059Y023505D01*
X024082Y023493D01*
X024104Y023479D01*
X024123Y023461D01*
X024141Y023442D01*
X024155Y023420D01*
X024167Y023397D01*
X024175Y023372D01*
X024180Y023346D01*
X024182Y023320D01*
X024182Y022020D01*
X024180Y021994D01*
X024175Y021968D01*
X024167Y021943D01*
X024155Y021920D01*
X024141Y021898D01*
X024123Y021879D01*
X024104Y021861D01*
X024082Y021847D01*
X024059Y021835D01*
X024034Y021827D01*
X024008Y021822D01*
X023982Y021820D01*
X023732Y022170D02*
X023732Y022540D01*
X023732Y022790D02*
X023732Y023170D01*
X023282Y022020D02*
X023284Y021994D01*
X023289Y021968D01*
X023297Y021943D01*
X023309Y021920D01*
X023323Y021898D01*
X023341Y021879D01*
X023360Y021861D01*
X023382Y021847D01*
X023405Y021835D01*
X023430Y021827D01*
X023456Y021822D01*
X023482Y021820D01*
X017707Y018045D02*
X017707Y017545D01*
X017705Y017519D01*
X017700Y017493D01*
X017692Y017468D01*
X017680Y017445D01*
X017666Y017423D01*
X017648Y017404D01*
X017629Y017386D01*
X017607Y017372D01*
X017584Y017360D01*
X017559Y017352D01*
X017533Y017347D01*
X017507Y017345D01*
X016207Y017345D01*
X016181Y017347D01*
X016155Y017352D01*
X016130Y017360D01*
X016107Y017372D01*
X016085Y017386D01*
X016066Y017404D01*
X016048Y017423D01*
X016034Y017445D01*
X016022Y017468D01*
X016014Y017493D01*
X016009Y017519D01*
X016007Y017545D01*
X016007Y018045D01*
X016009Y018071D01*
X016014Y018097D01*
X016022Y018122D01*
X016034Y018145D01*
X016048Y018167D01*
X016066Y018186D01*
X016085Y018204D01*
X016107Y018218D01*
X016130Y018230D01*
X016155Y018238D01*
X016181Y018243D01*
X016207Y018245D01*
X017507Y018245D01*
X017533Y018243D01*
X017559Y018238D01*
X017584Y018230D01*
X017607Y018218D01*
X017629Y018204D01*
X017648Y018186D01*
X017666Y018167D01*
X017680Y018145D01*
X017692Y018122D01*
X017700Y018097D01*
X017705Y018071D01*
X017707Y018045D01*
X016032Y018795D02*
X016032Y023695D01*
X015682Y023695D01*
X015682Y024295D01*
X016032Y024295D01*
X016032Y025045D01*
X011932Y025045D01*
X011932Y024295D01*
X012282Y024295D01*
X012282Y023695D01*
X011932Y023695D01*
X011932Y018795D01*
X016032Y018795D01*
X017082Y015295D02*
X017832Y015295D01*
X017834Y015256D01*
X017840Y015217D01*
X017849Y015179D01*
X017862Y015142D01*
X017879Y015106D01*
X017899Y015073D01*
X017923Y015041D01*
X017949Y015012D01*
X017978Y014986D01*
X018010Y014962D01*
X018043Y014942D01*
X018079Y014925D01*
X018116Y014912D01*
X018154Y014903D01*
X018193Y014897D01*
X018232Y014895D01*
X018271Y014897D01*
X018310Y014903D01*
X018348Y014912D01*
X018385Y014925D01*
X018421Y014942D01*
X018454Y014962D01*
X018486Y014986D01*
X018515Y015012D01*
X018541Y015041D01*
X018565Y015073D01*
X018585Y015106D01*
X018602Y015142D01*
X018615Y015179D01*
X018624Y015217D01*
X018630Y015256D01*
X018632Y015295D01*
X019382Y015295D01*
X019382Y005295D01*
X017082Y005295D01*
X017082Y015295D01*
X015607Y010145D02*
X015107Y010145D01*
X015081Y010143D01*
X015055Y010138D01*
X015030Y010130D01*
X015007Y010118D01*
X014985Y010104D01*
X014966Y010086D01*
X014948Y010067D01*
X014934Y010045D01*
X014922Y010022D01*
X014914Y009997D01*
X014909Y009971D01*
X014907Y009945D01*
X014907Y008645D01*
X014909Y008619D01*
X014914Y008593D01*
X014922Y008568D01*
X014934Y008545D01*
X014948Y008523D01*
X014966Y008504D01*
X014985Y008486D01*
X015007Y008472D01*
X015030Y008460D01*
X015055Y008452D01*
X015081Y008447D01*
X015107Y008445D01*
X015607Y008445D01*
X015633Y008447D01*
X015659Y008452D01*
X015684Y008460D01*
X015707Y008472D01*
X015729Y008486D01*
X015748Y008504D01*
X015766Y008523D01*
X015780Y008545D01*
X015792Y008568D01*
X015800Y008593D01*
X015805Y008619D01*
X015807Y008645D01*
X015807Y009945D01*
X015805Y009971D01*
X015800Y009997D01*
X015792Y010022D01*
X015780Y010045D01*
X015766Y010067D01*
X015748Y010086D01*
X015729Y010104D01*
X015707Y010118D01*
X015684Y010130D01*
X015659Y010138D01*
X015633Y010143D01*
X015607Y010145D01*
X013057Y009445D02*
X013057Y008145D01*
X013055Y008119D01*
X013050Y008093D01*
X013042Y008068D01*
X013030Y008045D01*
X013016Y008023D01*
X012998Y008004D01*
X012979Y007986D01*
X012957Y007972D01*
X012934Y007960D01*
X012909Y007952D01*
X012883Y007947D01*
X012857Y007945D01*
X012357Y007945D01*
X012331Y007947D01*
X012305Y007952D01*
X012280Y007960D01*
X012257Y007972D01*
X012235Y007986D01*
X012216Y008004D01*
X012198Y008023D01*
X012184Y008045D01*
X012172Y008068D01*
X012164Y008093D01*
X012159Y008119D01*
X012157Y008145D01*
X012157Y009445D01*
X012159Y009471D01*
X012164Y009497D01*
X012172Y009522D01*
X012184Y009545D01*
X012198Y009567D01*
X012216Y009586D01*
X012235Y009604D01*
X012257Y009618D01*
X012280Y009630D01*
X012305Y009638D01*
X012331Y009643D01*
X012357Y009645D01*
X012857Y009645D01*
X012883Y009643D01*
X012909Y009638D01*
X012934Y009630D01*
X012957Y009618D01*
X012979Y009604D01*
X012998Y009586D01*
X013016Y009567D01*
X013030Y009545D01*
X013042Y009522D01*
X013050Y009497D01*
X013055Y009471D01*
X013057Y009445D01*
X013557Y007395D02*
X013557Y007295D01*
X013657Y007295D01*
X013557Y007295D02*
X013557Y007195D01*
X013557Y007295D02*
X013457Y007295D01*
X013107Y006795D02*
X013109Y006858D01*
X013115Y006920D01*
X013125Y006982D01*
X013138Y007044D01*
X013156Y007104D01*
X013177Y007163D01*
X013202Y007221D01*
X013231Y007277D01*
X013263Y007331D01*
X013298Y007383D01*
X013336Y007432D01*
X013378Y007480D01*
X013422Y007524D01*
X013470Y007566D01*
X013519Y007604D01*
X013571Y007639D01*
X013625Y007671D01*
X013681Y007700D01*
X013739Y007725D01*
X013798Y007746D01*
X013858Y007764D01*
X013920Y007777D01*
X013982Y007787D01*
X014044Y007793D01*
X014107Y007795D01*
X014170Y007793D01*
X014232Y007787D01*
X014294Y007777D01*
X014356Y007764D01*
X014416Y007746D01*
X014475Y007725D01*
X014533Y007700D01*
X014589Y007671D01*
X014643Y007639D01*
X014695Y007604D01*
X014744Y007566D01*
X014792Y007524D01*
X014836Y007480D01*
X014878Y007432D01*
X014916Y007383D01*
X014951Y007331D01*
X014983Y007277D01*
X015012Y007221D01*
X015037Y007163D01*
X015058Y007104D01*
X015076Y007044D01*
X015089Y006982D01*
X015099Y006920D01*
X015105Y006858D01*
X015107Y006795D01*
X015105Y006732D01*
X015099Y006670D01*
X015089Y006608D01*
X015076Y006546D01*
X015058Y006486D01*
X015037Y006427D01*
X015012Y006369D01*
X014983Y006313D01*
X014951Y006259D01*
X014916Y006207D01*
X014878Y006158D01*
X014836Y006110D01*
X014792Y006066D01*
X014744Y006024D01*
X014695Y005986D01*
X014643Y005951D01*
X014589Y005919D01*
X014533Y005890D01*
X014475Y005865D01*
X014416Y005844D01*
X014356Y005826D01*
X014294Y005813D01*
X014232Y005803D01*
X014170Y005797D01*
X014107Y005795D01*
X014044Y005797D01*
X013982Y005803D01*
X013920Y005813D01*
X013858Y005826D01*
X013798Y005844D01*
X013739Y005865D01*
X013681Y005890D01*
X013625Y005919D01*
X013571Y005951D01*
X013519Y005986D01*
X013470Y006024D01*
X013422Y006066D01*
X013378Y006110D01*
X013336Y006158D01*
X013298Y006207D01*
X013263Y006259D01*
X013231Y006313D01*
X013202Y006369D01*
X013177Y006427D01*
X013156Y006486D01*
X013138Y006546D01*
X013125Y006608D01*
X013115Y006670D01*
X013109Y006732D01*
X013107Y006795D01*
X012982Y004170D02*
X013482Y004170D01*
X013732Y003920D01*
X013732Y002420D01*
X013482Y002170D01*
X012982Y002170D01*
X012732Y002420D01*
X012732Y003920D01*
X012982Y004170D01*
X013732Y003920D02*
X013982Y004170D01*
X014482Y004170D01*
X014732Y003920D01*
X014732Y002420D01*
X014482Y002170D01*
X013982Y002170D01*
X013732Y002420D01*
X014732Y002420D02*
X014982Y002170D01*
X015482Y002170D01*
X015732Y002420D01*
X015732Y003920D01*
X015482Y004170D01*
X014982Y004170D01*
X014732Y003920D01*
X010707Y001495D02*
X008507Y001495D01*
X008507Y016095D01*
X009357Y016095D01*
X009359Y016065D01*
X009364Y016035D01*
X009373Y016006D01*
X009386Y015979D01*
X009401Y015953D01*
X009420Y015929D01*
X009441Y015908D01*
X009465Y015889D01*
X009491Y015874D01*
X009518Y015861D01*
X009547Y015852D01*
X009577Y015847D01*
X009607Y015845D01*
X009637Y015847D01*
X009667Y015852D01*
X009696Y015861D01*
X009723Y015874D01*
X009749Y015889D01*
X009773Y015908D01*
X009794Y015929D01*
X009813Y015953D01*
X009828Y015979D01*
X009841Y016006D01*
X009850Y016035D01*
X009855Y016065D01*
X009857Y016095D01*
X010707Y016095D01*
X010707Y001495D01*
X006057Y006145D02*
X006057Y008445D01*
X006055Y008496D01*
X006050Y008547D01*
X006040Y008597D01*
X006027Y008647D01*
X006011Y008695D01*
X005991Y008742D01*
X005967Y008788D01*
X005941Y008831D01*
X005911Y008873D01*
X005878Y008912D01*
X005843Y008949D01*
X005805Y008983D01*
X005764Y009014D01*
X005722Y009043D01*
X005677Y009068D01*
X005631Y009089D01*
X005583Y009108D01*
X005534Y009122D01*
X005484Y009133D01*
X005434Y009141D01*
X005383Y009145D01*
X005331Y009145D01*
X005280Y009141D01*
X005230Y009133D01*
X005180Y009122D01*
X005131Y009108D01*
X005083Y009089D01*
X005037Y009068D01*
X004992Y009043D01*
X004950Y009014D01*
X004909Y008983D01*
X004871Y008949D01*
X004836Y008912D01*
X004803Y008873D01*
X004773Y008831D01*
X004747Y008788D01*
X004723Y008742D01*
X004703Y008695D01*
X004687Y008647D01*
X004674Y008597D01*
X004664Y008547D01*
X004659Y008496D01*
X004657Y008445D01*
X004657Y006145D01*
X004659Y006094D01*
X004664Y006043D01*
X004674Y005993D01*
X004687Y005943D01*
X004703Y005895D01*
X004723Y005848D01*
X004747Y005802D01*
X004773Y005759D01*
X004803Y005717D01*
X004836Y005678D01*
X004871Y005641D01*
X004909Y005607D01*
X004950Y005576D01*
X004992Y005547D01*
X005037Y005522D01*
X005083Y005501D01*
X005131Y005482D01*
X005180Y005468D01*
X005230Y005457D01*
X005280Y005449D01*
X005331Y005445D01*
X005383Y005445D01*
X005434Y005449D01*
X005484Y005457D01*
X005534Y005468D01*
X005583Y005482D01*
X005631Y005501D01*
X005677Y005522D01*
X005722Y005547D01*
X005764Y005576D01*
X005805Y005607D01*
X005843Y005641D01*
X005878Y005678D01*
X005911Y005717D01*
X005941Y005759D01*
X005967Y005802D01*
X005991Y005848D01*
X006011Y005895D01*
X006027Y005943D01*
X006040Y005993D01*
X006050Y006043D01*
X006055Y006094D01*
X006057Y006145D01*
X005357Y006795D02*
X005357Y007045D01*
X005707Y007045D01*
X005707Y007195D02*
X005007Y007195D01*
X005007Y007395D01*
X005707Y007395D01*
X005707Y007195D01*
X005357Y007045D02*
X005007Y007045D01*
X005007Y007545D02*
X005357Y007545D01*
X005357Y007795D01*
X005357Y007545D02*
X005707Y007545D01*
X003932Y008395D02*
X003932Y009695D01*
X003930Y009721D01*
X003925Y009747D01*
X003917Y009772D01*
X003905Y009795D01*
X003891Y009817D01*
X003873Y009836D01*
X003854Y009854D01*
X003832Y009868D01*
X003809Y009880D01*
X003784Y009888D01*
X003758Y009893D01*
X003732Y009895D01*
X003232Y009895D01*
X003206Y009893D01*
X003180Y009888D01*
X003155Y009880D01*
X003132Y009868D01*
X003110Y009854D01*
X003091Y009836D01*
X003073Y009817D01*
X003059Y009795D01*
X003047Y009772D01*
X003039Y009747D01*
X003034Y009721D01*
X003032Y009695D01*
X003032Y008395D01*
X003034Y008369D01*
X003039Y008343D01*
X003047Y008318D01*
X003059Y008295D01*
X003073Y008273D01*
X003091Y008254D01*
X003110Y008236D01*
X003132Y008222D01*
X003155Y008210D01*
X003180Y008202D01*
X003206Y008197D01*
X003232Y008195D01*
X003732Y008195D01*
X003758Y008197D01*
X003784Y008202D01*
X003809Y008210D01*
X003832Y008222D01*
X003854Y008236D01*
X003873Y008254D01*
X003891Y008273D01*
X003905Y008295D01*
X003917Y008318D01*
X003925Y008343D01*
X003930Y008369D01*
X003932Y008395D01*
X003732Y006395D02*
X003232Y006395D01*
X003206Y006393D01*
X003180Y006388D01*
X003155Y006380D01*
X003132Y006368D01*
X003110Y006354D01*
X003091Y006336D01*
X003073Y006317D01*
X003059Y006295D01*
X003047Y006272D01*
X003039Y006247D01*
X003034Y006221D01*
X003032Y006195D01*
X003032Y004895D01*
X003034Y004869D01*
X003039Y004843D01*
X003047Y004818D01*
X003059Y004795D01*
X003073Y004773D01*
X003091Y004754D01*
X003110Y004736D01*
X003132Y004722D01*
X003155Y004710D01*
X003180Y004702D01*
X003206Y004697D01*
X003232Y004695D01*
X003732Y004695D01*
X003758Y004697D01*
X003784Y004702D01*
X003809Y004710D01*
X003832Y004722D01*
X003854Y004736D01*
X003873Y004754D01*
X003891Y004773D01*
X003905Y004795D01*
X003917Y004818D01*
X003925Y004843D01*
X003930Y004869D01*
X003932Y004895D01*
X003932Y006195D01*
X003930Y006221D01*
X003925Y006247D01*
X003917Y006272D01*
X003905Y006295D01*
X003891Y006317D01*
X003873Y006336D01*
X003854Y006354D01*
X003832Y006368D01*
X003809Y006380D01*
X003784Y006388D01*
X003758Y006393D01*
X003732Y006395D01*
X005532Y011520D02*
X005532Y011820D01*
X005682Y011670D02*
X005382Y011670D01*
X003132Y011670D02*
X003134Y011743D01*
X003140Y011816D01*
X003150Y011888D01*
X003164Y011960D01*
X003181Y012031D01*
X003203Y012101D01*
X003228Y012170D01*
X003257Y012237D01*
X003289Y012302D01*
X003325Y012366D01*
X003365Y012428D01*
X003407Y012487D01*
X003453Y012544D01*
X003502Y012598D01*
X003554Y012650D01*
X003608Y012699D01*
X003665Y012745D01*
X003724Y012787D01*
X003786Y012827D01*
X003850Y012863D01*
X003915Y012895D01*
X003982Y012924D01*
X004051Y012949D01*
X004121Y012971D01*
X004192Y012988D01*
X004264Y013002D01*
X004336Y013012D01*
X004409Y013018D01*
X004482Y013020D01*
X004555Y013018D01*
X004628Y013012D01*
X004700Y013002D01*
X004772Y012988D01*
X004843Y012971D01*
X004913Y012949D01*
X004982Y012924D01*
X005049Y012895D01*
X005114Y012863D01*
X005178Y012827D01*
X005240Y012787D01*
X005299Y012745D01*
X005356Y012699D01*
X005410Y012650D01*
X005462Y012598D01*
X005511Y012544D01*
X005557Y012487D01*
X005599Y012428D01*
X005639Y012366D01*
X005675Y012302D01*
X005707Y012237D01*
X005736Y012170D01*
X005761Y012101D01*
X005783Y012031D01*
X005800Y011960D01*
X005814Y011888D01*
X005824Y011816D01*
X005830Y011743D01*
X005832Y011670D01*
X005830Y011597D01*
X005824Y011524D01*
X005814Y011452D01*
X005800Y011380D01*
X005783Y011309D01*
X005761Y011239D01*
X005736Y011170D01*
X005707Y011103D01*
X005675Y011038D01*
X005639Y010974D01*
X005599Y010912D01*
X005557Y010853D01*
X005511Y010796D01*
X005462Y010742D01*
X005410Y010690D01*
X005356Y010641D01*
X005299Y010595D01*
X005240Y010553D01*
X005178Y010513D01*
X005114Y010477D01*
X005049Y010445D01*
X004982Y010416D01*
X004913Y010391D01*
X004843Y010369D01*
X004772Y010352D01*
X004700Y010338D01*
X004628Y010328D01*
X004555Y010322D01*
X004482Y010320D01*
X004409Y010322D01*
X004336Y010328D01*
X004264Y010338D01*
X004192Y010352D01*
X004121Y010369D01*
X004051Y010391D01*
X003982Y010416D01*
X003915Y010445D01*
X003850Y010477D01*
X003786Y010513D01*
X003724Y010553D01*
X003665Y010595D01*
X003608Y010641D01*
X003554Y010690D01*
X003502Y010742D01*
X003453Y010796D01*
X003407Y010853D01*
X003365Y010912D01*
X003325Y010974D01*
X003289Y011038D01*
X003257Y011103D01*
X003228Y011170D01*
X003203Y011239D01*
X003181Y011309D01*
X003164Y011380D01*
X003150Y011452D01*
X003140Y011524D01*
X003134Y011597D01*
X003132Y011670D01*
X006282Y013020D02*
X006282Y013170D01*
X006332Y013220D01*
X006332Y015120D01*
X006282Y015170D01*
X006282Y015320D01*
X006284Y015337D01*
X006288Y015354D01*
X006295Y015370D01*
X006305Y015384D01*
X006318Y015397D01*
X006332Y015407D01*
X006348Y015414D01*
X006365Y015418D01*
X006382Y015420D01*
X005482Y014870D02*
X004482Y014870D01*
X004482Y016470D01*
X005482Y016470D01*
X005482Y014870D01*
X004982Y015420D02*
X004982Y015670D01*
X005232Y015670D01*
X004982Y015670D02*
X005232Y016070D01*
X004732Y016070D01*
X004982Y015670D01*
X004732Y015670D01*
X004982Y015670D02*
X004982Y016270D01*
X007082Y015420D02*
X007099Y015418D01*
X007116Y015414D01*
X007132Y015407D01*
X007146Y015397D01*
X007159Y015384D01*
X007169Y015370D01*
X007176Y015354D01*
X007180Y015337D01*
X007182Y015320D01*
X007182Y015170D01*
X007132Y015120D01*
X007132Y013220D01*
X007182Y013170D01*
X007182Y013020D01*
X007180Y013003D01*
X007176Y012986D01*
X007169Y012970D01*
X007159Y012956D01*
X007146Y012943D01*
X007132Y012933D01*
X007116Y012926D01*
X007099Y012922D01*
X007082Y012920D01*
X006382Y012920D02*
X006365Y012922D01*
X006348Y012926D01*
X006332Y012933D01*
X006318Y012943D01*
X006305Y012956D01*
X006295Y012970D01*
X006288Y012986D01*
X006284Y013003D01*
X006282Y013020D01*
X010332Y017345D02*
X011632Y017345D01*
X011658Y017347D01*
X011684Y017352D01*
X011709Y017360D01*
X011732Y017372D01*
X011754Y017386D01*
X011773Y017404D01*
X011791Y017423D01*
X011805Y017445D01*
X011817Y017468D01*
X011825Y017493D01*
X011830Y017519D01*
X011832Y017545D01*
X011832Y018045D01*
X011830Y018071D01*
X011825Y018097D01*
X011817Y018122D01*
X011805Y018145D01*
X011791Y018167D01*
X011773Y018186D01*
X011754Y018204D01*
X011732Y018218D01*
X011709Y018230D01*
X011684Y018238D01*
X011658Y018243D01*
X011632Y018245D01*
X010332Y018245D01*
X010306Y018243D01*
X010280Y018238D01*
X010255Y018230D01*
X010232Y018218D01*
X010210Y018204D01*
X010191Y018186D01*
X010173Y018167D01*
X010159Y018145D01*
X010147Y018122D01*
X010139Y018097D01*
X010134Y018071D01*
X010132Y018045D01*
X010132Y017545D01*
X010134Y017519D01*
X010139Y017493D01*
X010147Y017468D01*
X010159Y017445D01*
X010173Y017423D01*
X010191Y017404D01*
X010210Y017386D01*
X010232Y017372D01*
X010255Y017360D01*
X010280Y017352D01*
X010306Y017347D01*
X010332Y017345D01*
X013272Y023695D02*
X013274Y023748D01*
X013280Y023801D01*
X013290Y023853D01*
X013304Y023904D01*
X013321Y023954D01*
X013342Y024003D01*
X013367Y024050D01*
X013395Y024095D01*
X013427Y024138D01*
X013462Y024178D01*
X013499Y024215D01*
X013539Y024250D01*
X013582Y024282D01*
X013627Y024310D01*
X013674Y024335D01*
X013723Y024356D01*
X013773Y024373D01*
X013824Y024387D01*
X013876Y024397D01*
X013929Y024403D01*
X013982Y024405D01*
X014035Y024403D01*
X014088Y024397D01*
X014140Y024387D01*
X014191Y024373D01*
X014241Y024356D01*
X014290Y024335D01*
X014337Y024310D01*
X014382Y024282D01*
X014425Y024250D01*
X014465Y024215D01*
X014502Y024178D01*
X014537Y024138D01*
X014569Y024095D01*
X014597Y024050D01*
X014622Y024003D01*
X014643Y023954D01*
X014660Y023904D01*
X014674Y023853D01*
X014684Y023801D01*
X014690Y023748D01*
X014692Y023695D01*
X014690Y023642D01*
X014684Y023589D01*
X014674Y023537D01*
X014660Y023486D01*
X014643Y023436D01*
X014622Y023387D01*
X014597Y023340D01*
X014569Y023295D01*
X014537Y023252D01*
X014502Y023212D01*
X014465Y023175D01*
X014425Y023140D01*
X014382Y023108D01*
X014337Y023080D01*
X014290Y023055D01*
X014241Y023034D01*
X014191Y023017D01*
X014140Y023003D01*
X014088Y022993D01*
X014035Y022987D01*
X013982Y022985D01*
X013929Y022987D01*
X013876Y022993D01*
X013824Y023003D01*
X013773Y023017D01*
X013723Y023034D01*
X013674Y023055D01*
X013627Y023080D01*
X013582Y023108D01*
X013539Y023140D01*
X013499Y023175D01*
X013462Y023212D01*
X013427Y023252D01*
X013395Y023295D01*
X013367Y023340D01*
X013342Y023387D01*
X013321Y023436D01*
X013304Y023486D01*
X013290Y023537D01*
X013280Y023589D01*
X013274Y023642D01*
X013272Y023695D01*
D12*
X013262Y021961D02*
X013052Y021961D01*
X012947Y021855D01*
X012947Y021435D01*
X013052Y021330D01*
X013262Y021330D01*
X013367Y021435D01*
X013592Y021645D02*
X014012Y021645D01*
X013907Y021330D02*
X013907Y021961D01*
X013592Y021645D01*
X013367Y021855D02*
X013262Y021961D01*
X012727Y021961D02*
X012517Y021961D01*
X012622Y021961D02*
X012622Y021330D01*
X012517Y021330D02*
X012727Y021330D01*
X009927Y017021D02*
X009927Y016390D01*
X009717Y016390D02*
X010137Y016390D01*
X009717Y016810D02*
X009927Y017021D01*
X009492Y016915D02*
X009387Y017021D01*
X009177Y017021D01*
X009072Y016915D01*
X009072Y016495D01*
X009177Y016390D01*
X009387Y016390D01*
X009492Y016495D01*
X008852Y016390D02*
X008642Y016390D01*
X008747Y016390D02*
X008747Y017021D01*
X008642Y017021D02*
X008852Y017021D01*
X009497Y014856D02*
X009707Y014856D01*
X009812Y014751D01*
X009812Y014435D01*
X010022Y014435D02*
X009392Y014435D01*
X009392Y014751D01*
X009497Y014856D01*
X009497Y014211D02*
X009917Y013791D01*
X010022Y013896D01*
X010022Y014106D01*
X009917Y014211D01*
X009497Y014211D01*
X009392Y014106D01*
X009392Y013896D01*
X009497Y013791D01*
X009917Y013791D01*
X010022Y013567D02*
X010022Y013146D01*
X009602Y013567D01*
X009497Y013567D01*
X009392Y013462D01*
X009392Y013251D01*
X009497Y013146D01*
X009707Y012922D02*
X009707Y012502D01*
X009602Y012278D02*
X009707Y012173D01*
X009707Y011962D01*
X009602Y011857D01*
X009497Y011857D01*
X009392Y011962D01*
X009392Y012173D01*
X009497Y012278D01*
X009602Y012278D01*
X009707Y012173D02*
X009812Y012278D01*
X009917Y012278D01*
X010022Y012173D01*
X010022Y011962D01*
X009917Y011857D01*
X009812Y011857D01*
X009707Y011962D01*
X009812Y011633D02*
X009707Y011528D01*
X009707Y011213D01*
X009917Y011213D01*
X010022Y011318D01*
X010022Y011528D01*
X009917Y011633D01*
X009812Y011633D01*
X009497Y011423D02*
X009707Y011213D01*
X009497Y011423D02*
X009392Y011633D01*
X009392Y010778D02*
X010022Y010778D01*
X010022Y010568D02*
X010022Y010988D01*
X009602Y010568D02*
X009392Y010778D01*
X009602Y010344D02*
X010022Y010344D01*
X009707Y010344D02*
X009707Y009924D01*
X009602Y009924D02*
X009392Y010134D01*
X009602Y010344D01*
X009602Y009924D02*
X010022Y009924D01*
X009917Y009699D02*
X009707Y009699D01*
X009707Y009489D01*
X009497Y009279D02*
X009917Y009279D01*
X010022Y009384D01*
X010022Y009594D01*
X009917Y009699D01*
X009497Y009699D02*
X009392Y009594D01*
X009392Y009384D01*
X009497Y009279D01*
X009392Y009055D02*
X009392Y008634D01*
X010022Y008634D01*
X010022Y009055D01*
X009707Y008845D02*
X009707Y008634D01*
X009392Y008410D02*
X009602Y008200D01*
X009392Y007990D01*
X010022Y007990D01*
X010022Y007556D02*
X009392Y007556D01*
X009392Y007766D02*
X009392Y007345D01*
X009602Y007121D02*
X010022Y007121D01*
X009707Y007121D02*
X009707Y006701D01*
X009602Y006701D02*
X009392Y006911D01*
X009602Y007121D01*
X009602Y006701D02*
X010022Y006701D01*
X010022Y008410D02*
X009392Y008410D01*
X022767Y008916D02*
X023397Y009336D01*
X023397Y009560D02*
X023397Y009981D01*
X023397Y009771D02*
X022767Y009771D01*
X022977Y009560D01*
X022767Y009336D02*
X023397Y008916D01*
D13*
X018562Y011403D02*
X018102Y011403D01*
X018255Y011556D01*
X018102Y011710D01*
X018562Y011710D01*
X018562Y011863D02*
X018255Y011863D01*
X018102Y012016D01*
X018255Y012170D01*
X018562Y012170D01*
X018562Y012323D02*
X018102Y012630D01*
X018179Y012784D02*
X018102Y012861D01*
X018102Y013014D01*
X018179Y013091D01*
X018255Y013091D01*
X018562Y012784D01*
X018562Y013091D01*
X018486Y013244D02*
X018562Y013321D01*
X018562Y013474D01*
X018486Y013551D01*
X018409Y013551D01*
X018332Y013474D01*
X018332Y013398D01*
X018332Y013474D02*
X018255Y013551D01*
X018179Y013551D01*
X018102Y013474D01*
X018102Y013321D01*
X018179Y013244D01*
X018179Y013705D02*
X018102Y013781D01*
X018102Y013935D01*
X018179Y014012D01*
X018255Y014012D01*
X018332Y013935D01*
X018409Y014012D01*
X018486Y014012D01*
X018562Y013935D01*
X018562Y013781D01*
X018486Y013705D01*
X018332Y013858D02*
X018332Y013935D01*
X018562Y012630D02*
X018102Y012323D01*
X018332Y012170D02*
X018332Y011863D01*
X018127Y015465D02*
X017820Y015465D01*
X018127Y015772D01*
X018127Y015849D01*
X018050Y015925D01*
X017896Y015925D01*
X017820Y015849D01*
X017666Y015849D02*
X017589Y015925D01*
X017436Y015925D01*
X017359Y015849D01*
X017359Y015542D01*
X017436Y015465D01*
X017589Y015465D01*
X017666Y015542D01*
X017206Y015465D02*
X017052Y015465D01*
X017129Y015465D02*
X017129Y015925D01*
X017052Y015925D02*
X017206Y015925D01*
X013330Y022298D02*
X013446Y022415D01*
X013388Y022415D01*
X013388Y022473D01*
X013446Y022473D01*
X013446Y022415D01*
X013569Y022415D02*
X013803Y022649D01*
X013803Y022707D01*
X013744Y022765D01*
X013627Y022765D01*
X013569Y022707D01*
X013569Y022415D02*
X013803Y022415D01*
X013928Y022415D02*
X013928Y022649D01*
X013986Y022649D01*
X014045Y022590D01*
X014103Y022649D01*
X014162Y022590D01*
X014162Y022415D01*
X014045Y022415D02*
X014045Y022590D01*
X014287Y022649D02*
X014346Y022649D01*
X014404Y022590D01*
X014462Y022649D01*
X014521Y022590D01*
X014521Y022415D01*
X014404Y022415D02*
X014404Y022590D01*
X014287Y022649D02*
X014287Y022415D01*
X013204Y022473D02*
X013146Y022415D01*
X013029Y022415D01*
X012970Y022473D01*
X012970Y022590D02*
X013087Y022649D01*
X013146Y022649D01*
X013204Y022590D01*
X013204Y022473D01*
X012970Y022590D02*
X012970Y022765D01*
X013204Y022765D01*
X012728Y022765D02*
X012728Y022415D01*
X012611Y022415D02*
X012845Y022415D01*
X012611Y022649D02*
X012728Y022765D01*
X012486Y022649D02*
X012486Y022415D01*
X012486Y022590D02*
X012252Y022590D01*
X012252Y022649D02*
X012252Y022415D01*
X012252Y022649D02*
X012369Y022765D01*
X012486Y022649D01*
D14*
X024600Y024301D02*
X024600Y018789D01*
X029482Y018789D01*
X029482Y024301D01*
X024600Y024301D01*
D15*
X026987Y023503D02*
X027137Y023503D01*
X027062Y023503D02*
X027062Y023403D01*
X027137Y023403D02*
X026987Y023403D01*
X026987Y023355D02*
X026987Y023255D01*
X026987Y023305D02*
X027137Y023305D01*
X027062Y023208D02*
X027087Y023183D01*
X027087Y023108D01*
X027087Y023061D02*
X027062Y023036D01*
X027062Y022961D01*
X027112Y022961D01*
X027137Y022986D01*
X027137Y023036D01*
X027112Y023061D01*
X027087Y023061D01*
X027137Y023108D02*
X026987Y023108D01*
X026987Y023183D01*
X027012Y023208D01*
X027062Y023208D01*
X026987Y023061D02*
X027012Y023011D01*
X027062Y022961D01*
X027137Y022913D02*
X026987Y022913D01*
X026987Y022813D02*
X027137Y022913D01*
X027137Y022813D02*
X026987Y022813D01*
X026987Y022765D02*
X026987Y022715D01*
X026987Y022740D02*
X027137Y022740D01*
X027137Y022715D02*
X027137Y022765D01*
X027112Y022668D02*
X027012Y022668D01*
X026987Y022643D01*
X026987Y022568D01*
X027137Y022568D01*
X027137Y022643D01*
X027112Y022668D01*
X027062Y022521D02*
X027062Y022421D01*
X026987Y022372D02*
X026987Y022322D01*
X026987Y022347D02*
X027137Y022347D01*
X027137Y022322D02*
X027137Y022372D01*
X027137Y022275D02*
X026987Y022275D01*
X026987Y022175D02*
X027137Y022275D01*
X027137Y022175D02*
X026987Y022175D01*
X026987Y022127D02*
X026987Y022077D01*
X026987Y022102D02*
X027137Y022102D01*
X027137Y022077D02*
X027137Y022127D01*
X027137Y022030D02*
X026987Y022030D01*
X027037Y021979D01*
X026987Y021929D01*
X027137Y021929D01*
X027487Y023108D02*
X027612Y023108D01*
X027637Y023133D01*
X027637Y023183D01*
X027612Y023208D01*
X027487Y023208D01*
X027512Y023255D02*
X027487Y023280D01*
X027487Y023330D01*
X027512Y023355D01*
X027537Y023403D02*
X027487Y023453D01*
X027637Y023453D01*
X027637Y023403D02*
X027637Y023503D01*
X027612Y023355D02*
X027587Y023355D01*
X027562Y023330D01*
X027562Y023280D01*
X027537Y023255D01*
X027512Y023255D01*
X027462Y023305D02*
X027662Y023305D01*
X027637Y023280D02*
X027637Y023330D01*
X027612Y023355D01*
X027637Y023280D02*
X027612Y023255D01*
D16*
X024757Y023310D02*
X024757Y023160D01*
X024682Y023085D01*
X024532Y023085D02*
X024457Y023235D01*
X024457Y023310D01*
X024532Y023385D01*
X024682Y023385D01*
X024757Y023310D01*
X024532Y023085D02*
X024307Y023085D01*
X024307Y023385D01*
X024382Y022924D02*
X024307Y022849D01*
X024307Y022699D01*
X024382Y022624D01*
X024682Y022624D01*
X024757Y022699D01*
X024757Y022849D01*
X024682Y022924D01*
X023157Y022924D02*
X022932Y022924D01*
X022857Y022849D01*
X022857Y022624D01*
X023157Y022624D01*
X023082Y022464D02*
X023157Y022389D01*
X023157Y022239D01*
X023082Y022164D01*
X022782Y022464D01*
X023082Y022464D01*
X022782Y022464D02*
X022707Y022389D01*
X022707Y022239D01*
X022782Y022164D01*
X023082Y022164D01*
X023082Y022004D02*
X022782Y022004D01*
X023082Y021703D01*
X023157Y021778D01*
X023157Y021929D01*
X023082Y022004D01*
X022782Y022004D02*
X022707Y021929D01*
X022707Y021778D01*
X022782Y021703D01*
X023082Y021703D01*
X023157Y021543D02*
X023157Y021243D01*
X023237Y021120D02*
X023462Y021120D01*
X023538Y021195D01*
X023538Y021345D01*
X023462Y021420D01*
X023237Y021420D01*
X023237Y020970D01*
X023387Y021120D02*
X023538Y020970D01*
X023698Y020970D02*
X023998Y021270D01*
X023998Y021345D01*
X023923Y021420D01*
X023773Y021420D01*
X023698Y021345D01*
X023698Y020970D02*
X023998Y020970D01*
X023157Y021393D02*
X022707Y021393D01*
X022857Y021243D01*
X023237Y020170D02*
X023462Y020170D01*
X023538Y020095D01*
X023538Y019945D01*
X023462Y019870D01*
X023237Y019870D01*
X023237Y019990D02*
X023387Y020140D01*
X023387Y019690D01*
X023237Y019690D02*
X023538Y019690D01*
X023538Y019720D02*
X023387Y019870D01*
X023237Y019720D02*
X023237Y020170D01*
X023698Y020065D02*
X023698Y019765D01*
X023998Y020065D01*
X023998Y019765D01*
X023923Y019690D01*
X023773Y019690D01*
X023698Y019765D01*
X023698Y019720D02*
X023998Y019720D01*
X023848Y019720D02*
X023848Y020170D01*
X023698Y020020D01*
X023698Y020065D02*
X023773Y020140D01*
X023923Y020140D01*
X023998Y020065D01*
X024158Y020140D02*
X024158Y019690D01*
X024158Y019840D02*
X024458Y020140D01*
X024233Y019915D02*
X024458Y019690D01*
X024458Y018890D02*
X024158Y018590D01*
X024233Y018665D02*
X024458Y018440D01*
X024158Y018440D02*
X024158Y018890D01*
X023998Y018815D02*
X023698Y018515D01*
X023773Y018440D01*
X023923Y018440D01*
X023998Y018515D01*
X023998Y018815D01*
X023923Y018890D01*
X023773Y018890D01*
X023698Y018815D01*
X023698Y018515D01*
X023538Y018440D02*
X023237Y018440D01*
X023387Y018440D02*
X023387Y018890D01*
X023237Y018740D01*
X023157Y023085D02*
X022707Y023085D01*
X022707Y023385D01*
X022932Y023235D02*
X022932Y023085D01*
X017422Y018820D02*
X017122Y018820D01*
X017122Y018370D01*
X016962Y018370D02*
X016962Y018595D01*
X016887Y018670D01*
X016661Y018670D01*
X016661Y018370D01*
X016501Y018445D02*
X016426Y018370D01*
X016276Y018370D01*
X016201Y018445D01*
X016501Y018745D01*
X016501Y018445D01*
X016201Y018445D02*
X016201Y018745D01*
X016276Y018820D01*
X016426Y018820D01*
X016501Y018745D01*
X016041Y018745D02*
X016041Y018445D01*
X015966Y018370D01*
X015816Y018370D01*
X015741Y018445D01*
X016041Y018745D01*
X015966Y018820D01*
X015816Y018820D01*
X015741Y018745D01*
X015741Y018445D01*
X015581Y018370D02*
X015280Y018370D01*
X015430Y018370D02*
X015430Y018820D01*
X015280Y018670D01*
X016276Y017220D02*
X016201Y017145D01*
X016201Y016845D01*
X016276Y016770D01*
X016426Y016770D01*
X016501Y016845D01*
X016661Y016770D02*
X016962Y016770D01*
X016812Y016770D02*
X016812Y017220D01*
X016661Y017070D01*
X016501Y017145D02*
X016426Y017220D01*
X016276Y017220D01*
X017122Y017145D02*
X017122Y016845D01*
X017422Y017145D01*
X017422Y016845D01*
X017347Y016770D01*
X017197Y016770D01*
X017122Y016845D01*
X017122Y017145D02*
X017197Y017220D01*
X017347Y017220D01*
X017422Y017145D01*
X017272Y018595D02*
X017122Y018595D01*
X012449Y017220D02*
X012149Y017220D01*
X012149Y016770D01*
X011989Y016770D02*
X011989Y016995D01*
X011914Y017070D01*
X011688Y017070D01*
X011688Y016770D01*
X011528Y016845D02*
X011453Y016770D01*
X011303Y016770D01*
X011228Y016845D01*
X011528Y017145D01*
X011528Y016845D01*
X011228Y016845D02*
X011228Y017145D01*
X011303Y017220D01*
X011453Y017220D01*
X011528Y017145D01*
X011068Y017145D02*
X011068Y016845D01*
X010993Y016770D01*
X010843Y016770D01*
X010768Y016845D01*
X011068Y017145D01*
X010993Y017220D01*
X010843Y017220D01*
X010768Y017145D01*
X010768Y016845D01*
X010608Y016770D02*
X010307Y016770D01*
X010457Y016770D02*
X010457Y017220D01*
X010307Y017070D01*
X010382Y018370D02*
X010532Y018370D01*
X010608Y018445D01*
X010768Y018445D02*
X010843Y018370D01*
X010993Y018370D01*
X011068Y018445D01*
X011068Y018745D01*
X010993Y018820D01*
X010843Y018820D01*
X010768Y018745D01*
X010768Y018670D01*
X010843Y018595D01*
X011068Y018595D01*
X010608Y018745D02*
X010532Y018820D01*
X010382Y018820D01*
X010307Y018745D01*
X010307Y018445D01*
X010382Y018370D01*
X012149Y016995D02*
X012299Y016995D01*
X006927Y014516D02*
X006702Y014291D01*
X006777Y014216D02*
X006477Y014516D01*
X006477Y014216D02*
X006927Y014216D01*
X006852Y014056D02*
X006552Y014056D01*
X006852Y013755D01*
X006927Y013830D01*
X006927Y013981D01*
X006852Y014056D01*
X006552Y014056D02*
X006477Y013981D01*
X006477Y013830D01*
X006552Y013755D01*
X006852Y013755D01*
X006927Y013595D02*
X006927Y013295D01*
X006927Y013445D02*
X006477Y013445D01*
X006627Y013295D01*
X006157Y013195D02*
X005707Y013195D01*
X005707Y013420D01*
X005782Y013495D01*
X005932Y013495D01*
X006007Y013420D01*
X006007Y013195D01*
X006007Y013345D02*
X006157Y013495D01*
X005932Y013655D02*
X005932Y013956D01*
X005707Y013881D02*
X005932Y013655D01*
X006157Y013881D02*
X005707Y013881D01*
X005757Y014895D02*
X005607Y015045D01*
X006057Y015045D01*
X006057Y014895D02*
X006057Y015195D01*
X006057Y015355D02*
X005607Y015355D01*
X006057Y015656D01*
X005607Y015656D01*
X005832Y015816D02*
X005607Y016041D01*
X006057Y016041D01*
X005832Y016116D02*
X005832Y015816D01*
X005682Y016276D02*
X005607Y016351D01*
X005607Y016501D01*
X005682Y016576D01*
X005982Y016276D01*
X006057Y016351D01*
X006057Y016501D01*
X005982Y016576D01*
X005682Y016576D01*
X005682Y016737D02*
X005607Y016812D01*
X005607Y016962D01*
X005682Y017037D01*
X005982Y016737D01*
X006057Y016812D01*
X006057Y016962D01*
X005982Y017037D01*
X005682Y017037D01*
X005832Y017197D02*
X005832Y017497D01*
X006057Y017422D02*
X005607Y017422D01*
X005832Y017197D01*
X005982Y016737D02*
X005682Y016737D01*
X005682Y016276D02*
X005982Y016276D01*
X004307Y015656D02*
X004307Y015355D01*
X004307Y015506D02*
X003857Y015506D01*
X004007Y015355D01*
X003932Y015195D02*
X003857Y015120D01*
X003857Y014895D01*
X004307Y014895D01*
X004307Y015120D01*
X004232Y015195D01*
X003932Y015195D01*
X003147Y012895D02*
X002847Y012895D01*
X002847Y012445D01*
X002687Y012445D02*
X002687Y012745D01*
X002847Y012670D02*
X002997Y012670D01*
X002687Y012445D02*
X002462Y012445D01*
X002386Y012520D01*
X002386Y012745D01*
X002226Y012820D02*
X002226Y012520D01*
X002151Y012445D01*
X002001Y012445D01*
X001926Y012520D01*
X002226Y012820D01*
X002151Y012895D01*
X002001Y012895D01*
X001926Y012820D01*
X001926Y012520D01*
X001766Y012445D02*
X001466Y012445D01*
X001766Y012745D01*
X001766Y012820D01*
X001691Y012895D01*
X001541Y012895D01*
X001466Y012820D01*
X001306Y012820D02*
X001231Y012895D01*
X001080Y012895D01*
X001005Y012820D01*
X001306Y012820D02*
X001306Y012745D01*
X001005Y012445D01*
X001306Y012445D01*
X002462Y010845D02*
X002386Y010770D01*
X002386Y010470D01*
X002462Y010395D01*
X002612Y010395D01*
X002687Y010470D01*
X002847Y010470D02*
X002847Y010545D01*
X002922Y010620D01*
X003072Y010620D01*
X003147Y010545D01*
X003147Y010470D01*
X003072Y010395D01*
X002922Y010395D01*
X002847Y010470D01*
X002922Y010620D02*
X002847Y010695D01*
X002847Y010770D01*
X002922Y010845D01*
X003072Y010845D01*
X003147Y010770D01*
X003147Y010695D01*
X003072Y010620D01*
X002687Y010770D02*
X002612Y010845D01*
X002462Y010845D01*
X002457Y009610D02*
X002457Y009310D01*
X002907Y009310D01*
X002832Y009149D02*
X002907Y009074D01*
X002907Y008849D01*
X003057Y008849D02*
X002607Y008849D01*
X002607Y009074D01*
X002682Y009149D01*
X002832Y009149D01*
X002682Y009310D02*
X002682Y009460D01*
X002607Y008689D02*
X002532Y008689D01*
X002457Y008614D01*
X002457Y008464D01*
X002532Y008389D01*
X002532Y008229D02*
X002457Y008154D01*
X002457Y008003D01*
X002532Y007928D01*
X002532Y008229D02*
X002607Y008229D01*
X002907Y007928D01*
X002907Y008229D01*
X002907Y008389D02*
X002607Y008689D01*
X002907Y008689D02*
X002907Y008389D01*
X004057Y008924D02*
X004057Y009074D01*
X004132Y009149D01*
X004207Y009310D02*
X004057Y009460D01*
X004507Y009460D01*
X004507Y009310D02*
X004507Y009610D01*
X004432Y009149D02*
X004507Y009074D01*
X004507Y008924D01*
X004432Y008849D01*
X004132Y008849D01*
X004057Y008924D01*
X004057Y006551D02*
X004057Y006251D01*
X004507Y006251D01*
X004432Y006091D02*
X004507Y006016D01*
X004507Y005791D01*
X004657Y005791D02*
X004207Y005791D01*
X004207Y006016D01*
X004282Y006091D01*
X004432Y006091D01*
X004282Y006251D02*
X004282Y006401D01*
X004182Y006081D02*
X004182Y005780D01*
X004182Y005931D02*
X003732Y005931D01*
X003882Y005780D01*
X003807Y005620D02*
X004107Y005620D01*
X004182Y005545D01*
X004182Y005395D01*
X004107Y005320D01*
X003807Y005320D01*
X003732Y005395D01*
X003732Y005545D01*
X003807Y005620D01*
X004057Y005556D02*
X004057Y005405D01*
X004132Y005330D01*
X004132Y005170D02*
X004057Y005095D01*
X004057Y004945D01*
X004132Y004870D01*
X004132Y005170D02*
X004207Y005170D01*
X004507Y004870D01*
X004507Y005170D01*
X004507Y005330D02*
X004207Y005631D01*
X004132Y005631D01*
X004057Y005556D01*
X004032Y005470D02*
X004182Y005620D01*
X004507Y005631D02*
X004507Y005330D01*
X002907Y005330D02*
X002607Y005631D01*
X002532Y005631D01*
X002457Y005556D01*
X002457Y005405D01*
X002532Y005330D01*
X002532Y005170D02*
X002457Y005095D01*
X002457Y004945D01*
X002532Y004870D01*
X002832Y004870D01*
X002907Y004945D01*
X002907Y005095D01*
X002832Y005170D01*
X002907Y005330D02*
X002907Y005631D01*
X006532Y005470D02*
X006982Y005470D01*
X006982Y005320D02*
X006982Y005620D01*
X006982Y005780D02*
X006982Y006081D01*
X006982Y005931D02*
X006532Y005931D01*
X006682Y005780D01*
X006532Y005470D02*
X006682Y005320D01*
X006907Y006241D02*
X006907Y006316D01*
X006982Y006316D01*
X006982Y006241D01*
X006907Y006241D01*
X006907Y006471D02*
X006607Y006471D01*
X006532Y006546D01*
X006532Y006696D01*
X006607Y006771D01*
X006907Y006471D01*
X006982Y006546D01*
X006982Y006696D01*
X006907Y006771D01*
X006607Y006771D01*
X006532Y006931D02*
X006757Y006931D01*
X006682Y007082D01*
X006682Y007157D01*
X006757Y007232D01*
X006907Y007232D01*
X006982Y007157D01*
X006982Y007006D01*
X006907Y006931D01*
X006532Y006931D02*
X006532Y007232D01*
X006607Y007392D02*
X006682Y007392D01*
X006757Y007467D01*
X006757Y007692D01*
X006907Y007692D02*
X006607Y007692D01*
X006532Y007617D01*
X006532Y007467D01*
X006607Y007392D01*
X006907Y007392D02*
X006982Y007467D01*
X006982Y007617D01*
X006907Y007692D01*
X006982Y007852D02*
X006682Y008152D01*
X006607Y008152D01*
X006532Y008077D01*
X006532Y007927D01*
X006607Y007852D01*
X006982Y007852D02*
X006982Y008152D01*
X006982Y008313D02*
X006532Y008313D01*
X006682Y008463D01*
X006532Y008613D01*
X006982Y008613D01*
X006982Y008773D02*
X006532Y008773D01*
X006757Y008773D02*
X006757Y009073D01*
X006682Y009233D02*
X006682Y009534D01*
X006982Y009233D01*
X006982Y009534D01*
X006982Y009073D02*
X006532Y009073D01*
X011582Y009060D02*
X011582Y009360D01*
X011807Y009210D02*
X011807Y009060D01*
X011807Y008899D02*
X012032Y008899D01*
X012032Y009060D02*
X011582Y009060D01*
X011807Y008899D02*
X011732Y008824D01*
X011732Y008599D01*
X012032Y008599D01*
X011957Y008439D02*
X012032Y008364D01*
X012032Y008214D01*
X011957Y008139D01*
X011657Y008439D01*
X011957Y008439D01*
X011657Y008439D02*
X011582Y008364D01*
X011582Y008214D01*
X011657Y008139D01*
X011957Y008139D01*
X011957Y007979D02*
X011657Y007979D01*
X011957Y007678D01*
X012032Y007753D01*
X012032Y007904D01*
X011957Y007979D01*
X011657Y007979D02*
X011582Y007904D01*
X011582Y007753D01*
X011657Y007678D01*
X011957Y007678D01*
X012032Y007518D02*
X012032Y007218D01*
X012032Y007368D02*
X011582Y007368D01*
X011732Y007218D01*
X013182Y008674D02*
X013257Y008599D01*
X013557Y008599D01*
X013632Y008674D01*
X013632Y008824D01*
X013557Y008899D01*
X013557Y009060D02*
X013632Y009135D01*
X013632Y009285D01*
X013557Y009360D01*
X013482Y009360D01*
X013407Y009285D01*
X013407Y009210D01*
X013407Y009285D02*
X013332Y009360D01*
X013257Y009360D01*
X013182Y009285D01*
X013182Y009135D01*
X013257Y009060D01*
X013257Y008899D02*
X013182Y008824D01*
X013182Y008674D01*
X014332Y008714D02*
X014407Y008639D01*
X014707Y008639D01*
X014407Y008939D01*
X014707Y008939D01*
X014782Y008864D01*
X014782Y008714D01*
X014707Y008639D01*
X014707Y008479D02*
X014782Y008404D01*
X014782Y008253D01*
X014707Y008178D01*
X014407Y008479D01*
X014707Y008479D01*
X014407Y008479D02*
X014332Y008404D01*
X014332Y008253D01*
X014407Y008178D01*
X014707Y008178D01*
X014782Y008018D02*
X014782Y007718D01*
X014782Y007868D02*
X014332Y007868D01*
X014482Y007718D01*
X015082Y007695D02*
X015082Y007395D01*
X015157Y007320D01*
X015307Y007320D01*
X015383Y007395D01*
X015543Y007395D02*
X015543Y007320D01*
X015543Y007395D02*
X015843Y007695D01*
X015843Y007770D01*
X015543Y007770D01*
X015383Y007695D02*
X015307Y007770D01*
X015157Y007770D01*
X015082Y007695D01*
X014332Y008714D02*
X014332Y008864D01*
X014407Y008939D01*
X014482Y009099D02*
X014482Y009324D01*
X014557Y009399D01*
X014782Y009399D01*
X014782Y009560D02*
X014332Y009560D01*
X014332Y009860D01*
X014557Y009710D02*
X014557Y009560D01*
X014482Y009099D02*
X014782Y009099D01*
X015932Y009174D02*
X016007Y009099D01*
X016307Y009099D01*
X016382Y009174D01*
X016382Y009324D01*
X016307Y009399D01*
X016307Y009560D02*
X016382Y009635D01*
X016382Y009785D01*
X016307Y009860D01*
X016232Y009860D01*
X016157Y009785D01*
X016157Y009560D01*
X016307Y009560D01*
X016157Y009560D02*
X016007Y009710D01*
X015932Y009860D01*
X016007Y009399D02*
X015932Y009324D01*
X015932Y009174D01*
X015768Y006320D02*
X015618Y006320D01*
X015543Y006245D01*
X015543Y005945D01*
X015843Y006245D01*
X015843Y005945D01*
X015768Y005870D01*
X015618Y005870D01*
X015543Y005945D01*
X015383Y005870D02*
X015082Y005870D01*
X015232Y005870D02*
X015232Y006320D01*
X015082Y006170D01*
X015768Y006320D02*
X015843Y006245D01*
X016003Y006170D02*
X016003Y005945D01*
X016078Y005870D01*
X016303Y005870D01*
X016303Y006170D01*
X016463Y006095D02*
X016614Y006095D01*
X016463Y006320D02*
X016764Y006320D01*
X016463Y006320D02*
X016463Y005870D01*
X015522Y001895D02*
X015372Y001895D01*
X015297Y001820D01*
X015137Y001820D02*
X015137Y001670D01*
X015062Y001595D01*
X014836Y001595D01*
X014836Y001445D02*
X014836Y001895D01*
X015062Y001895D01*
X015137Y001820D01*
X015297Y001520D02*
X015372Y001445D01*
X015522Y001445D01*
X015597Y001520D01*
X015597Y001595D01*
X015522Y001670D01*
X015447Y001670D01*
X015522Y001670D02*
X015597Y001745D01*
X015597Y001820D01*
X015522Y001895D01*
X014676Y001895D02*
X014526Y001895D01*
X014601Y001895D02*
X014601Y001520D01*
X014526Y001445D01*
X014451Y001445D01*
X014376Y001520D01*
X024257Y008235D02*
X024482Y008235D01*
X024407Y008385D01*
X024407Y008460D01*
X024482Y008535D01*
X024632Y008535D01*
X024707Y008460D01*
X024707Y008310D01*
X024632Y008235D01*
X024257Y008235D02*
X024257Y008535D01*
X025257Y008460D02*
X025257Y008310D01*
X025332Y008235D01*
X025407Y008235D01*
X025482Y008310D01*
X025482Y008535D01*
X025632Y008535D02*
X025332Y008535D01*
X025257Y008460D01*
X025632Y008535D02*
X025707Y008460D01*
X025707Y008310D01*
X025632Y008235D01*
X026082Y005995D02*
X026007Y005920D01*
X026082Y005995D02*
X026232Y005995D01*
X026308Y005920D01*
X026308Y005845D01*
X026007Y005545D01*
X026308Y005545D01*
X026468Y005395D02*
X026618Y005545D01*
X026543Y005545D01*
X026543Y005620D01*
X026618Y005620D01*
X026618Y005545D01*
X026775Y005620D02*
X026850Y005545D01*
X027000Y005545D01*
X027075Y005620D01*
X027075Y005770D01*
X027000Y005845D01*
X026925Y005845D01*
X026775Y005770D01*
X026775Y005995D01*
X027075Y005995D01*
X027235Y005770D02*
X027535Y005770D01*
X027460Y005545D02*
X027460Y005995D01*
X027235Y005770D01*
X028357Y013064D02*
X028357Y013364D01*
X028432Y013524D02*
X028357Y013599D01*
X028357Y013749D01*
X028432Y013824D01*
X028732Y013524D01*
X028807Y013599D01*
X028807Y013749D01*
X028732Y013824D01*
X028432Y013824D01*
X028432Y013985D02*
X028507Y013985D01*
X028582Y014060D01*
X028582Y014285D01*
X028432Y014285D02*
X028357Y014210D01*
X028357Y014060D01*
X028432Y013985D01*
X028432Y014285D02*
X028732Y014285D01*
X028807Y014210D01*
X028807Y014060D01*
X028732Y013985D01*
X028732Y013524D02*
X028432Y013524D01*
X028582Y013214D02*
X028582Y013064D01*
X028807Y013064D02*
X028357Y013064D01*
X025707Y014060D02*
X025707Y014210D01*
X025632Y014285D01*
X025557Y014285D01*
X025482Y014210D01*
X025482Y013985D01*
X025632Y013985D01*
X025707Y014060D01*
X025482Y013985D02*
X025332Y014135D01*
X025257Y014285D01*
X024707Y014285D02*
X024707Y013985D01*
X024707Y014135D02*
X024257Y014135D01*
X024407Y013985D01*
X005873Y019859D02*
X000125Y019859D01*
X000125Y023402D01*
X005873Y023402D01*
X005873Y019859D01*
D17*
X027832Y011420D03*
D18*
X029482Y011420D03*
D19*
X026257Y011430D03*
X026257Y012500D03*
X026257Y013580D03*
X026257Y010340D03*
X026257Y009260D03*
D20*
X026757Y009800D03*
X026757Y010890D03*
X026757Y011960D03*
X026757Y013040D03*
D21*
X006257Y008445D02*
X006257Y006145D01*
X006255Y006086D01*
X006249Y006028D01*
X006240Y005969D01*
X006226Y005912D01*
X006209Y005856D01*
X006188Y005801D01*
X006164Y005747D01*
X006136Y005695D01*
X006105Y005645D01*
X006071Y005597D01*
X006034Y005552D01*
X005993Y005509D01*
X005950Y005468D01*
X005905Y005431D01*
X005857Y005397D01*
X005807Y005366D01*
X005755Y005338D01*
X005701Y005314D01*
X005646Y005293D01*
X005590Y005276D01*
X005533Y005262D01*
X005474Y005253D01*
X005416Y005247D01*
X005357Y005245D01*
X005298Y005247D01*
X005240Y005253D01*
X005181Y005262D01*
X005124Y005276D01*
X005068Y005293D01*
X005013Y005314D01*
X004959Y005338D01*
X004907Y005366D01*
X004857Y005397D01*
X004809Y005431D01*
X004764Y005468D01*
X004721Y005509D01*
X004680Y005552D01*
X004643Y005597D01*
X004609Y005645D01*
X004578Y005695D01*
X004550Y005747D01*
X004526Y005801D01*
X004505Y005856D01*
X004488Y005912D01*
X004474Y005969D01*
X004465Y006028D01*
X004459Y006086D01*
X004457Y006145D01*
X004457Y008445D01*
X004459Y008504D01*
X004465Y008562D01*
X004474Y008621D01*
X004488Y008678D01*
X004505Y008734D01*
X004526Y008789D01*
X004550Y008843D01*
X004578Y008895D01*
X004609Y008945D01*
X004643Y008993D01*
X004680Y009038D01*
X004721Y009081D01*
X004764Y009122D01*
X004809Y009159D01*
X004857Y009193D01*
X004907Y009224D01*
X004959Y009252D01*
X005013Y009276D01*
X005068Y009297D01*
X005124Y009314D01*
X005181Y009328D01*
X005240Y009337D01*
X005298Y009343D01*
X005357Y009345D01*
X005416Y009343D01*
X005474Y009337D01*
X005533Y009328D01*
X005590Y009314D01*
X005646Y009297D01*
X005701Y009276D01*
X005755Y009252D01*
X005807Y009224D01*
X005857Y009193D01*
X005905Y009159D01*
X005950Y009122D01*
X005993Y009081D01*
X006034Y009038D01*
X006071Y008993D01*
X006105Y008945D01*
X006136Y008895D01*
X006164Y008843D01*
X006188Y008789D01*
X006209Y008734D01*
X006226Y008678D01*
X006240Y008621D01*
X006249Y008562D01*
X006255Y008504D01*
X006257Y008445D01*
D22*
X003782Y008915D02*
X003182Y008915D01*
X003182Y009165D02*
X003782Y009165D01*
X003782Y005675D02*
X003182Y005675D01*
X003182Y005425D02*
X003782Y005425D01*
X012307Y008665D02*
X012907Y008665D01*
X012907Y008915D02*
X012307Y008915D01*
X015057Y009165D02*
X015657Y009165D01*
X015657Y009415D02*
X015057Y009415D01*
X016727Y017495D02*
X016727Y018095D01*
X016977Y018095D02*
X016977Y017495D01*
X011112Y017495D02*
X011112Y018095D01*
X010862Y018095D02*
X010862Y017495D01*
X023432Y022540D02*
X023732Y022540D01*
X024032Y022540D01*
X024032Y022790D02*
X023732Y022790D01*
X023432Y022790D01*
D23*
X023332Y020545D02*
X023132Y020545D01*
X023132Y019295D02*
X023332Y019295D01*
D24*
X015782Y019045D02*
X015782Y022295D01*
X012182Y022295D01*
X012182Y019045D01*
X015782Y019045D01*
D25*
X014982Y018620D03*
X013982Y018620D03*
X012982Y018620D03*
D26*
X004982Y015120D03*
D27*
X004982Y014495D03*
X004982Y016845D03*
M02*
