%
M48
M72
T01C0.0276
T02C0.0315
T03C0.0320
T04C0.0400
T05C0.0470
T06C0.1575
%
T01
X6795Y9170
X10295Y11920
X10670Y14170
X21295Y11920
X25920Y12795
X34420Y7045
X9795Y24420
X19420Y27795
T02
X17670Y27420
X17670Y26420
X17670Y25420
X17670Y24420
X17670Y23420
X17670Y22420
X17670Y21420
X17670Y20420
X17670Y19420
X17670Y18420
X17670Y17420
X17670Y16420
X17670Y15420
X17670Y14420
X17670Y13420
X17670Y12420
X17670Y11420
X17670Y10420
X11670Y10420
X11670Y11420
X11670Y12420
X11670Y13420
X11670Y14420
X11670Y15420
X11670Y16420
X11670Y17420
X11670Y18420
X11670Y19420
X11670Y20420
X11670Y21420
X11670Y22420
X11670Y23420
X11670Y24420
X11670Y25420
X11670Y26420
X11670Y27420
X11670Y28420
X11670Y29420
X17670Y29420
X17670Y28420
X98545Y21795
X101545Y21795
X101545Y20795
X98545Y20795
X98545Y19795
X101545Y19795
X101545Y18795
X101545Y17795
X98545Y17795
X98545Y18795
X98545Y16795
X101545Y16795
X101545Y15795
X98545Y15795
X98545Y14795
X101545Y14795
X101545Y13795
X101545Y12795
X98545Y12795
X98545Y13795
X98545Y11795
X101545Y11795
X101545Y10795
X98545Y10795
T03
X99545Y24295
X101545Y24295
X101295Y25795
X97295Y25795
X96170Y24670
X96170Y28670
X37795Y6795
X36795Y6795
X8670Y9170
X8670Y10170
X8670Y11170
X8670Y12170
X8670Y13170
X8670Y14170
X8670Y15170
X5670Y15170
X5670Y14170
X5670Y13170
X5670Y12170
X5670Y11170
X5670Y10170
X4545Y10170
X3545Y10170
X5670Y9170
X6295Y7795
X4295Y7795
X4295Y6795
X6295Y6795
X3170Y12720
X3170Y14620
X3170Y16545
X4170Y16545
X6170Y16670
X8170Y16670
X4170Y17670
X2920Y17670
X2920Y18670
X4170Y18670
X8670Y20670
X9670Y20670
X10045Y22420
X8045Y22420
X6545Y23045
X6545Y24045
X6545Y25045
X6545Y26045
X8545Y26420
X9545Y26420
X6545Y27045
X6545Y28045
X6545Y29045
X8545Y28420
X9545Y28420
X6170Y30545
X4170Y30545
X3545Y29045
X3545Y28045
X3545Y27045
X3545Y26045
X3545Y25045
X3545Y24045
X3545Y23045
X19420Y29170
X19420Y30295
X23420Y30295
X23420Y29170
T04
X23420Y27295
X24420Y27295
X24420Y26295
X23420Y26295
X23420Y25295
X24420Y25295
X24420Y24295
X23420Y24295
X23420Y23295
X24420Y23295
X24420Y22295
X23420Y22295
X23420Y21295
X24420Y21295
X24420Y20295
X23420Y20295
X23420Y19295
X24420Y19295
X24420Y18295
X23420Y18295
X23420Y17295
X24420Y17295
X24420Y16295
X23420Y16295
X23420Y15295
X24420Y15295
X24420Y14295
X23420Y14295
X23420Y13295
X24420Y13295
X24420Y12295
X23420Y12295
X23420Y11295
X24420Y11295
X24420Y10295
X23420Y10295
X23420Y9295
X24420Y9295
X24420Y8295
X23420Y8295
X33420Y8295
X34420Y8295
X34420Y9295
X33420Y9295
X33420Y10295
X34420Y10295
X34420Y11295
X33420Y11295
X33420Y12295
X34420Y12295
X34420Y13295
X33420Y13295
X33420Y14295
X34420Y14295
X34420Y15295
X33420Y15295
X33420Y16295
X34420Y16295
X34420Y17295
X33420Y17295
X33420Y18295
X34420Y18295
X34420Y19295
X33420Y19295
X33420Y20295
X34420Y20295
X34420Y21295
X33420Y21295
X33420Y22295
X34420Y22295
X34420Y23295
X33420Y23295
X33420Y24295
X34420Y24295
X34420Y25295
X33420Y25295
X33420Y26295
X34420Y26295
X34420Y27295
X33420Y27295
X43420Y27295
X44420Y27295
X44420Y26295
X43420Y26295
X43420Y25295
X44420Y25295
X44420Y24295
X43420Y24295
X43420Y23295
X44420Y23295
X44420Y22295
X43420Y22295
X43420Y21295
X44420Y21295
X44420Y20295
X43420Y20295
X43420Y19295
X44420Y19295
X44420Y18295
X43420Y18295
X43420Y17295
X44420Y17295
X44420Y16295
X43420Y16295
X43420Y15295
X44420Y15295
X44420Y14295
X43420Y14295
X43420Y13295
X44420Y13295
X44420Y12295
X43420Y12295
X43420Y11295
X44420Y11295
X44420Y10295
X43420Y10295
X43420Y9295
X44420Y9295
X44420Y8295
X43420Y8295
X53420Y8295
X54420Y8295
X54420Y9295
X53420Y9295
X53420Y10295
X54420Y10295
X54420Y11295
X53420Y11295
X53420Y12295
X54420Y12295
X54420Y13295
X53420Y13295
X53420Y14295
X54420Y14295
X54420Y15295
X53420Y15295
X53420Y16295
X54420Y16295
X54420Y17295
X53420Y17295
X53420Y18295
X54420Y18295
X54420Y19295
X53420Y19295
X53420Y20295
X54420Y20295
X54420Y21295
X53420Y21295
X53420Y22295
X54420Y22295
X54420Y23295
X53420Y23295
X53420Y24295
X54420Y24295
X54420Y25295
X53420Y25295
X53420Y26295
X54420Y26295
X54420Y27295
X53420Y27295
X63420Y27295
X64420Y27295
X64420Y26295
X63420Y26295
X63420Y25295
X64420Y25295
X64420Y24295
X63420Y24295
X63420Y23295
X64420Y23295
X64420Y22295
X63420Y22295
X63420Y21295
X64420Y21295
X64420Y20295
X63420Y20295
X63420Y19295
X64420Y19295
X64420Y18295
X63420Y18295
X63420Y17295
X64420Y17295
X64420Y16295
X63420Y16295
X63420Y15295
X64420Y15295
X64420Y14295
X63420Y14295
X63420Y13295
X64420Y13295
X64420Y12295
X63420Y12295
X63420Y11295
X64420Y11295
X64420Y10295
X63420Y10295
X63420Y9295
X64420Y9295
X64420Y8295
X63420Y8295
X73420Y8295
X74420Y8295
X74420Y9295
X73420Y9295
X73420Y10295
X74420Y10295
X74420Y11295
X73420Y11295
X73420Y12295
X74420Y12295
X74420Y13295
X73420Y13295
X73420Y14295
X74420Y14295
X74420Y15295
X73420Y15295
X73420Y16295
X74420Y16295
X74420Y17295
X73420Y17295
X73420Y18295
X74420Y18295
X74420Y19295
X73420Y19295
X73420Y20295
X74420Y20295
X74420Y21295
X73420Y21295
X73420Y22295
X74420Y22295
X74420Y23295
X73420Y23295
X73420Y24295
X74420Y24295
X74420Y25295
X73420Y25295
X73420Y26295
X74420Y26295
X74420Y27295
X73420Y27295
X83420Y27295
X84420Y27295
X84420Y26295
X83420Y26295
X83420Y25295
X84420Y25295
X84420Y24295
X83420Y24295
X83420Y23295
X84420Y23295
X84420Y22295
X83420Y22295
X83420Y21295
X84420Y21295
X84420Y20295
X83420Y20295
X83420Y19295
X84420Y19295
X84420Y18295
X83420Y18295
X83420Y17295
X84420Y17295
X84420Y16295
X83420Y16295
X83420Y15295
X84420Y15295
X84420Y14295
X83420Y14295
X83420Y13295
X84420Y13295
X84420Y12295
X83420Y12295
X83420Y11295
X84420Y11295
X84420Y10295
X83420Y10295
X83420Y9295
X84420Y9295
X84420Y8295
X83420Y8295
X93420Y8295
X94420Y8295
X94420Y9295
X93420Y9295
X93420Y10295
X94420Y10295
X94420Y11295
X93420Y11295
X93420Y12295
X94420Y12295
X94420Y13295
X93420Y13295
X93420Y14295
X94420Y14295
X94420Y15295
X93420Y15295
X93420Y16295
X94420Y16295
X94420Y17295
X93420Y17295
X93420Y18295
X94420Y18295
X94420Y19295
X93420Y19295
X93420Y20295
X94420Y20295
X94420Y21295
X93420Y21295
X93420Y22295
X94420Y22295
X94420Y23295
X93420Y23295
X93420Y24295
X94420Y24295
X94420Y25295
X93420Y25295
X93420Y26295
X94420Y26295
X94420Y27295
X93420Y27295
X96545Y30795
X97545Y30795
X6420Y21295
X5420Y21295
X4420Y21295
X3420Y21295
X3420Y20295
X4420Y20295
X5420Y20295
X6420Y20295
X6295Y5795
X5295Y5795
X4295Y5795
X7295Y5795
T05
X101295Y28311
X101295Y30279
T06
X12920Y2295
X33420Y2295
X33420Y2295
X53920Y2295
X73920Y2295
X93920Y2295
X93920Y33295
X73920Y33295
X53920Y33295
X33420Y33295
X12920Y33295
M30
