G75*
%MOIN*%
%OFA0B0*%
%FSLAX24Y24*%
%IPPOS*%
%LPD*%
%AMOC8*
5,1,8,0,0,1.08239X$1,22.5*
%
%ADD10C,0.1655*%
%ADD11C,0.0595*%
%ADD12R,0.0680X0.0680*%
%ADD13OC8,0.0680*%
%ADD14OC8,0.0710*%
%ADD15C,0.0710*%
%ADD16OC8,0.0600*%
%ADD17C,0.0785*%
%ADD18C,0.0680*%
%ADD19C,0.0600*%
%ADD20C,0.0600*%
%ADD21C,0.0749*%
%ADD22C,0.0516*%
D10*
X012920Y002295D03*
X033420Y002295D03*
X033420Y002295D03*
X053920Y002295D03*
X073920Y002295D03*
X093920Y002295D03*
X093920Y033295D03*
X073920Y033295D03*
X053920Y033295D03*
X033420Y033295D03*
X012920Y033295D03*
D11*
X011927Y029420D02*
X011413Y029420D01*
X011413Y028420D02*
X011927Y028420D01*
X011927Y027420D02*
X011413Y027420D01*
X011413Y026420D02*
X011927Y026420D01*
X011927Y025420D02*
X011413Y025420D01*
X011413Y024420D02*
X011927Y024420D01*
X011927Y023420D02*
X011413Y023420D01*
X011413Y022420D02*
X011927Y022420D01*
X011927Y021420D02*
X011413Y021420D01*
X011413Y020420D02*
X011927Y020420D01*
X011927Y019420D02*
X011413Y019420D01*
X011413Y018420D02*
X011927Y018420D01*
X011927Y017420D02*
X011413Y017420D01*
X011413Y016420D02*
X011927Y016420D01*
X011927Y015420D02*
X011413Y015420D01*
X011413Y014420D02*
X011927Y014420D01*
X011927Y013420D02*
X011413Y013420D01*
X011413Y012420D02*
X011927Y012420D01*
X011927Y011420D02*
X011413Y011420D01*
X011413Y010420D02*
X011927Y010420D01*
X017413Y010420D02*
X017927Y010420D01*
X017927Y011420D02*
X017413Y011420D01*
X017413Y012420D02*
X017927Y012420D01*
X017927Y013420D02*
X017413Y013420D01*
X017413Y014420D02*
X017927Y014420D01*
X017927Y015420D02*
X017413Y015420D01*
X017413Y016420D02*
X017927Y016420D01*
X017927Y017420D02*
X017413Y017420D01*
X017413Y018420D02*
X017927Y018420D01*
X017927Y019420D02*
X017413Y019420D01*
X017413Y020420D02*
X017927Y020420D01*
X017927Y021420D02*
X017413Y021420D01*
X017413Y022420D02*
X017927Y022420D01*
X017927Y023420D02*
X017413Y023420D01*
X017413Y024420D02*
X017927Y024420D01*
X017927Y025420D02*
X017413Y025420D01*
X017413Y026420D02*
X017927Y026420D01*
X017927Y027420D02*
X017413Y027420D01*
X017413Y028420D02*
X017927Y028420D01*
X017927Y029420D02*
X017413Y029420D01*
X098288Y021795D02*
X098802Y021795D01*
X101288Y021795D02*
X101802Y021795D01*
X101802Y020795D02*
X101288Y020795D01*
X098802Y020795D02*
X098288Y020795D01*
X098288Y019795D02*
X098802Y019795D01*
X101288Y019795D02*
X101802Y019795D01*
X101802Y018795D02*
X101288Y018795D01*
X101288Y017795D02*
X101802Y017795D01*
X101802Y016795D02*
X101288Y016795D01*
X098802Y016795D02*
X098288Y016795D01*
X098288Y015795D02*
X098802Y015795D01*
X101288Y015795D02*
X101802Y015795D01*
X101802Y014795D02*
X101288Y014795D01*
X098802Y014795D02*
X098288Y014795D01*
X098288Y013795D02*
X098802Y013795D01*
X098802Y012795D02*
X098288Y012795D01*
X098288Y011795D02*
X098802Y011795D01*
X101288Y011795D02*
X101802Y011795D01*
X101802Y010795D02*
X101288Y010795D01*
X098802Y010795D02*
X098288Y010795D01*
X101288Y012795D02*
X101802Y012795D01*
X101802Y013795D02*
X101288Y013795D01*
X098802Y017795D02*
X098288Y017795D01*
X098288Y018795D02*
X098802Y018795D01*
D12*
X093420Y008295D03*
X083420Y008295D03*
X073420Y008295D03*
X063420Y008295D03*
X053420Y008295D03*
X043420Y008295D03*
X033420Y008295D03*
X023420Y008295D03*
D13*
X024420Y008295D03*
X024420Y009295D03*
X023420Y009295D03*
X023420Y010295D03*
X024420Y010295D03*
X024420Y011295D03*
X023420Y011295D03*
X023420Y012295D03*
X024420Y012295D03*
X024420Y013295D03*
X023420Y013295D03*
X023420Y014295D03*
X024420Y014295D03*
X024420Y015295D03*
X023420Y015295D03*
X023420Y016295D03*
X024420Y016295D03*
X024420Y017295D03*
X023420Y017295D03*
X023420Y018295D03*
X024420Y018295D03*
X024420Y019295D03*
X023420Y019295D03*
X023420Y020295D03*
X024420Y020295D03*
X024420Y021295D03*
X023420Y021295D03*
X023420Y022295D03*
X024420Y022295D03*
X024420Y023295D03*
X023420Y023295D03*
X023420Y024295D03*
X024420Y024295D03*
X024420Y025295D03*
X023420Y025295D03*
X023420Y026295D03*
X024420Y026295D03*
X024420Y027295D03*
X023420Y027295D03*
X033420Y027295D03*
X034420Y027295D03*
X034420Y026295D03*
X033420Y026295D03*
X033420Y025295D03*
X034420Y025295D03*
X034420Y024295D03*
X033420Y024295D03*
X033420Y023295D03*
X034420Y023295D03*
X034420Y022295D03*
X033420Y022295D03*
X033420Y021295D03*
X034420Y021295D03*
X034420Y020295D03*
X033420Y020295D03*
X033420Y019295D03*
X034420Y019295D03*
X034420Y018295D03*
X033420Y018295D03*
X033420Y017295D03*
X034420Y017295D03*
X034420Y016295D03*
X033420Y016295D03*
X033420Y015295D03*
X034420Y015295D03*
X034420Y014295D03*
X033420Y014295D03*
X033420Y013295D03*
X034420Y013295D03*
X034420Y012295D03*
X033420Y012295D03*
X033420Y011295D03*
X034420Y011295D03*
X034420Y010295D03*
X033420Y010295D03*
X033420Y009295D03*
X034420Y009295D03*
X034420Y008295D03*
X043420Y009295D03*
X044420Y009295D03*
X044420Y008295D03*
X044420Y010295D03*
X043420Y010295D03*
X043420Y011295D03*
X044420Y011295D03*
X044420Y012295D03*
X043420Y012295D03*
X043420Y013295D03*
X044420Y013295D03*
X044420Y014295D03*
X043420Y014295D03*
X043420Y015295D03*
X044420Y015295D03*
X044420Y016295D03*
X043420Y016295D03*
X043420Y017295D03*
X044420Y017295D03*
X044420Y018295D03*
X043420Y018295D03*
X043420Y019295D03*
X044420Y019295D03*
X044420Y020295D03*
X043420Y020295D03*
X043420Y021295D03*
X044420Y021295D03*
X044420Y022295D03*
X043420Y022295D03*
X043420Y023295D03*
X044420Y023295D03*
X044420Y024295D03*
X043420Y024295D03*
X043420Y025295D03*
X044420Y025295D03*
X044420Y026295D03*
X043420Y026295D03*
X043420Y027295D03*
X044420Y027295D03*
X053420Y027295D03*
X054420Y027295D03*
X054420Y026295D03*
X053420Y026295D03*
X053420Y025295D03*
X054420Y025295D03*
X054420Y024295D03*
X053420Y024295D03*
X053420Y023295D03*
X054420Y023295D03*
X054420Y022295D03*
X053420Y022295D03*
X053420Y021295D03*
X054420Y021295D03*
X054420Y020295D03*
X053420Y020295D03*
X053420Y019295D03*
X054420Y019295D03*
X054420Y018295D03*
X053420Y018295D03*
X053420Y017295D03*
X054420Y017295D03*
X054420Y016295D03*
X053420Y016295D03*
X053420Y015295D03*
X054420Y015295D03*
X054420Y014295D03*
X053420Y014295D03*
X053420Y013295D03*
X054420Y013295D03*
X054420Y012295D03*
X053420Y012295D03*
X053420Y011295D03*
X054420Y011295D03*
X054420Y010295D03*
X053420Y010295D03*
X053420Y009295D03*
X054420Y009295D03*
X054420Y008295D03*
X063420Y009295D03*
X064420Y009295D03*
X064420Y008295D03*
X064420Y010295D03*
X063420Y010295D03*
X063420Y011295D03*
X064420Y011295D03*
X064420Y012295D03*
X063420Y012295D03*
X063420Y013295D03*
X064420Y013295D03*
X064420Y014295D03*
X063420Y014295D03*
X063420Y015295D03*
X064420Y015295D03*
X064420Y016295D03*
X063420Y016295D03*
X063420Y017295D03*
X064420Y017295D03*
X064420Y018295D03*
X063420Y018295D03*
X063420Y019295D03*
X064420Y019295D03*
X064420Y020295D03*
X063420Y020295D03*
X063420Y021295D03*
X064420Y021295D03*
X064420Y022295D03*
X063420Y022295D03*
X063420Y023295D03*
X064420Y023295D03*
X064420Y024295D03*
X063420Y024295D03*
X063420Y025295D03*
X064420Y025295D03*
X064420Y026295D03*
X063420Y026295D03*
X063420Y027295D03*
X064420Y027295D03*
X073420Y027295D03*
X074420Y027295D03*
X074420Y026295D03*
X073420Y026295D03*
X073420Y025295D03*
X074420Y025295D03*
X074420Y024295D03*
X073420Y024295D03*
X073420Y023295D03*
X074420Y023295D03*
X074420Y022295D03*
X073420Y022295D03*
X073420Y021295D03*
X074420Y021295D03*
X074420Y020295D03*
X073420Y020295D03*
X073420Y019295D03*
X074420Y019295D03*
X074420Y018295D03*
X073420Y018295D03*
X073420Y017295D03*
X074420Y017295D03*
X074420Y016295D03*
X073420Y016295D03*
X073420Y015295D03*
X074420Y015295D03*
X074420Y014295D03*
X073420Y014295D03*
X073420Y013295D03*
X074420Y013295D03*
X074420Y012295D03*
X073420Y012295D03*
X073420Y011295D03*
X074420Y011295D03*
X074420Y010295D03*
X073420Y010295D03*
X073420Y009295D03*
X074420Y009295D03*
X074420Y008295D03*
X083420Y009295D03*
X084420Y009295D03*
X084420Y008295D03*
X084420Y010295D03*
X083420Y010295D03*
X083420Y011295D03*
X084420Y011295D03*
X084420Y012295D03*
X083420Y012295D03*
X083420Y013295D03*
X084420Y013295D03*
X084420Y014295D03*
X083420Y014295D03*
X083420Y015295D03*
X084420Y015295D03*
X084420Y016295D03*
X083420Y016295D03*
X083420Y017295D03*
X084420Y017295D03*
X084420Y018295D03*
X083420Y018295D03*
X083420Y019295D03*
X084420Y019295D03*
X084420Y020295D03*
X083420Y020295D03*
X083420Y021295D03*
X084420Y021295D03*
X084420Y022295D03*
X083420Y022295D03*
X083420Y023295D03*
X084420Y023295D03*
X084420Y024295D03*
X083420Y024295D03*
X083420Y025295D03*
X084420Y025295D03*
X084420Y026295D03*
X083420Y026295D03*
X083420Y027295D03*
X084420Y027295D03*
X093420Y027295D03*
X094420Y027295D03*
X094420Y026295D03*
X093420Y026295D03*
X093420Y025295D03*
X094420Y025295D03*
X094420Y024295D03*
X093420Y024295D03*
X093420Y023295D03*
X094420Y023295D03*
X094420Y022295D03*
X093420Y022295D03*
X093420Y021295D03*
X094420Y021295D03*
X094420Y020295D03*
X093420Y020295D03*
X093420Y019295D03*
X094420Y019295D03*
X094420Y018295D03*
X093420Y018295D03*
X093420Y017295D03*
X094420Y017295D03*
X094420Y016295D03*
X093420Y016295D03*
X093420Y015295D03*
X094420Y015295D03*
X094420Y014295D03*
X093420Y014295D03*
X093420Y013295D03*
X094420Y013295D03*
X094420Y012295D03*
X093420Y012295D03*
X093420Y011295D03*
X094420Y011295D03*
X094420Y010295D03*
X093420Y010295D03*
X093420Y009295D03*
X094420Y009295D03*
X094420Y008295D03*
X006420Y020295D03*
X005420Y020295D03*
X004420Y020295D03*
X003420Y020295D03*
X003420Y021295D03*
X004420Y021295D03*
X005420Y021295D03*
X006420Y021295D03*
D14*
X037795Y006795D03*
D15*
X036795Y006795D03*
D16*
X008170Y016670D03*
X006170Y016670D03*
X004170Y016545D03*
X003170Y016545D03*
X002920Y017670D03*
X004170Y017670D03*
X004170Y018670D03*
X002920Y018670D03*
X008670Y020670D03*
X009670Y020670D03*
X010045Y022420D03*
X008045Y022420D03*
X008545Y026420D03*
X009545Y026420D03*
X009545Y028420D03*
X008545Y028420D03*
X006170Y030545D03*
X004170Y030545D03*
X019420Y030295D03*
X019420Y029170D03*
X023420Y029170D03*
X023420Y030295D03*
X004545Y010170D03*
X003545Y010170D03*
X004295Y007795D03*
X006295Y007795D03*
X006295Y006795D03*
X004295Y006795D03*
X096170Y024670D03*
X097295Y025795D03*
X099545Y024295D03*
X101545Y024295D03*
X101295Y025795D03*
X096170Y028670D03*
D17*
X100943Y028311D02*
X101648Y028311D01*
X101648Y030279D02*
X100943Y030279D01*
D18*
X097545Y030495D02*
X097545Y031095D01*
X096545Y031095D02*
X096545Y030495D01*
X007295Y006095D02*
X007295Y005495D01*
X006295Y005495D02*
X006295Y006095D01*
X005295Y006095D02*
X005295Y005495D01*
X004295Y005495D02*
X004295Y006095D01*
D19*
X003170Y012720D03*
X003170Y014620D03*
D20*
X005410Y014170D02*
X005930Y014170D01*
X005930Y013170D02*
X005410Y013170D01*
X008410Y013170D02*
X008930Y013170D01*
X008930Y014170D02*
X008410Y014170D01*
X008410Y015170D02*
X008930Y015170D01*
X005930Y015170D02*
X005410Y015170D01*
X005410Y012170D02*
X005930Y012170D01*
X008410Y012170D02*
X008930Y012170D01*
X008930Y011170D02*
X008410Y011170D01*
X005930Y011170D02*
X005410Y011170D01*
X005410Y010170D02*
X005930Y010170D01*
X008410Y010170D02*
X008930Y010170D01*
X008930Y009170D02*
X008410Y009170D01*
X005930Y009170D02*
X005410Y009170D01*
X006285Y023045D02*
X006805Y023045D01*
X006805Y024045D02*
X006285Y024045D01*
X003805Y024045D02*
X003285Y024045D01*
X003285Y023045D02*
X003805Y023045D01*
X003805Y025045D02*
X003285Y025045D01*
X006285Y025045D02*
X006805Y025045D01*
X006805Y026045D02*
X006285Y026045D01*
X003805Y026045D02*
X003285Y026045D01*
X003285Y027045D02*
X003805Y027045D01*
X006285Y027045D02*
X006805Y027045D01*
X006805Y028045D02*
X006285Y028045D01*
X006285Y029045D02*
X006805Y029045D01*
X003805Y029045D02*
X003285Y029045D01*
X003285Y028045D02*
X003805Y028045D01*
D21*
X034420Y007045D03*
D22*
X021295Y011920D03*
X025920Y012795D03*
X010670Y014170D03*
X010295Y011920D03*
X006795Y009170D03*
X009795Y024420D03*
X019420Y027795D03*
M02*
