G75*
%MOIN*%
%OFA0B0*%
%FSLAX24Y24*%
%IPPOS*%
%LPD*%
%AMOC8*
5,1,8,0,0,1.08239X$1,22.5*
%
%ADD10C,0.0000*%
%ADD11C,0.0070*%
%ADD12C,0.0120*%
%ADD13C,0.0040*%
%ADD14C,0.0100*%
%ADD15C,0.0160*%
%ADD16C,0.0050*%
%ADD17C,0.0060*%
%ADD18R,0.0340X0.0240*%
%ADD19R,0.0240X0.0340*%
%ADD20C,0.0240*%
D10*
X000170Y000295D02*
X000170Y035291D01*
X105665Y035291D01*
X105665Y000295D01*
X000170Y000295D01*
X012133Y002295D02*
X012135Y002351D01*
X012141Y002406D01*
X012151Y002460D01*
X012164Y002514D01*
X012182Y002567D01*
X012203Y002618D01*
X012227Y002668D01*
X012255Y002716D01*
X012287Y002762D01*
X012321Y002806D01*
X012359Y002847D01*
X012399Y002885D01*
X012442Y002920D01*
X012487Y002952D01*
X012535Y002981D01*
X012584Y003007D01*
X012635Y003029D01*
X012687Y003047D01*
X012741Y003061D01*
X012796Y003072D01*
X012851Y003079D01*
X012906Y003082D01*
X012962Y003081D01*
X013017Y003076D01*
X013072Y003067D01*
X013126Y003055D01*
X013179Y003038D01*
X013231Y003018D01*
X013281Y002994D01*
X013329Y002967D01*
X013376Y002937D01*
X013420Y002903D01*
X013462Y002866D01*
X013500Y002826D01*
X013537Y002784D01*
X013570Y002739D01*
X013599Y002693D01*
X013626Y002644D01*
X013648Y002593D01*
X013668Y002541D01*
X013683Y002487D01*
X013695Y002433D01*
X013703Y002378D01*
X013707Y002323D01*
X013707Y002267D01*
X013703Y002212D01*
X013695Y002157D01*
X013683Y002103D01*
X013668Y002049D01*
X013648Y001997D01*
X013626Y001946D01*
X013599Y001897D01*
X013570Y001851D01*
X013537Y001806D01*
X013500Y001764D01*
X013462Y001724D01*
X013420Y001687D01*
X013376Y001653D01*
X013329Y001623D01*
X013281Y001596D01*
X013231Y001572D01*
X013179Y001552D01*
X013126Y001535D01*
X013072Y001523D01*
X013017Y001514D01*
X012962Y001509D01*
X012906Y001508D01*
X012851Y001511D01*
X012796Y001518D01*
X012741Y001529D01*
X012687Y001543D01*
X012635Y001561D01*
X012584Y001583D01*
X012535Y001609D01*
X012487Y001638D01*
X012442Y001670D01*
X012399Y001705D01*
X012359Y001743D01*
X012321Y001784D01*
X012287Y001828D01*
X012255Y001874D01*
X012227Y001922D01*
X012203Y001972D01*
X012182Y002023D01*
X012164Y002076D01*
X012151Y002130D01*
X012141Y002184D01*
X012135Y002239D01*
X012133Y002295D01*
X032633Y002295D02*
X032635Y002351D01*
X032641Y002406D01*
X032651Y002460D01*
X032664Y002514D01*
X032682Y002567D01*
X032703Y002618D01*
X032727Y002668D01*
X032755Y002716D01*
X032787Y002762D01*
X032821Y002806D01*
X032859Y002847D01*
X032899Y002885D01*
X032942Y002920D01*
X032987Y002952D01*
X033035Y002981D01*
X033084Y003007D01*
X033135Y003029D01*
X033187Y003047D01*
X033241Y003061D01*
X033296Y003072D01*
X033351Y003079D01*
X033406Y003082D01*
X033462Y003081D01*
X033517Y003076D01*
X033572Y003067D01*
X033626Y003055D01*
X033679Y003038D01*
X033731Y003018D01*
X033781Y002994D01*
X033829Y002967D01*
X033876Y002937D01*
X033920Y002903D01*
X033962Y002866D01*
X034000Y002826D01*
X034037Y002784D01*
X034070Y002739D01*
X034099Y002693D01*
X034126Y002644D01*
X034148Y002593D01*
X034168Y002541D01*
X034183Y002487D01*
X034195Y002433D01*
X034203Y002378D01*
X034207Y002323D01*
X034207Y002267D01*
X034203Y002212D01*
X034195Y002157D01*
X034183Y002103D01*
X034168Y002049D01*
X034148Y001997D01*
X034126Y001946D01*
X034099Y001897D01*
X034070Y001851D01*
X034037Y001806D01*
X034000Y001764D01*
X033962Y001724D01*
X033920Y001687D01*
X033876Y001653D01*
X033829Y001623D01*
X033781Y001596D01*
X033731Y001572D01*
X033679Y001552D01*
X033626Y001535D01*
X033572Y001523D01*
X033517Y001514D01*
X033462Y001509D01*
X033406Y001508D01*
X033351Y001511D01*
X033296Y001518D01*
X033241Y001529D01*
X033187Y001543D01*
X033135Y001561D01*
X033084Y001583D01*
X033035Y001609D01*
X032987Y001638D01*
X032942Y001670D01*
X032899Y001705D01*
X032859Y001743D01*
X032821Y001784D01*
X032787Y001828D01*
X032755Y001874D01*
X032727Y001922D01*
X032703Y001972D01*
X032682Y002023D01*
X032664Y002076D01*
X032651Y002130D01*
X032641Y002184D01*
X032635Y002239D01*
X032633Y002295D01*
X032635Y002351D01*
X032641Y002406D01*
X032651Y002460D01*
X032664Y002514D01*
X032682Y002567D01*
X032703Y002618D01*
X032727Y002668D01*
X032755Y002716D01*
X032787Y002762D01*
X032821Y002806D01*
X032859Y002847D01*
X032899Y002885D01*
X032942Y002920D01*
X032987Y002952D01*
X033035Y002981D01*
X033084Y003007D01*
X033135Y003029D01*
X033187Y003047D01*
X033241Y003061D01*
X033296Y003072D01*
X033351Y003079D01*
X033406Y003082D01*
X033462Y003081D01*
X033517Y003076D01*
X033572Y003067D01*
X033626Y003055D01*
X033679Y003038D01*
X033731Y003018D01*
X033781Y002994D01*
X033829Y002967D01*
X033876Y002937D01*
X033920Y002903D01*
X033962Y002866D01*
X034000Y002826D01*
X034037Y002784D01*
X034070Y002739D01*
X034099Y002693D01*
X034126Y002644D01*
X034148Y002593D01*
X034168Y002541D01*
X034183Y002487D01*
X034195Y002433D01*
X034203Y002378D01*
X034207Y002323D01*
X034207Y002267D01*
X034203Y002212D01*
X034195Y002157D01*
X034183Y002103D01*
X034168Y002049D01*
X034148Y001997D01*
X034126Y001946D01*
X034099Y001897D01*
X034070Y001851D01*
X034037Y001806D01*
X034000Y001764D01*
X033962Y001724D01*
X033920Y001687D01*
X033876Y001653D01*
X033829Y001623D01*
X033781Y001596D01*
X033731Y001572D01*
X033679Y001552D01*
X033626Y001535D01*
X033572Y001523D01*
X033517Y001514D01*
X033462Y001509D01*
X033406Y001508D01*
X033351Y001511D01*
X033296Y001518D01*
X033241Y001529D01*
X033187Y001543D01*
X033135Y001561D01*
X033084Y001583D01*
X033035Y001609D01*
X032987Y001638D01*
X032942Y001670D01*
X032899Y001705D01*
X032859Y001743D01*
X032821Y001784D01*
X032787Y001828D01*
X032755Y001874D01*
X032727Y001922D01*
X032703Y001972D01*
X032682Y002023D01*
X032664Y002076D01*
X032651Y002130D01*
X032641Y002184D01*
X032635Y002239D01*
X032633Y002295D01*
X053133Y002295D02*
X053135Y002351D01*
X053141Y002406D01*
X053151Y002460D01*
X053164Y002514D01*
X053182Y002567D01*
X053203Y002618D01*
X053227Y002668D01*
X053255Y002716D01*
X053287Y002762D01*
X053321Y002806D01*
X053359Y002847D01*
X053399Y002885D01*
X053442Y002920D01*
X053487Y002952D01*
X053535Y002981D01*
X053584Y003007D01*
X053635Y003029D01*
X053687Y003047D01*
X053741Y003061D01*
X053796Y003072D01*
X053851Y003079D01*
X053906Y003082D01*
X053962Y003081D01*
X054017Y003076D01*
X054072Y003067D01*
X054126Y003055D01*
X054179Y003038D01*
X054231Y003018D01*
X054281Y002994D01*
X054329Y002967D01*
X054376Y002937D01*
X054420Y002903D01*
X054462Y002866D01*
X054500Y002826D01*
X054537Y002784D01*
X054570Y002739D01*
X054599Y002693D01*
X054626Y002644D01*
X054648Y002593D01*
X054668Y002541D01*
X054683Y002487D01*
X054695Y002433D01*
X054703Y002378D01*
X054707Y002323D01*
X054707Y002267D01*
X054703Y002212D01*
X054695Y002157D01*
X054683Y002103D01*
X054668Y002049D01*
X054648Y001997D01*
X054626Y001946D01*
X054599Y001897D01*
X054570Y001851D01*
X054537Y001806D01*
X054500Y001764D01*
X054462Y001724D01*
X054420Y001687D01*
X054376Y001653D01*
X054329Y001623D01*
X054281Y001596D01*
X054231Y001572D01*
X054179Y001552D01*
X054126Y001535D01*
X054072Y001523D01*
X054017Y001514D01*
X053962Y001509D01*
X053906Y001508D01*
X053851Y001511D01*
X053796Y001518D01*
X053741Y001529D01*
X053687Y001543D01*
X053635Y001561D01*
X053584Y001583D01*
X053535Y001609D01*
X053487Y001638D01*
X053442Y001670D01*
X053399Y001705D01*
X053359Y001743D01*
X053321Y001784D01*
X053287Y001828D01*
X053255Y001874D01*
X053227Y001922D01*
X053203Y001972D01*
X053182Y002023D01*
X053164Y002076D01*
X053151Y002130D01*
X053141Y002184D01*
X053135Y002239D01*
X053133Y002295D01*
X073133Y002295D02*
X073135Y002351D01*
X073141Y002406D01*
X073151Y002460D01*
X073164Y002514D01*
X073182Y002567D01*
X073203Y002618D01*
X073227Y002668D01*
X073255Y002716D01*
X073287Y002762D01*
X073321Y002806D01*
X073359Y002847D01*
X073399Y002885D01*
X073442Y002920D01*
X073487Y002952D01*
X073535Y002981D01*
X073584Y003007D01*
X073635Y003029D01*
X073687Y003047D01*
X073741Y003061D01*
X073796Y003072D01*
X073851Y003079D01*
X073906Y003082D01*
X073962Y003081D01*
X074017Y003076D01*
X074072Y003067D01*
X074126Y003055D01*
X074179Y003038D01*
X074231Y003018D01*
X074281Y002994D01*
X074329Y002967D01*
X074376Y002937D01*
X074420Y002903D01*
X074462Y002866D01*
X074500Y002826D01*
X074537Y002784D01*
X074570Y002739D01*
X074599Y002693D01*
X074626Y002644D01*
X074648Y002593D01*
X074668Y002541D01*
X074683Y002487D01*
X074695Y002433D01*
X074703Y002378D01*
X074707Y002323D01*
X074707Y002267D01*
X074703Y002212D01*
X074695Y002157D01*
X074683Y002103D01*
X074668Y002049D01*
X074648Y001997D01*
X074626Y001946D01*
X074599Y001897D01*
X074570Y001851D01*
X074537Y001806D01*
X074500Y001764D01*
X074462Y001724D01*
X074420Y001687D01*
X074376Y001653D01*
X074329Y001623D01*
X074281Y001596D01*
X074231Y001572D01*
X074179Y001552D01*
X074126Y001535D01*
X074072Y001523D01*
X074017Y001514D01*
X073962Y001509D01*
X073906Y001508D01*
X073851Y001511D01*
X073796Y001518D01*
X073741Y001529D01*
X073687Y001543D01*
X073635Y001561D01*
X073584Y001583D01*
X073535Y001609D01*
X073487Y001638D01*
X073442Y001670D01*
X073399Y001705D01*
X073359Y001743D01*
X073321Y001784D01*
X073287Y001828D01*
X073255Y001874D01*
X073227Y001922D01*
X073203Y001972D01*
X073182Y002023D01*
X073164Y002076D01*
X073151Y002130D01*
X073141Y002184D01*
X073135Y002239D01*
X073133Y002295D01*
X093133Y002295D02*
X093135Y002351D01*
X093141Y002406D01*
X093151Y002460D01*
X093164Y002514D01*
X093182Y002567D01*
X093203Y002618D01*
X093227Y002668D01*
X093255Y002716D01*
X093287Y002762D01*
X093321Y002806D01*
X093359Y002847D01*
X093399Y002885D01*
X093442Y002920D01*
X093487Y002952D01*
X093535Y002981D01*
X093584Y003007D01*
X093635Y003029D01*
X093687Y003047D01*
X093741Y003061D01*
X093796Y003072D01*
X093851Y003079D01*
X093906Y003082D01*
X093962Y003081D01*
X094017Y003076D01*
X094072Y003067D01*
X094126Y003055D01*
X094179Y003038D01*
X094231Y003018D01*
X094281Y002994D01*
X094329Y002967D01*
X094376Y002937D01*
X094420Y002903D01*
X094462Y002866D01*
X094500Y002826D01*
X094537Y002784D01*
X094570Y002739D01*
X094599Y002693D01*
X094626Y002644D01*
X094648Y002593D01*
X094668Y002541D01*
X094683Y002487D01*
X094695Y002433D01*
X094703Y002378D01*
X094707Y002323D01*
X094707Y002267D01*
X094703Y002212D01*
X094695Y002157D01*
X094683Y002103D01*
X094668Y002049D01*
X094648Y001997D01*
X094626Y001946D01*
X094599Y001897D01*
X094570Y001851D01*
X094537Y001806D01*
X094500Y001764D01*
X094462Y001724D01*
X094420Y001687D01*
X094376Y001653D01*
X094329Y001623D01*
X094281Y001596D01*
X094231Y001572D01*
X094179Y001552D01*
X094126Y001535D01*
X094072Y001523D01*
X094017Y001514D01*
X093962Y001509D01*
X093906Y001508D01*
X093851Y001511D01*
X093796Y001518D01*
X093741Y001529D01*
X093687Y001543D01*
X093635Y001561D01*
X093584Y001583D01*
X093535Y001609D01*
X093487Y001638D01*
X093442Y001670D01*
X093399Y001705D01*
X093359Y001743D01*
X093321Y001784D01*
X093287Y001828D01*
X093255Y001874D01*
X093227Y001922D01*
X093203Y001972D01*
X093182Y002023D01*
X093164Y002076D01*
X093151Y002130D01*
X093141Y002184D01*
X093135Y002239D01*
X093133Y002295D01*
X093133Y033295D02*
X093135Y033351D01*
X093141Y033406D01*
X093151Y033460D01*
X093164Y033514D01*
X093182Y033567D01*
X093203Y033618D01*
X093227Y033668D01*
X093255Y033716D01*
X093287Y033762D01*
X093321Y033806D01*
X093359Y033847D01*
X093399Y033885D01*
X093442Y033920D01*
X093487Y033952D01*
X093535Y033981D01*
X093584Y034007D01*
X093635Y034029D01*
X093687Y034047D01*
X093741Y034061D01*
X093796Y034072D01*
X093851Y034079D01*
X093906Y034082D01*
X093962Y034081D01*
X094017Y034076D01*
X094072Y034067D01*
X094126Y034055D01*
X094179Y034038D01*
X094231Y034018D01*
X094281Y033994D01*
X094329Y033967D01*
X094376Y033937D01*
X094420Y033903D01*
X094462Y033866D01*
X094500Y033826D01*
X094537Y033784D01*
X094570Y033739D01*
X094599Y033693D01*
X094626Y033644D01*
X094648Y033593D01*
X094668Y033541D01*
X094683Y033487D01*
X094695Y033433D01*
X094703Y033378D01*
X094707Y033323D01*
X094707Y033267D01*
X094703Y033212D01*
X094695Y033157D01*
X094683Y033103D01*
X094668Y033049D01*
X094648Y032997D01*
X094626Y032946D01*
X094599Y032897D01*
X094570Y032851D01*
X094537Y032806D01*
X094500Y032764D01*
X094462Y032724D01*
X094420Y032687D01*
X094376Y032653D01*
X094329Y032623D01*
X094281Y032596D01*
X094231Y032572D01*
X094179Y032552D01*
X094126Y032535D01*
X094072Y032523D01*
X094017Y032514D01*
X093962Y032509D01*
X093906Y032508D01*
X093851Y032511D01*
X093796Y032518D01*
X093741Y032529D01*
X093687Y032543D01*
X093635Y032561D01*
X093584Y032583D01*
X093535Y032609D01*
X093487Y032638D01*
X093442Y032670D01*
X093399Y032705D01*
X093359Y032743D01*
X093321Y032784D01*
X093287Y032828D01*
X093255Y032874D01*
X093227Y032922D01*
X093203Y032972D01*
X093182Y033023D01*
X093164Y033076D01*
X093151Y033130D01*
X093141Y033184D01*
X093135Y033239D01*
X093133Y033295D01*
X073133Y033295D02*
X073135Y033351D01*
X073141Y033406D01*
X073151Y033460D01*
X073164Y033514D01*
X073182Y033567D01*
X073203Y033618D01*
X073227Y033668D01*
X073255Y033716D01*
X073287Y033762D01*
X073321Y033806D01*
X073359Y033847D01*
X073399Y033885D01*
X073442Y033920D01*
X073487Y033952D01*
X073535Y033981D01*
X073584Y034007D01*
X073635Y034029D01*
X073687Y034047D01*
X073741Y034061D01*
X073796Y034072D01*
X073851Y034079D01*
X073906Y034082D01*
X073962Y034081D01*
X074017Y034076D01*
X074072Y034067D01*
X074126Y034055D01*
X074179Y034038D01*
X074231Y034018D01*
X074281Y033994D01*
X074329Y033967D01*
X074376Y033937D01*
X074420Y033903D01*
X074462Y033866D01*
X074500Y033826D01*
X074537Y033784D01*
X074570Y033739D01*
X074599Y033693D01*
X074626Y033644D01*
X074648Y033593D01*
X074668Y033541D01*
X074683Y033487D01*
X074695Y033433D01*
X074703Y033378D01*
X074707Y033323D01*
X074707Y033267D01*
X074703Y033212D01*
X074695Y033157D01*
X074683Y033103D01*
X074668Y033049D01*
X074648Y032997D01*
X074626Y032946D01*
X074599Y032897D01*
X074570Y032851D01*
X074537Y032806D01*
X074500Y032764D01*
X074462Y032724D01*
X074420Y032687D01*
X074376Y032653D01*
X074329Y032623D01*
X074281Y032596D01*
X074231Y032572D01*
X074179Y032552D01*
X074126Y032535D01*
X074072Y032523D01*
X074017Y032514D01*
X073962Y032509D01*
X073906Y032508D01*
X073851Y032511D01*
X073796Y032518D01*
X073741Y032529D01*
X073687Y032543D01*
X073635Y032561D01*
X073584Y032583D01*
X073535Y032609D01*
X073487Y032638D01*
X073442Y032670D01*
X073399Y032705D01*
X073359Y032743D01*
X073321Y032784D01*
X073287Y032828D01*
X073255Y032874D01*
X073227Y032922D01*
X073203Y032972D01*
X073182Y033023D01*
X073164Y033076D01*
X073151Y033130D01*
X073141Y033184D01*
X073135Y033239D01*
X073133Y033295D01*
X053133Y033295D02*
X053135Y033351D01*
X053141Y033406D01*
X053151Y033460D01*
X053164Y033514D01*
X053182Y033567D01*
X053203Y033618D01*
X053227Y033668D01*
X053255Y033716D01*
X053287Y033762D01*
X053321Y033806D01*
X053359Y033847D01*
X053399Y033885D01*
X053442Y033920D01*
X053487Y033952D01*
X053535Y033981D01*
X053584Y034007D01*
X053635Y034029D01*
X053687Y034047D01*
X053741Y034061D01*
X053796Y034072D01*
X053851Y034079D01*
X053906Y034082D01*
X053962Y034081D01*
X054017Y034076D01*
X054072Y034067D01*
X054126Y034055D01*
X054179Y034038D01*
X054231Y034018D01*
X054281Y033994D01*
X054329Y033967D01*
X054376Y033937D01*
X054420Y033903D01*
X054462Y033866D01*
X054500Y033826D01*
X054537Y033784D01*
X054570Y033739D01*
X054599Y033693D01*
X054626Y033644D01*
X054648Y033593D01*
X054668Y033541D01*
X054683Y033487D01*
X054695Y033433D01*
X054703Y033378D01*
X054707Y033323D01*
X054707Y033267D01*
X054703Y033212D01*
X054695Y033157D01*
X054683Y033103D01*
X054668Y033049D01*
X054648Y032997D01*
X054626Y032946D01*
X054599Y032897D01*
X054570Y032851D01*
X054537Y032806D01*
X054500Y032764D01*
X054462Y032724D01*
X054420Y032687D01*
X054376Y032653D01*
X054329Y032623D01*
X054281Y032596D01*
X054231Y032572D01*
X054179Y032552D01*
X054126Y032535D01*
X054072Y032523D01*
X054017Y032514D01*
X053962Y032509D01*
X053906Y032508D01*
X053851Y032511D01*
X053796Y032518D01*
X053741Y032529D01*
X053687Y032543D01*
X053635Y032561D01*
X053584Y032583D01*
X053535Y032609D01*
X053487Y032638D01*
X053442Y032670D01*
X053399Y032705D01*
X053359Y032743D01*
X053321Y032784D01*
X053287Y032828D01*
X053255Y032874D01*
X053227Y032922D01*
X053203Y032972D01*
X053182Y033023D01*
X053164Y033076D01*
X053151Y033130D01*
X053141Y033184D01*
X053135Y033239D01*
X053133Y033295D01*
X032633Y033295D02*
X032635Y033351D01*
X032641Y033406D01*
X032651Y033460D01*
X032664Y033514D01*
X032682Y033567D01*
X032703Y033618D01*
X032727Y033668D01*
X032755Y033716D01*
X032787Y033762D01*
X032821Y033806D01*
X032859Y033847D01*
X032899Y033885D01*
X032942Y033920D01*
X032987Y033952D01*
X033035Y033981D01*
X033084Y034007D01*
X033135Y034029D01*
X033187Y034047D01*
X033241Y034061D01*
X033296Y034072D01*
X033351Y034079D01*
X033406Y034082D01*
X033462Y034081D01*
X033517Y034076D01*
X033572Y034067D01*
X033626Y034055D01*
X033679Y034038D01*
X033731Y034018D01*
X033781Y033994D01*
X033829Y033967D01*
X033876Y033937D01*
X033920Y033903D01*
X033962Y033866D01*
X034000Y033826D01*
X034037Y033784D01*
X034070Y033739D01*
X034099Y033693D01*
X034126Y033644D01*
X034148Y033593D01*
X034168Y033541D01*
X034183Y033487D01*
X034195Y033433D01*
X034203Y033378D01*
X034207Y033323D01*
X034207Y033267D01*
X034203Y033212D01*
X034195Y033157D01*
X034183Y033103D01*
X034168Y033049D01*
X034148Y032997D01*
X034126Y032946D01*
X034099Y032897D01*
X034070Y032851D01*
X034037Y032806D01*
X034000Y032764D01*
X033962Y032724D01*
X033920Y032687D01*
X033876Y032653D01*
X033829Y032623D01*
X033781Y032596D01*
X033731Y032572D01*
X033679Y032552D01*
X033626Y032535D01*
X033572Y032523D01*
X033517Y032514D01*
X033462Y032509D01*
X033406Y032508D01*
X033351Y032511D01*
X033296Y032518D01*
X033241Y032529D01*
X033187Y032543D01*
X033135Y032561D01*
X033084Y032583D01*
X033035Y032609D01*
X032987Y032638D01*
X032942Y032670D01*
X032899Y032705D01*
X032859Y032743D01*
X032821Y032784D01*
X032787Y032828D01*
X032755Y032874D01*
X032727Y032922D01*
X032703Y032972D01*
X032682Y033023D01*
X032664Y033076D01*
X032651Y033130D01*
X032641Y033184D01*
X032635Y033239D01*
X032633Y033295D01*
X012133Y033295D02*
X012135Y033351D01*
X012141Y033406D01*
X012151Y033460D01*
X012164Y033514D01*
X012182Y033567D01*
X012203Y033618D01*
X012227Y033668D01*
X012255Y033716D01*
X012287Y033762D01*
X012321Y033806D01*
X012359Y033847D01*
X012399Y033885D01*
X012442Y033920D01*
X012487Y033952D01*
X012535Y033981D01*
X012584Y034007D01*
X012635Y034029D01*
X012687Y034047D01*
X012741Y034061D01*
X012796Y034072D01*
X012851Y034079D01*
X012906Y034082D01*
X012962Y034081D01*
X013017Y034076D01*
X013072Y034067D01*
X013126Y034055D01*
X013179Y034038D01*
X013231Y034018D01*
X013281Y033994D01*
X013329Y033967D01*
X013376Y033937D01*
X013420Y033903D01*
X013462Y033866D01*
X013500Y033826D01*
X013537Y033784D01*
X013570Y033739D01*
X013599Y033693D01*
X013626Y033644D01*
X013648Y033593D01*
X013668Y033541D01*
X013683Y033487D01*
X013695Y033433D01*
X013703Y033378D01*
X013707Y033323D01*
X013707Y033267D01*
X013703Y033212D01*
X013695Y033157D01*
X013683Y033103D01*
X013668Y033049D01*
X013648Y032997D01*
X013626Y032946D01*
X013599Y032897D01*
X013570Y032851D01*
X013537Y032806D01*
X013500Y032764D01*
X013462Y032724D01*
X013420Y032687D01*
X013376Y032653D01*
X013329Y032623D01*
X013281Y032596D01*
X013231Y032572D01*
X013179Y032552D01*
X013126Y032535D01*
X013072Y032523D01*
X013017Y032514D01*
X012962Y032509D01*
X012906Y032508D01*
X012851Y032511D01*
X012796Y032518D01*
X012741Y032529D01*
X012687Y032543D01*
X012635Y032561D01*
X012584Y032583D01*
X012535Y032609D01*
X012487Y032638D01*
X012442Y032670D01*
X012399Y032705D01*
X012359Y032743D01*
X012321Y032784D01*
X012287Y032828D01*
X012255Y032874D01*
X012227Y032922D01*
X012203Y032972D01*
X012182Y033023D01*
X012164Y033076D01*
X012151Y033130D01*
X012141Y033184D01*
X012135Y033239D01*
X012133Y033295D01*
D11*
X029903Y024316D02*
X030035Y024316D01*
X030035Y024184D01*
X029903Y024184D01*
X029903Y024316D01*
X030035Y023919D02*
X029640Y023919D01*
X029508Y023788D01*
X029508Y023392D01*
X030035Y023392D01*
X030035Y023127D02*
X029640Y023127D01*
X029508Y022996D01*
X029508Y022600D01*
X030035Y022600D01*
X030035Y022336D02*
X029508Y022336D01*
X030035Y022336D02*
X030035Y021940D01*
X029903Y021808D01*
X029508Y021808D01*
X029640Y021544D02*
X029640Y021280D01*
X029640Y021544D02*
X029903Y021544D01*
X030035Y021412D01*
X030035Y021148D01*
X029903Y021017D01*
X029376Y021017D01*
X029244Y021148D01*
X029244Y021412D01*
X029376Y021544D01*
X028745Y021412D02*
X028745Y021281D01*
X028613Y021281D01*
X028613Y021412D01*
X028745Y021412D01*
X028745Y021676D02*
X028745Y022204D01*
X028745Y021940D02*
X027954Y021940D01*
X028218Y021676D01*
X028218Y021016D02*
X028350Y020884D01*
X028481Y021016D01*
X028613Y021016D01*
X028745Y020884D01*
X028745Y020620D01*
X028613Y020489D01*
X028481Y020224D02*
X028745Y019960D01*
X028481Y019697D01*
X027954Y019697D01*
X029508Y019828D02*
X029508Y019960D01*
X029508Y019828D02*
X029771Y019565D01*
X029508Y019565D02*
X030035Y019565D01*
X029771Y019300D02*
X029771Y018773D01*
X029640Y018773D02*
X029508Y018905D01*
X029508Y019168D01*
X029640Y019300D01*
X029771Y019300D01*
X030035Y019168D02*
X030035Y018905D01*
X029903Y018773D01*
X029640Y018773D01*
X029640Y018509D02*
X029640Y018245D01*
X029376Y018377D02*
X030035Y018377D01*
X030035Y017981D02*
X030035Y017717D01*
X030035Y017849D02*
X029508Y017849D01*
X029508Y017717D01*
X029244Y017849D02*
X029113Y017849D01*
X028745Y017848D02*
X028350Y017848D01*
X028218Y017716D01*
X028218Y017321D01*
X028745Y017321D01*
X028745Y017056D02*
X028745Y016661D01*
X028613Y016529D01*
X028481Y016661D01*
X028481Y017056D01*
X028350Y017056D02*
X028745Y017056D01*
X028350Y017056D02*
X028218Y016925D01*
X028218Y016661D01*
X027954Y016133D02*
X028745Y016133D01*
X028745Y016001D02*
X028745Y016265D01*
X028613Y015737D02*
X028350Y015737D01*
X028218Y015605D01*
X028218Y015209D01*
X029009Y015209D01*
X028745Y015209D02*
X028745Y015605D01*
X028613Y015737D01*
X027954Y016001D02*
X027954Y016133D01*
X029508Y016133D02*
X029508Y016529D01*
X029640Y016660D01*
X030035Y016660D01*
X030035Y016925D02*
X029508Y016925D01*
X029508Y017321D01*
X029640Y017452D01*
X030035Y017452D01*
X029376Y018377D02*
X029244Y018509D01*
X028745Y018508D02*
X028745Y018245D01*
X028613Y018113D01*
X028350Y018113D01*
X028218Y018245D01*
X028218Y018508D01*
X028350Y018640D01*
X028481Y018640D01*
X028481Y018113D01*
X028481Y020224D02*
X027954Y020224D01*
X028086Y020489D02*
X027954Y020620D01*
X027954Y020884D01*
X028086Y021016D01*
X028218Y021016D01*
X028350Y020884D02*
X028350Y020752D01*
X014885Y020727D02*
X014885Y020463D01*
X014753Y020331D01*
X014490Y020463D02*
X014490Y020727D01*
X014621Y020858D01*
X014753Y020858D01*
X014885Y020727D01*
X014490Y020463D02*
X014358Y020331D01*
X014226Y020331D01*
X014094Y020463D01*
X014094Y020727D01*
X014226Y020858D01*
X014226Y020066D02*
X014094Y019935D01*
X014094Y019671D01*
X014226Y019539D01*
X014226Y019275D02*
X014753Y018748D01*
X014885Y018879D01*
X014885Y019143D01*
X014753Y019275D01*
X014226Y019275D01*
X014094Y019143D01*
X014094Y018879D01*
X014226Y018748D01*
X014753Y018748D01*
X014753Y018483D02*
X014885Y018351D01*
X014885Y018087D01*
X014753Y017956D01*
X014226Y017956D01*
X014094Y018087D01*
X014094Y018351D01*
X014226Y018483D01*
X014094Y017691D02*
X014094Y017164D01*
X014490Y017164D01*
X014358Y017427D01*
X014358Y017559D01*
X014490Y017691D01*
X014753Y017691D01*
X014885Y017559D01*
X014885Y017296D01*
X014753Y017164D01*
X014753Y016899D02*
X014621Y016899D01*
X014490Y016767D01*
X014490Y016372D01*
X014753Y016372D01*
X014885Y016504D01*
X014885Y016767D01*
X014753Y016899D01*
X014226Y016635D02*
X014094Y016899D01*
X014226Y016635D02*
X014490Y016372D01*
X014885Y016107D02*
X014094Y016107D01*
X014621Y015844D02*
X014885Y016107D01*
X014621Y015844D02*
X014885Y015580D01*
X014094Y015580D01*
X014885Y019539D02*
X014358Y020066D01*
X014226Y020066D01*
X014885Y020066D02*
X014885Y019539D01*
X028218Y014945D02*
X028481Y014550D01*
X028745Y014945D01*
X028745Y014550D02*
X027954Y014550D01*
X028218Y014285D02*
X028218Y013889D01*
X028350Y013758D01*
X028613Y013758D01*
X028745Y013889D01*
X028745Y014285D01*
X029244Y014813D02*
X029244Y015077D01*
X029244Y014945D02*
X029903Y014945D01*
X030035Y014813D01*
X030035Y014681D01*
X029903Y014550D01*
X029903Y015341D02*
X029640Y015341D01*
X029508Y015473D01*
X029508Y015737D01*
X029640Y015869D01*
X029771Y015869D01*
X029771Y015341D01*
X029903Y015341D02*
X030035Y015473D01*
X030035Y015737D01*
X030035Y016133D02*
X029508Y016133D01*
X029508Y013493D02*
X030167Y013493D01*
X030299Y013361D01*
X030299Y013229D01*
X030035Y013098D02*
X030035Y013493D01*
X028745Y013493D02*
X028745Y013098D01*
X028613Y012966D01*
X028481Y013098D01*
X028481Y013493D01*
X028350Y013493D02*
X028745Y013493D01*
X028350Y013493D02*
X028218Y013361D01*
X028218Y013098D01*
X028218Y012701D02*
X028350Y012569D01*
X028350Y012174D01*
X028745Y012174D02*
X027954Y012174D01*
X027954Y012569D01*
X028086Y012701D01*
X028218Y012701D01*
X028350Y012569D02*
X028481Y012701D01*
X028613Y012701D01*
X028745Y012569D01*
X028745Y012174D01*
X029244Y012174D02*
X030035Y012174D01*
X030035Y012569D01*
X029903Y012701D01*
X029640Y012701D01*
X029508Y012569D01*
X029508Y012174D01*
X029508Y012966D02*
X029903Y012966D01*
X030035Y013098D01*
X025660Y009252D02*
X025660Y009142D01*
X025605Y009087D01*
X025550Y009087D01*
X025495Y009142D01*
X025495Y009252D01*
X025550Y009307D01*
X025605Y009307D01*
X025660Y009252D01*
X025495Y009252D02*
X025440Y009307D01*
X025385Y009307D01*
X025330Y009252D01*
X025330Y009142D01*
X025385Y009087D01*
X025440Y009087D01*
X025495Y009142D01*
X025550Y008939D02*
X025605Y008939D01*
X025660Y008884D01*
X025660Y008773D01*
X025605Y008718D01*
X025495Y008773D02*
X025495Y008884D01*
X025550Y008939D01*
X025385Y008939D02*
X025330Y008884D01*
X025330Y008773D01*
X025385Y008718D01*
X025440Y008718D01*
X025495Y008773D01*
X025605Y008570D02*
X025660Y008515D01*
X025660Y008405D01*
X025605Y008350D01*
X025385Y008350D01*
X025330Y008405D01*
X025330Y008515D01*
X025385Y008570D01*
X035205Y008515D02*
X035205Y008405D01*
X035260Y008350D01*
X035480Y008350D01*
X035535Y008405D01*
X035535Y008515D01*
X035480Y008570D01*
X035480Y008718D02*
X035535Y008773D01*
X035535Y008884D01*
X035480Y008939D01*
X035425Y008939D01*
X035370Y008884D01*
X035370Y008773D01*
X035315Y008718D01*
X035260Y008718D01*
X035205Y008773D01*
X035205Y008884D01*
X035260Y008939D01*
X035205Y009087D02*
X035205Y009307D01*
X035260Y009307D01*
X035480Y009087D01*
X035535Y009087D01*
X035260Y008570D02*
X035205Y008515D01*
X045205Y008515D02*
X045205Y008405D01*
X045260Y008350D01*
X045480Y008350D01*
X045535Y008405D01*
X045535Y008515D01*
X045480Y008570D01*
X045480Y008718D02*
X045535Y008773D01*
X045535Y008884D01*
X045480Y008939D01*
X045425Y008939D01*
X045370Y008884D01*
X045370Y008773D01*
X045315Y008718D01*
X045260Y008718D01*
X045205Y008773D01*
X045205Y008884D01*
X045260Y008939D01*
X045370Y009087D02*
X045370Y009252D01*
X045425Y009307D01*
X045480Y009307D01*
X045535Y009252D01*
X045535Y009142D01*
X045480Y009087D01*
X045370Y009087D01*
X045260Y009197D01*
X045205Y009307D01*
X045260Y008570D02*
X045205Y008515D01*
X055205Y008515D02*
X055205Y008405D01*
X055260Y008350D01*
X055480Y008350D01*
X055535Y008405D01*
X055535Y008515D01*
X055480Y008570D01*
X055480Y008718D02*
X055535Y008773D01*
X055535Y008884D01*
X055480Y008939D01*
X055425Y008939D01*
X055370Y008884D01*
X055370Y008773D01*
X055315Y008718D01*
X055260Y008718D01*
X055205Y008773D01*
X055205Y008884D01*
X055260Y008939D01*
X055205Y009087D02*
X055370Y009087D01*
X055315Y009197D01*
X055315Y009252D01*
X055370Y009307D01*
X055480Y009307D01*
X055535Y009252D01*
X055535Y009142D01*
X055480Y009087D01*
X055205Y009087D02*
X055205Y009307D01*
X055260Y008570D02*
X055205Y008515D01*
X065205Y008515D02*
X065205Y008405D01*
X065260Y008350D01*
X065480Y008350D01*
X065535Y008405D01*
X065535Y008515D01*
X065480Y008570D01*
X065480Y008718D02*
X065535Y008773D01*
X065535Y008884D01*
X065480Y008939D01*
X065425Y008939D01*
X065370Y008884D01*
X065370Y008773D01*
X065315Y008718D01*
X065260Y008718D01*
X065205Y008773D01*
X065205Y008884D01*
X065260Y008939D01*
X065370Y009087D02*
X065370Y009307D01*
X065535Y009252D02*
X065205Y009252D01*
X065370Y009087D01*
X065260Y008570D02*
X065205Y008515D01*
X075205Y008515D02*
X075205Y008405D01*
X075260Y008350D01*
X075480Y008350D01*
X075535Y008405D01*
X075535Y008515D01*
X075480Y008570D01*
X075480Y008718D02*
X075535Y008773D01*
X075535Y008884D01*
X075480Y008939D01*
X075425Y008939D01*
X075370Y008884D01*
X075370Y008773D01*
X075315Y008718D01*
X075260Y008718D01*
X075205Y008773D01*
X075205Y008884D01*
X075260Y008939D01*
X075260Y009087D02*
X075205Y009142D01*
X075205Y009252D01*
X075260Y009307D01*
X075315Y009307D01*
X075370Y009252D01*
X075425Y009307D01*
X075480Y009307D01*
X075535Y009252D01*
X075535Y009142D01*
X075480Y009087D01*
X075370Y009197D02*
X075370Y009252D01*
X075260Y008570D02*
X075205Y008515D01*
X085205Y008515D02*
X085205Y008405D01*
X085260Y008350D01*
X085480Y008350D01*
X085535Y008405D01*
X085535Y008515D01*
X085480Y008570D01*
X085480Y008718D02*
X085535Y008773D01*
X085535Y008884D01*
X085480Y008939D01*
X085425Y008939D01*
X085370Y008884D01*
X085370Y008773D01*
X085315Y008718D01*
X085260Y008718D01*
X085205Y008773D01*
X085205Y008884D01*
X085260Y008939D01*
X085260Y009087D02*
X085205Y009142D01*
X085205Y009252D01*
X085260Y009307D01*
X085315Y009307D01*
X085535Y009087D01*
X085535Y009307D01*
X085260Y008570D02*
X085205Y008515D01*
X095080Y008515D02*
X095080Y008405D01*
X095135Y008350D01*
X095355Y008350D01*
X095410Y008405D01*
X095410Y008515D01*
X095355Y008570D01*
X095355Y008718D02*
X095410Y008773D01*
X095410Y008884D01*
X095355Y008939D01*
X095300Y008939D01*
X095245Y008884D01*
X095245Y008773D01*
X095190Y008718D01*
X095135Y008718D01*
X095080Y008773D01*
X095080Y008884D01*
X095135Y008939D01*
X095190Y009087D02*
X095080Y009197D01*
X095410Y009197D01*
X095410Y009087D02*
X095410Y009307D01*
X095135Y008570D02*
X095080Y008515D01*
D12*
X100415Y024045D02*
X100415Y024295D01*
X100415Y024545D01*
X100665Y024545D02*
X100665Y024295D01*
X100665Y024045D01*
X103919Y027730D02*
X103919Y028651D01*
X103459Y028190D02*
X104380Y028190D01*
X103794Y030230D02*
X103794Y031151D01*
X009165Y022670D02*
X009165Y022420D01*
X009165Y022170D01*
X008915Y022170D02*
X008915Y022420D01*
X008915Y022670D01*
X007290Y016920D02*
X007290Y016670D01*
X007290Y016420D01*
X007040Y016420D02*
X007040Y016670D01*
X007040Y016920D01*
X005300Y030295D02*
X005300Y030545D01*
X005300Y030795D01*
X005050Y030795D02*
X005050Y030545D01*
X005050Y030295D01*
D13*
X008940Y030315D02*
X009113Y030315D01*
X009027Y030315D02*
X009027Y030835D01*
X009113Y030835D02*
X008940Y030835D01*
X009284Y030749D02*
X009284Y030402D01*
X009370Y030315D01*
X009544Y030315D01*
X009631Y030402D01*
X009799Y030315D02*
X010146Y030315D01*
X009973Y030315D02*
X009973Y030835D01*
X009799Y030662D01*
X009631Y030749D02*
X009544Y030835D01*
X009370Y030835D01*
X009284Y030749D01*
X019448Y011081D02*
X019525Y011081D01*
X019525Y011004D01*
X019448Y011004D01*
X019448Y011081D01*
X019448Y010851D02*
X019372Y010774D01*
X019372Y010621D01*
X019295Y010544D01*
X019218Y010621D01*
X019218Y010851D01*
X019448Y010851D02*
X019525Y010774D01*
X019525Y010544D01*
X019525Y010390D02*
X019525Y010160D01*
X019448Y010084D01*
X019295Y010084D01*
X019218Y010160D01*
X019218Y010390D01*
X019602Y010390D01*
X019678Y010314D01*
X019678Y010237D01*
X019525Y009930D02*
X019295Y009930D01*
X019218Y009853D01*
X019218Y009623D01*
X019525Y009623D01*
X019525Y009470D02*
X019525Y009316D01*
X019525Y009393D02*
X019218Y009393D01*
X019218Y009316D01*
X019218Y009163D02*
X019218Y009009D01*
X019141Y009086D02*
X019448Y009086D01*
X019525Y009163D01*
X019525Y008856D02*
X019448Y008779D01*
X019141Y008779D01*
X019218Y008702D02*
X019218Y008856D01*
X019295Y008549D02*
X019372Y008549D01*
X019372Y008242D01*
X019448Y008242D02*
X019295Y008242D01*
X019218Y008319D01*
X019218Y008472D01*
X019295Y008549D01*
X019525Y008472D02*
X019525Y008319D01*
X019448Y008242D01*
X019448Y008088D02*
X019525Y008012D01*
X019525Y007858D01*
X019448Y007782D01*
X019295Y007858D02*
X019218Y007782D01*
X019141Y007782D01*
X019065Y007858D01*
X019065Y008012D01*
X019141Y008088D01*
X019295Y008012D02*
X019372Y008088D01*
X019448Y008088D01*
X019295Y008012D02*
X019295Y007858D01*
X019815Y007935D02*
X020275Y007935D01*
X020275Y007782D02*
X020275Y008088D01*
X020275Y008242D02*
X019815Y008242D01*
X019968Y008395D01*
X019815Y008549D01*
X020275Y008549D01*
X020275Y008702D02*
X019815Y008702D01*
X020045Y008702D02*
X020045Y009009D01*
X019968Y009163D02*
X019968Y009470D01*
X020275Y009163D01*
X020275Y009470D01*
X020718Y009470D02*
X021025Y009163D01*
X021025Y009470D01*
X020718Y009470D02*
X020718Y009163D01*
X020795Y009009D02*
X020795Y008702D01*
X021025Y008702D02*
X020565Y008702D01*
X020565Y008549D02*
X021025Y008549D01*
X021315Y008549D02*
X021468Y008395D01*
X021315Y008242D01*
X021775Y008242D01*
X021775Y008012D02*
X021315Y008012D01*
X021545Y007782D01*
X021545Y008088D01*
X021025Y008088D02*
X021025Y007782D01*
X020718Y008088D01*
X020641Y008088D01*
X020565Y008012D01*
X020565Y007858D01*
X020641Y007782D01*
X020795Y007168D02*
X020795Y006861D01*
X020565Y007091D01*
X021025Y007091D01*
X021315Y007168D02*
X021391Y007014D01*
X021545Y006861D01*
X021545Y007091D01*
X021622Y007168D01*
X021698Y007168D01*
X021775Y007091D01*
X021775Y006938D01*
X021698Y006861D01*
X021545Y006861D01*
X021545Y006707D02*
X021545Y006400D01*
X021545Y006247D02*
X021698Y006247D01*
X021775Y006170D01*
X021775Y006017D01*
X021698Y005940D01*
X021545Y005940D02*
X021468Y006093D01*
X021468Y006170D01*
X021545Y006247D01*
X021315Y006247D02*
X021315Y005940D01*
X021545Y005940D01*
X022065Y005940D02*
X022065Y006247D01*
X022141Y006247D01*
X022448Y005940D01*
X022525Y005940D01*
X022372Y006400D02*
X022372Y006707D01*
X022218Y006707D02*
X022218Y006400D01*
X022141Y006861D02*
X022448Y006861D01*
X022525Y006938D01*
X022525Y007091D01*
X022448Y007168D01*
X022295Y007168D01*
X022295Y007014D01*
X022141Y006861D02*
X022065Y006938D01*
X022065Y007091D01*
X022141Y007168D01*
X022065Y007321D02*
X022525Y007628D01*
X022065Y007628D01*
X022065Y007782D02*
X022065Y008012D01*
X022141Y008088D01*
X022448Y008088D01*
X022525Y008012D01*
X022525Y007782D01*
X022065Y007782D01*
X022065Y007321D02*
X022525Y007321D01*
X020795Y006707D02*
X020795Y006400D01*
X020872Y006247D02*
X020948Y006247D01*
X021025Y006170D01*
X021025Y006017D01*
X020948Y005940D01*
X020795Y006093D02*
X020795Y006170D01*
X020872Y006247D01*
X020795Y006170D02*
X020718Y006247D01*
X020641Y006247D01*
X020565Y006170D01*
X020565Y006017D01*
X020641Y005940D01*
X020275Y005940D02*
X020275Y006247D01*
X020275Y006093D02*
X019815Y006093D01*
X019968Y005940D01*
X019525Y006017D02*
X019525Y006093D01*
X019448Y006170D01*
X019065Y006170D01*
X019065Y006093D02*
X019065Y006247D01*
X019065Y006400D02*
X019065Y006631D01*
X019141Y006707D01*
X019295Y006707D01*
X019372Y006631D01*
X019372Y006400D01*
X019525Y006400D02*
X019065Y006400D01*
X019218Y006861D02*
X019065Y007014D01*
X019525Y007014D01*
X019525Y006861D02*
X019525Y007168D01*
X019815Y007091D02*
X019891Y007168D01*
X019968Y007168D01*
X020275Y006861D01*
X020275Y007168D01*
X019815Y007091D02*
X019815Y006938D01*
X019891Y006861D01*
X020045Y006707D02*
X020045Y006400D01*
X019525Y006017D02*
X019448Y005940D01*
X019968Y007782D02*
X019815Y007935D01*
X020565Y008242D02*
X020718Y008395D01*
X020565Y008549D01*
X020565Y008242D02*
X021025Y008242D01*
X021315Y008549D02*
X021775Y008549D01*
X021775Y008702D02*
X021315Y008702D01*
X021545Y008702D02*
X021545Y009009D01*
X021468Y009163D02*
X021468Y009470D01*
X021775Y009163D01*
X021775Y009470D01*
X022065Y009239D02*
X022141Y009316D01*
X022218Y009316D01*
X022295Y009239D01*
X022295Y009086D01*
X022218Y009009D01*
X022141Y009009D01*
X022065Y009086D01*
X022065Y009239D01*
X022295Y009239D02*
X022372Y009316D01*
X022448Y009316D01*
X022525Y009239D01*
X022525Y009086D01*
X022448Y009009D01*
X022372Y009009D01*
X022295Y009086D01*
X022372Y009470D02*
X022372Y009777D01*
X022218Y009777D02*
X022218Y009470D01*
X022141Y009930D02*
X022448Y009930D01*
X022525Y010007D01*
X022525Y010160D01*
X022448Y010237D01*
X022141Y010237D01*
X022065Y010160D01*
X022065Y010007D01*
X022141Y009930D01*
X022141Y010390D02*
X022218Y010390D01*
X022295Y010467D01*
X022295Y010621D01*
X022372Y010697D01*
X022448Y010697D01*
X022525Y010621D01*
X022525Y010467D01*
X022448Y010390D01*
X022141Y010390D02*
X022065Y010467D01*
X022065Y010621D01*
X022141Y010697D01*
X022141Y010851D02*
X022448Y010851D01*
X022525Y010928D01*
X022525Y011081D01*
X022448Y011158D01*
X022141Y011158D02*
X022065Y011081D01*
X022065Y010928D01*
X022141Y010851D01*
X019065Y009393D02*
X018988Y009393D01*
X019815Y009009D02*
X020275Y009009D01*
X020565Y009009D02*
X021025Y009009D01*
X021315Y009009D02*
X021775Y009009D01*
X022448Y008395D02*
X022448Y008319D01*
X022525Y008319D01*
X022525Y008395D01*
X022448Y008395D01*
X022525Y008395D02*
X022678Y008242D01*
X009106Y004949D02*
X009029Y005025D01*
X008799Y005025D01*
X008799Y004565D01*
X009029Y004565D01*
X009106Y004642D01*
X009106Y004949D01*
X008645Y005025D02*
X008338Y005025D01*
X008338Y004565D01*
X008645Y004565D01*
X008492Y004795D02*
X008338Y004795D01*
X008185Y004565D02*
X007878Y004565D01*
X007878Y005025D01*
X007264Y005025D02*
X007111Y005025D01*
X007188Y005025D02*
X007188Y004565D01*
X007264Y004565D02*
X007111Y004565D01*
X006957Y004565D02*
X006957Y005025D01*
X006804Y004872D01*
X006650Y005025D01*
X006650Y004565D01*
X006497Y004565D02*
X006497Y005025D01*
X006190Y005025D02*
X006497Y004565D01*
X006190Y004565D02*
X006190Y005025D01*
X005606Y004949D02*
X005529Y005025D01*
X005299Y005025D01*
X005299Y004565D01*
X005529Y004565D01*
X005606Y004642D01*
X005606Y004949D01*
X005145Y005025D02*
X004838Y005025D01*
X004838Y004565D01*
X005145Y004565D01*
X004992Y004795D02*
X004838Y004795D01*
X004685Y004565D02*
X004378Y004565D01*
X004378Y005025D01*
X003764Y004949D02*
X003764Y004642D01*
X003688Y004565D01*
X003534Y004565D01*
X003457Y004642D01*
X003457Y004949D01*
X003534Y005025D01*
X003688Y005025D01*
X003764Y004949D01*
X003611Y004718D02*
X003764Y004565D01*
X003918Y004488D02*
X004225Y004488D01*
X003304Y004565D02*
X003150Y004718D01*
X003227Y004718D02*
X002997Y004718D01*
X002997Y004565D02*
X002997Y005025D01*
X003227Y005025D01*
X003304Y004949D01*
X003304Y004795D01*
X003227Y004718D01*
X002843Y004565D02*
X002690Y004565D01*
X002767Y004565D02*
X002767Y005025D01*
X002843Y005025D02*
X002690Y005025D01*
X007418Y004488D02*
X007725Y004488D01*
X097315Y031690D02*
X097315Y031920D01*
X097391Y031997D01*
X097545Y031997D01*
X097622Y031920D01*
X097622Y031690D01*
X097775Y031690D02*
X097315Y031690D01*
X097622Y031843D02*
X097775Y031997D01*
X097698Y032150D02*
X097775Y032227D01*
X097775Y032381D01*
X097698Y032457D01*
X097622Y032457D01*
X097545Y032381D01*
X097545Y032227D01*
X097468Y032150D01*
X097391Y032150D01*
X097315Y032227D01*
X097315Y032381D01*
X097391Y032457D01*
X097315Y032611D02*
X097315Y032918D01*
X097315Y032764D02*
X097775Y032764D01*
D14*
X094920Y027795D02*
X092920Y027795D01*
X092920Y008795D01*
X093920Y008795D01*
X093920Y007795D01*
X092920Y007795D01*
X092920Y008795D01*
X093920Y007795D02*
X094920Y007795D01*
X094920Y027795D01*
X084920Y027795D02*
X082920Y027795D01*
X082920Y008795D01*
X083920Y008795D01*
X083920Y007795D01*
X082920Y007795D01*
X082920Y008795D01*
X083920Y007795D02*
X084920Y007795D01*
X084920Y027795D01*
X074920Y027795D02*
X072920Y027795D01*
X072920Y008795D01*
X073920Y008795D01*
X073920Y007795D01*
X072920Y007795D01*
X072920Y008795D01*
X073920Y007795D02*
X074920Y007795D01*
X074920Y027795D01*
X064920Y027795D02*
X062920Y027795D01*
X062920Y008795D01*
X063920Y008795D01*
X063920Y007795D01*
X062920Y007795D01*
X062920Y008795D01*
X063920Y007795D02*
X064920Y007795D01*
X064920Y027795D01*
X054920Y027795D02*
X052920Y027795D01*
X052920Y008795D01*
X053920Y008795D01*
X053920Y007795D01*
X052920Y007795D01*
X052920Y008795D01*
X053920Y007795D02*
X054920Y007795D01*
X054920Y027795D01*
X044920Y027795D02*
X042920Y027795D01*
X042920Y008795D01*
X043920Y008795D01*
X043920Y007795D01*
X042920Y007795D01*
X042920Y008795D01*
X043920Y007795D02*
X044920Y007795D01*
X044920Y027795D01*
X034920Y027795D02*
X032920Y027795D01*
X032920Y008795D01*
X033920Y008795D01*
X033920Y007795D01*
X032920Y007795D01*
X032920Y008795D01*
X033920Y007795D02*
X034920Y007795D01*
X034920Y027795D01*
X024920Y027795D02*
X022920Y027795D01*
X022920Y008795D01*
X023920Y008795D01*
X023920Y007795D01*
X022920Y007795D01*
X022920Y008795D01*
X023920Y007795D02*
X024920Y007795D01*
X024920Y027795D01*
X004470Y018270D02*
X004170Y018270D01*
X003870Y018270D01*
X003870Y018070D02*
X004170Y018070D01*
X004470Y018070D01*
X003220Y018070D02*
X002920Y018070D01*
X002620Y018070D01*
X002620Y018270D02*
X002920Y018270D01*
X003220Y018270D01*
X003795Y006795D02*
X002170Y006795D01*
X002170Y004295D01*
X005795Y004295D01*
X009420Y004295D01*
X009420Y006795D01*
X006920Y006795D01*
X005795Y004795D02*
X005795Y004295D01*
D15*
X004020Y012470D02*
X004020Y014870D01*
X004018Y014927D01*
X004012Y014983D01*
X004003Y015039D01*
X003990Y015095D01*
X003973Y015149D01*
X003953Y015202D01*
X003929Y015253D01*
X003901Y015303D01*
X003871Y015351D01*
X003837Y015397D01*
X003800Y015440D01*
X003761Y015481D01*
X003719Y015519D01*
X003674Y015554D01*
X003627Y015586D01*
X003578Y015615D01*
X003528Y015641D01*
X003475Y015663D01*
X003422Y015682D01*
X003367Y015697D01*
X003311Y015708D01*
X003255Y015716D01*
X003198Y015720D01*
X003142Y015720D01*
X003085Y015716D01*
X003029Y015708D01*
X002973Y015697D01*
X002918Y015682D01*
X002865Y015663D01*
X002812Y015641D01*
X002762Y015615D01*
X002713Y015586D01*
X002666Y015554D01*
X002621Y015519D01*
X002579Y015481D01*
X002540Y015440D01*
X002503Y015397D01*
X002469Y015351D01*
X002439Y015303D01*
X002411Y015253D01*
X002387Y015202D01*
X002367Y015149D01*
X002350Y015095D01*
X002337Y015039D01*
X002328Y014983D01*
X002322Y014927D01*
X002320Y014870D01*
X002320Y012470D01*
X002322Y012413D01*
X002328Y012357D01*
X002337Y012301D01*
X002350Y012245D01*
X002367Y012191D01*
X002387Y012138D01*
X002411Y012087D01*
X002439Y012037D01*
X002469Y011989D01*
X002503Y011943D01*
X002540Y011900D01*
X002579Y011859D01*
X002621Y011821D01*
X002666Y011786D01*
X002713Y011754D01*
X002762Y011725D01*
X002812Y011699D01*
X002865Y011677D01*
X002918Y011658D01*
X002973Y011643D01*
X003029Y011632D01*
X003085Y011624D01*
X003142Y011620D01*
X003198Y011620D01*
X003255Y011624D01*
X003311Y011632D01*
X003367Y011643D01*
X003422Y011658D01*
X003475Y011677D01*
X003528Y011699D01*
X003578Y011725D01*
X003627Y011754D01*
X003674Y011786D01*
X003719Y011821D01*
X003761Y011859D01*
X003800Y011900D01*
X003837Y011943D01*
X003871Y011989D01*
X003901Y012037D01*
X003929Y012087D01*
X003953Y012138D01*
X003973Y012191D01*
X003990Y012245D01*
X004003Y012301D01*
X004012Y012357D01*
X004018Y012413D01*
X004020Y012470D01*
X007045Y020920D02*
X007045Y021920D01*
X005920Y021920D01*
D16*
X002520Y021410D02*
X002520Y021110D01*
X002220Y021410D01*
X002145Y021410D01*
X002070Y021335D01*
X002070Y021185D01*
X002145Y021110D01*
X002145Y020949D02*
X002295Y020949D01*
X002370Y020874D01*
X002370Y020649D01*
X002520Y020649D02*
X002070Y020649D01*
X002070Y020874D01*
X002145Y020949D01*
X002070Y020489D02*
X002070Y020339D01*
X002070Y020414D02*
X002445Y020414D01*
X002520Y020339D01*
X002520Y020264D01*
X002445Y020189D01*
X001720Y019060D02*
X001720Y018760D01*
X002170Y018760D01*
X002095Y018599D02*
X002170Y018524D01*
X002170Y018299D01*
X002320Y018299D02*
X001870Y018299D01*
X001870Y018524D01*
X001945Y018599D01*
X002095Y018599D01*
X001945Y018760D02*
X001945Y018910D01*
X001495Y019060D02*
X001495Y018760D01*
X001195Y019060D01*
X001120Y019060D01*
X001045Y018985D01*
X001045Y018835D01*
X001120Y018760D01*
X001120Y018599D02*
X001045Y018524D01*
X001045Y018374D01*
X001120Y018299D01*
X001420Y018299D01*
X001495Y018374D01*
X001495Y018524D01*
X001420Y018599D01*
X001795Y018139D02*
X001720Y018064D01*
X001720Y017914D01*
X001795Y017839D01*
X001795Y017679D02*
X001720Y017604D01*
X001720Y017453D01*
X001795Y017378D01*
X001795Y017679D02*
X001870Y017679D01*
X002170Y017378D01*
X002170Y017679D01*
X002170Y017839D02*
X001870Y018139D01*
X001795Y018139D01*
X002170Y018139D02*
X002170Y017839D01*
X004920Y017970D02*
X005220Y018270D01*
X005220Y018345D01*
X005145Y018420D01*
X004995Y018420D01*
X004920Y018345D01*
X004995Y018670D02*
X005145Y018670D01*
X005220Y018745D01*
X005380Y018895D02*
X005681Y018895D01*
X005606Y018670D02*
X005606Y019120D01*
X005380Y018895D01*
X005220Y019045D02*
X005145Y019120D01*
X004995Y019120D01*
X004920Y019045D01*
X004920Y018745D01*
X004995Y018670D01*
X005380Y018345D02*
X005455Y018420D01*
X005606Y018420D01*
X005681Y018345D01*
X005681Y018270D01*
X005380Y017970D01*
X005681Y017970D01*
X005841Y017970D02*
X006066Y017970D01*
X006141Y018045D01*
X006141Y018195D01*
X006066Y018270D01*
X005841Y018270D01*
X005841Y017820D01*
X006301Y017970D02*
X006301Y018420D01*
X006601Y018420D01*
X006451Y018195D02*
X006301Y018195D01*
X005220Y017970D02*
X004920Y017970D01*
X002555Y016995D02*
X002555Y016920D01*
X002255Y016620D01*
X002255Y016545D01*
X002255Y016400D02*
X002405Y016250D01*
X002555Y016400D01*
X002555Y015950D01*
X002255Y015950D02*
X002255Y016400D01*
X002094Y016545D02*
X001944Y016695D01*
X002019Y016695D02*
X001794Y016695D01*
X001794Y016545D02*
X001794Y016995D01*
X002019Y016995D01*
X002094Y016920D01*
X002094Y016770D01*
X002019Y016695D01*
X001944Y016400D02*
X001944Y015950D01*
X001794Y015950D02*
X002094Y015950D01*
X001794Y016250D02*
X001944Y016400D01*
X002255Y016995D02*
X002555Y016995D01*
X001945Y015251D02*
X001945Y014951D01*
X001645Y015251D01*
X001645Y014951D01*
X001720Y014791D02*
X001720Y014491D01*
X001945Y014491D02*
X001495Y014491D01*
X001495Y014331D02*
X001945Y014331D01*
X001945Y014030D02*
X001495Y014030D01*
X001645Y014181D01*
X001495Y014331D01*
X001495Y014791D02*
X001945Y014791D01*
X001720Y013870D02*
X001720Y013570D01*
X001495Y013795D01*
X001945Y013795D01*
X001970Y012831D02*
X001970Y012530D01*
X001970Y012681D02*
X001520Y012681D01*
X001670Y012530D01*
X001595Y012370D02*
X001895Y012370D01*
X001970Y012295D01*
X001970Y012145D01*
X001895Y012070D01*
X001595Y012070D01*
X001520Y012145D01*
X001520Y012295D01*
X001595Y012370D01*
X001820Y012220D02*
X001970Y012370D01*
X004050Y011045D02*
X004275Y011045D01*
X004350Y010970D01*
X004350Y010820D01*
X004275Y010745D01*
X004050Y010745D01*
X004050Y010595D02*
X004050Y011045D01*
X004200Y010745D02*
X004350Y010595D01*
X004510Y010670D02*
X004585Y010595D01*
X004736Y010595D01*
X004811Y010670D01*
X004811Y010745D01*
X004736Y010820D01*
X004661Y010820D01*
X004736Y010820D02*
X004811Y010895D01*
X004811Y010970D01*
X004736Y011045D01*
X004585Y011045D01*
X004510Y010970D01*
X006920Y010738D02*
X006920Y010587D01*
X006995Y010512D01*
X006995Y010352D02*
X006920Y010277D01*
X006920Y010127D01*
X006995Y010052D01*
X007295Y010052D01*
X007370Y010127D01*
X007370Y010277D01*
X007295Y010352D01*
X007370Y010512D02*
X007070Y010813D01*
X006995Y010813D01*
X006920Y010738D01*
X007370Y010813D02*
X007370Y010512D01*
X007370Y009895D02*
X007370Y009745D01*
X007370Y009820D02*
X006920Y009820D01*
X006920Y009745D02*
X006920Y009895D01*
X004811Y009765D02*
X004510Y009465D01*
X004585Y009540D02*
X004811Y009315D01*
X004510Y009315D02*
X004510Y009765D01*
X004200Y009765D02*
X004200Y009315D01*
X004050Y009315D02*
X004350Y009315D01*
X004050Y009615D02*
X004200Y009765D01*
X003430Y008400D02*
X003130Y008100D01*
X003205Y008175D02*
X003430Y007950D01*
X003130Y007950D02*
X003130Y008400D01*
X002819Y008400D02*
X002819Y007950D01*
X002669Y007950D02*
X002969Y007950D01*
X002819Y007620D02*
X002819Y007170D01*
X002669Y007170D02*
X002969Y007170D01*
X003130Y007245D02*
X003430Y007545D01*
X003430Y007245D01*
X003355Y007170D01*
X003205Y007170D01*
X003130Y007245D01*
X003130Y007545D01*
X003205Y007620D01*
X003355Y007620D01*
X003430Y007545D01*
X002819Y007620D02*
X002669Y007470D01*
X002509Y007545D02*
X002509Y007395D01*
X002434Y007320D01*
X002209Y007320D01*
X002359Y007320D02*
X002509Y007170D01*
X002209Y007170D02*
X002209Y007620D01*
X002434Y007620D01*
X002509Y007545D01*
X002669Y008250D02*
X002819Y008400D01*
X007050Y008240D02*
X007200Y008390D01*
X007200Y007940D01*
X007050Y007940D02*
X007350Y007940D01*
X007510Y007940D02*
X007510Y008390D01*
X007585Y008165D02*
X007811Y007940D01*
X007661Y007670D02*
X007661Y007220D01*
X007811Y007220D02*
X007510Y007220D01*
X007350Y007220D02*
X007200Y007370D01*
X007275Y007370D02*
X007050Y007370D01*
X007050Y007220D02*
X007050Y007670D01*
X007275Y007670D01*
X007350Y007595D01*
X007350Y007445D01*
X007275Y007370D01*
X007510Y007520D02*
X007661Y007670D01*
X007971Y007520D02*
X008121Y007670D01*
X008121Y007220D01*
X007971Y007220D02*
X008271Y007220D01*
X007510Y008090D02*
X007811Y008390D01*
X010670Y009420D02*
X010670Y030420D01*
X013670Y030420D01*
X015670Y030420D01*
X018670Y030420D01*
X018670Y009420D01*
X010670Y009420D01*
X007395Y011622D02*
X007320Y011622D01*
X007020Y011923D01*
X006945Y011923D01*
X006945Y011622D01*
X007170Y012083D02*
X007170Y012383D01*
X007395Y012308D02*
X006945Y012308D01*
X007170Y012083D01*
X007395Y012543D02*
X007395Y012843D01*
X007320Y013003D02*
X007395Y013078D01*
X007395Y013229D01*
X007320Y013304D01*
X007245Y013304D01*
X007170Y013229D01*
X007170Y013078D01*
X007095Y013003D01*
X007020Y013003D01*
X006945Y013078D01*
X006945Y013229D01*
X007020Y013304D01*
X007020Y013464D02*
X006945Y013539D01*
X006945Y013689D01*
X007020Y013764D01*
X007320Y013464D01*
X007395Y013539D01*
X007395Y013689D01*
X007320Y013764D01*
X007020Y013764D01*
X007170Y013924D02*
X007170Y014224D01*
X007395Y014149D02*
X006945Y014149D01*
X007170Y013924D01*
X007395Y014385D02*
X006945Y014385D01*
X007395Y014685D01*
X006945Y014685D01*
X007020Y013464D02*
X007320Y013464D01*
X007395Y012543D02*
X006945Y012543D01*
X008945Y016220D02*
X008795Y016370D01*
X009245Y016370D01*
X009245Y016220D02*
X009245Y016520D01*
X009170Y016680D02*
X008870Y016981D01*
X009170Y016981D01*
X009245Y016906D01*
X009245Y016755D01*
X009170Y016680D01*
X008870Y016680D01*
X008795Y016755D01*
X008795Y016906D01*
X008870Y016981D01*
X008870Y017141D02*
X008795Y017216D01*
X008795Y017366D01*
X008870Y017441D01*
X009170Y017141D01*
X009245Y017216D01*
X009245Y017366D01*
X009170Y017441D01*
X008870Y017441D01*
X008945Y017601D02*
X008945Y017826D01*
X009020Y017901D01*
X009245Y017901D01*
X009245Y018062D02*
X008795Y018062D01*
X008795Y018362D01*
X009020Y018212D02*
X009020Y018062D01*
X008945Y017601D02*
X009245Y017601D01*
X009170Y017141D02*
X008870Y017141D01*
X008370Y017545D02*
X008370Y017695D01*
X008295Y017770D01*
X008295Y017930D02*
X008370Y018005D01*
X008370Y018156D01*
X008295Y018231D01*
X008145Y018231D01*
X008070Y018156D01*
X008070Y018081D01*
X008145Y017930D01*
X007920Y017930D01*
X007920Y018231D01*
X007995Y017770D02*
X007920Y017695D01*
X007920Y017545D01*
X007995Y017470D01*
X008295Y017470D01*
X008370Y017545D01*
X008709Y018825D02*
X009009Y019125D01*
X009009Y019200D01*
X008934Y019275D01*
X008784Y019275D01*
X008709Y019200D01*
X008709Y018825D02*
X009009Y018825D01*
X009169Y018825D02*
X009169Y019275D01*
X009169Y019420D02*
X009169Y019870D01*
X009394Y019870D01*
X009469Y019795D01*
X009469Y019645D01*
X009394Y019570D01*
X009169Y019570D01*
X009319Y019570D02*
X009469Y019420D01*
X009469Y019275D02*
X009169Y018975D01*
X009244Y019050D02*
X009469Y018825D01*
X009630Y018825D02*
X009930Y019125D01*
X009930Y019200D01*
X009855Y019275D01*
X009705Y019275D01*
X009630Y019200D01*
X009705Y019420D02*
X009855Y019420D01*
X009930Y019495D01*
X009930Y019795D01*
X009855Y019870D01*
X009705Y019870D01*
X009630Y019795D01*
X009630Y019720D01*
X009705Y019645D01*
X009930Y019645D01*
X009705Y019420D02*
X009630Y019495D01*
X009630Y018825D02*
X009930Y018825D01*
X002295Y023020D02*
X002295Y023170D01*
X002295Y023095D02*
X001845Y023095D01*
X001845Y023020D02*
X001845Y023170D01*
X001920Y023327D02*
X002220Y023327D01*
X002295Y023402D01*
X002295Y023552D01*
X002220Y023627D01*
X002220Y023787D02*
X002295Y023862D01*
X002295Y024013D01*
X002220Y024088D01*
X002145Y024088D01*
X002070Y024013D01*
X002070Y023937D01*
X002070Y024013D02*
X001995Y024088D01*
X001920Y024088D01*
X001845Y024013D01*
X001845Y023862D01*
X001920Y023787D01*
X001920Y023627D02*
X001845Y023552D01*
X001845Y023402D01*
X001920Y023327D01*
X001820Y025420D02*
X001820Y025720D01*
X001895Y025720D01*
X002195Y025420D01*
X002270Y025420D01*
X002045Y025880D02*
X002045Y026181D01*
X002045Y026341D02*
X002045Y026641D01*
X001895Y026801D02*
X002195Y026801D01*
X002270Y026876D01*
X002270Y027026D01*
X002195Y027101D01*
X002195Y027262D02*
X002270Y027262D01*
X002195Y027262D02*
X001895Y027562D01*
X001820Y027562D01*
X001820Y027262D01*
X001895Y027101D02*
X001820Y027026D01*
X001820Y026876D01*
X001895Y026801D01*
X001820Y026641D02*
X002270Y026641D01*
X002270Y026341D02*
X001820Y026341D01*
X001820Y026106D02*
X002045Y025880D01*
X002270Y026106D02*
X001820Y026106D01*
X002045Y027722D02*
X002045Y028022D01*
X002270Y027947D02*
X001820Y027947D01*
X002045Y027722D01*
X002270Y028182D02*
X001820Y028182D01*
X002270Y028483D01*
X001820Y028483D01*
X007709Y028825D02*
X008009Y028825D01*
X007859Y028825D02*
X007859Y029275D01*
X007709Y029125D01*
X008169Y029200D02*
X008244Y029275D01*
X008394Y029275D01*
X008469Y029200D01*
X008169Y028900D01*
X008244Y028825D01*
X008394Y028825D01*
X008469Y028900D01*
X008469Y029200D01*
X008630Y029275D02*
X008630Y028825D01*
X008630Y028975D02*
X008930Y029275D01*
X008705Y029050D02*
X008930Y028825D01*
X008169Y028900D02*
X008169Y029200D01*
X008169Y027995D02*
X008394Y027995D01*
X008469Y027920D01*
X008469Y027770D01*
X008394Y027695D01*
X008169Y027695D01*
X008169Y027545D02*
X008169Y027995D01*
X008319Y027695D02*
X008469Y027545D01*
X008630Y027620D02*
X008705Y027545D01*
X008855Y027545D01*
X008930Y027620D01*
X008930Y027770D01*
X008855Y027845D01*
X008780Y027845D01*
X008630Y027770D01*
X008630Y027995D01*
X008930Y027995D01*
X008855Y027275D02*
X008705Y027275D01*
X008630Y027200D01*
X008469Y027275D02*
X008169Y026975D01*
X008244Y027050D02*
X008469Y026825D01*
X008630Y026825D02*
X008930Y027125D01*
X008930Y027200D01*
X008855Y027275D01*
X008930Y026825D02*
X008630Y026825D01*
X008169Y026825D02*
X008169Y027275D01*
X008009Y027200D02*
X007934Y027275D01*
X007784Y027275D01*
X007709Y027200D01*
X008009Y027200D02*
X008009Y027125D01*
X007709Y026825D01*
X008009Y026825D01*
X008169Y025995D02*
X008394Y025995D01*
X008469Y025920D01*
X008469Y025770D01*
X008394Y025695D01*
X008169Y025695D01*
X008169Y025545D02*
X008169Y025995D01*
X008319Y025695D02*
X008469Y025545D01*
X008630Y025620D02*
X008630Y025695D01*
X008705Y025770D01*
X008855Y025770D01*
X008930Y025695D01*
X008930Y025620D01*
X008855Y025545D01*
X008705Y025545D01*
X008630Y025620D01*
X008705Y025770D02*
X008630Y025845D01*
X008630Y025920D01*
X008705Y025995D01*
X008855Y025995D01*
X008930Y025920D01*
X008930Y025845D01*
X008855Y025770D01*
X008731Y024295D02*
X008430Y024295D01*
X008270Y024220D02*
X008195Y024295D01*
X008045Y024295D01*
X007970Y024220D01*
X007970Y023920D01*
X008045Y023845D01*
X008195Y023845D01*
X008270Y023920D01*
X008430Y023920D02*
X008430Y023845D01*
X008430Y023920D02*
X008731Y024220D01*
X008731Y024295D01*
X008656Y023670D02*
X008731Y023595D01*
X008430Y023295D01*
X008505Y023220D01*
X008656Y023220D01*
X008731Y023295D01*
X008731Y023595D01*
X008656Y023670D02*
X008505Y023670D01*
X008430Y023595D01*
X008430Y023295D01*
X008270Y023220D02*
X007970Y023220D01*
X008120Y023220D02*
X008120Y023670D01*
X007970Y023520D01*
X008891Y023595D02*
X008891Y023295D01*
X009191Y023595D01*
X009191Y023295D01*
X009116Y023220D01*
X008966Y023220D01*
X008891Y023295D01*
X008891Y023595D02*
X008966Y023670D01*
X009116Y023670D01*
X009191Y023595D01*
X009351Y023520D02*
X009576Y023520D01*
X009651Y023445D01*
X009651Y023220D01*
X009812Y023220D02*
X009812Y023670D01*
X010112Y023670D01*
X009962Y023445D02*
X009812Y023445D01*
X009351Y023520D02*
X009351Y023220D01*
X024175Y028970D02*
X024175Y029420D01*
X024400Y029420D01*
X024475Y029345D01*
X024475Y029195D01*
X024400Y029120D01*
X024175Y029120D01*
X024325Y029120D02*
X024475Y028970D01*
X024635Y029195D02*
X024936Y029195D01*
X024861Y028970D02*
X024861Y029420D01*
X024635Y029195D01*
X025425Y029240D02*
X025575Y029390D01*
X025575Y028940D01*
X025425Y028940D02*
X025725Y028940D01*
X025885Y028940D02*
X025885Y029390D01*
X025960Y029165D02*
X026186Y028940D01*
X025885Y029090D02*
X026186Y029390D01*
X026111Y030190D02*
X025960Y030190D01*
X025885Y030265D01*
X026186Y030565D01*
X026186Y030265D01*
X026111Y030190D01*
X026346Y030190D02*
X026346Y030640D01*
X026186Y030565D02*
X026111Y030640D01*
X025960Y030640D01*
X025885Y030565D01*
X025885Y030265D01*
X025725Y030190D02*
X025425Y030190D01*
X025575Y030190D02*
X025575Y030640D01*
X025425Y030490D01*
X024936Y030370D02*
X024861Y030445D01*
X024635Y030445D01*
X024635Y030295D01*
X024710Y030220D01*
X024861Y030220D01*
X024936Y030295D01*
X024936Y030370D01*
X024786Y030595D02*
X024635Y030445D01*
X024475Y030445D02*
X024400Y030370D01*
X024175Y030370D01*
X024175Y030220D02*
X024175Y030670D01*
X024400Y030670D01*
X024475Y030595D01*
X024475Y030445D01*
X024325Y030370D02*
X024475Y030220D01*
X024786Y030595D02*
X024936Y030670D01*
X026346Y030340D02*
X026646Y030640D01*
X026421Y030415D02*
X026646Y030190D01*
X015670Y030420D02*
X015668Y030358D01*
X015662Y030297D01*
X015653Y030236D01*
X015640Y030176D01*
X015623Y030117D01*
X015602Y030059D01*
X015578Y030002D01*
X015551Y029947D01*
X015520Y029894D01*
X015486Y029842D01*
X015449Y029793D01*
X015409Y029746D01*
X015366Y029702D01*
X015321Y029661D01*
X015273Y029622D01*
X015222Y029586D01*
X015170Y029554D01*
X015116Y029525D01*
X015060Y029499D01*
X015002Y029477D01*
X014944Y029458D01*
X014884Y029443D01*
X014823Y029432D01*
X014762Y029424D01*
X014701Y029420D01*
X014639Y029420D01*
X014578Y029424D01*
X014517Y029432D01*
X014456Y029443D01*
X014396Y029458D01*
X014338Y029477D01*
X014280Y029499D01*
X014224Y029525D01*
X014170Y029554D01*
X014118Y029586D01*
X014067Y029622D01*
X014019Y029661D01*
X013974Y029702D01*
X013931Y029746D01*
X013891Y029793D01*
X013854Y029842D01*
X013820Y029894D01*
X013789Y029947D01*
X013762Y030002D01*
X013738Y030059D01*
X013717Y030117D01*
X013700Y030176D01*
X013687Y030236D01*
X013678Y030297D01*
X013672Y030358D01*
X013670Y030420D01*
X006112Y031795D02*
X005812Y031795D01*
X005812Y031345D01*
X005651Y031345D02*
X005651Y031570D01*
X005576Y031645D01*
X005351Y031645D01*
X005351Y031345D01*
X005191Y031420D02*
X005191Y031720D01*
X004891Y031420D01*
X004966Y031345D01*
X005116Y031345D01*
X005191Y031420D01*
X004891Y031420D02*
X004891Y031720D01*
X004966Y031795D01*
X005116Y031795D01*
X005191Y031720D01*
X004731Y031720D02*
X004430Y031420D01*
X004505Y031345D01*
X004656Y031345D01*
X004731Y031420D01*
X004731Y031720D01*
X004656Y031795D01*
X004505Y031795D01*
X004430Y031720D01*
X004430Y031420D01*
X004270Y031345D02*
X003970Y031345D01*
X004120Y031345D02*
X004120Y031795D01*
X003970Y031645D01*
X004045Y032095D02*
X004195Y032095D01*
X004270Y032170D01*
X004430Y032170D02*
X004505Y032095D01*
X004656Y032095D01*
X004731Y032170D01*
X004731Y032245D01*
X004656Y032320D01*
X004430Y032320D01*
X004430Y032170D01*
X004430Y032320D02*
X004581Y032470D01*
X004731Y032545D01*
X004270Y032470D02*
X004195Y032545D01*
X004045Y032545D01*
X003970Y032470D01*
X003970Y032170D01*
X004045Y032095D01*
X005812Y031570D02*
X005962Y031570D01*
X038520Y007995D02*
X038520Y007695D01*
X038595Y007620D01*
X038745Y007620D01*
X038820Y007695D01*
X038980Y007695D02*
X039055Y007620D01*
X039206Y007620D01*
X039281Y007695D01*
X039281Y007770D01*
X039206Y007845D01*
X039131Y007845D01*
X039206Y007845D02*
X039281Y007920D01*
X039281Y007995D01*
X039206Y008070D01*
X039055Y008070D01*
X038980Y007995D01*
X038820Y007995D02*
X038745Y008070D01*
X038595Y008070D01*
X038520Y007995D01*
X038745Y006020D02*
X038520Y005795D01*
X038820Y005795D01*
X038980Y005645D02*
X038980Y005570D01*
X038980Y005645D02*
X039281Y005945D01*
X039281Y006020D01*
X038980Y006020D01*
X038745Y006020D02*
X038745Y005570D01*
X039441Y005645D02*
X039441Y005870D01*
X039441Y005645D02*
X039516Y005570D01*
X039741Y005570D01*
X039741Y005870D01*
X039901Y005795D02*
X040051Y005795D01*
X039901Y005570D02*
X039901Y006020D01*
X040201Y006020D01*
X010175Y005936D02*
X010175Y005786D01*
X010100Y005711D01*
X009950Y005861D02*
X009950Y005936D01*
X010025Y006011D01*
X010100Y006011D01*
X010175Y005936D01*
X009950Y005936D02*
X009875Y006011D01*
X009800Y006011D01*
X009725Y005936D01*
X009725Y005786D01*
X009800Y005711D01*
X009800Y005551D02*
X009950Y005551D01*
X010025Y005476D01*
X010025Y005250D01*
X010175Y005250D02*
X009725Y005250D01*
X009725Y005476D01*
X009800Y005551D01*
X009725Y005090D02*
X009725Y004940D01*
X009725Y005015D02*
X010100Y005015D01*
X010175Y004940D01*
X010175Y004865D01*
X010100Y004790D01*
X093618Y028445D02*
X093919Y028445D01*
X093769Y028445D02*
X093769Y028895D01*
X093618Y028745D01*
X094079Y028820D02*
X094154Y028895D01*
X094304Y028895D01*
X094379Y028820D01*
X094079Y028520D01*
X094154Y028445D01*
X094304Y028445D01*
X094379Y028520D01*
X094379Y028820D01*
X094539Y028820D02*
X094614Y028895D01*
X094764Y028895D01*
X094839Y028820D01*
X094539Y028520D01*
X094614Y028445D01*
X094764Y028445D01*
X094839Y028520D01*
X094839Y028820D01*
X095000Y028895D02*
X095225Y028895D01*
X095300Y028820D01*
X095300Y028670D01*
X095225Y028595D01*
X095000Y028595D01*
X095150Y028595D02*
X095300Y028445D01*
X095000Y028445D02*
X095000Y028895D01*
X094935Y029220D02*
X095235Y029520D01*
X095235Y029595D01*
X095160Y029670D01*
X095010Y029670D01*
X094935Y029595D01*
X094774Y029595D02*
X094774Y029445D01*
X094699Y029370D01*
X094474Y029370D01*
X094474Y029220D02*
X094474Y029670D01*
X094699Y029670D01*
X094774Y029595D01*
X094624Y029370D02*
X094774Y029220D01*
X094935Y029220D02*
X095235Y029220D01*
X094539Y028820D02*
X094539Y028520D01*
X094079Y028520D02*
X094079Y028820D01*
X097724Y027545D02*
X097949Y027545D01*
X098024Y027470D01*
X098024Y027320D01*
X097949Y027245D01*
X097724Y027245D01*
X097724Y027095D02*
X097724Y027545D01*
X097874Y027245D02*
X098024Y027095D01*
X098185Y027095D02*
X098485Y027095D01*
X098335Y027095D02*
X098335Y027545D01*
X098185Y027395D01*
X098089Y026895D02*
X097789Y026595D01*
X097864Y026670D02*
X098089Y026445D01*
X098250Y026445D02*
X098550Y026745D01*
X098550Y026820D01*
X098475Y026895D01*
X098325Y026895D01*
X098250Y026820D01*
X098250Y026445D02*
X098550Y026445D01*
X097789Y026445D02*
X097789Y026895D01*
X097629Y026820D02*
X097554Y026895D01*
X097404Y026895D01*
X097329Y026820D01*
X097629Y026820D02*
X097629Y026745D01*
X097329Y026445D01*
X097629Y026445D01*
X100070Y027686D02*
X100220Y027536D01*
X100070Y027686D02*
X100520Y027686D01*
X100520Y027536D02*
X100520Y027836D01*
X100520Y029486D02*
X100220Y029786D01*
X100145Y029786D01*
X100070Y029711D01*
X100070Y029561D01*
X100145Y029486D01*
X100520Y029486D02*
X100520Y029786D01*
X100570Y031836D02*
X100870Y031836D01*
X101020Y031986D01*
X100870Y032136D01*
X100570Y032136D01*
X100795Y032296D02*
X100795Y032596D01*
X100720Y032757D02*
X100720Y032832D01*
X101020Y032832D01*
X101020Y032757D02*
X101020Y032907D01*
X101020Y033063D02*
X100720Y033063D01*
X100720Y033289D01*
X100795Y033364D01*
X101020Y033364D01*
X100570Y032832D02*
X100495Y032832D01*
X099865Y032691D02*
X099865Y032391D01*
X099865Y032541D02*
X099415Y032541D01*
X099565Y032391D01*
X099415Y032231D02*
X099865Y031931D01*
X099865Y032231D02*
X099415Y031931D01*
X096675Y031815D02*
X096600Y031890D01*
X096225Y031890D01*
X096225Y031815D02*
X096225Y031965D01*
X096225Y032125D02*
X096225Y032351D01*
X096300Y032426D01*
X096450Y032426D01*
X096525Y032351D01*
X096525Y032125D01*
X096675Y032125D02*
X096225Y032125D01*
X096300Y032586D02*
X096375Y032586D01*
X096450Y032661D01*
X096450Y032886D01*
X096600Y032886D02*
X096300Y032886D01*
X096225Y032811D01*
X096225Y032661D01*
X096300Y032586D01*
X096600Y032586D02*
X096675Y032661D01*
X096675Y032811D01*
X096600Y032886D01*
X096675Y031815D02*
X096675Y031740D01*
X096600Y031665D01*
X097949Y024620D02*
X097874Y024545D01*
X097874Y024245D01*
X097949Y024170D01*
X098099Y024170D01*
X098174Y024245D01*
X098335Y024170D02*
X098635Y024170D01*
X098485Y024170D02*
X098485Y024620D01*
X098335Y024470D01*
X098174Y024545D02*
X098099Y024620D01*
X097949Y024620D01*
X097639Y023995D02*
X097714Y023920D01*
X097414Y023620D01*
X097489Y023545D01*
X097639Y023545D01*
X097714Y023620D01*
X097714Y023920D01*
X097639Y023995D02*
X097489Y023995D01*
X097414Y023920D01*
X097414Y023620D01*
X097254Y023620D02*
X097254Y023920D01*
X096953Y023620D01*
X097028Y023545D01*
X097179Y023545D01*
X097254Y023620D01*
X097254Y023920D02*
X097179Y023995D01*
X097028Y023995D01*
X096953Y023920D01*
X096953Y023620D01*
X096793Y023545D02*
X096493Y023545D01*
X096643Y023545D02*
X096643Y023995D01*
X096493Y023845D01*
X097874Y023845D02*
X097874Y023545D01*
X097874Y023845D02*
X098099Y023845D01*
X098174Y023770D01*
X098174Y023545D01*
X098335Y023545D02*
X098335Y023995D01*
X098635Y023995D01*
X098485Y023770D02*
X098335Y023770D01*
X097545Y022795D02*
X097545Y009795D01*
X102545Y009795D01*
X102545Y022795D01*
X100545Y022795D01*
X099545Y022795D01*
X097545Y022795D01*
X099545Y022795D02*
X099547Y022751D01*
X099553Y022708D01*
X099562Y022666D01*
X099575Y022624D01*
X099592Y022584D01*
X099612Y022545D01*
X099635Y022508D01*
X099662Y022474D01*
X099691Y022441D01*
X099724Y022412D01*
X099758Y022385D01*
X099795Y022362D01*
X099834Y022342D01*
X099874Y022325D01*
X099916Y022312D01*
X099958Y022303D01*
X100001Y022297D01*
X100045Y022295D01*
X100089Y022297D01*
X100132Y022303D01*
X100174Y022312D01*
X100216Y022325D01*
X100256Y022342D01*
X100295Y022362D01*
X100332Y022385D01*
X100366Y022412D01*
X100399Y022441D01*
X100428Y022474D01*
X100455Y022508D01*
X100478Y022545D01*
X100498Y022584D01*
X100515Y022624D01*
X100528Y022666D01*
X100537Y022708D01*
X100543Y022751D01*
X100545Y022795D01*
D17*
X099195Y023795D02*
X101895Y023795D01*
X101912Y023797D01*
X101929Y023801D01*
X101945Y023808D01*
X101959Y023818D01*
X101972Y023831D01*
X101982Y023845D01*
X101989Y023861D01*
X101993Y023878D01*
X101995Y023895D01*
X101995Y024695D01*
X101993Y024712D01*
X101989Y024729D01*
X101982Y024745D01*
X101972Y024759D01*
X101959Y024772D01*
X101945Y024782D01*
X101929Y024789D01*
X101912Y024793D01*
X101895Y024795D01*
X099195Y024795D01*
X099178Y024793D01*
X099161Y024789D01*
X099145Y024782D01*
X099131Y024772D01*
X099118Y024759D01*
X099108Y024745D01*
X099101Y024729D01*
X099097Y024712D01*
X099095Y024695D01*
X099095Y023895D01*
X099097Y023878D01*
X099101Y023861D01*
X099108Y023845D01*
X099118Y023831D01*
X099131Y023818D01*
X099145Y023808D01*
X099161Y023801D01*
X099178Y023797D01*
X099195Y023795D01*
X099945Y024295D02*
X100415Y024295D01*
X100665Y024295D02*
X101145Y024295D01*
X100445Y025345D02*
X100295Y025345D01*
X100245Y025395D01*
X098345Y025395D01*
X098295Y025345D01*
X098145Y025345D01*
X098128Y025347D01*
X098111Y025351D01*
X098095Y025358D01*
X098081Y025368D01*
X098068Y025381D01*
X098058Y025395D01*
X098051Y025411D01*
X098047Y025428D01*
X098045Y025445D01*
X098045Y026145D01*
X098047Y026162D01*
X098051Y026179D01*
X098058Y026195D01*
X098068Y026209D01*
X098081Y026222D01*
X098095Y026232D01*
X098111Y026239D01*
X098128Y026243D01*
X098145Y026245D01*
X098295Y026245D01*
X098345Y026195D01*
X100245Y026195D01*
X100295Y026245D01*
X100445Y026245D01*
X100462Y026243D01*
X100479Y026239D01*
X100495Y026232D01*
X100509Y026222D01*
X100522Y026209D01*
X100532Y026195D01*
X100539Y026179D01*
X100543Y026162D01*
X100545Y026145D01*
X100545Y025445D01*
X100543Y025428D01*
X100539Y025411D01*
X100532Y025395D01*
X100522Y025381D01*
X100509Y025368D01*
X100495Y025358D01*
X100479Y025351D01*
X100462Y025347D01*
X100445Y025345D01*
X096620Y025520D02*
X096620Y025670D01*
X096570Y025720D01*
X096570Y027620D01*
X096620Y027670D01*
X096620Y027820D01*
X096618Y027837D01*
X096614Y027854D01*
X096607Y027870D01*
X096597Y027884D01*
X096584Y027897D01*
X096570Y027907D01*
X096554Y027914D01*
X096537Y027918D01*
X096520Y027920D01*
X095820Y027920D01*
X095803Y027918D01*
X095786Y027914D01*
X095770Y027907D01*
X095756Y027897D01*
X095743Y027884D01*
X095733Y027870D01*
X095726Y027854D01*
X095722Y027837D01*
X095720Y027820D01*
X095720Y027670D01*
X095770Y027620D01*
X095770Y025720D01*
X095720Y025670D01*
X095720Y025520D01*
X095722Y025503D01*
X095726Y025486D01*
X095733Y025470D01*
X095743Y025456D01*
X095756Y025443D01*
X095770Y025433D01*
X095786Y025426D01*
X095803Y025422D01*
X095820Y025420D01*
X096520Y025420D01*
X096537Y025422D01*
X096554Y025426D01*
X096570Y025433D01*
X096584Y025443D01*
X096597Y025456D01*
X096607Y025470D01*
X096614Y025486D01*
X096618Y025503D01*
X096620Y025520D01*
X099325Y027331D02*
X099405Y027331D01*
X099405Y031261D01*
X102005Y031261D01*
X102945Y031261D01*
X102945Y027331D01*
X102005Y027331D01*
X099405Y027331D01*
X099325Y027331D02*
X099325Y031261D01*
X099405Y031261D01*
X098045Y031045D02*
X098045Y030545D01*
X097795Y030295D01*
X097295Y030295D01*
X097045Y030545D01*
X096795Y030295D01*
X096295Y030295D01*
X096045Y030545D01*
X096045Y031045D01*
X096295Y031295D01*
X096795Y031295D01*
X097045Y031045D01*
X097295Y031295D01*
X097795Y031295D01*
X098045Y031045D01*
X097045Y031045D02*
X097045Y030545D01*
X099725Y030281D02*
X099727Y030309D01*
X099733Y030336D01*
X099742Y030362D01*
X099755Y030387D01*
X099772Y030410D01*
X099791Y030430D01*
X099813Y030447D01*
X099837Y030461D01*
X099863Y030471D01*
X099890Y030478D01*
X099918Y030481D01*
X099946Y030480D01*
X099973Y030475D01*
X100000Y030466D01*
X100025Y030454D01*
X100048Y030439D01*
X100069Y030420D01*
X100087Y030399D01*
X100102Y030375D01*
X100113Y030349D01*
X100121Y030323D01*
X100125Y030295D01*
X100125Y030267D01*
X100121Y030239D01*
X100113Y030213D01*
X100102Y030187D01*
X100087Y030163D01*
X100069Y030142D01*
X100048Y030123D01*
X100025Y030108D01*
X100000Y030096D01*
X099973Y030087D01*
X099946Y030082D01*
X099918Y030081D01*
X099890Y030084D01*
X099863Y030091D01*
X099837Y030101D01*
X099813Y030115D01*
X099791Y030132D01*
X099772Y030152D01*
X099755Y030175D01*
X099742Y030200D01*
X099733Y030226D01*
X099727Y030253D01*
X099725Y030281D01*
X102005Y030631D02*
X102005Y031261D01*
X102005Y029931D02*
X102005Y028661D01*
X102005Y027961D02*
X102005Y027331D01*
X099725Y028311D02*
X099727Y028339D01*
X099733Y028366D01*
X099742Y028392D01*
X099755Y028417D01*
X099772Y028440D01*
X099791Y028460D01*
X099813Y028477D01*
X099837Y028491D01*
X099863Y028501D01*
X099890Y028508D01*
X099918Y028511D01*
X099946Y028510D01*
X099973Y028505D01*
X100000Y028496D01*
X100025Y028484D01*
X100048Y028469D01*
X100069Y028450D01*
X100087Y028429D01*
X100102Y028405D01*
X100113Y028379D01*
X100121Y028353D01*
X100125Y028325D01*
X100125Y028297D01*
X100121Y028269D01*
X100113Y028243D01*
X100102Y028217D01*
X100087Y028193D01*
X100069Y028172D01*
X100048Y028153D01*
X100025Y028138D01*
X100000Y028126D01*
X099973Y028117D01*
X099946Y028112D01*
X099918Y028111D01*
X099890Y028114D01*
X099863Y028121D01*
X099837Y028131D01*
X099813Y028145D01*
X099791Y028162D01*
X099772Y028182D01*
X099755Y028205D01*
X099742Y028230D01*
X099733Y028256D01*
X099727Y028283D01*
X099725Y028311D01*
X096445Y021862D02*
X096231Y021862D01*
X096124Y021755D01*
X096124Y021435D01*
X096765Y021435D01*
X096551Y021435D02*
X096551Y021755D01*
X096445Y021862D01*
X096765Y021217D02*
X096765Y020790D01*
X096124Y020790D01*
X096124Y020573D02*
X096231Y020573D01*
X096658Y020145D01*
X096765Y020145D01*
X096445Y019928D02*
X096445Y019501D01*
X096658Y019283D02*
X096231Y019283D01*
X096124Y019177D01*
X096124Y018856D01*
X096765Y018856D01*
X096765Y019177D01*
X096658Y019283D01*
X096658Y018639D02*
X096231Y018639D01*
X096658Y018212D01*
X096765Y018319D01*
X096765Y018532D01*
X096658Y018639D01*
X096231Y018639D02*
X096124Y018532D01*
X096124Y018319D01*
X096231Y018212D01*
X096658Y018212D01*
X096765Y017994D02*
X096765Y017567D01*
X096765Y017781D02*
X096124Y017781D01*
X096338Y017567D01*
X096551Y017350D02*
X096124Y017350D01*
X096124Y016923D02*
X096551Y016923D01*
X096765Y017136D01*
X096551Y017350D01*
X096338Y016705D02*
X096231Y016705D01*
X096124Y016598D01*
X096124Y016385D01*
X096231Y016278D01*
X096231Y016061D02*
X096124Y015954D01*
X096124Y015740D01*
X096231Y015634D01*
X096231Y016061D02*
X096338Y016061D01*
X096765Y015634D01*
X096765Y016061D01*
X096765Y016278D02*
X096338Y016705D01*
X096765Y016705D02*
X096765Y016278D01*
X096765Y015416D02*
X096765Y014989D01*
X096124Y014989D01*
X096338Y014772D02*
X096124Y014558D01*
X096338Y014345D01*
X096765Y014345D01*
X096658Y014127D02*
X096445Y014127D01*
X096445Y013914D01*
X096658Y014127D02*
X096765Y014020D01*
X096765Y013807D01*
X096658Y013700D01*
X096231Y013700D01*
X096124Y013807D01*
X096124Y014020D01*
X096231Y014127D01*
X096445Y014345D02*
X096445Y014772D01*
X096338Y014772D02*
X096765Y014772D01*
X096445Y012826D02*
X096445Y012399D01*
X096124Y012720D01*
X096765Y012720D01*
X096658Y012182D02*
X096765Y012075D01*
X096765Y011861D01*
X096658Y011755D01*
X096231Y011755D01*
X096124Y011861D01*
X096124Y012075D01*
X096231Y012182D01*
X096124Y011539D02*
X096124Y011325D01*
X096124Y011432D02*
X096765Y011432D01*
X096765Y011325D02*
X096765Y011539D01*
X096124Y020145D02*
X096124Y020573D01*
X035945Y006795D02*
X035947Y006868D01*
X035953Y006941D01*
X035963Y007013D01*
X035977Y007085D01*
X035994Y007156D01*
X036016Y007226D01*
X036041Y007295D01*
X036070Y007362D01*
X036102Y007427D01*
X036138Y007491D01*
X036178Y007553D01*
X036220Y007612D01*
X036266Y007669D01*
X036315Y007723D01*
X036367Y007775D01*
X036421Y007824D01*
X036478Y007870D01*
X036537Y007912D01*
X036599Y007952D01*
X036663Y007988D01*
X036728Y008020D01*
X036795Y008049D01*
X036864Y008074D01*
X036934Y008096D01*
X037005Y008113D01*
X037077Y008127D01*
X037149Y008137D01*
X037222Y008143D01*
X037295Y008145D01*
X037368Y008143D01*
X037441Y008137D01*
X037513Y008127D01*
X037585Y008113D01*
X037656Y008096D01*
X037726Y008074D01*
X037795Y008049D01*
X037862Y008020D01*
X037927Y007988D01*
X037991Y007952D01*
X038053Y007912D01*
X038112Y007870D01*
X038169Y007824D01*
X038223Y007775D01*
X038275Y007723D01*
X038324Y007669D01*
X038370Y007612D01*
X038412Y007553D01*
X038452Y007491D01*
X038488Y007427D01*
X038520Y007362D01*
X038549Y007295D01*
X038574Y007226D01*
X038596Y007156D01*
X038613Y007085D01*
X038627Y007013D01*
X038637Y006941D01*
X038643Y006868D01*
X038645Y006795D01*
X038643Y006722D01*
X038637Y006649D01*
X038627Y006577D01*
X038613Y006505D01*
X038596Y006434D01*
X038574Y006364D01*
X038549Y006295D01*
X038520Y006228D01*
X038488Y006163D01*
X038452Y006099D01*
X038412Y006037D01*
X038370Y005978D01*
X038324Y005921D01*
X038275Y005867D01*
X038223Y005815D01*
X038169Y005766D01*
X038112Y005720D01*
X038053Y005678D01*
X037991Y005638D01*
X037927Y005602D01*
X037862Y005570D01*
X037795Y005541D01*
X037726Y005516D01*
X037656Y005494D01*
X037585Y005477D01*
X037513Y005463D01*
X037441Y005453D01*
X037368Y005447D01*
X037295Y005445D01*
X037222Y005447D01*
X037149Y005453D01*
X037077Y005463D01*
X037005Y005477D01*
X036934Y005494D01*
X036864Y005516D01*
X036795Y005541D01*
X036728Y005570D01*
X036663Y005602D01*
X036599Y005638D01*
X036537Y005678D01*
X036478Y005720D01*
X036421Y005766D01*
X036367Y005815D01*
X036315Y005867D01*
X036266Y005921D01*
X036220Y005978D01*
X036178Y006037D01*
X036138Y006099D01*
X036102Y006163D01*
X036070Y006228D01*
X036041Y006295D01*
X036016Y006364D01*
X035994Y006434D01*
X035977Y006505D01*
X035963Y006577D01*
X035953Y006649D01*
X035947Y006722D01*
X035945Y006795D01*
X036095Y006795D02*
X036395Y006795D01*
X036245Y006645D02*
X036245Y006945D01*
X008620Y016270D02*
X008620Y017070D01*
X008618Y017087D01*
X008614Y017104D01*
X008607Y017120D01*
X008597Y017134D01*
X008584Y017147D01*
X008570Y017157D01*
X008554Y017164D01*
X008537Y017168D01*
X008520Y017170D01*
X005820Y017170D01*
X005803Y017168D01*
X005786Y017164D01*
X005770Y017157D01*
X005756Y017147D01*
X005743Y017134D01*
X005733Y017120D01*
X005726Y017104D01*
X005722Y017087D01*
X005720Y017070D01*
X005720Y016270D01*
X005722Y016253D01*
X005726Y016236D01*
X005733Y016220D01*
X005743Y016206D01*
X005756Y016193D01*
X005770Y016183D01*
X005786Y016176D01*
X005803Y016172D01*
X005820Y016170D01*
X008520Y016170D01*
X008537Y016172D01*
X008554Y016176D01*
X008570Y016183D01*
X008584Y016193D01*
X008597Y016206D01*
X008607Y016220D01*
X008614Y016236D01*
X008618Y016253D01*
X008620Y016270D01*
X008320Y015670D02*
X007570Y015670D01*
X007568Y015631D01*
X007562Y015592D01*
X007553Y015554D01*
X007540Y015517D01*
X007523Y015481D01*
X007503Y015448D01*
X007479Y015416D01*
X007453Y015387D01*
X007424Y015361D01*
X007392Y015337D01*
X007359Y015317D01*
X007323Y015300D01*
X007286Y015287D01*
X007248Y015278D01*
X007209Y015272D01*
X007170Y015270D01*
X007131Y015272D01*
X007092Y015278D01*
X007054Y015287D01*
X007017Y015300D01*
X006981Y015317D01*
X006948Y015337D01*
X006916Y015361D01*
X006887Y015387D01*
X006861Y015416D01*
X006837Y015448D01*
X006817Y015481D01*
X006800Y015517D01*
X006787Y015554D01*
X006778Y015592D01*
X006772Y015631D01*
X006770Y015670D01*
X006020Y015670D01*
X006020Y008670D01*
X008320Y008670D01*
X008320Y015670D01*
X007770Y016670D02*
X007290Y016670D01*
X007040Y016670D02*
X006570Y016670D01*
X004670Y017320D02*
X004670Y019020D01*
X004668Y019037D01*
X004664Y019054D01*
X004657Y019070D01*
X004647Y019084D01*
X004634Y019097D01*
X004620Y019107D01*
X004604Y019114D01*
X004587Y019118D01*
X004570Y019120D01*
X003770Y019120D01*
X003753Y019118D01*
X003736Y019114D01*
X003720Y019107D01*
X003706Y019097D01*
X003693Y019084D01*
X003683Y019070D01*
X003676Y019054D01*
X003672Y019037D01*
X003670Y019020D01*
X003670Y017320D01*
X003672Y017303D01*
X003676Y017286D01*
X003683Y017270D01*
X003693Y017256D01*
X003706Y017243D01*
X003720Y017233D01*
X003736Y017226D01*
X003753Y017222D01*
X003770Y017220D01*
X004570Y017220D01*
X004587Y017222D01*
X004604Y017226D01*
X004620Y017233D01*
X004634Y017243D01*
X004647Y017256D01*
X004657Y017270D01*
X004664Y017286D01*
X004668Y017303D01*
X004670Y017320D01*
X003420Y017320D02*
X003420Y019020D01*
X003418Y019037D01*
X003414Y019054D01*
X003407Y019070D01*
X003397Y019084D01*
X003384Y019097D01*
X003370Y019107D01*
X003354Y019114D01*
X003337Y019118D01*
X003320Y019120D01*
X002520Y019120D01*
X002503Y019118D01*
X002486Y019114D01*
X002470Y019107D01*
X002456Y019097D01*
X002443Y019084D01*
X002433Y019070D01*
X002426Y019054D01*
X002422Y019037D01*
X002420Y019020D01*
X002420Y017320D01*
X002422Y017303D01*
X002426Y017286D01*
X002433Y017270D01*
X002443Y017256D01*
X002456Y017243D01*
X002470Y017233D01*
X002486Y017226D01*
X002503Y017222D01*
X002520Y017220D01*
X003320Y017220D01*
X003337Y017222D01*
X003354Y017226D01*
X003370Y017233D01*
X003384Y017243D01*
X003397Y017256D01*
X003407Y017270D01*
X003414Y017286D01*
X003418Y017303D01*
X003420Y017320D01*
X002920Y018020D02*
X002920Y018070D01*
X002920Y018270D02*
X002920Y018320D01*
X004170Y018320D02*
X004170Y018270D01*
X004170Y018070D02*
X004170Y018020D01*
X003670Y016545D02*
X003672Y016589D01*
X003678Y016633D01*
X003688Y016676D01*
X003701Y016718D01*
X003718Y016759D01*
X003739Y016798D01*
X003763Y016835D01*
X003790Y016870D01*
X003820Y016902D01*
X003853Y016932D01*
X003889Y016958D01*
X003926Y016982D01*
X003966Y017001D01*
X004007Y017018D01*
X004050Y017030D01*
X004093Y017039D01*
X004137Y017044D01*
X004181Y017045D01*
X004225Y017042D01*
X004269Y017035D01*
X004312Y017024D01*
X004354Y017010D01*
X004394Y016992D01*
X004433Y016970D01*
X004469Y016946D01*
X004503Y016918D01*
X004535Y016887D01*
X004564Y016853D01*
X004590Y016817D01*
X004612Y016779D01*
X004631Y016739D01*
X004646Y016697D01*
X004658Y016655D01*
X004666Y016611D01*
X004670Y016567D01*
X004670Y016523D01*
X004666Y016479D01*
X004658Y016435D01*
X004646Y016393D01*
X004631Y016351D01*
X004612Y016311D01*
X004590Y016273D01*
X004564Y016237D01*
X004535Y016203D01*
X004503Y016172D01*
X004469Y016144D01*
X004433Y016120D01*
X004394Y016098D01*
X004354Y016080D01*
X004312Y016066D01*
X004269Y016055D01*
X004225Y016048D01*
X004181Y016045D01*
X004137Y016046D01*
X004093Y016051D01*
X004050Y016060D01*
X004007Y016072D01*
X003966Y016089D01*
X003926Y016108D01*
X003889Y016132D01*
X003853Y016158D01*
X003820Y016188D01*
X003790Y016220D01*
X003763Y016255D01*
X003739Y016292D01*
X003718Y016331D01*
X003701Y016372D01*
X003688Y016414D01*
X003678Y016457D01*
X003672Y016501D01*
X003670Y016545D01*
X003820Y014870D02*
X003820Y012470D01*
X003818Y012420D01*
X003812Y012371D01*
X003803Y012322D01*
X003790Y012274D01*
X003773Y012227D01*
X003753Y012182D01*
X003729Y012138D01*
X003702Y012096D01*
X003671Y012056D01*
X003638Y012019D01*
X003602Y011985D01*
X003564Y011953D01*
X003523Y011924D01*
X003481Y011899D01*
X003436Y011877D01*
X003390Y011858D01*
X003342Y011843D01*
X003294Y011832D01*
X003245Y011824D01*
X003195Y011820D01*
X003145Y011820D01*
X003095Y011824D01*
X003046Y011832D01*
X002998Y011843D01*
X002950Y011858D01*
X002904Y011877D01*
X002859Y011899D01*
X002817Y011924D01*
X002776Y011953D01*
X002738Y011985D01*
X002702Y012019D01*
X002669Y012056D01*
X002638Y012096D01*
X002611Y012138D01*
X002587Y012182D01*
X002567Y012227D01*
X002550Y012274D01*
X002537Y012322D01*
X002528Y012371D01*
X002522Y012420D01*
X002520Y012470D01*
X002520Y014870D01*
X002522Y014920D01*
X002528Y014969D01*
X002537Y015018D01*
X002550Y015066D01*
X002567Y015113D01*
X002587Y015158D01*
X002611Y015202D01*
X002638Y015244D01*
X002669Y015284D01*
X002702Y015321D01*
X002738Y015355D01*
X002776Y015387D01*
X002817Y015416D01*
X002859Y015441D01*
X002904Y015463D01*
X002950Y015482D01*
X002998Y015497D01*
X003046Y015508D01*
X003095Y015516D01*
X003145Y015520D01*
X003195Y015520D01*
X003245Y015516D01*
X003294Y015508D01*
X003342Y015497D01*
X003390Y015482D01*
X003436Y015463D01*
X003481Y015441D01*
X003523Y015416D01*
X003564Y015387D01*
X003602Y015355D01*
X003638Y015321D01*
X003671Y015284D01*
X003702Y015244D01*
X003729Y015202D01*
X003753Y015158D01*
X003773Y015113D01*
X003790Y015066D01*
X003803Y015018D01*
X003812Y014969D01*
X003818Y014920D01*
X003820Y014870D01*
X003170Y014170D02*
X003170Y013920D01*
X003470Y013920D01*
X003470Y013770D02*
X002870Y013770D01*
X002870Y013570D01*
X003470Y013570D01*
X003470Y013770D01*
X003170Y013920D02*
X002870Y013920D01*
X002870Y013420D02*
X003170Y013420D01*
X003170Y013170D01*
X003170Y013420D02*
X003470Y013420D01*
X003045Y010170D02*
X003047Y010214D01*
X003053Y010258D01*
X003063Y010301D01*
X003076Y010343D01*
X003093Y010384D01*
X003114Y010423D01*
X003138Y010460D01*
X003165Y010495D01*
X003195Y010527D01*
X003228Y010557D01*
X003264Y010583D01*
X003301Y010607D01*
X003341Y010626D01*
X003382Y010643D01*
X003425Y010655D01*
X003468Y010664D01*
X003512Y010669D01*
X003556Y010670D01*
X003600Y010667D01*
X003644Y010660D01*
X003687Y010649D01*
X003729Y010635D01*
X003769Y010617D01*
X003808Y010595D01*
X003844Y010571D01*
X003878Y010543D01*
X003910Y010512D01*
X003939Y010478D01*
X003965Y010442D01*
X003987Y010404D01*
X004006Y010364D01*
X004021Y010322D01*
X004033Y010280D01*
X004041Y010236D01*
X004045Y010192D01*
X004045Y010148D01*
X004041Y010104D01*
X004033Y010060D01*
X004021Y010018D01*
X004006Y009976D01*
X003987Y009936D01*
X003965Y009898D01*
X003939Y009862D01*
X003910Y009828D01*
X003878Y009797D01*
X003844Y009769D01*
X003808Y009745D01*
X003769Y009723D01*
X003729Y009705D01*
X003687Y009691D01*
X003644Y009680D01*
X003600Y009673D01*
X003556Y009670D01*
X003512Y009671D01*
X003468Y009676D01*
X003425Y009685D01*
X003382Y009697D01*
X003341Y009714D01*
X003301Y009733D01*
X003264Y009757D01*
X003228Y009783D01*
X003195Y009813D01*
X003165Y009845D01*
X003138Y009880D01*
X003114Y009917D01*
X003093Y009956D01*
X003076Y009997D01*
X003063Y010039D01*
X003053Y010082D01*
X003047Y010126D01*
X003045Y010170D01*
X003795Y007795D02*
X003797Y007839D01*
X003803Y007883D01*
X003813Y007926D01*
X003826Y007968D01*
X003843Y008009D01*
X003864Y008048D01*
X003888Y008085D01*
X003915Y008120D01*
X003945Y008152D01*
X003978Y008182D01*
X004014Y008208D01*
X004051Y008232D01*
X004091Y008251D01*
X004132Y008268D01*
X004175Y008280D01*
X004218Y008289D01*
X004262Y008294D01*
X004306Y008295D01*
X004350Y008292D01*
X004394Y008285D01*
X004437Y008274D01*
X004479Y008260D01*
X004519Y008242D01*
X004558Y008220D01*
X004594Y008196D01*
X004628Y008168D01*
X004660Y008137D01*
X004689Y008103D01*
X004715Y008067D01*
X004737Y008029D01*
X004756Y007989D01*
X004771Y007947D01*
X004783Y007905D01*
X004791Y007861D01*
X004795Y007817D01*
X004795Y007773D01*
X004791Y007729D01*
X004783Y007685D01*
X004771Y007643D01*
X004756Y007601D01*
X004737Y007561D01*
X004715Y007523D01*
X004689Y007487D01*
X004660Y007453D01*
X004628Y007422D01*
X004594Y007394D01*
X004558Y007370D01*
X004519Y007348D01*
X004479Y007330D01*
X004437Y007316D01*
X004394Y007305D01*
X004350Y007298D01*
X004306Y007295D01*
X004262Y007296D01*
X004218Y007301D01*
X004175Y007310D01*
X004132Y007322D01*
X004091Y007339D01*
X004051Y007358D01*
X004014Y007382D01*
X003978Y007408D01*
X003945Y007438D01*
X003915Y007470D01*
X003888Y007505D01*
X003864Y007542D01*
X003843Y007581D01*
X003826Y007622D01*
X003813Y007664D01*
X003803Y007707D01*
X003797Y007751D01*
X003795Y007795D01*
X005795Y007795D02*
X005797Y007839D01*
X005803Y007883D01*
X005813Y007926D01*
X005826Y007968D01*
X005843Y008009D01*
X005864Y008048D01*
X005888Y008085D01*
X005915Y008120D01*
X005945Y008152D01*
X005978Y008182D01*
X006014Y008208D01*
X006051Y008232D01*
X006091Y008251D01*
X006132Y008268D01*
X006175Y008280D01*
X006218Y008289D01*
X006262Y008294D01*
X006306Y008295D01*
X006350Y008292D01*
X006394Y008285D01*
X006437Y008274D01*
X006479Y008260D01*
X006519Y008242D01*
X006558Y008220D01*
X006594Y008196D01*
X006628Y008168D01*
X006660Y008137D01*
X006689Y008103D01*
X006715Y008067D01*
X006737Y008029D01*
X006756Y007989D01*
X006771Y007947D01*
X006783Y007905D01*
X006791Y007861D01*
X006795Y007817D01*
X006795Y007773D01*
X006791Y007729D01*
X006783Y007685D01*
X006771Y007643D01*
X006756Y007601D01*
X006737Y007561D01*
X006715Y007523D01*
X006689Y007487D01*
X006660Y007453D01*
X006628Y007422D01*
X006594Y007394D01*
X006558Y007370D01*
X006519Y007348D01*
X006479Y007330D01*
X006437Y007316D01*
X006394Y007305D01*
X006350Y007298D01*
X006306Y007295D01*
X006262Y007296D01*
X006218Y007301D01*
X006175Y007310D01*
X006132Y007322D01*
X006091Y007339D01*
X006051Y007358D01*
X006014Y007382D01*
X005978Y007408D01*
X005945Y007438D01*
X005915Y007470D01*
X005888Y007505D01*
X005864Y007542D01*
X005843Y007581D01*
X005826Y007622D01*
X005813Y007664D01*
X005803Y007707D01*
X005797Y007751D01*
X005795Y007795D01*
X005545Y006295D02*
X005045Y006295D01*
X004795Y006045D01*
X004795Y005545D01*
X005045Y005295D01*
X005545Y005295D01*
X005795Y005545D01*
X005795Y006045D01*
X005545Y006295D01*
X005795Y006045D02*
X006045Y006295D01*
X006545Y006295D01*
X006795Y006045D01*
X007045Y006295D01*
X007545Y006295D01*
X007795Y006045D01*
X007795Y005545D01*
X007545Y005295D01*
X007045Y005295D01*
X006795Y005545D01*
X006545Y005295D01*
X006045Y005295D01*
X005795Y005545D01*
X004795Y005545D02*
X004545Y005295D01*
X004045Y005295D01*
X003795Y005545D01*
X003795Y006045D01*
X004045Y006295D01*
X004545Y006295D01*
X004795Y006045D01*
X006795Y006045D02*
X006795Y005545D01*
X006670Y019795D02*
X006170Y019795D01*
X005920Y020045D01*
X005920Y021545D01*
X005670Y021795D01*
X005170Y021795D01*
X004920Y021545D01*
X004920Y020045D01*
X004670Y019795D01*
X004170Y019795D01*
X003920Y020045D01*
X003670Y019795D01*
X003170Y019795D01*
X002920Y020045D01*
X002920Y021545D01*
X003170Y021795D01*
X003670Y021795D01*
X003920Y021545D01*
X003920Y020045D01*
X004920Y020045D02*
X005170Y019795D01*
X005670Y019795D01*
X005920Y020045D01*
X006670Y019795D02*
X006920Y020045D01*
X006920Y021545D01*
X006670Y021795D01*
X006170Y021795D01*
X005920Y021545D01*
X004920Y021545D02*
X004670Y021795D01*
X004170Y021795D01*
X003920Y021545D01*
X003895Y022545D02*
X006195Y022545D01*
X006195Y029545D01*
X005445Y029545D01*
X005443Y029506D01*
X005437Y029467D01*
X005428Y029429D01*
X005415Y029392D01*
X005398Y029356D01*
X005378Y029323D01*
X005354Y029291D01*
X005328Y029262D01*
X005299Y029236D01*
X005267Y029212D01*
X005234Y029192D01*
X005198Y029175D01*
X005161Y029162D01*
X005123Y029153D01*
X005084Y029147D01*
X005045Y029145D01*
X005006Y029147D01*
X004967Y029153D01*
X004929Y029162D01*
X004892Y029175D01*
X004856Y029192D01*
X004823Y029212D01*
X004791Y029236D01*
X004762Y029262D01*
X004736Y029291D01*
X004712Y029323D01*
X004692Y029356D01*
X004675Y029392D01*
X004662Y029429D01*
X004653Y029467D01*
X004647Y029506D01*
X004645Y029545D01*
X003895Y029545D01*
X003895Y022545D01*
X007595Y022820D02*
X007595Y022020D01*
X007597Y022003D01*
X007601Y021986D01*
X007608Y021970D01*
X007618Y021956D01*
X007631Y021943D01*
X007645Y021933D01*
X007661Y021926D01*
X007678Y021922D01*
X007695Y021920D01*
X010395Y021920D01*
X010412Y021922D01*
X010429Y021926D01*
X010445Y021933D01*
X010459Y021943D01*
X010472Y021956D01*
X010482Y021970D01*
X010489Y021986D01*
X010493Y022003D01*
X010495Y022020D01*
X010495Y022820D01*
X010493Y022837D01*
X010489Y022854D01*
X010482Y022870D01*
X010472Y022884D01*
X010459Y022897D01*
X010445Y022907D01*
X010429Y022914D01*
X010412Y022918D01*
X010395Y022920D01*
X007695Y022920D01*
X007678Y022918D01*
X007661Y022914D01*
X007645Y022907D01*
X007631Y022897D01*
X007618Y022884D01*
X007608Y022870D01*
X007601Y022854D01*
X007597Y022837D01*
X007595Y022820D01*
X008445Y022420D02*
X008915Y022420D01*
X009165Y022420D02*
X009645Y022420D01*
X009170Y020670D02*
X009172Y020714D01*
X009178Y020758D01*
X009188Y020801D01*
X009201Y020843D01*
X009218Y020884D01*
X009239Y020923D01*
X009263Y020960D01*
X009290Y020995D01*
X009320Y021027D01*
X009353Y021057D01*
X009389Y021083D01*
X009426Y021107D01*
X009466Y021126D01*
X009507Y021143D01*
X009550Y021155D01*
X009593Y021164D01*
X009637Y021169D01*
X009681Y021170D01*
X009725Y021167D01*
X009769Y021160D01*
X009812Y021149D01*
X009854Y021135D01*
X009894Y021117D01*
X009933Y021095D01*
X009969Y021071D01*
X010003Y021043D01*
X010035Y021012D01*
X010064Y020978D01*
X010090Y020942D01*
X010112Y020904D01*
X010131Y020864D01*
X010146Y020822D01*
X010158Y020780D01*
X010166Y020736D01*
X010170Y020692D01*
X010170Y020648D01*
X010166Y020604D01*
X010158Y020560D01*
X010146Y020518D01*
X010131Y020476D01*
X010112Y020436D01*
X010090Y020398D01*
X010064Y020362D01*
X010035Y020328D01*
X010003Y020297D01*
X009969Y020269D01*
X009933Y020245D01*
X009894Y020223D01*
X009854Y020205D01*
X009812Y020191D01*
X009769Y020180D01*
X009725Y020173D01*
X009681Y020170D01*
X009637Y020171D01*
X009593Y020176D01*
X009550Y020185D01*
X009507Y020197D01*
X009466Y020214D01*
X009426Y020233D01*
X009389Y020257D01*
X009353Y020283D01*
X009320Y020313D01*
X009290Y020345D01*
X009263Y020380D01*
X009239Y020417D01*
X009218Y020456D01*
X009201Y020497D01*
X009188Y020539D01*
X009178Y020582D01*
X009172Y020626D01*
X009170Y020670D01*
X009045Y026420D02*
X009047Y026464D01*
X009053Y026508D01*
X009063Y026551D01*
X009076Y026593D01*
X009093Y026634D01*
X009114Y026673D01*
X009138Y026710D01*
X009165Y026745D01*
X009195Y026777D01*
X009228Y026807D01*
X009264Y026833D01*
X009301Y026857D01*
X009341Y026876D01*
X009382Y026893D01*
X009425Y026905D01*
X009468Y026914D01*
X009512Y026919D01*
X009556Y026920D01*
X009600Y026917D01*
X009644Y026910D01*
X009687Y026899D01*
X009729Y026885D01*
X009769Y026867D01*
X009808Y026845D01*
X009844Y026821D01*
X009878Y026793D01*
X009910Y026762D01*
X009939Y026728D01*
X009965Y026692D01*
X009987Y026654D01*
X010006Y026614D01*
X010021Y026572D01*
X010033Y026530D01*
X010041Y026486D01*
X010045Y026442D01*
X010045Y026398D01*
X010041Y026354D01*
X010033Y026310D01*
X010021Y026268D01*
X010006Y026226D01*
X009987Y026186D01*
X009965Y026148D01*
X009939Y026112D01*
X009910Y026078D01*
X009878Y026047D01*
X009844Y026019D01*
X009808Y025995D01*
X009769Y025973D01*
X009729Y025955D01*
X009687Y025941D01*
X009644Y025930D01*
X009600Y025923D01*
X009556Y025920D01*
X009512Y025921D01*
X009468Y025926D01*
X009425Y025935D01*
X009382Y025947D01*
X009341Y025964D01*
X009301Y025983D01*
X009264Y026007D01*
X009228Y026033D01*
X009195Y026063D01*
X009165Y026095D01*
X009138Y026130D01*
X009114Y026167D01*
X009093Y026206D01*
X009076Y026247D01*
X009063Y026289D01*
X009053Y026332D01*
X009047Y026376D01*
X009045Y026420D01*
X009045Y028420D02*
X009047Y028464D01*
X009053Y028508D01*
X009063Y028551D01*
X009076Y028593D01*
X009093Y028634D01*
X009114Y028673D01*
X009138Y028710D01*
X009165Y028745D01*
X009195Y028777D01*
X009228Y028807D01*
X009264Y028833D01*
X009301Y028857D01*
X009341Y028876D01*
X009382Y028893D01*
X009425Y028905D01*
X009468Y028914D01*
X009512Y028919D01*
X009556Y028920D01*
X009600Y028917D01*
X009644Y028910D01*
X009687Y028899D01*
X009729Y028885D01*
X009769Y028867D01*
X009808Y028845D01*
X009844Y028821D01*
X009878Y028793D01*
X009910Y028762D01*
X009939Y028728D01*
X009965Y028692D01*
X009987Y028654D01*
X010006Y028614D01*
X010021Y028572D01*
X010033Y028530D01*
X010041Y028486D01*
X010045Y028442D01*
X010045Y028398D01*
X010041Y028354D01*
X010033Y028310D01*
X010021Y028268D01*
X010006Y028226D01*
X009987Y028186D01*
X009965Y028148D01*
X009939Y028112D01*
X009910Y028078D01*
X009878Y028047D01*
X009844Y028019D01*
X009808Y027995D01*
X009769Y027973D01*
X009729Y027955D01*
X009687Y027941D01*
X009644Y027930D01*
X009600Y027923D01*
X009556Y027920D01*
X009512Y027921D01*
X009468Y027926D01*
X009425Y027935D01*
X009382Y027947D01*
X009341Y027964D01*
X009301Y027983D01*
X009264Y028007D01*
X009228Y028033D01*
X009195Y028063D01*
X009165Y028095D01*
X009138Y028130D01*
X009114Y028167D01*
X009093Y028206D01*
X009076Y028247D01*
X009063Y028289D01*
X009053Y028332D01*
X009047Y028376D01*
X009045Y028420D01*
X006620Y030145D02*
X006620Y030945D01*
X006618Y030962D01*
X006614Y030979D01*
X006607Y030995D01*
X006597Y031009D01*
X006584Y031022D01*
X006570Y031032D01*
X006554Y031039D01*
X006537Y031043D01*
X006520Y031045D01*
X003820Y031045D01*
X003803Y031043D01*
X003786Y031039D01*
X003770Y031032D01*
X003756Y031022D01*
X003743Y031009D01*
X003733Y030995D01*
X003726Y030979D01*
X003722Y030962D01*
X003720Y030945D01*
X003720Y030145D01*
X003722Y030128D01*
X003726Y030111D01*
X003733Y030095D01*
X003743Y030081D01*
X003756Y030068D01*
X003770Y030058D01*
X003786Y030051D01*
X003803Y030047D01*
X003820Y030045D01*
X006520Y030045D01*
X006537Y030047D01*
X006554Y030051D01*
X006570Y030058D01*
X006584Y030068D01*
X006597Y030081D01*
X006607Y030095D01*
X006614Y030111D01*
X006618Y030128D01*
X006620Y030145D01*
X005770Y030545D02*
X005300Y030545D01*
X005050Y030545D02*
X004570Y030545D01*
X020170Y030645D02*
X020170Y029945D01*
X020172Y029928D01*
X020176Y029911D01*
X020183Y029895D01*
X020193Y029881D01*
X020206Y029868D01*
X020220Y029858D01*
X020236Y029851D01*
X020253Y029847D01*
X020270Y029845D01*
X020420Y029845D01*
X020470Y029895D01*
X022370Y029895D01*
X022420Y029845D01*
X022570Y029845D01*
X022587Y029847D01*
X022604Y029851D01*
X022620Y029858D01*
X022634Y029868D01*
X022647Y029881D01*
X022657Y029895D01*
X022664Y029911D01*
X022668Y029928D01*
X022670Y029945D01*
X022670Y030645D01*
X022668Y030662D01*
X022664Y030679D01*
X022657Y030695D01*
X022647Y030709D01*
X022634Y030722D01*
X022620Y030732D01*
X022604Y030739D01*
X022587Y030743D01*
X022570Y030745D01*
X022420Y030745D01*
X022370Y030695D01*
X020470Y030695D01*
X020420Y030745D01*
X020270Y030745D01*
X020253Y030743D01*
X020236Y030739D01*
X020220Y030732D01*
X020206Y030722D01*
X020193Y030709D01*
X020183Y030695D01*
X020176Y030679D01*
X020172Y030662D01*
X020170Y030645D01*
X020270Y029620D02*
X020420Y029620D01*
X020470Y029570D01*
X022370Y029570D01*
X022420Y029620D01*
X022570Y029620D01*
X022587Y029618D01*
X022604Y029614D01*
X022620Y029607D01*
X022634Y029597D01*
X022647Y029584D01*
X022657Y029570D01*
X022664Y029554D01*
X022668Y029537D01*
X022670Y029520D01*
X022670Y028820D01*
X022668Y028803D01*
X022664Y028786D01*
X022657Y028770D01*
X022647Y028756D01*
X022634Y028743D01*
X022620Y028733D01*
X022604Y028726D01*
X022587Y028722D01*
X022570Y028720D01*
X022420Y028720D01*
X022370Y028770D01*
X020470Y028770D01*
X020420Y028720D01*
X020270Y028720D01*
X020253Y028722D01*
X020236Y028726D01*
X020220Y028733D01*
X020206Y028743D01*
X020193Y028756D01*
X020183Y028770D01*
X020176Y028786D01*
X020172Y028803D01*
X020170Y028820D01*
X020170Y029520D01*
X020172Y029537D01*
X020176Y029554D01*
X020183Y029570D01*
X020193Y029584D01*
X020206Y029597D01*
X020220Y029607D01*
X020236Y029614D01*
X020253Y029618D01*
X020270Y029620D01*
D18*
X020000Y029170D03*
X020000Y030295D03*
X022840Y030295D03*
X022840Y029170D03*
X097875Y025795D03*
X100715Y025795D03*
D19*
X096170Y025250D03*
X096170Y028090D03*
D20*
X009145Y028420D02*
X008945Y028420D01*
X008945Y026420D02*
X009145Y026420D01*
X009070Y020670D02*
X009270Y020670D01*
X003770Y016545D02*
X003570Y016545D01*
X003945Y010170D02*
X004145Y010170D01*
X004295Y007395D02*
X004295Y007195D01*
X006295Y007195D02*
X006295Y007395D01*
M02*
