G75*
%MOIN*%
%OFA0B0*%
%FSLAX24Y24*%
%IPPOS*%
%LPD*%
%AMOC8*
5,1,8,0,0,1.08239X$1,22.5*
%
%ADD10C,0.0515*%
%ADD11R,0.0600X0.0600*%
%ADD12OC8,0.0600*%
%ADD13OC8,0.0630*%
%ADD14C,0.0630*%
%ADD15OC8,0.0520*%
%ADD16C,0.0705*%
%ADD17C,0.0600*%
%ADD18C,0.0520*%
%ADD19C,0.0520*%
%ADD20C,0.0160*%
%ADD21C,0.1500*%
%ADD22C,0.0500*%
%ADD23C,0.0400*%
%ADD24C,0.0669*%
%ADD25C,0.0320*%
%ADD26C,0.0140*%
%ADD27C,0.0436*%
%ADD28C,0.0100*%
D10*
X011413Y010420D02*
X011927Y010420D01*
X011927Y011420D02*
X011413Y011420D01*
X011413Y012420D02*
X011927Y012420D01*
X011927Y013420D02*
X011413Y013420D01*
X011413Y014420D02*
X011927Y014420D01*
X011927Y015420D02*
X011413Y015420D01*
X011413Y016420D02*
X011927Y016420D01*
X011927Y017420D02*
X011413Y017420D01*
X011413Y018420D02*
X011927Y018420D01*
X011927Y019420D02*
X011413Y019420D01*
X011413Y020420D02*
X011927Y020420D01*
X011927Y021420D02*
X011413Y021420D01*
X011413Y022420D02*
X011927Y022420D01*
X011927Y023420D02*
X011413Y023420D01*
X011413Y024420D02*
X011927Y024420D01*
X011927Y025420D02*
X011413Y025420D01*
X011413Y026420D02*
X011927Y026420D01*
X011927Y027420D02*
X011413Y027420D01*
X011413Y028420D02*
X011927Y028420D01*
X011927Y029420D02*
X011413Y029420D01*
X017413Y029420D02*
X017927Y029420D01*
X017927Y028420D02*
X017413Y028420D01*
X017413Y027420D02*
X017927Y027420D01*
X017927Y026420D02*
X017413Y026420D01*
X017413Y025420D02*
X017927Y025420D01*
X017927Y024420D02*
X017413Y024420D01*
X017413Y023420D02*
X017927Y023420D01*
X017927Y022420D02*
X017413Y022420D01*
X017413Y021420D02*
X017927Y021420D01*
X017927Y020420D02*
X017413Y020420D01*
X017413Y019420D02*
X017927Y019420D01*
X017927Y018420D02*
X017413Y018420D01*
X017413Y017420D02*
X017927Y017420D01*
X017927Y016420D02*
X017413Y016420D01*
X017413Y015420D02*
X017927Y015420D01*
X017927Y014420D02*
X017413Y014420D01*
X017413Y013420D02*
X017927Y013420D01*
X017927Y012420D02*
X017413Y012420D01*
X017413Y011420D02*
X017927Y011420D01*
X017927Y010420D02*
X017413Y010420D01*
X098288Y010795D02*
X098802Y010795D01*
X101288Y010795D02*
X101802Y010795D01*
X101802Y011795D02*
X101288Y011795D01*
X098802Y011795D02*
X098288Y011795D01*
X098288Y012795D02*
X098802Y012795D01*
X098802Y013795D02*
X098288Y013795D01*
X098288Y014795D02*
X098802Y014795D01*
X101288Y014795D02*
X101802Y014795D01*
X101802Y013795D02*
X101288Y013795D01*
X101288Y012795D02*
X101802Y012795D01*
X101802Y015795D02*
X101288Y015795D01*
X098802Y015795D02*
X098288Y015795D01*
X098288Y016795D02*
X098802Y016795D01*
X101288Y016795D02*
X101802Y016795D01*
X101802Y017795D02*
X101288Y017795D01*
X101288Y018795D02*
X101802Y018795D01*
X101802Y019795D02*
X101288Y019795D01*
X098802Y019795D02*
X098288Y019795D01*
X098288Y018795D02*
X098802Y018795D01*
X098802Y017795D02*
X098288Y017795D01*
X098288Y020795D02*
X098802Y020795D01*
X101288Y020795D02*
X101802Y020795D01*
X101802Y021795D02*
X101288Y021795D01*
X098802Y021795D02*
X098288Y021795D01*
D11*
X093420Y008295D03*
X083420Y008295D03*
X073420Y008295D03*
X063420Y008295D03*
X053420Y008295D03*
X043420Y008295D03*
X033420Y008295D03*
X023420Y008295D03*
D12*
X024420Y008295D03*
X024420Y009295D03*
X023420Y009295D03*
X023420Y010295D03*
X024420Y010295D03*
X024420Y011295D03*
X023420Y011295D03*
X023420Y012295D03*
X024420Y012295D03*
X024420Y013295D03*
X023420Y013295D03*
X023420Y014295D03*
X024420Y014295D03*
X024420Y015295D03*
X023420Y015295D03*
X023420Y016295D03*
X024420Y016295D03*
X024420Y017295D03*
X023420Y017295D03*
X023420Y018295D03*
X024420Y018295D03*
X024420Y019295D03*
X023420Y019295D03*
X023420Y020295D03*
X024420Y020295D03*
X024420Y021295D03*
X023420Y021295D03*
X023420Y022295D03*
X024420Y022295D03*
X024420Y023295D03*
X023420Y023295D03*
X023420Y024295D03*
X024420Y024295D03*
X024420Y025295D03*
X023420Y025295D03*
X023420Y026295D03*
X024420Y026295D03*
X024420Y027295D03*
X023420Y027295D03*
X033420Y027295D03*
X034420Y027295D03*
X034420Y026295D03*
X033420Y026295D03*
X033420Y025295D03*
X034420Y025295D03*
X034420Y024295D03*
X033420Y024295D03*
X033420Y023295D03*
X034420Y023295D03*
X034420Y022295D03*
X033420Y022295D03*
X033420Y021295D03*
X034420Y021295D03*
X034420Y020295D03*
X033420Y020295D03*
X033420Y019295D03*
X034420Y019295D03*
X034420Y018295D03*
X033420Y018295D03*
X033420Y017295D03*
X034420Y017295D03*
X034420Y016295D03*
X033420Y016295D03*
X033420Y015295D03*
X034420Y015295D03*
X034420Y014295D03*
X033420Y014295D03*
X033420Y013295D03*
X034420Y013295D03*
X034420Y012295D03*
X033420Y012295D03*
X033420Y011295D03*
X034420Y011295D03*
X034420Y010295D03*
X033420Y010295D03*
X033420Y009295D03*
X034420Y009295D03*
X034420Y008295D03*
X043420Y009295D03*
X044420Y009295D03*
X044420Y008295D03*
X044420Y010295D03*
X043420Y010295D03*
X043420Y011295D03*
X044420Y011295D03*
X044420Y012295D03*
X043420Y012295D03*
X043420Y013295D03*
X044420Y013295D03*
X044420Y014295D03*
X043420Y014295D03*
X043420Y015295D03*
X044420Y015295D03*
X044420Y016295D03*
X043420Y016295D03*
X043420Y017295D03*
X044420Y017295D03*
X044420Y018295D03*
X043420Y018295D03*
X043420Y019295D03*
X044420Y019295D03*
X044420Y020295D03*
X043420Y020295D03*
X043420Y021295D03*
X044420Y021295D03*
X044420Y022295D03*
X043420Y022295D03*
X043420Y023295D03*
X044420Y023295D03*
X044420Y024295D03*
X043420Y024295D03*
X043420Y025295D03*
X044420Y025295D03*
X044420Y026295D03*
X043420Y026295D03*
X043420Y027295D03*
X044420Y027295D03*
X053420Y027295D03*
X054420Y027295D03*
X054420Y026295D03*
X053420Y026295D03*
X053420Y025295D03*
X054420Y025295D03*
X054420Y024295D03*
X053420Y024295D03*
X053420Y023295D03*
X054420Y023295D03*
X054420Y022295D03*
X053420Y022295D03*
X053420Y021295D03*
X054420Y021295D03*
X054420Y020295D03*
X053420Y020295D03*
X053420Y019295D03*
X054420Y019295D03*
X054420Y018295D03*
X053420Y018295D03*
X053420Y017295D03*
X054420Y017295D03*
X054420Y016295D03*
X053420Y016295D03*
X053420Y015295D03*
X054420Y015295D03*
X054420Y014295D03*
X053420Y014295D03*
X053420Y013295D03*
X054420Y013295D03*
X054420Y012295D03*
X053420Y012295D03*
X053420Y011295D03*
X054420Y011295D03*
X054420Y010295D03*
X053420Y010295D03*
X053420Y009295D03*
X054420Y009295D03*
X054420Y008295D03*
X063420Y009295D03*
X064420Y009295D03*
X064420Y008295D03*
X064420Y010295D03*
X063420Y010295D03*
X063420Y011295D03*
X064420Y011295D03*
X064420Y012295D03*
X063420Y012295D03*
X063420Y013295D03*
X064420Y013295D03*
X064420Y014295D03*
X063420Y014295D03*
X063420Y015295D03*
X064420Y015295D03*
X064420Y016295D03*
X063420Y016295D03*
X063420Y017295D03*
X064420Y017295D03*
X064420Y018295D03*
X063420Y018295D03*
X063420Y019295D03*
X064420Y019295D03*
X064420Y020295D03*
X063420Y020295D03*
X063420Y021295D03*
X064420Y021295D03*
X064420Y022295D03*
X063420Y022295D03*
X063420Y023295D03*
X064420Y023295D03*
X064420Y024295D03*
X063420Y024295D03*
X063420Y025295D03*
X064420Y025295D03*
X064420Y026295D03*
X063420Y026295D03*
X063420Y027295D03*
X064420Y027295D03*
X073420Y027295D03*
X074420Y027295D03*
X074420Y026295D03*
X073420Y026295D03*
X073420Y025295D03*
X074420Y025295D03*
X074420Y024295D03*
X073420Y024295D03*
X073420Y023295D03*
X074420Y023295D03*
X074420Y022295D03*
X073420Y022295D03*
X073420Y021295D03*
X074420Y021295D03*
X074420Y020295D03*
X073420Y020295D03*
X073420Y019295D03*
X074420Y019295D03*
X074420Y018295D03*
X073420Y018295D03*
X073420Y017295D03*
X074420Y017295D03*
X074420Y016295D03*
X073420Y016295D03*
X073420Y015295D03*
X074420Y015295D03*
X074420Y014295D03*
X073420Y014295D03*
X073420Y013295D03*
X074420Y013295D03*
X074420Y012295D03*
X073420Y012295D03*
X073420Y011295D03*
X074420Y011295D03*
X074420Y010295D03*
X073420Y010295D03*
X073420Y009295D03*
X074420Y009295D03*
X074420Y008295D03*
X083420Y009295D03*
X084420Y009295D03*
X084420Y008295D03*
X084420Y010295D03*
X083420Y010295D03*
X083420Y011295D03*
X084420Y011295D03*
X084420Y012295D03*
X083420Y012295D03*
X083420Y013295D03*
X084420Y013295D03*
X084420Y014295D03*
X083420Y014295D03*
X083420Y015295D03*
X084420Y015295D03*
X084420Y016295D03*
X083420Y016295D03*
X083420Y017295D03*
X084420Y017295D03*
X084420Y018295D03*
X083420Y018295D03*
X083420Y019295D03*
X084420Y019295D03*
X084420Y020295D03*
X083420Y020295D03*
X083420Y021295D03*
X084420Y021295D03*
X084420Y022295D03*
X083420Y022295D03*
X083420Y023295D03*
X084420Y023295D03*
X084420Y024295D03*
X083420Y024295D03*
X083420Y025295D03*
X084420Y025295D03*
X084420Y026295D03*
X083420Y026295D03*
X083420Y027295D03*
X084420Y027295D03*
X093420Y027295D03*
X094420Y027295D03*
X094420Y026295D03*
X093420Y026295D03*
X093420Y025295D03*
X094420Y025295D03*
X094420Y024295D03*
X093420Y024295D03*
X093420Y023295D03*
X094420Y023295D03*
X094420Y022295D03*
X093420Y022295D03*
X093420Y021295D03*
X094420Y021295D03*
X094420Y020295D03*
X093420Y020295D03*
X093420Y019295D03*
X094420Y019295D03*
X094420Y018295D03*
X093420Y018295D03*
X093420Y017295D03*
X094420Y017295D03*
X094420Y016295D03*
X093420Y016295D03*
X093420Y015295D03*
X094420Y015295D03*
X094420Y014295D03*
X093420Y014295D03*
X093420Y013295D03*
X094420Y013295D03*
X094420Y012295D03*
X093420Y012295D03*
X093420Y011295D03*
X094420Y011295D03*
X094420Y010295D03*
X093420Y010295D03*
X093420Y009295D03*
X094420Y009295D03*
X094420Y008295D03*
X006420Y020295D03*
X005420Y020295D03*
X004420Y020295D03*
X003420Y020295D03*
X003420Y021295D03*
X004420Y021295D03*
X005420Y021295D03*
X006420Y021295D03*
D13*
X037795Y006795D03*
D14*
X036795Y006795D03*
D15*
X008170Y016670D03*
X006170Y016670D03*
X004170Y016545D03*
X003170Y016545D03*
X002920Y017670D03*
X004170Y017670D03*
X004170Y018670D03*
X002920Y018670D03*
X008670Y020670D03*
X009670Y020670D03*
X010045Y022420D03*
X008045Y022420D03*
X008545Y026420D03*
X009545Y026420D03*
X009545Y028420D03*
X008545Y028420D03*
X006170Y030545D03*
X004170Y030545D03*
X019420Y030295D03*
X019420Y029170D03*
X023420Y029170D03*
X023420Y030295D03*
X004545Y010170D03*
X003545Y010170D03*
X004295Y007795D03*
X006295Y007795D03*
X006295Y006795D03*
X004295Y006795D03*
X096170Y024670D03*
X097295Y025795D03*
X099545Y024295D03*
X101545Y024295D03*
X101295Y025795D03*
X096170Y028670D03*
D16*
X100943Y028311D02*
X101648Y028311D01*
X101648Y030279D02*
X100943Y030279D01*
D17*
X097545Y030495D02*
X097545Y031095D01*
X096545Y031095D02*
X096545Y030495D01*
X007295Y006095D02*
X007295Y005495D01*
X006295Y005495D02*
X006295Y006095D01*
X005295Y006095D02*
X005295Y005495D01*
X004295Y005495D02*
X004295Y006095D01*
D18*
X003170Y012720D03*
X003170Y014620D03*
D19*
X005410Y014170D02*
X005930Y014170D01*
X005930Y013170D02*
X005410Y013170D01*
X008410Y013170D02*
X008930Y013170D01*
X008930Y014170D02*
X008410Y014170D01*
X008410Y015170D02*
X008930Y015170D01*
X005930Y015170D02*
X005410Y015170D01*
X005410Y012170D02*
X005930Y012170D01*
X008410Y012170D02*
X008930Y012170D01*
X008930Y011170D02*
X008410Y011170D01*
X005930Y011170D02*
X005410Y011170D01*
X005410Y010170D02*
X005930Y010170D01*
X008410Y010170D02*
X008930Y010170D01*
X008930Y009170D02*
X008410Y009170D01*
X005930Y009170D02*
X005410Y009170D01*
X006285Y023045D02*
X006805Y023045D01*
X006805Y024045D02*
X006285Y024045D01*
X003805Y024045D02*
X003285Y024045D01*
X003285Y023045D02*
X003805Y023045D01*
X003805Y025045D02*
X003285Y025045D01*
X006285Y025045D02*
X006805Y025045D01*
X006805Y026045D02*
X006285Y026045D01*
X003805Y026045D02*
X003285Y026045D01*
X003285Y027045D02*
X003805Y027045D01*
X006285Y027045D02*
X006805Y027045D01*
X006805Y028045D02*
X006285Y028045D01*
X006285Y029045D02*
X006805Y029045D01*
X003805Y029045D02*
X003285Y029045D01*
X003285Y028045D02*
X003805Y028045D01*
D20*
X005670Y026045D02*
X005045Y025420D01*
X005045Y025045D01*
X005045Y021670D01*
X005420Y021295D01*
X005670Y022045D02*
X006420Y021295D01*
X007170Y020920D02*
X007170Y022295D01*
X007545Y022670D01*
X007545Y023295D01*
X008670Y024420D01*
X009795Y024420D01*
X006545Y024045D02*
X005795Y024045D01*
X005670Y023920D01*
X005670Y022045D01*
X007170Y020920D02*
X006545Y020295D01*
X006420Y020295D01*
X005420Y020295D01*
X004420Y020295D01*
X003420Y020295D01*
X011670Y020420D02*
X012420Y020420D01*
X012670Y020670D01*
X012670Y022670D01*
X017045Y026920D01*
X018920Y026920D01*
X019295Y027295D01*
X023420Y027295D01*
X023670Y027295D01*
X024170Y027795D01*
X024795Y027795D01*
X025295Y027295D01*
X033420Y027295D01*
X033670Y027295D01*
X034170Y027795D01*
X034670Y027795D01*
X035170Y027295D01*
X043420Y027295D01*
X043670Y027295D01*
X044170Y027795D01*
X044670Y027795D01*
X045170Y027295D01*
X053420Y027295D01*
X053670Y027295D01*
X054170Y027795D01*
X054670Y027795D01*
X055170Y027295D01*
X063420Y027295D01*
X063670Y027295D01*
X064170Y027795D01*
X064670Y027795D01*
X065170Y027295D01*
X073420Y027295D01*
X073670Y027295D01*
X074170Y027795D01*
X074670Y027795D01*
X075170Y027295D01*
X083420Y027295D01*
X083670Y027295D01*
X084170Y027795D01*
X084670Y027795D01*
X085170Y027295D01*
X093420Y027295D01*
X093670Y026795D02*
X094170Y027295D01*
X094420Y027295D01*
X093670Y026795D02*
X085170Y026795D01*
X084670Y027295D01*
X084420Y027295D01*
X084170Y027295D01*
X083670Y026795D01*
X075170Y026795D01*
X074670Y027295D01*
X074420Y027295D01*
X074170Y027295D01*
X073670Y026795D01*
X065170Y026795D01*
X064670Y027295D01*
X064420Y027295D01*
X064170Y027295D01*
X063670Y026795D01*
X055170Y026795D01*
X054670Y027295D01*
X054420Y027295D01*
X054170Y027295D01*
X053670Y026795D01*
X045170Y026795D01*
X044670Y027295D01*
X044420Y027295D01*
X044170Y027295D01*
X043670Y026795D01*
X035170Y026795D01*
X034670Y027295D01*
X034420Y027295D01*
X034170Y027295D01*
X033670Y026795D01*
X025170Y026795D01*
X024670Y027295D01*
X024420Y027295D01*
X024170Y026795D02*
X023670Y026295D01*
X023420Y026295D01*
X019045Y026295D01*
X018670Y025920D01*
X017045Y025920D01*
X013170Y022045D01*
X013170Y020170D01*
X012420Y019420D01*
X011670Y019420D01*
X012420Y018420D02*
X013545Y019545D01*
X013545Y021420D01*
X017045Y024920D01*
X018920Y024920D01*
X019295Y025295D01*
X023420Y025295D01*
X023670Y025295D01*
X024170Y025795D01*
X024670Y025795D01*
X025170Y025295D01*
X033420Y025295D01*
X033670Y025295D01*
X034170Y025795D01*
X034670Y025795D01*
X035170Y025295D01*
X043420Y025295D01*
X043670Y025295D01*
X044170Y025795D01*
X044670Y025795D01*
X045170Y025295D01*
X053420Y025295D01*
X053670Y025295D01*
X054170Y025795D01*
X054670Y025795D01*
X055170Y025295D01*
X063420Y025295D01*
X063670Y025295D01*
X064170Y025795D01*
X064670Y025795D01*
X065170Y025295D01*
X073420Y025295D01*
X073670Y025295D01*
X074170Y025795D01*
X074670Y025795D01*
X075170Y025295D01*
X083420Y025295D01*
X083670Y025295D01*
X084170Y025795D01*
X084670Y025795D01*
X085170Y025295D01*
X093420Y025295D01*
X093670Y024795D02*
X094170Y025295D01*
X094420Y025295D01*
X093670Y025795D02*
X094170Y026295D01*
X094420Y026295D01*
X093420Y026295D02*
X085170Y026295D01*
X084670Y026795D01*
X084170Y026795D01*
X083670Y026295D01*
X083420Y026295D01*
X075170Y026295D01*
X074670Y026795D01*
X074170Y026795D01*
X073670Y026295D01*
X073420Y026295D01*
X065170Y026295D01*
X064670Y026795D01*
X064170Y026795D01*
X063670Y026295D01*
X063420Y026295D01*
X055170Y026295D01*
X054670Y026795D01*
X054170Y026795D01*
X053670Y026295D01*
X053420Y026295D01*
X045170Y026295D01*
X044670Y026795D01*
X044170Y026795D01*
X043670Y026295D01*
X043420Y026295D01*
X035170Y026295D01*
X034670Y026795D01*
X034170Y026795D01*
X033670Y026295D01*
X033420Y026295D01*
X025170Y026295D01*
X024670Y026795D01*
X024170Y026795D01*
X024420Y026295D02*
X024670Y026295D01*
X025170Y025795D01*
X033670Y025795D01*
X034170Y026295D01*
X034420Y026295D01*
X034670Y026295D01*
X035170Y025795D01*
X043670Y025795D01*
X044170Y026295D01*
X044420Y026295D01*
X044670Y026295D01*
X045170Y025795D01*
X053670Y025795D01*
X054170Y026295D01*
X054420Y026295D01*
X054670Y026295D01*
X055170Y025795D01*
X063670Y025795D01*
X064170Y026295D01*
X064420Y026295D01*
X064670Y026295D01*
X065170Y025795D01*
X073670Y025795D01*
X074170Y026295D01*
X074420Y026295D01*
X074670Y026295D01*
X075170Y025795D01*
X083670Y025795D01*
X084170Y026295D01*
X084420Y026295D01*
X084670Y026295D01*
X085170Y025795D01*
X093670Y025795D01*
X093670Y024795D02*
X085170Y024795D01*
X084670Y025295D01*
X084420Y025295D01*
X084170Y025295D01*
X083670Y024795D01*
X075170Y024795D01*
X074670Y025295D01*
X074420Y025295D01*
X074170Y025295D01*
X073670Y024795D01*
X065170Y024795D01*
X064670Y025295D01*
X064420Y025295D01*
X064170Y025295D01*
X063670Y024795D01*
X055170Y024795D01*
X054670Y025295D01*
X054420Y025295D01*
X054170Y025295D01*
X053670Y024795D01*
X045170Y024795D01*
X044670Y025295D01*
X044420Y025295D01*
X044170Y025295D01*
X043670Y024795D01*
X035170Y024795D01*
X034670Y025295D01*
X034420Y025295D01*
X034170Y025295D01*
X033670Y024795D01*
X025170Y024795D01*
X024670Y025295D01*
X024420Y025295D01*
X024170Y024795D02*
X023670Y024295D01*
X023420Y024295D01*
X018920Y024295D01*
X018545Y023920D01*
X017045Y023920D01*
X013920Y020795D01*
X013920Y018920D01*
X012420Y017420D01*
X011670Y017420D01*
X011670Y018420D02*
X012420Y018420D01*
X014295Y018295D02*
X012420Y016420D01*
X011670Y016420D01*
X011670Y015420D02*
X012420Y015420D01*
X014670Y017670D01*
X014670Y019545D01*
X017045Y021920D01*
X018420Y021920D01*
X018795Y022295D01*
X023420Y022295D01*
X023670Y022295D01*
X024170Y022795D01*
X024670Y022795D01*
X025170Y022295D01*
X033420Y022295D01*
X033670Y022295D01*
X034170Y022795D01*
X034670Y022795D01*
X035170Y022295D01*
X043420Y022295D01*
X043670Y022295D01*
X044170Y022795D01*
X044670Y022795D01*
X045170Y022295D01*
X053420Y022295D01*
X053670Y022295D01*
X054170Y022795D01*
X054670Y022795D01*
X055170Y022295D01*
X063420Y022295D01*
X063670Y022295D01*
X064170Y022795D01*
X064670Y022795D01*
X065170Y022295D01*
X073420Y022295D01*
X073670Y022295D01*
X074170Y022795D01*
X074670Y022795D01*
X075170Y022295D01*
X083420Y022295D01*
X083670Y022295D01*
X084170Y022795D01*
X084670Y022795D01*
X085170Y022295D01*
X093420Y022295D01*
X093670Y021795D02*
X094170Y022295D01*
X094420Y022295D01*
X093670Y021795D02*
X085170Y021795D01*
X084670Y022295D01*
X084420Y022295D01*
X084170Y022295D01*
X083670Y021795D01*
X075170Y021795D01*
X074670Y022295D01*
X074420Y022295D01*
X074170Y022295D01*
X073670Y021795D01*
X065170Y021795D01*
X064670Y022295D01*
X064420Y022295D01*
X064170Y022295D01*
X063670Y021795D01*
X055170Y021795D01*
X054670Y022295D01*
X054420Y022295D01*
X054170Y022295D01*
X053670Y021795D01*
X045170Y021795D01*
X044670Y022295D01*
X044420Y022295D01*
X044170Y022295D01*
X043670Y021795D01*
X035170Y021795D01*
X034670Y022295D01*
X034420Y022295D01*
X034170Y022295D01*
X033670Y021795D01*
X025170Y021795D01*
X024670Y022295D01*
X024420Y022295D01*
X024170Y021795D02*
X023670Y021295D01*
X023420Y021295D01*
X018795Y021295D01*
X018420Y020920D01*
X017045Y020920D01*
X015045Y018920D01*
X015045Y017045D01*
X012420Y014420D01*
X011670Y014420D01*
X010670Y014170D02*
X008670Y014170D01*
X005670Y014170D02*
X005670Y013170D01*
X005670Y012170D02*
X005670Y011170D01*
X005670Y010170D02*
X004545Y010170D01*
X005670Y010170D02*
X008670Y010170D01*
X009295Y009170D02*
X009920Y009795D01*
X023670Y009795D01*
X024170Y010295D01*
X024420Y010295D01*
X024670Y010295D01*
X025170Y009795D01*
X033670Y009795D01*
X034170Y010295D01*
X034420Y010295D01*
X034670Y010295D01*
X035170Y009795D01*
X043670Y009795D01*
X044170Y010295D01*
X043670Y010295D02*
X044170Y010795D01*
X044670Y010795D01*
X045170Y010295D01*
X053420Y010295D01*
X053670Y010295D01*
X054170Y010795D01*
X054670Y010795D01*
X055170Y010295D01*
X063420Y010295D01*
X063670Y010295D01*
X064170Y010795D01*
X064670Y010795D01*
X065170Y010295D01*
X073420Y010295D01*
X073670Y010295D01*
X074170Y010795D01*
X074670Y010795D01*
X075170Y010295D01*
X083420Y010295D01*
X083670Y010295D01*
X084170Y010795D01*
X084670Y010795D01*
X085170Y010295D01*
X093420Y010295D01*
X093670Y010295D01*
X094170Y010795D01*
X097295Y010795D01*
X097795Y011295D01*
X099920Y011295D01*
X101045Y010170D01*
X101920Y010170D01*
X102795Y011045D01*
X102795Y013545D01*
X102545Y013795D01*
X101545Y013795D01*
X101545Y012795D02*
X102170Y012795D01*
X102420Y012545D01*
X102420Y011545D01*
X102170Y011295D01*
X100545Y011295D01*
X099545Y012295D01*
X098045Y012295D01*
X097545Y011795D01*
X094170Y011795D01*
X093670Y011295D01*
X093420Y011295D01*
X085170Y011295D01*
X084670Y011795D01*
X084170Y011795D01*
X083670Y011295D01*
X083420Y011295D01*
X075170Y011295D01*
X074670Y011795D01*
X074170Y011795D01*
X073670Y011295D01*
X073420Y011295D01*
X065170Y011295D01*
X064670Y011795D01*
X064170Y011795D01*
X063670Y011295D01*
X063420Y011295D01*
X055170Y011295D01*
X054670Y011795D01*
X054170Y011795D01*
X053670Y011295D01*
X053420Y011295D01*
X045170Y011295D01*
X044670Y011795D01*
X044170Y011795D01*
X043670Y011295D01*
X043420Y011295D01*
X035170Y011295D01*
X034670Y011795D01*
X034170Y011795D01*
X033670Y011295D01*
X033420Y011295D01*
X025170Y011295D01*
X024670Y011795D01*
X024170Y011795D01*
X023670Y011295D01*
X023420Y011295D01*
X024170Y010795D02*
X023670Y010295D01*
X023420Y010295D01*
X024170Y010795D02*
X024670Y010795D01*
X025170Y010295D01*
X033420Y010295D01*
X033670Y010295D01*
X034170Y010795D01*
X034670Y010795D01*
X035170Y010295D01*
X043420Y010295D01*
X043670Y010295D01*
X044670Y010295D02*
X045170Y009795D01*
X053670Y009795D01*
X054170Y010295D01*
X054420Y010295D01*
X054670Y010295D01*
X055170Y009795D01*
X063670Y009795D01*
X064170Y010295D01*
X064420Y010295D01*
X064670Y010295D01*
X065170Y009795D01*
X073670Y009795D01*
X074170Y010295D01*
X074420Y010295D01*
X074670Y010295D01*
X075170Y009795D01*
X083670Y009795D01*
X084170Y010295D01*
X084420Y010295D01*
X084670Y010295D01*
X085170Y009795D01*
X093670Y009795D01*
X094170Y010295D01*
X094420Y010295D01*
X094170Y009795D02*
X093670Y009295D01*
X093420Y009295D01*
X085170Y009295D01*
X084670Y009795D01*
X084170Y009795D01*
X083670Y009295D01*
X083420Y009295D01*
X075170Y009295D01*
X074670Y009795D01*
X074170Y009795D01*
X073670Y009295D01*
X073420Y009295D01*
X065170Y009295D01*
X064670Y009795D01*
X064170Y009795D01*
X063670Y009295D01*
X063420Y009295D01*
X055170Y009295D01*
X054670Y009795D01*
X054170Y009795D01*
X053670Y009295D01*
X053420Y009295D01*
X045170Y009295D01*
X044670Y009795D01*
X044170Y009795D01*
X043670Y009295D01*
X043420Y009295D01*
X035170Y009295D01*
X034670Y009795D01*
X034170Y009795D01*
X033670Y009295D01*
X033420Y009295D01*
X025170Y009295D01*
X024670Y009795D01*
X024170Y009795D01*
X023670Y009295D01*
X023420Y009295D01*
X020795Y012045D02*
X019670Y010920D01*
X017170Y010920D01*
X016795Y011295D01*
X016795Y012170D01*
X017045Y012420D01*
X017670Y012420D01*
X017670Y011420D02*
X019420Y011420D01*
X020295Y012295D01*
X020295Y015920D01*
X020670Y016295D01*
X023420Y016295D01*
X023670Y016295D01*
X024170Y016795D01*
X024670Y016795D01*
X025170Y016295D01*
X033420Y016295D01*
X033670Y016295D01*
X034170Y016795D01*
X034670Y016795D01*
X035170Y016295D01*
X043420Y016295D01*
X043670Y016295D01*
X044170Y016795D01*
X044670Y016795D01*
X045170Y016295D01*
X053420Y016295D01*
X053670Y016295D01*
X054170Y016795D01*
X054670Y016795D01*
X055170Y016295D01*
X063420Y016295D01*
X063670Y016295D01*
X064170Y016795D01*
X064670Y016795D01*
X065170Y016295D01*
X073420Y016295D01*
X073670Y016295D01*
X074170Y016795D01*
X074670Y016795D01*
X075170Y016295D01*
X083420Y016295D01*
X083670Y016295D01*
X084170Y016795D01*
X084670Y016795D01*
X085170Y016295D01*
X093420Y016295D01*
X093670Y016295D01*
X094170Y016795D01*
X098545Y016795D01*
X099295Y017295D02*
X099545Y017545D01*
X099545Y021545D01*
X099295Y021795D01*
X098545Y021795D01*
X099920Y021795D02*
X097295Y024420D01*
X097295Y025795D01*
X097295Y028670D01*
X097545Y028920D01*
X097545Y030795D01*
X096545Y030795D02*
X096545Y029045D01*
X096170Y028670D01*
X085170Y024295D02*
X084670Y024795D01*
X084170Y024795D01*
X083670Y024295D01*
X083420Y024295D01*
X075170Y024295D01*
X074670Y024795D01*
X074170Y024795D01*
X073670Y024295D01*
X073420Y024295D01*
X065170Y024295D01*
X064670Y024795D01*
X064170Y024795D01*
X063670Y024295D01*
X063420Y024295D01*
X055170Y024295D01*
X054670Y024795D01*
X054170Y024795D01*
X053670Y024295D01*
X053420Y024295D01*
X045170Y024295D01*
X044670Y024795D01*
X044170Y024795D01*
X043670Y024295D01*
X043420Y024295D01*
X035170Y024295D01*
X034670Y024795D01*
X034170Y024795D01*
X033670Y024295D01*
X033420Y024295D01*
X025170Y024295D01*
X024670Y024795D01*
X024170Y024795D01*
X024420Y024295D02*
X024670Y024295D01*
X025170Y023795D01*
X033670Y023795D01*
X034170Y024295D01*
X034420Y024295D01*
X034670Y024295D01*
X035170Y023795D01*
X043670Y023795D01*
X044170Y024295D01*
X044420Y024295D01*
X044670Y024295D01*
X045170Y023795D01*
X053670Y023795D01*
X054170Y024295D01*
X054420Y024295D01*
X054670Y024295D01*
X055170Y023795D01*
X063670Y023795D01*
X064170Y024295D01*
X064420Y024295D01*
X064670Y024295D01*
X065170Y023795D01*
X073670Y023795D01*
X074170Y024295D01*
X074420Y024295D01*
X074670Y024295D01*
X075170Y023795D01*
X083670Y023795D01*
X084170Y024295D01*
X084420Y024295D01*
X084670Y024295D01*
X085170Y023795D01*
X093670Y023795D01*
X094170Y024295D01*
X094420Y024295D01*
X093420Y024295D02*
X085170Y024295D01*
X084670Y023795D02*
X085170Y023295D01*
X093420Y023295D01*
X093670Y022795D02*
X094170Y023295D01*
X094420Y023295D01*
X093670Y022795D02*
X085170Y022795D01*
X084670Y023295D01*
X084420Y023295D01*
X084170Y023295D01*
X083670Y022795D01*
X075170Y022795D01*
X074670Y023295D01*
X074420Y023295D01*
X074170Y023295D01*
X073670Y022795D01*
X065170Y022795D01*
X064670Y023295D01*
X064420Y023295D01*
X064170Y023295D01*
X063670Y022795D01*
X055170Y022795D01*
X054670Y023295D01*
X054420Y023295D01*
X054170Y023295D01*
X053670Y022795D01*
X045170Y022795D01*
X044670Y023295D01*
X044420Y023295D01*
X044170Y023295D01*
X043670Y022795D01*
X035170Y022795D01*
X034670Y023295D01*
X034420Y023295D01*
X034170Y023295D01*
X033670Y022795D01*
X025170Y022795D01*
X024670Y023295D01*
X024420Y023295D01*
X024670Y023795D02*
X025170Y023295D01*
X033420Y023295D01*
X033670Y023295D01*
X034170Y023795D01*
X034670Y023795D01*
X035170Y023295D01*
X043420Y023295D01*
X043670Y023295D01*
X044170Y023795D01*
X044670Y023795D01*
X045170Y023295D01*
X053420Y023295D01*
X053670Y023295D01*
X054170Y023795D01*
X054670Y023795D01*
X055170Y023295D01*
X063420Y023295D01*
X063670Y023295D01*
X064170Y023795D01*
X064670Y023795D01*
X065170Y023295D01*
X073420Y023295D01*
X073670Y023295D01*
X074170Y023795D01*
X074670Y023795D01*
X075170Y023295D01*
X083420Y023295D01*
X083670Y023295D01*
X084170Y023795D01*
X084670Y023795D01*
X084670Y021795D02*
X085170Y021295D01*
X093420Y021295D01*
X093670Y020795D02*
X094170Y021295D01*
X094420Y021295D01*
X094170Y020795D02*
X098545Y020795D01*
X098545Y019795D02*
X094170Y019795D01*
X093670Y019295D01*
X093420Y019295D01*
X085170Y019295D01*
X084670Y019795D01*
X084170Y019795D01*
X083670Y019295D01*
X083420Y019295D01*
X075170Y019295D01*
X074670Y019795D01*
X074170Y019795D01*
X073670Y019295D01*
X073420Y019295D01*
X065170Y019295D01*
X064670Y019795D01*
X064170Y019795D01*
X063670Y019295D01*
X063420Y019295D01*
X055170Y019295D01*
X054670Y019795D01*
X054170Y019795D01*
X053670Y019295D01*
X053420Y019295D01*
X045170Y019295D01*
X044670Y019795D01*
X044170Y019795D01*
X043670Y019295D01*
X043420Y019295D01*
X035170Y019295D01*
X034670Y019795D01*
X034170Y019795D01*
X033670Y019295D01*
X033420Y019295D01*
X025170Y019295D01*
X024670Y019795D01*
X024170Y019795D01*
X023670Y019295D01*
X023420Y019295D01*
X018920Y019295D01*
X018545Y018920D01*
X017045Y018920D01*
X015795Y017670D01*
X015795Y015795D01*
X012420Y012420D01*
X011670Y012420D01*
X011670Y013420D02*
X012420Y013420D01*
X015420Y016420D01*
X015420Y018295D01*
X017045Y019920D01*
X018545Y019920D01*
X018920Y020295D01*
X023420Y020295D01*
X023670Y020295D01*
X024170Y020795D01*
X024670Y020795D01*
X025170Y020295D01*
X033420Y020295D01*
X033670Y020295D01*
X034170Y020795D01*
X034670Y020795D01*
X035170Y020295D01*
X043420Y020295D01*
X043670Y020295D01*
X044170Y020795D01*
X044670Y020795D01*
X045170Y020295D01*
X053420Y020295D01*
X053670Y020295D01*
X054170Y020795D01*
X054670Y020795D01*
X055170Y020295D01*
X063420Y020295D01*
X063670Y020295D01*
X064170Y020795D01*
X064670Y020795D01*
X065170Y020295D01*
X073420Y020295D01*
X073670Y020295D01*
X074170Y020795D01*
X074670Y020795D01*
X075170Y020295D01*
X083420Y020295D01*
X083670Y020295D01*
X084170Y020795D01*
X084670Y020795D01*
X085170Y020295D01*
X093420Y020295D01*
X093670Y020295D01*
X094170Y020795D01*
X093670Y020795D02*
X085170Y020795D01*
X084670Y021295D01*
X084420Y021295D01*
X084170Y021295D01*
X083670Y020795D01*
X075170Y020795D01*
X074670Y021295D01*
X074420Y021295D01*
X074170Y021295D01*
X073670Y020795D01*
X065170Y020795D01*
X064670Y021295D01*
X064420Y021295D01*
X064170Y021295D01*
X063670Y020795D01*
X055170Y020795D01*
X054670Y021295D01*
X054420Y021295D01*
X054170Y021295D01*
X053670Y020795D01*
X045170Y020795D01*
X044670Y021295D01*
X044420Y021295D01*
X044170Y021295D01*
X043670Y020795D01*
X035170Y020795D01*
X034670Y021295D01*
X034420Y021295D01*
X034170Y021295D01*
X033670Y020795D01*
X025170Y020795D01*
X024670Y021295D01*
X024420Y021295D01*
X024670Y021795D02*
X025170Y021295D01*
X033420Y021295D01*
X033670Y021295D01*
X034170Y021795D01*
X034670Y021795D01*
X035170Y021295D01*
X043420Y021295D01*
X043670Y021295D01*
X044170Y021795D01*
X044670Y021795D01*
X045170Y021295D01*
X053420Y021295D01*
X053670Y021295D01*
X054170Y021795D01*
X054670Y021795D01*
X055170Y021295D01*
X063420Y021295D01*
X063670Y021295D01*
X064170Y021795D01*
X064670Y021795D01*
X065170Y021295D01*
X073420Y021295D01*
X073670Y021295D01*
X074170Y021795D01*
X074670Y021795D01*
X075170Y021295D01*
X083420Y021295D01*
X083670Y021295D01*
X084170Y021795D01*
X084670Y021795D01*
X084670Y020295D02*
X085170Y019795D01*
X093733Y019795D01*
X094233Y020295D01*
X094420Y020295D01*
X094420Y019295D02*
X094170Y019295D01*
X093670Y018795D01*
X085170Y018795D01*
X084670Y019295D01*
X084420Y019295D01*
X084170Y019295D01*
X083670Y018795D01*
X075170Y018795D01*
X074670Y019295D01*
X074420Y019295D01*
X074170Y019295D01*
X073670Y018795D01*
X065170Y018795D01*
X064670Y019295D01*
X064420Y019295D01*
X064170Y019295D01*
X063670Y018795D01*
X055170Y018795D01*
X054670Y019295D01*
X054420Y019295D01*
X054170Y019295D01*
X053670Y018795D01*
X045170Y018795D01*
X044670Y019295D01*
X044420Y019295D01*
X044170Y019295D01*
X043670Y018795D01*
X035170Y018795D01*
X034670Y019295D01*
X034420Y019295D01*
X034170Y019295D01*
X033670Y018795D01*
X025170Y018795D01*
X024670Y019295D01*
X024420Y019295D01*
X025170Y019795D02*
X024670Y020295D01*
X024420Y020295D01*
X025170Y019795D02*
X033670Y019795D01*
X034170Y020295D01*
X034420Y020295D01*
X034670Y020295D01*
X035170Y019795D01*
X043670Y019795D01*
X044170Y020295D01*
X044420Y020295D01*
X044670Y020295D01*
X045170Y019795D01*
X053670Y019795D01*
X054170Y020295D01*
X054420Y020295D01*
X054670Y020295D01*
X055170Y019795D01*
X063670Y019795D01*
X064170Y020295D01*
X064420Y020295D01*
X064670Y020295D01*
X065170Y019795D01*
X073670Y019795D01*
X074170Y020295D01*
X074420Y020295D01*
X074670Y020295D01*
X075170Y019795D01*
X083670Y019795D01*
X084170Y020295D01*
X084420Y020295D01*
X084670Y020295D01*
X084670Y018795D02*
X085170Y018295D01*
X093420Y018295D01*
X093670Y018295D01*
X094170Y018795D01*
X098545Y018795D01*
X098545Y017795D02*
X094170Y017795D01*
X093670Y017295D01*
X093420Y017295D01*
X085170Y017295D01*
X084670Y017795D01*
X084170Y017795D01*
X083670Y017295D01*
X083420Y017295D01*
X075170Y017295D01*
X074670Y017795D01*
X074170Y017795D01*
X073670Y017295D01*
X073420Y017295D01*
X065170Y017295D01*
X064670Y017795D01*
X064170Y017795D01*
X063670Y017295D01*
X063420Y017295D01*
X055170Y017295D01*
X054670Y017795D01*
X054170Y017795D01*
X053670Y017295D01*
X053420Y017295D01*
X045170Y017295D01*
X044670Y017795D01*
X044170Y017795D01*
X043670Y017295D01*
X043420Y017295D01*
X035170Y017295D01*
X034670Y017795D01*
X034170Y017795D01*
X033670Y017295D01*
X033420Y017295D01*
X025170Y017295D01*
X024670Y017795D01*
X024170Y017795D01*
X023670Y017295D01*
X023420Y017295D01*
X018795Y017295D01*
X018420Y016920D01*
X017045Y016920D01*
X016545Y016420D01*
X016545Y014545D01*
X012420Y010420D01*
X011670Y010420D01*
X011670Y011420D02*
X012420Y011420D01*
X016170Y015170D01*
X016170Y017045D01*
X017045Y017920D01*
X018545Y017920D01*
X018920Y018295D01*
X023420Y018295D01*
X023670Y018295D01*
X024170Y018795D01*
X024670Y018795D01*
X025170Y018295D01*
X033420Y018295D01*
X033670Y018295D01*
X034170Y018795D01*
X034670Y018795D01*
X035170Y018295D01*
X043420Y018295D01*
X043670Y018295D01*
X044170Y018795D01*
X044670Y018795D01*
X045170Y018295D01*
X053420Y018295D01*
X053670Y018295D01*
X054170Y018795D01*
X054670Y018795D01*
X055170Y018295D01*
X063420Y018295D01*
X063670Y018295D01*
X064170Y018795D01*
X064670Y018795D01*
X065170Y018295D01*
X073420Y018295D01*
X073670Y018295D01*
X074170Y018795D01*
X074670Y018795D01*
X075170Y018295D01*
X083420Y018295D01*
X083670Y018295D01*
X084170Y018795D01*
X084670Y018795D01*
X084670Y018295D02*
X085170Y017795D01*
X093670Y017795D01*
X094170Y018295D01*
X094420Y018295D01*
X094420Y017295D02*
X094170Y017295D01*
X093670Y016795D01*
X085170Y016795D01*
X084670Y017295D01*
X084420Y017295D01*
X084170Y017295D01*
X083670Y016795D01*
X075170Y016795D01*
X074670Y017295D01*
X074420Y017295D01*
X074170Y017295D01*
X073670Y016795D01*
X065170Y016795D01*
X064670Y017295D01*
X064420Y017295D01*
X064170Y017295D01*
X063670Y016795D01*
X055170Y016795D01*
X054670Y017295D01*
X054170Y017295D02*
X053670Y016795D01*
X045170Y016795D01*
X044670Y017295D01*
X044420Y017295D01*
X044170Y017295D01*
X043670Y016795D01*
X035170Y016795D01*
X034670Y017295D01*
X034420Y017295D01*
X034170Y017295D01*
X033670Y016795D01*
X025170Y016795D01*
X024670Y017295D01*
X024420Y017295D01*
X025170Y017795D02*
X024670Y018295D01*
X024420Y018295D01*
X025170Y017795D02*
X033670Y017795D01*
X034170Y018295D01*
X034420Y018295D01*
X034670Y018295D01*
X035170Y017795D01*
X043670Y017795D01*
X044170Y018295D01*
X044420Y018295D01*
X044670Y018295D01*
X045170Y017795D01*
X053670Y017795D01*
X054170Y018295D01*
X054420Y018295D01*
X054670Y018295D01*
X055170Y017795D01*
X063670Y017795D01*
X064170Y018295D01*
X064420Y018295D01*
X064670Y018295D01*
X065170Y017795D01*
X073670Y017795D01*
X074170Y018295D01*
X074420Y018295D01*
X074670Y018295D01*
X075170Y017795D01*
X083670Y017795D01*
X084170Y018295D01*
X084420Y018295D01*
X084670Y018295D01*
X084670Y016295D02*
X085170Y015795D01*
X093670Y015795D01*
X094170Y016295D01*
X094420Y016295D01*
X099545Y016295D01*
X099920Y016670D01*
X099920Y021795D01*
X099295Y017295D02*
X094420Y017295D01*
X094170Y015795D02*
X098545Y015795D01*
X098545Y014795D02*
X094045Y014795D01*
X093545Y014295D01*
X093420Y014295D01*
X085170Y014295D01*
X084670Y014795D01*
X084170Y014795D01*
X083670Y014295D01*
X083420Y014295D01*
X075170Y014295D01*
X074670Y014795D01*
X074170Y014795D01*
X073670Y014295D01*
X073420Y014295D01*
X065170Y014295D01*
X064670Y014795D01*
X064170Y014795D01*
X063670Y014295D01*
X063420Y014295D01*
X055170Y014295D01*
X054670Y014795D01*
X054170Y014795D01*
X053670Y014295D01*
X053420Y014295D01*
X045170Y014295D01*
X044670Y014795D01*
X044170Y014795D01*
X043670Y014295D01*
X043420Y014295D01*
X035170Y014295D01*
X034670Y014795D01*
X034170Y014795D01*
X033670Y014295D01*
X033420Y014295D01*
X025170Y014295D01*
X024670Y014795D01*
X024170Y014795D01*
X023670Y014295D01*
X023420Y014295D01*
X023670Y013795D02*
X024170Y014295D01*
X024420Y014295D01*
X024670Y014295D01*
X025170Y013795D01*
X033670Y013795D01*
X034170Y014295D01*
X034420Y014295D01*
X034670Y014295D01*
X035170Y013795D01*
X043670Y013795D01*
X044170Y014295D01*
X044420Y014295D01*
X044670Y014295D01*
X045170Y013795D01*
X053670Y013795D01*
X054170Y014295D01*
X054420Y014295D01*
X054670Y014295D01*
X055170Y013795D01*
X063670Y013795D01*
X064170Y014295D01*
X064420Y014295D01*
X064670Y014295D01*
X065170Y013795D01*
X073670Y013795D01*
X074170Y014295D01*
X074420Y014295D01*
X074670Y014295D01*
X075170Y013795D01*
X083670Y013795D01*
X084170Y014295D01*
X084420Y014295D01*
X084670Y014295D01*
X085170Y013795D01*
X093670Y013795D01*
X094170Y014295D01*
X094420Y014295D01*
X093670Y014795D02*
X094170Y015295D01*
X094420Y015295D01*
X094170Y015795D02*
X093670Y015295D01*
X093420Y015295D01*
X085170Y015295D01*
X084670Y015795D01*
X084170Y015795D01*
X083670Y015295D01*
X083420Y015295D01*
X075170Y015295D01*
X074670Y015795D01*
X074170Y015795D01*
X073670Y015295D01*
X073420Y015295D01*
X065170Y015295D01*
X064670Y015795D01*
X064170Y015795D01*
X063670Y015295D01*
X063420Y015295D01*
X055170Y015295D01*
X054670Y015795D01*
X054170Y015795D01*
X053670Y015295D01*
X053420Y015295D01*
X045170Y015295D01*
X044670Y015795D01*
X044170Y015795D01*
X043670Y015295D01*
X043420Y015295D01*
X035170Y015295D01*
X034670Y015795D01*
X034170Y015795D01*
X033670Y015295D01*
X033420Y015295D01*
X025170Y015295D01*
X024670Y015795D01*
X023920Y015795D01*
X023420Y015295D01*
X021045Y015295D01*
X020795Y015045D01*
X020795Y012045D01*
X021295Y011920D02*
X023170Y013795D01*
X023670Y013795D01*
X024170Y013795D02*
X023670Y013295D01*
X023420Y013295D01*
X024170Y012795D02*
X023670Y012295D01*
X023420Y012295D01*
X024670Y012795D02*
X025170Y012295D01*
X033420Y012295D01*
X033670Y012295D01*
X034170Y012795D01*
X034670Y012795D01*
X035170Y012295D01*
X043420Y012295D01*
X043670Y012295D01*
X044170Y012795D01*
X044670Y012795D01*
X045170Y012295D01*
X053420Y012295D01*
X053670Y012295D01*
X054170Y012795D01*
X054670Y012795D01*
X055170Y012295D01*
X063420Y012295D01*
X063670Y012295D01*
X064170Y012795D01*
X064670Y012795D01*
X065170Y012295D01*
X073420Y012295D01*
X073670Y012295D01*
X074170Y012795D01*
X074670Y012795D01*
X075170Y012295D01*
X083420Y012295D01*
X083670Y012295D01*
X084170Y012795D01*
X084670Y012795D01*
X085170Y012295D01*
X093420Y012295D01*
X093670Y012295D01*
X094170Y012795D01*
X094920Y012795D01*
X095420Y013295D01*
X099170Y013295D01*
X100670Y011795D01*
X101545Y011795D01*
X103045Y010670D02*
X102170Y009795D01*
X094170Y009795D01*
X093670Y012795D02*
X085170Y012795D01*
X084670Y013295D01*
X084420Y013295D01*
X084170Y013295D01*
X083670Y012795D01*
X075170Y012795D01*
X074670Y013295D01*
X074420Y013295D01*
X074170Y013295D01*
X073670Y012795D01*
X065170Y012795D01*
X064670Y013295D01*
X064420Y013295D01*
X064170Y013295D01*
X063670Y012795D01*
X055170Y012795D01*
X054670Y013295D01*
X054420Y013295D01*
X054170Y013295D01*
X053670Y012795D01*
X045170Y012795D01*
X044670Y013295D01*
X044420Y013295D01*
X044170Y013295D01*
X043670Y012795D01*
X035170Y012795D01*
X034670Y013295D01*
X034420Y013295D01*
X034170Y013295D01*
X033670Y012795D01*
X025920Y012795D01*
X025170Y012795D01*
X024670Y013295D01*
X024420Y013295D01*
X024670Y013795D02*
X025170Y013295D01*
X033420Y013295D01*
X033670Y013295D01*
X034170Y013795D01*
X034670Y013795D01*
X035170Y013295D01*
X043420Y013295D01*
X043670Y013295D01*
X044170Y013795D01*
X044670Y013795D01*
X045170Y013295D01*
X053420Y013295D01*
X053670Y013295D01*
X054170Y013795D01*
X054670Y013795D01*
X055170Y013295D01*
X063420Y013295D01*
X063670Y013295D01*
X064170Y013795D01*
X064670Y013795D01*
X065170Y013295D01*
X073420Y013295D01*
X073670Y013295D01*
X074170Y013795D01*
X074670Y013795D01*
X075170Y013295D01*
X083420Y013295D01*
X083670Y013295D01*
X084170Y013795D01*
X084670Y013795D01*
X085170Y013295D01*
X093420Y013295D01*
X093670Y013295D01*
X094170Y013795D01*
X098545Y013795D01*
X101545Y014795D02*
X102295Y014795D01*
X103045Y014045D01*
X103045Y010670D01*
X094420Y013295D02*
X094170Y013295D01*
X093670Y012795D01*
X093670Y014795D02*
X085170Y014795D01*
X084670Y015295D01*
X084420Y015295D01*
X084170Y015295D01*
X083670Y014795D01*
X075170Y014795D01*
X074670Y015295D01*
X074420Y015295D01*
X074170Y015295D01*
X073670Y014795D01*
X065170Y014795D01*
X064670Y015295D01*
X064420Y015295D01*
X064170Y015295D01*
X063670Y014795D01*
X055170Y014795D01*
X054670Y015295D01*
X054420Y015295D01*
X054170Y015295D01*
X053670Y014795D01*
X045170Y014795D01*
X044670Y015295D01*
X044420Y015295D01*
X044170Y015295D01*
X043670Y014795D01*
X035170Y014795D01*
X034670Y015295D01*
X034420Y015295D01*
X034170Y015295D01*
X033670Y014795D01*
X025170Y014795D01*
X024670Y015295D01*
X024420Y015295D01*
X025170Y015795D02*
X024670Y016295D01*
X024420Y016295D01*
X025170Y015795D02*
X033670Y015795D01*
X034170Y016295D01*
X034420Y016295D01*
X034670Y016295D01*
X035170Y015795D01*
X043670Y015795D01*
X044170Y016295D01*
X044420Y016295D01*
X044670Y016295D01*
X045170Y015795D01*
X053670Y015795D01*
X054170Y016295D01*
X054420Y016295D01*
X054670Y016295D01*
X055170Y015795D01*
X063670Y015795D01*
X064170Y016295D01*
X064420Y016295D01*
X064670Y016295D01*
X065170Y015795D01*
X073670Y015795D01*
X074170Y016295D01*
X074420Y016295D01*
X074670Y016295D01*
X075170Y015795D01*
X083670Y015795D01*
X084170Y016295D01*
X084420Y016295D01*
X084670Y016295D01*
X024670Y013795D02*
X024170Y013795D01*
X024170Y012795D02*
X024670Y012795D01*
X010295Y011920D02*
X010045Y012170D01*
X008670Y012170D01*
X008670Y009170D02*
X006795Y009170D01*
X008670Y009170D02*
X009295Y009170D01*
X014295Y018295D02*
X014295Y020170D01*
X017045Y022920D01*
X018545Y022920D01*
X018920Y023295D01*
X023420Y023295D01*
X023670Y023295D01*
X024170Y023795D01*
X024670Y023795D01*
X024670Y021795D02*
X024170Y021795D01*
X018420Y027420D02*
X017670Y027420D01*
X018420Y027420D02*
X018795Y027795D01*
X018795Y029670D01*
X019420Y030295D01*
X019420Y029170D02*
X019420Y027795D01*
X006545Y026045D02*
X005670Y026045D01*
X005045Y025045D02*
X003545Y025045D01*
D21*
X011670Y031295D02*
X009420Y033545D01*
X001420Y033545D01*
X001420Y004545D01*
X003670Y002295D01*
X008920Y002295D01*
X011295Y004670D01*
X024420Y004670D01*
X034420Y004670D01*
X036795Y004670D01*
X044420Y004670D01*
X054420Y004670D01*
X064420Y004670D01*
X074420Y004670D01*
X084420Y004670D01*
X094420Y004670D01*
X099545Y004670D01*
X104170Y009295D01*
X104170Y025795D01*
X104170Y028295D01*
X104154Y028311D01*
X101295Y028311D01*
X104170Y028295D02*
X104170Y033170D01*
X096920Y033170D01*
X094795Y031045D01*
X031920Y031045D01*
X031170Y031795D01*
X018420Y031795D01*
X017920Y031295D01*
X011670Y031295D01*
D22*
X024420Y009295D02*
X024420Y008295D01*
X024420Y004670D01*
X034420Y004670D02*
X034420Y007045D01*
X044420Y008295D02*
X044420Y004670D01*
X054420Y004670D02*
X054420Y008295D01*
X064420Y008295D02*
X064420Y004670D01*
X074420Y004670D02*
X074420Y008295D01*
X084420Y008295D02*
X084420Y004670D01*
X094420Y004670D02*
X094420Y008295D01*
D23*
X036795Y006795D02*
X036795Y004670D01*
D24*
X034420Y007045D03*
D25*
X101545Y021795D02*
X101545Y024295D01*
X101295Y024545D01*
X101295Y025795D01*
X104170Y025795D01*
D26*
X000640Y034821D02*
X000640Y000765D01*
X105195Y000765D01*
X105195Y034821D01*
X000640Y034821D01*
X000640Y034782D02*
X105195Y034782D01*
X105195Y034643D02*
X000640Y034643D01*
X000640Y034505D02*
X012576Y034505D01*
X012435Y034467D02*
X012148Y034301D01*
X011914Y034067D01*
X011748Y033780D01*
X011663Y033461D01*
X011663Y033129D01*
X011748Y032810D01*
X011914Y032523D01*
X012148Y032289D01*
X012435Y032123D01*
X012754Y032038D01*
X013086Y032038D01*
X013405Y032123D01*
X013692Y032289D01*
X013926Y032523D01*
X014092Y032810D01*
X014177Y033129D01*
X014177Y033461D01*
X014092Y033780D01*
X013926Y034067D01*
X013692Y034301D01*
X013405Y034467D01*
X013086Y034552D01*
X012754Y034552D01*
X012435Y034467D01*
X012260Y034366D02*
X000640Y034366D01*
X000640Y034228D02*
X012074Y034228D01*
X011936Y034089D02*
X000640Y034089D01*
X000640Y033951D02*
X011847Y033951D01*
X011767Y033812D02*
X000640Y033812D01*
X000640Y033674D02*
X011720Y033674D01*
X011683Y033535D02*
X000640Y033535D01*
X000640Y033397D02*
X011663Y033397D01*
X011663Y033258D02*
X000640Y033258D01*
X000640Y033120D02*
X011665Y033120D01*
X011702Y032981D02*
X000640Y032981D01*
X000640Y032843D02*
X011739Y032843D01*
X011809Y032704D02*
X000640Y032704D01*
X000640Y032566D02*
X011889Y032566D01*
X012010Y032427D02*
X000640Y032427D01*
X000640Y032289D02*
X012148Y032289D01*
X012388Y032150D02*
X000640Y032150D01*
X000640Y032012D02*
X105195Y032012D01*
X105195Y032150D02*
X094452Y032150D01*
X094405Y032123D02*
X094692Y032289D01*
X094926Y032523D01*
X095092Y032810D01*
X095177Y033129D01*
X095177Y033461D01*
X095092Y033780D01*
X094926Y034067D01*
X094692Y034301D01*
X094405Y034467D01*
X094086Y034552D01*
X093754Y034552D01*
X093435Y034467D01*
X093148Y034301D01*
X092914Y034067D01*
X092748Y033780D01*
X092663Y033461D01*
X092663Y033129D01*
X092748Y032810D01*
X092914Y032523D01*
X093148Y032289D01*
X093435Y032123D01*
X093754Y032038D01*
X094086Y032038D01*
X094405Y032123D01*
X094692Y032289D02*
X105195Y032289D01*
X105195Y032427D02*
X094830Y032427D01*
X094951Y032566D02*
X105195Y032566D01*
X105195Y032704D02*
X095031Y032704D01*
X095101Y032843D02*
X105195Y032843D01*
X105195Y032981D02*
X095138Y032981D01*
X095175Y033120D02*
X105195Y033120D01*
X105195Y033258D02*
X095177Y033258D01*
X095177Y033397D02*
X105195Y033397D01*
X105195Y033535D02*
X095157Y033535D01*
X095120Y033674D02*
X105195Y033674D01*
X105195Y033812D02*
X095073Y033812D01*
X094993Y033951D02*
X105195Y033951D01*
X105195Y034089D02*
X094904Y034089D01*
X094766Y034228D02*
X105195Y034228D01*
X105195Y034366D02*
X094580Y034366D01*
X094264Y034505D02*
X105195Y034505D01*
X105195Y031873D02*
X000640Y031873D01*
X000640Y031735D02*
X105195Y031735D01*
X105195Y031596D02*
X000640Y031596D01*
X000640Y031458D02*
X096243Y031458D01*
X096279Y031493D02*
X096147Y031361D01*
X096075Y031188D01*
X096075Y030402D01*
X096147Y030229D01*
X096279Y030097D01*
X096295Y030090D01*
X096295Y029149D01*
X096246Y029100D01*
X095992Y029100D01*
X095740Y028848D01*
X095740Y028492D01*
X095992Y028240D01*
X096348Y028240D01*
X096600Y028492D01*
X096600Y028746D01*
X096757Y028903D01*
X096795Y028995D01*
X096795Y030090D01*
X096811Y030097D01*
X096943Y030229D01*
X097015Y030402D01*
X097015Y031188D01*
X096943Y031361D01*
X096811Y031493D01*
X096638Y031565D01*
X096452Y031565D01*
X096279Y031493D01*
X096129Y031319D02*
X000640Y031319D01*
X000640Y031181D02*
X096075Y031181D01*
X096075Y031042D02*
X000640Y031042D01*
X000640Y030904D02*
X003920Y030904D01*
X003992Y030975D02*
X003740Y030723D01*
X003740Y030555D01*
X004160Y030555D01*
X004160Y030975D01*
X003992Y030975D01*
X004160Y030904D02*
X004180Y030904D01*
X004180Y030975D02*
X004348Y030975D01*
X004600Y030723D01*
X004600Y030555D01*
X004180Y030555D01*
X004180Y030535D01*
X004600Y030535D01*
X004600Y030367D01*
X004348Y030115D01*
X004180Y030115D01*
X004180Y030535D01*
X004160Y030535D01*
X004160Y030115D01*
X003992Y030115D01*
X003740Y030367D01*
X003740Y030535D01*
X004160Y030535D01*
X004160Y030555D01*
X004180Y030555D01*
X004180Y030975D01*
X004160Y030765D02*
X004180Y030765D01*
X004180Y030627D02*
X004160Y030627D01*
X004160Y030488D02*
X004180Y030488D01*
X004180Y030350D02*
X004160Y030350D01*
X004160Y030211D02*
X004180Y030211D01*
X004444Y030211D02*
X005896Y030211D01*
X005992Y030115D02*
X005740Y030367D01*
X005740Y030723D01*
X005992Y030975D01*
X006348Y030975D01*
X006600Y030723D01*
X006600Y030367D01*
X006348Y030115D01*
X005992Y030115D01*
X005757Y030350D02*
X004583Y030350D01*
X004600Y030488D02*
X005740Y030488D01*
X005740Y030627D02*
X004600Y030627D01*
X004558Y030765D02*
X005782Y030765D01*
X005920Y030904D02*
X004420Y030904D01*
X003782Y030765D02*
X000640Y030765D01*
X000640Y030627D02*
X003740Y030627D01*
X003740Y030488D02*
X000640Y030488D01*
X000640Y030350D02*
X003757Y030350D01*
X003896Y030211D02*
X000640Y030211D01*
X000640Y030073D02*
X018844Y030073D01*
X018983Y030211D02*
X006444Y030211D01*
X006583Y030350D02*
X018990Y030350D01*
X018990Y030473D02*
X018990Y030219D01*
X018653Y029882D01*
X018583Y029812D01*
X018545Y029720D01*
X018545Y027899D01*
X018316Y027670D01*
X018282Y027670D01*
X018170Y027782D01*
X018013Y027847D01*
X017327Y027847D01*
X017170Y027782D01*
X017050Y027662D01*
X016985Y027505D01*
X016985Y027335D01*
X017050Y027178D01*
X017058Y027170D01*
X017047Y027170D01*
X016999Y027171D01*
X016997Y027170D01*
X016995Y027170D01*
X016951Y027152D01*
X016906Y027134D01*
X016905Y027133D01*
X016903Y027132D01*
X016870Y027098D01*
X012530Y022883D01*
X012528Y022882D01*
X012495Y022848D01*
X012460Y022815D01*
X012459Y022813D01*
X012458Y022812D01*
X012440Y022767D01*
X012421Y022723D01*
X012421Y022721D01*
X012420Y022720D01*
X012420Y022672D01*
X012419Y022624D01*
X012420Y022622D01*
X012420Y020774D01*
X012316Y020670D01*
X012282Y020670D01*
X012170Y020782D01*
X012013Y020847D01*
X011327Y020847D01*
X011170Y020782D01*
X011050Y020662D01*
X010985Y020505D01*
X010985Y020335D01*
X011050Y020178D01*
X011170Y020058D01*
X011327Y019993D01*
X012013Y019993D01*
X012170Y020058D01*
X012282Y020170D01*
X012470Y020170D01*
X012562Y020208D01*
X012632Y020278D01*
X012632Y020278D01*
X012882Y020528D01*
X012920Y020620D01*
X012920Y022564D01*
X016991Y026519D01*
X016985Y026505D01*
X016985Y026335D01*
X017050Y026178D01*
X017058Y026170D01*
X016995Y026170D01*
X016903Y026132D01*
X013028Y022257D01*
X012958Y022187D01*
X012920Y022095D01*
X012920Y020274D01*
X012316Y019670D01*
X012282Y019670D01*
X012170Y019782D01*
X012013Y019847D01*
X011327Y019847D01*
X011170Y019782D01*
X011050Y019662D01*
X010985Y019505D01*
X010985Y019335D01*
X011050Y019178D01*
X011170Y019058D01*
X011327Y018993D01*
X004456Y018993D01*
X004348Y019100D02*
X003992Y019100D01*
X003740Y018848D01*
X003740Y018492D01*
X003992Y018240D01*
X004348Y018240D01*
X004600Y018492D01*
X004600Y018848D01*
X004348Y019100D01*
X004594Y018854D02*
X012500Y018854D01*
X012362Y018716D02*
X012236Y018716D01*
X012282Y018670D02*
X012170Y018782D01*
X012013Y018847D01*
X011327Y018847D01*
X011170Y018782D01*
X011050Y018662D01*
X010985Y018505D01*
X010985Y018335D01*
X011050Y018178D01*
X011170Y018058D01*
X011327Y017993D01*
X012013Y017993D01*
X012170Y018058D01*
X012282Y018170D01*
X012470Y018170D01*
X012562Y018208D01*
X012632Y018278D01*
X013670Y019316D01*
X013670Y019024D01*
X012316Y017670D01*
X012282Y017670D01*
X012170Y017782D01*
X012013Y017847D01*
X011327Y017847D01*
X011170Y017782D01*
X011050Y017662D01*
X010985Y017505D01*
X010985Y017335D01*
X011050Y017178D01*
X011170Y017058D01*
X011327Y016993D01*
X012013Y016993D01*
X012170Y017058D01*
X012282Y017170D01*
X012470Y017170D01*
X012562Y017208D01*
X012632Y017278D01*
X014045Y018691D01*
X014045Y018399D01*
X012316Y016670D01*
X012282Y016670D01*
X012170Y016782D01*
X012013Y016847D01*
X011327Y016847D01*
X011170Y016782D01*
X011050Y016662D01*
X010985Y016505D01*
X010985Y016335D01*
X011050Y016178D01*
X011170Y016058D01*
X011327Y015993D01*
X012013Y015993D01*
X012170Y016058D01*
X012282Y016170D01*
X012470Y016170D01*
X012562Y016208D01*
X012632Y016278D01*
X014420Y018066D01*
X014420Y017774D01*
X012316Y015670D01*
X012282Y015670D01*
X012170Y015782D01*
X012013Y015847D01*
X011327Y015847D01*
X011170Y015782D01*
X011050Y015662D01*
X010985Y015505D01*
X010985Y015335D01*
X011050Y015178D01*
X011170Y015058D01*
X011327Y014993D01*
X012013Y014993D01*
X012170Y015058D01*
X012282Y015170D01*
X012470Y015170D01*
X012562Y015208D01*
X012632Y015278D01*
X014795Y017441D01*
X014795Y017149D01*
X012316Y014670D01*
X012282Y014670D01*
X012170Y014782D01*
X012013Y014847D01*
X011327Y014847D01*
X011170Y014782D01*
X011050Y014662D01*
X010985Y014505D01*
X010985Y014403D01*
X010890Y014499D01*
X010747Y014558D01*
X010593Y014558D01*
X010450Y014499D01*
X010372Y014420D01*
X009288Y014420D01*
X009174Y014535D01*
X009016Y014600D01*
X008324Y014600D01*
X008166Y014535D01*
X008045Y014414D01*
X007980Y014256D01*
X007980Y014084D01*
X008045Y013926D01*
X008166Y013805D01*
X008324Y013740D01*
X009016Y013740D01*
X009174Y013805D01*
X009288Y013920D01*
X010372Y013920D01*
X010450Y013841D01*
X010593Y013782D01*
X010747Y013782D01*
X010890Y013841D01*
X010999Y013950D01*
X011058Y014093D01*
X011058Y014170D01*
X011170Y014058D01*
X011327Y013993D01*
X012013Y013993D01*
X012170Y014058D01*
X012282Y014170D01*
X012470Y014170D01*
X012562Y014208D01*
X012632Y014278D01*
X012632Y014278D01*
X015170Y016816D01*
X015170Y016524D01*
X012316Y013670D01*
X012282Y013670D01*
X012170Y013782D01*
X012013Y013847D01*
X011327Y013847D01*
X011170Y013782D01*
X011050Y013662D01*
X010985Y013505D01*
X010985Y013335D01*
X011050Y013178D01*
X011170Y013058D01*
X011327Y012993D01*
X012013Y012993D01*
X012170Y013058D01*
X012282Y013170D01*
X012470Y013170D01*
X012562Y013208D01*
X012632Y013278D01*
X015545Y016191D01*
X015545Y015899D01*
X012316Y012670D01*
X012282Y012670D01*
X012170Y012782D01*
X012013Y012847D01*
X011327Y012847D01*
X011170Y012782D01*
X011050Y012662D01*
X010985Y012505D01*
X010985Y012335D01*
X011050Y012178D01*
X011170Y012058D01*
X011327Y011993D01*
X012013Y011993D01*
X012170Y012058D01*
X012282Y012170D01*
X012470Y012170D01*
X012562Y012208D01*
X012632Y012278D01*
X015920Y015566D01*
X015920Y015274D01*
X012316Y011670D01*
X012282Y011670D01*
X012170Y011782D01*
X012013Y011847D01*
X011327Y011847D01*
X011170Y011782D01*
X011050Y011662D01*
X010985Y011505D01*
X010985Y011335D01*
X011050Y011178D01*
X011170Y011058D01*
X011327Y010993D01*
X012013Y010993D01*
X012170Y011058D01*
X012282Y011170D01*
X012470Y011170D01*
X012562Y011208D01*
X012632Y011278D01*
X016295Y014941D01*
X016295Y014649D01*
X012316Y010670D01*
X012282Y010670D01*
X012170Y010782D01*
X012013Y010847D01*
X011327Y010847D01*
X011170Y010782D01*
X011050Y010662D01*
X010985Y010505D01*
X010985Y010335D01*
X011050Y010178D01*
X011170Y010058D01*
X011201Y010045D01*
X009870Y010045D01*
X009778Y010007D01*
X009240Y009468D01*
X009174Y009535D01*
X009016Y009600D01*
X008324Y009600D01*
X008166Y009535D01*
X008052Y009420D01*
X007093Y009420D01*
X007015Y009499D01*
X006872Y009558D01*
X006718Y009558D01*
X006575Y009499D01*
X006466Y009390D01*
X006407Y009247D01*
X006407Y009093D01*
X006466Y008950D01*
X006575Y008841D01*
X006718Y008782D01*
X006872Y008782D01*
X007015Y008841D01*
X007093Y008920D01*
X008052Y008920D01*
X008166Y008805D01*
X008324Y008740D01*
X009016Y008740D01*
X009174Y008805D01*
X009288Y008920D01*
X009345Y008920D01*
X009437Y008958D01*
X010024Y009545D01*
X023005Y009545D01*
X022950Y009490D01*
X022950Y009100D01*
X023225Y008825D01*
X023615Y008825D01*
X023890Y009100D01*
X023890Y009161D01*
X023950Y009221D01*
X023950Y009100D01*
X024225Y008825D01*
X024390Y008825D01*
X024390Y009265D01*
X024450Y009265D01*
X024450Y008825D01*
X024615Y008825D01*
X024890Y009100D01*
X024890Y009221D01*
X025028Y009083D01*
X025120Y009045D01*
X033005Y009045D01*
X033225Y008825D01*
X033615Y008825D01*
X033890Y009100D01*
X033890Y009161D01*
X033950Y009221D01*
X033950Y009100D01*
X034225Y008825D01*
X034390Y008825D01*
X034390Y009265D01*
X034450Y009265D01*
X034450Y008825D01*
X034615Y008825D01*
X034890Y009100D01*
X034890Y009221D01*
X034958Y009153D01*
X035028Y009083D01*
X035120Y009045D01*
X043005Y009045D01*
X043225Y008825D01*
X043615Y008825D01*
X043890Y009100D01*
X043890Y009161D01*
X043950Y009221D01*
X043950Y009100D01*
X044225Y008825D01*
X044390Y008825D01*
X044390Y009265D01*
X044450Y009265D01*
X044450Y008825D01*
X044615Y008825D01*
X044890Y009100D01*
X044890Y009221D01*
X044958Y009153D01*
X045028Y009083D01*
X045120Y009045D01*
X053005Y009045D01*
X053225Y008825D01*
X053615Y008825D01*
X053890Y009100D01*
X053890Y009161D01*
X053950Y009221D01*
X053950Y009100D01*
X054225Y008825D01*
X054390Y008825D01*
X054390Y009265D01*
X054450Y009265D01*
X054450Y008825D01*
X054615Y008825D01*
X054890Y009100D01*
X054890Y009221D01*
X054958Y009153D01*
X055028Y009083D01*
X055120Y009045D01*
X063005Y009045D01*
X063225Y008825D01*
X063615Y008825D01*
X063890Y009100D01*
X063890Y009161D01*
X063950Y009221D01*
X063950Y009100D01*
X064225Y008825D01*
X064390Y008825D01*
X064390Y009265D01*
X064450Y009265D01*
X064450Y008825D01*
X064615Y008825D01*
X064890Y009100D01*
X064890Y009221D01*
X065028Y009083D01*
X065120Y009045D01*
X073005Y009045D01*
X073225Y008825D01*
X073615Y008825D01*
X073890Y009100D01*
X073890Y009161D01*
X073950Y009221D01*
X073950Y009100D01*
X074225Y008825D01*
X074390Y008825D01*
X074390Y009265D01*
X074450Y009265D01*
X074450Y008825D01*
X074615Y008825D01*
X074890Y009100D01*
X074890Y009221D01*
X075028Y009083D01*
X075120Y009045D01*
X083005Y009045D01*
X083225Y008825D01*
X083615Y008825D01*
X083890Y009100D01*
X083890Y009161D01*
X083950Y009221D01*
X083950Y009100D01*
X084225Y008825D01*
X084390Y008825D01*
X084390Y009265D01*
X084450Y009265D01*
X084450Y008825D01*
X084615Y008825D01*
X084890Y009100D01*
X084890Y009221D01*
X084958Y009153D01*
X085028Y009083D01*
X085120Y009045D01*
X093005Y009045D01*
X093225Y008825D01*
X093615Y008825D01*
X093890Y009100D01*
X093890Y009161D01*
X093950Y009221D01*
X093950Y009100D01*
X094225Y008825D01*
X094390Y008825D01*
X094390Y009265D01*
X094450Y009265D01*
X094450Y009325D01*
X094890Y009325D01*
X094890Y009490D01*
X094835Y009545D01*
X102220Y009545D01*
X102312Y009583D01*
X102382Y009653D01*
X103257Y010528D01*
X103295Y010620D01*
X103295Y014095D01*
X103257Y014187D01*
X103187Y014257D01*
X102437Y015007D01*
X102345Y015045D01*
X102157Y015045D01*
X102045Y015157D01*
X101888Y015222D01*
X101202Y015222D01*
X101045Y015157D01*
X100925Y015037D01*
X100860Y014880D01*
X100860Y014710D01*
X100925Y014553D01*
X101045Y014433D01*
X101202Y014368D01*
X101888Y014368D01*
X102045Y014433D01*
X102157Y014545D01*
X102191Y014545D01*
X102795Y013941D01*
X102795Y013899D01*
X102757Y013937D01*
X102687Y014007D01*
X102595Y014045D01*
X102157Y014045D01*
X102045Y014157D01*
X101888Y014222D01*
X101202Y014222D01*
X101045Y014157D01*
X100925Y014037D01*
X100860Y013880D01*
X100860Y013710D01*
X100925Y013553D01*
X101045Y013433D01*
X101202Y013368D01*
X101888Y013368D01*
X102045Y013433D01*
X102157Y013545D01*
X102441Y013545D01*
X102545Y013441D01*
X102545Y012774D01*
X102382Y012937D01*
X102312Y013007D01*
X102220Y013045D01*
X102157Y013045D01*
X102045Y013157D01*
X101888Y013222D01*
X101202Y013222D01*
X101045Y013157D01*
X100925Y013037D01*
X099782Y013037D01*
X099920Y012899D02*
X100868Y012899D01*
X100860Y012880D02*
X100860Y012710D01*
X100925Y012553D01*
X101045Y012433D01*
X101202Y012368D01*
X101888Y012368D01*
X102045Y012433D01*
X102112Y012500D01*
X102170Y012441D01*
X102170Y012025D01*
X102165Y012037D01*
X102045Y012157D01*
X101888Y012222D01*
X101202Y012222D01*
X101045Y012157D01*
X100933Y012045D01*
X100774Y012045D01*
X099312Y013507D01*
X099220Y013545D01*
X099157Y013545D01*
X099165Y013553D01*
X099230Y013710D01*
X099230Y013880D01*
X099165Y014037D01*
X099045Y014157D01*
X098888Y014222D01*
X098202Y014222D01*
X098045Y014157D01*
X097933Y014045D01*
X094835Y014045D01*
X094890Y014100D01*
X094890Y014490D01*
X094835Y014545D01*
X097933Y014545D01*
X098045Y014433D01*
X098202Y014368D01*
X098888Y014368D01*
X099045Y014433D01*
X099165Y014553D01*
X099230Y014710D01*
X099230Y014880D01*
X099165Y015037D01*
X099045Y015157D01*
X098888Y015222D01*
X098202Y015222D01*
X098045Y015157D01*
X097933Y015045D01*
X094835Y015045D01*
X094890Y015100D01*
X094890Y015490D01*
X094835Y015545D01*
X097933Y015545D01*
X098045Y015433D01*
X098202Y015368D01*
X098888Y015368D01*
X099045Y015433D01*
X099165Y015553D01*
X099230Y015710D01*
X099230Y015880D01*
X099165Y016037D01*
X099157Y016045D01*
X099595Y016045D01*
X099687Y016083D01*
X100132Y016528D01*
X100170Y016620D01*
X100170Y021845D01*
X100132Y021937D01*
X097545Y024524D01*
X097545Y025437D01*
X097725Y025617D01*
X097725Y025973D01*
X097545Y026153D01*
X097545Y028566D01*
X097687Y028708D01*
X097757Y028778D01*
X097795Y028870D01*
X097795Y030090D01*
X097811Y030097D01*
X097943Y030229D01*
X098015Y030402D01*
X098015Y031188D01*
X097943Y031361D01*
X097811Y031493D01*
X097638Y031565D01*
X097452Y031565D01*
X097279Y031493D01*
X097147Y031361D01*
X097075Y031188D01*
X097075Y030402D01*
X097147Y030229D01*
X097279Y030097D01*
X097295Y030090D01*
X097295Y029024D01*
X097153Y028882D01*
X097083Y028812D01*
X097045Y028720D01*
X097045Y026153D01*
X096865Y025973D01*
X096865Y025617D01*
X097045Y025437D01*
X097045Y024370D01*
X097083Y024278D01*
X097153Y024208D01*
X099316Y022045D01*
X099157Y022045D01*
X099045Y022157D01*
X098888Y022222D01*
X098202Y022222D01*
X098045Y022157D01*
X097925Y022037D01*
X097860Y021880D01*
X097860Y021710D01*
X097925Y021553D01*
X098045Y021433D01*
X098202Y021368D01*
X098888Y021368D01*
X099045Y021433D01*
X099157Y021545D01*
X099191Y021545D01*
X099295Y021441D01*
X099295Y017649D01*
X099191Y017545D01*
X099157Y017545D01*
X099165Y017553D01*
X099230Y017710D01*
X099230Y017880D01*
X099165Y018037D01*
X099045Y018157D01*
X098888Y018222D01*
X098202Y018222D01*
X098045Y018157D01*
X097933Y018045D01*
X094835Y018045D01*
X094890Y018100D01*
X094890Y018490D01*
X094835Y018545D01*
X097933Y018545D01*
X098045Y018433D01*
X098202Y018368D01*
X098888Y018368D01*
X099045Y018433D01*
X099165Y018553D01*
X099230Y018710D01*
X099230Y018880D01*
X099165Y019037D01*
X099045Y019157D01*
X098888Y019222D01*
X098202Y019222D01*
X098045Y019157D01*
X097933Y019045D01*
X094835Y019045D01*
X094890Y019100D01*
X094890Y019490D01*
X094835Y019545D01*
X097933Y019545D01*
X098045Y019433D01*
X098202Y019368D01*
X098888Y019368D01*
X099045Y019433D01*
X099165Y019553D01*
X099230Y019710D01*
X099230Y019880D01*
X099165Y020037D01*
X099045Y020157D01*
X098888Y020222D01*
X098202Y020222D01*
X098045Y020157D01*
X097933Y020045D01*
X094835Y020045D01*
X094890Y020100D01*
X094890Y020490D01*
X094835Y020545D01*
X097933Y020545D01*
X098045Y020433D01*
X098202Y020368D01*
X098888Y020368D01*
X099045Y020433D01*
X099165Y020553D01*
X099230Y020710D01*
X099230Y020880D01*
X099165Y021037D01*
X099045Y021157D01*
X098888Y021222D01*
X098202Y021222D01*
X098045Y021157D01*
X097933Y021045D01*
X094835Y021045D01*
X094890Y021100D01*
X094890Y021490D01*
X094615Y021765D01*
X094225Y021765D01*
X093950Y021490D01*
X093950Y021429D01*
X093890Y021369D01*
X093890Y021490D01*
X093801Y021579D01*
X093812Y021583D01*
X094139Y021911D01*
X094225Y021825D01*
X094615Y021825D01*
X094890Y022100D01*
X094890Y022490D01*
X094615Y022765D01*
X094225Y022765D01*
X093950Y022490D01*
X093950Y022429D01*
X093890Y022369D01*
X093890Y022490D01*
X093801Y022579D01*
X093812Y022583D01*
X094139Y022911D01*
X094225Y022825D01*
X094615Y022825D01*
X094890Y023100D01*
X094890Y023490D01*
X094615Y023765D01*
X094225Y023765D01*
X093950Y023490D01*
X093950Y023429D01*
X093890Y023369D01*
X093890Y023490D01*
X093801Y023579D01*
X093812Y023583D01*
X094139Y023911D01*
X094225Y023825D01*
X094615Y023825D01*
X094890Y024100D01*
X094890Y024490D01*
X094615Y024765D01*
X094225Y024765D01*
X093950Y024490D01*
X093950Y024429D01*
X093890Y024369D01*
X093890Y024490D01*
X093801Y024579D01*
X093812Y024583D01*
X094139Y024911D01*
X094225Y024825D01*
X094615Y024825D01*
X094890Y025100D01*
X094890Y025490D01*
X094615Y025765D01*
X094225Y025765D01*
X093950Y025490D01*
X093950Y025429D01*
X093890Y025369D01*
X093890Y025490D01*
X093801Y025579D01*
X093812Y025583D01*
X094139Y025911D01*
X094225Y025825D01*
X094615Y025825D01*
X094890Y026100D01*
X094890Y026490D01*
X094615Y026765D01*
X094225Y026765D01*
X093950Y026490D01*
X093950Y026429D01*
X093890Y026369D01*
X093890Y026490D01*
X093801Y026579D01*
X093812Y026583D01*
X094139Y026911D01*
X094225Y026825D01*
X094615Y026825D01*
X094890Y027100D01*
X094890Y027490D01*
X094615Y027765D01*
X094225Y027765D01*
X093950Y027490D01*
X093950Y027429D01*
X093890Y027369D01*
X093890Y027490D01*
X093615Y027765D01*
X093225Y027765D01*
X093005Y027545D01*
X085274Y027545D01*
X084812Y028007D01*
X084720Y028045D01*
X084120Y028045D01*
X084028Y028007D01*
X083958Y027937D01*
X083701Y027679D01*
X083615Y027765D01*
X083225Y027765D01*
X083005Y027545D01*
X075274Y027545D01*
X074812Y028007D01*
X074720Y028045D01*
X074120Y028045D01*
X074028Y028007D01*
X073958Y027937D01*
X073701Y027679D01*
X073615Y027765D01*
X073225Y027765D01*
X073005Y027545D01*
X065274Y027545D01*
X064882Y027937D01*
X064812Y028007D01*
X064720Y028045D01*
X064120Y028045D01*
X064028Y028007D01*
X063701Y027679D01*
X063615Y027765D01*
X063225Y027765D01*
X063005Y027545D01*
X055274Y027545D01*
X054812Y028007D01*
X054720Y028045D01*
X054120Y028045D01*
X054028Y028007D01*
X053958Y027937D01*
X053701Y027679D01*
X053615Y027765D01*
X053225Y027765D01*
X053005Y027545D01*
X045274Y027545D01*
X044812Y028007D01*
X044720Y028045D01*
X044120Y028045D01*
X044028Y028007D01*
X043958Y027937D01*
X043701Y027679D01*
X043615Y027765D01*
X043225Y027765D01*
X043005Y027545D01*
X035274Y027545D01*
X034882Y027937D01*
X034812Y028007D01*
X034720Y028045D01*
X034120Y028045D01*
X034028Y028007D01*
X033958Y027937D01*
X033701Y027679D01*
X033615Y027765D01*
X033225Y027765D01*
X033005Y027545D01*
X025399Y027545D01*
X025007Y027937D01*
X024937Y028007D01*
X024845Y028045D01*
X024120Y028045D01*
X024028Y028007D01*
X023701Y027679D01*
X023615Y027765D01*
X023225Y027765D01*
X023005Y027545D01*
X019718Y027545D01*
X019749Y027575D01*
X019808Y027718D01*
X023178Y027718D01*
X023040Y027580D02*
X019751Y027580D01*
X019808Y027718D02*
X019808Y027872D01*
X019749Y028015D01*
X019670Y028093D01*
X019670Y028812D01*
X019850Y028992D01*
X019850Y029348D01*
X019598Y029600D01*
X019242Y029600D01*
X019045Y029403D01*
X019045Y029566D01*
X019344Y029865D01*
X019598Y029865D01*
X019850Y030117D01*
X019850Y030473D01*
X019598Y030725D01*
X019242Y030725D01*
X018990Y030473D01*
X019005Y030488D02*
X006600Y030488D01*
X006600Y030627D02*
X019143Y030627D01*
X019697Y030627D02*
X023143Y030627D01*
X023242Y030725D02*
X022990Y030473D01*
X022990Y030305D01*
X023410Y030305D01*
X023410Y030725D01*
X023242Y030725D01*
X023430Y030725D02*
X023430Y030305D01*
X023850Y030305D01*
X023850Y030473D01*
X023598Y030725D01*
X023430Y030725D01*
X023430Y030627D02*
X023410Y030627D01*
X023410Y030488D02*
X023430Y030488D01*
X023430Y030350D02*
X023410Y030350D01*
X023410Y030305D02*
X023430Y030305D01*
X023430Y030285D01*
X023850Y030285D01*
X023850Y030117D01*
X023598Y029865D01*
X023430Y029865D01*
X023430Y030285D01*
X023410Y030285D01*
X023410Y029865D01*
X023242Y029865D01*
X022990Y030117D01*
X022990Y030285D01*
X023410Y030285D01*
X023410Y030305D01*
X023410Y030211D02*
X023430Y030211D01*
X023430Y030073D02*
X023410Y030073D01*
X023410Y029934D02*
X023430Y029934D01*
X023667Y029934D02*
X096295Y029934D01*
X096295Y029796D02*
X019274Y029796D01*
X019136Y029657D02*
X096295Y029657D01*
X096295Y029519D02*
X023680Y029519D01*
X023598Y029600D02*
X023430Y029600D01*
X023430Y029180D01*
X023850Y029180D01*
X023850Y029348D01*
X023598Y029600D01*
X023430Y029519D02*
X023410Y029519D01*
X023410Y029600D02*
X023242Y029600D01*
X022990Y029348D01*
X022990Y029180D01*
X023410Y029180D01*
X023410Y029600D01*
X023410Y029380D02*
X023430Y029380D01*
X023430Y029242D02*
X023410Y029242D01*
X023410Y029180D02*
X023430Y029180D01*
X023430Y029160D01*
X023850Y029160D01*
X023850Y028992D01*
X023598Y028740D01*
X023430Y028740D01*
X023430Y029160D01*
X023410Y029160D01*
X023410Y028740D01*
X023242Y028740D01*
X022990Y028992D01*
X022990Y029160D01*
X023410Y029160D01*
X023410Y029180D01*
X023410Y029103D02*
X023430Y029103D01*
X023430Y028965D02*
X023410Y028965D01*
X023410Y028826D02*
X023430Y028826D01*
X023684Y028826D02*
X095740Y028826D01*
X095740Y028688D02*
X019670Y028688D01*
X019684Y028826D02*
X023156Y028826D01*
X023017Y028965D02*
X019823Y028965D01*
X019850Y029103D02*
X022990Y029103D01*
X022990Y029242D02*
X019850Y029242D01*
X019818Y029380D02*
X023022Y029380D01*
X023160Y029519D02*
X019680Y029519D01*
X019667Y029934D02*
X023173Y029934D01*
X023034Y030073D02*
X019806Y030073D01*
X019850Y030211D02*
X022990Y030211D01*
X022990Y030350D02*
X019850Y030350D01*
X019835Y030488D02*
X023005Y030488D01*
X023697Y030627D02*
X096075Y030627D01*
X096075Y030765D02*
X006558Y030765D01*
X006420Y030904D02*
X096075Y030904D01*
X097015Y030904D02*
X097075Y030904D01*
X097075Y031042D02*
X097015Y031042D01*
X097015Y031181D02*
X097075Y031181D01*
X097129Y031319D02*
X096961Y031319D01*
X096847Y031458D02*
X097243Y031458D01*
X097847Y031458D02*
X105195Y031458D01*
X105195Y031319D02*
X097961Y031319D01*
X098015Y031181D02*
X105195Y031181D01*
X105195Y031042D02*
X098015Y031042D01*
X098015Y030904D02*
X105195Y030904D01*
X105195Y030765D02*
X101840Y030765D01*
X101751Y030802D02*
X100839Y030802D01*
X100647Y030722D01*
X100500Y030575D01*
X100420Y030383D01*
X100420Y030175D01*
X100500Y029983D01*
X100647Y029836D01*
X100839Y029757D01*
X101751Y029757D01*
X101943Y029836D01*
X102090Y029983D01*
X102170Y030175D01*
X102170Y030383D01*
X102090Y030575D01*
X101943Y030722D01*
X101751Y030802D01*
X102039Y030627D02*
X105195Y030627D01*
X105195Y030488D02*
X102127Y030488D01*
X102170Y030350D02*
X105195Y030350D01*
X105195Y030211D02*
X102170Y030211D01*
X102127Y030073D02*
X105195Y030073D01*
X105195Y029934D02*
X102041Y029934D01*
X101845Y029796D02*
X105195Y029796D01*
X105195Y029657D02*
X097795Y029657D01*
X097795Y029519D02*
X105195Y029519D01*
X105195Y029380D02*
X097795Y029380D01*
X097795Y029242D02*
X105195Y029242D01*
X105195Y029103D02*
X097795Y029103D01*
X097795Y028965D02*
X105195Y028965D01*
X105195Y028826D02*
X101734Y028826D01*
X101770Y028820D02*
X101689Y028833D01*
X101343Y028833D01*
X101343Y028358D01*
X102169Y028358D01*
X102157Y028433D01*
X102132Y028511D01*
X102094Y028585D01*
X102046Y028651D01*
X101988Y028709D01*
X101921Y028758D01*
X101848Y028795D01*
X101770Y028820D01*
X102010Y028688D02*
X105195Y028688D01*
X105195Y028549D02*
X102112Y028549D01*
X102161Y028411D02*
X105195Y028411D01*
X105195Y028272D02*
X101343Y028272D01*
X101343Y028263D02*
X101343Y028358D01*
X101247Y028358D01*
X101247Y028263D01*
X100421Y028263D01*
X100433Y028188D01*
X100458Y028110D01*
X100496Y028037D01*
X100544Y027970D01*
X100602Y027912D01*
X100669Y027864D01*
X100742Y027827D01*
X100820Y027801D01*
X100901Y027788D01*
X101247Y027788D01*
X101247Y028263D01*
X101343Y028263D01*
X102169Y028263D01*
X102157Y028188D01*
X102132Y028110D01*
X102094Y028037D01*
X102046Y027970D01*
X101988Y027912D01*
X101921Y027864D01*
X101848Y027827D01*
X101770Y027801D01*
X101689Y027788D01*
X101343Y027788D01*
X101343Y028263D01*
X101247Y028272D02*
X097545Y028272D01*
X097545Y028134D02*
X100451Y028134D01*
X100526Y027995D02*
X097545Y027995D01*
X097545Y027857D02*
X100683Y027857D01*
X101247Y027857D02*
X101343Y027857D01*
X101343Y027995D02*
X101247Y027995D01*
X101247Y028134D02*
X101343Y028134D01*
X101247Y028358D02*
X100421Y028358D01*
X100433Y028433D01*
X100458Y028511D01*
X100496Y028585D01*
X100544Y028651D01*
X100602Y028709D01*
X100669Y028758D01*
X100742Y028795D01*
X100820Y028820D01*
X100901Y028833D01*
X101247Y028833D01*
X101247Y028358D01*
X101247Y028411D02*
X101343Y028411D01*
X101343Y028549D02*
X101247Y028549D01*
X101247Y028688D02*
X101343Y028688D01*
X101343Y028826D02*
X101247Y028826D01*
X100856Y028826D02*
X097777Y028826D01*
X097687Y028708D02*
X097687Y028708D01*
X097666Y028688D02*
X100580Y028688D01*
X100478Y028549D02*
X097545Y028549D01*
X097545Y028411D02*
X100429Y028411D01*
X101907Y027857D02*
X105195Y027857D01*
X105195Y027995D02*
X102064Y027995D01*
X102139Y028134D02*
X105195Y028134D01*
X105195Y027718D02*
X097545Y027718D01*
X097545Y027580D02*
X105195Y027580D01*
X105195Y027441D02*
X097545Y027441D01*
X097545Y027303D02*
X105195Y027303D01*
X105195Y027164D02*
X097545Y027164D01*
X097545Y027026D02*
X105195Y027026D01*
X105195Y026887D02*
X097545Y026887D01*
X097545Y026749D02*
X105195Y026749D01*
X105195Y026610D02*
X097545Y026610D01*
X097545Y026472D02*
X105195Y026472D01*
X105195Y026333D02*
X097545Y026333D01*
X097545Y026195D02*
X101086Y026195D01*
X101117Y026225D02*
X100865Y025973D01*
X100865Y025805D01*
X101285Y025805D01*
X101285Y026225D01*
X101117Y026225D01*
X101285Y026195D02*
X101305Y026195D01*
X101305Y026225D02*
X101473Y026225D01*
X101725Y025973D01*
X101725Y025805D01*
X101305Y025805D01*
X101305Y025785D01*
X101725Y025785D01*
X101725Y025617D01*
X101473Y025365D01*
X101305Y025365D01*
X101305Y025785D01*
X101285Y025785D01*
X101285Y025365D01*
X101117Y025365D01*
X100865Y025617D01*
X100865Y025785D01*
X101285Y025785D01*
X101285Y025805D01*
X101305Y025805D01*
X101305Y026225D01*
X101305Y026056D02*
X101285Y026056D01*
X101285Y025918D02*
X101305Y025918D01*
X101305Y025779D02*
X101285Y025779D01*
X101285Y025641D02*
X101305Y025641D01*
X101305Y025502D02*
X101285Y025502D01*
X100980Y025502D02*
X097610Y025502D01*
X097545Y025364D02*
X105195Y025364D01*
X105195Y025502D02*
X101610Y025502D01*
X101725Y025641D02*
X105195Y025641D01*
X105195Y025779D02*
X101725Y025779D01*
X101725Y025918D02*
X105195Y025918D01*
X105195Y026056D02*
X101642Y026056D01*
X101504Y026195D02*
X105195Y026195D01*
X105195Y025225D02*
X097545Y025225D01*
X097545Y025087D02*
X105195Y025087D01*
X105195Y024948D02*
X097545Y024948D01*
X097545Y024810D02*
X105195Y024810D01*
X105195Y024671D02*
X101777Y024671D01*
X101723Y024725D02*
X101555Y024725D01*
X101555Y024305D01*
X101975Y024305D01*
X101975Y024473D01*
X101723Y024725D01*
X101555Y024671D02*
X101535Y024671D01*
X101535Y024725D02*
X101367Y024725D01*
X101115Y024473D01*
X101115Y024305D01*
X101535Y024305D01*
X101535Y024725D01*
X101535Y024533D02*
X101555Y024533D01*
X101555Y024394D02*
X101535Y024394D01*
X101535Y024305D02*
X101555Y024305D01*
X101555Y024285D01*
X101975Y024285D01*
X101975Y024117D01*
X105195Y024117D01*
X105195Y023979D02*
X101837Y023979D01*
X101723Y023865D02*
X101975Y024117D01*
X101975Y024256D02*
X105195Y024256D01*
X105195Y024394D02*
X101975Y024394D01*
X101916Y024533D02*
X105195Y024533D01*
X105195Y023840D02*
X098229Y023840D01*
X098367Y023702D02*
X105195Y023702D01*
X105195Y023563D02*
X098506Y023563D01*
X098644Y023425D02*
X105195Y023425D01*
X105195Y023286D02*
X098783Y023286D01*
X098921Y023148D02*
X105195Y023148D01*
X105195Y023009D02*
X099060Y023009D01*
X099198Y022871D02*
X105195Y022871D01*
X105195Y022732D02*
X099337Y022732D01*
X099475Y022594D02*
X105195Y022594D01*
X105195Y022455D02*
X099614Y022455D01*
X099752Y022317D02*
X105195Y022317D01*
X105195Y022178D02*
X101992Y022178D01*
X101967Y022191D02*
X101903Y022212D01*
X101836Y022222D01*
X101554Y022222D01*
X101554Y021804D01*
X101536Y021804D01*
X101536Y022222D01*
X101254Y022222D01*
X101187Y022212D01*
X101123Y022191D01*
X101063Y022161D01*
X101009Y022121D01*
X100961Y022073D01*
X100922Y022019D01*
X100891Y021959D01*
X100871Y021895D01*
X100860Y021829D01*
X100860Y021804D01*
X101536Y021804D01*
X101536Y021786D01*
X101554Y021786D01*
X101554Y021804D01*
X102230Y021804D01*
X102230Y021829D01*
X102219Y021895D01*
X102199Y021959D01*
X102168Y022019D01*
X102129Y022073D01*
X102081Y022121D01*
X102027Y022161D01*
X101967Y022191D01*
X102153Y022040D02*
X105195Y022040D01*
X105195Y021901D02*
X102218Y021901D01*
X102230Y021786D02*
X101554Y021786D01*
X101554Y021368D01*
X101836Y021368D01*
X101903Y021378D01*
X101967Y021399D01*
X102027Y021429D01*
X102081Y021469D01*
X102129Y021517D01*
X102168Y021571D01*
X102199Y021631D01*
X102219Y021695D01*
X102230Y021761D01*
X102230Y021786D01*
X102230Y021763D02*
X105195Y021763D01*
X105195Y021624D02*
X102195Y021624D01*
X102098Y021486D02*
X105195Y021486D01*
X105195Y021347D02*
X100170Y021347D01*
X100170Y021209D02*
X101169Y021209D01*
X101202Y021222D02*
X101045Y021157D01*
X100925Y021037D01*
X100860Y020880D01*
X100860Y020710D01*
X100925Y020553D01*
X101045Y020433D01*
X101202Y020368D01*
X101888Y020368D01*
X102045Y020433D01*
X102165Y020553D01*
X102230Y020710D01*
X102230Y020880D01*
X102165Y021037D01*
X102045Y021157D01*
X101888Y021222D01*
X101202Y021222D01*
X101254Y021368D02*
X101536Y021368D01*
X101536Y021786D01*
X100860Y021786D01*
X100860Y021761D01*
X100871Y021695D01*
X100891Y021631D01*
X100922Y021571D01*
X100961Y021517D01*
X101009Y021469D01*
X101063Y021429D01*
X101123Y021399D01*
X101187Y021378D01*
X101254Y021368D01*
X100992Y021486D02*
X100170Y021486D01*
X100170Y021624D02*
X100895Y021624D01*
X100860Y021763D02*
X100170Y021763D01*
X100147Y021901D02*
X100872Y021901D01*
X100937Y022040D02*
X100029Y022040D01*
X099891Y022178D02*
X101098Y022178D01*
X101536Y022178D02*
X101554Y022178D01*
X101554Y022040D02*
X101536Y022040D01*
X101536Y021901D02*
X101554Y021901D01*
X101554Y021763D02*
X101536Y021763D01*
X101536Y021624D02*
X101554Y021624D01*
X101554Y021486D02*
X101536Y021486D01*
X101921Y021209D02*
X105195Y021209D01*
X105195Y021070D02*
X102132Y021070D01*
X102209Y020932D02*
X105195Y020932D01*
X105195Y020793D02*
X102230Y020793D01*
X102207Y020655D02*
X105195Y020655D01*
X105195Y020516D02*
X102128Y020516D01*
X101912Y020378D02*
X105195Y020378D01*
X105195Y020239D02*
X100170Y020239D01*
X100170Y020101D02*
X100989Y020101D01*
X101045Y020157D02*
X100925Y020037D01*
X100860Y019880D01*
X100860Y019710D01*
X100925Y019553D01*
X101045Y019433D01*
X101202Y019368D01*
X101888Y019368D01*
X102045Y019433D01*
X102165Y019553D01*
X102230Y019710D01*
X102230Y019880D01*
X102165Y020037D01*
X102045Y020157D01*
X101888Y020222D01*
X101202Y020222D01*
X101045Y020157D01*
X100894Y019962D02*
X100170Y019962D01*
X100170Y019824D02*
X100860Y019824D01*
X100870Y019685D02*
X100170Y019685D01*
X100170Y019547D02*
X100931Y019547D01*
X101105Y019408D02*
X100170Y019408D01*
X100170Y019270D02*
X105195Y019270D01*
X105195Y019408D02*
X101985Y019408D01*
X101888Y019222D02*
X102045Y019157D01*
X102165Y019037D01*
X102230Y018880D01*
X102230Y018710D01*
X102165Y018553D01*
X102045Y018433D01*
X101888Y018368D01*
X101202Y018368D01*
X101045Y018433D01*
X100925Y018553D01*
X100860Y018710D01*
X100860Y018880D01*
X100925Y019037D01*
X101045Y019157D01*
X101202Y019222D01*
X101888Y019222D01*
X102071Y019131D02*
X105195Y019131D01*
X105195Y018993D02*
X102183Y018993D01*
X102230Y018854D02*
X105195Y018854D01*
X105195Y018716D02*
X102230Y018716D01*
X102175Y018577D02*
X105195Y018577D01*
X105195Y018439D02*
X102051Y018439D01*
X101888Y018222D02*
X102045Y018157D01*
X102165Y018037D01*
X102230Y017880D01*
X102230Y017710D01*
X102165Y017553D01*
X102045Y017433D01*
X101888Y017368D01*
X101202Y017368D01*
X101045Y017433D01*
X100925Y017553D01*
X100860Y017710D01*
X100860Y017880D01*
X100925Y018037D01*
X101045Y018157D01*
X101202Y018222D01*
X101888Y018222D01*
X102035Y018162D02*
X105195Y018162D01*
X105195Y018300D02*
X100170Y018300D01*
X100170Y018162D02*
X101055Y018162D01*
X100919Y018023D02*
X100170Y018023D01*
X100170Y017885D02*
X100862Y017885D01*
X100860Y017746D02*
X100170Y017746D01*
X100170Y017608D02*
X100902Y017608D01*
X101009Y017469D02*
X100170Y017469D01*
X100170Y017331D02*
X105195Y017331D01*
X105195Y017469D02*
X102081Y017469D01*
X102188Y017608D02*
X105195Y017608D01*
X105195Y017746D02*
X102230Y017746D01*
X102228Y017885D02*
X105195Y017885D01*
X105195Y018023D02*
X102171Y018023D01*
X101039Y018439D02*
X100170Y018439D01*
X100170Y018577D02*
X100915Y018577D01*
X100860Y018716D02*
X100170Y018716D01*
X100170Y018854D02*
X100860Y018854D01*
X100907Y018993D02*
X100170Y018993D01*
X100170Y019131D02*
X101019Y019131D01*
X102159Y019547D02*
X105195Y019547D01*
X105195Y019685D02*
X102220Y019685D01*
X102230Y019824D02*
X105195Y019824D01*
X105195Y019962D02*
X102196Y019962D01*
X102101Y020101D02*
X105195Y020101D01*
X101178Y020378D02*
X100170Y020378D01*
X100170Y020516D02*
X100962Y020516D01*
X100883Y020655D02*
X100170Y020655D01*
X100170Y020793D02*
X100860Y020793D01*
X100881Y020932D02*
X100170Y020932D01*
X100170Y021070D02*
X100958Y021070D01*
X099295Y021070D02*
X099132Y021070D01*
X099209Y020932D02*
X099295Y020932D01*
X099295Y020793D02*
X099230Y020793D01*
X099207Y020655D02*
X099295Y020655D01*
X099295Y020516D02*
X099128Y020516D01*
X099295Y020378D02*
X098912Y020378D01*
X099101Y020101D02*
X099295Y020101D01*
X099295Y020239D02*
X094890Y020239D01*
X094890Y020101D02*
X097989Y020101D01*
X098178Y020378D02*
X094890Y020378D01*
X094864Y020516D02*
X097962Y020516D01*
X099196Y019962D02*
X099295Y019962D01*
X099295Y019824D02*
X099230Y019824D01*
X099220Y019685D02*
X099295Y019685D01*
X099295Y019547D02*
X099159Y019547D01*
X099295Y019408D02*
X098985Y019408D01*
X099071Y019131D02*
X099295Y019131D01*
X099295Y018993D02*
X099183Y018993D01*
X099230Y018854D02*
X099295Y018854D01*
X099295Y018716D02*
X099230Y018716D01*
X099175Y018577D02*
X099295Y018577D01*
X099295Y018439D02*
X099051Y018439D01*
X099035Y018162D02*
X099295Y018162D01*
X099295Y018300D02*
X094890Y018300D01*
X094890Y018162D02*
X098055Y018162D01*
X098039Y018439D02*
X094890Y018439D01*
X094890Y019131D02*
X098019Y019131D01*
X098105Y019408D02*
X094890Y019408D01*
X094890Y019270D02*
X099295Y019270D01*
X099295Y018023D02*
X099171Y018023D01*
X099228Y017885D02*
X099295Y017885D01*
X099295Y017746D02*
X099230Y017746D01*
X099254Y017608D02*
X099188Y017608D01*
X100170Y017192D02*
X101129Y017192D01*
X101202Y017222D02*
X101045Y017157D01*
X100925Y017037D01*
X100860Y016880D01*
X100860Y016710D01*
X100925Y016553D01*
X101045Y016433D01*
X101202Y016368D01*
X101888Y016368D01*
X102045Y016433D01*
X102165Y016553D01*
X102230Y016710D01*
X102230Y016880D01*
X102165Y017037D01*
X102045Y017157D01*
X101888Y017222D01*
X101202Y017222D01*
X100942Y017054D02*
X100170Y017054D01*
X100170Y016915D02*
X100875Y016915D01*
X100860Y016777D02*
X100170Y016777D01*
X100170Y016638D02*
X100890Y016638D01*
X100978Y016500D02*
X100103Y016500D01*
X099965Y016361D02*
X105195Y016361D01*
X105195Y016223D02*
X099826Y016223D01*
X099688Y016084D02*
X100972Y016084D01*
X100925Y016037D02*
X100860Y015880D01*
X100860Y015710D01*
X100925Y015553D01*
X101045Y015433D01*
X101202Y015368D01*
X101888Y015368D01*
X102045Y015433D01*
X102165Y015553D01*
X102230Y015710D01*
X102230Y015880D01*
X102165Y016037D01*
X102045Y016157D01*
X101888Y016222D01*
X101202Y016222D01*
X101045Y016157D01*
X100925Y016037D01*
X100887Y015946D02*
X099203Y015946D01*
X099230Y015807D02*
X100860Y015807D01*
X100877Y015669D02*
X099213Y015669D01*
X099142Y015530D02*
X100948Y015530D01*
X101145Y015392D02*
X098945Y015392D01*
X099088Y015115D02*
X101002Y015115D01*
X100900Y014976D02*
X099190Y014976D01*
X099230Y014838D02*
X100860Y014838D01*
X100865Y014699D02*
X099225Y014699D01*
X099168Y014561D02*
X100922Y014561D01*
X101071Y014422D02*
X099019Y014422D01*
X099057Y014145D02*
X101033Y014145D01*
X100912Y014007D02*
X099178Y014007D01*
X099230Y013868D02*
X100860Y013868D01*
X100860Y013730D02*
X099230Y013730D01*
X099181Y013591D02*
X100909Y013591D01*
X101025Y013453D02*
X099366Y013453D01*
X099505Y013314D02*
X102545Y013314D01*
X102545Y013176D02*
X102001Y013176D01*
X102239Y013037D02*
X102545Y013037D01*
X102545Y012899D02*
X102420Y012899D01*
X102128Y012483D02*
X102095Y012483D01*
X102170Y012345D02*
X100474Y012345D01*
X100336Y012483D02*
X100995Y012483D01*
X100897Y012622D02*
X100197Y012622D01*
X100059Y012760D02*
X100860Y012760D01*
X100860Y012880D02*
X100925Y013037D01*
X101089Y013176D02*
X099643Y013176D01*
X098033Y014145D02*
X094890Y014145D01*
X094890Y014284D02*
X102453Y014284D01*
X102314Y014422D02*
X102019Y014422D01*
X102057Y014145D02*
X102591Y014145D01*
X102687Y014007D02*
X102730Y014007D01*
X103022Y014422D02*
X105195Y014422D01*
X105195Y014284D02*
X103160Y014284D01*
X103274Y014145D02*
X105195Y014145D01*
X105195Y014007D02*
X103295Y014007D01*
X103295Y013868D02*
X105195Y013868D01*
X105195Y013730D02*
X103295Y013730D01*
X103295Y013591D02*
X105195Y013591D01*
X105195Y013453D02*
X103295Y013453D01*
X103295Y013314D02*
X105195Y013314D01*
X105195Y013176D02*
X103295Y013176D01*
X103295Y013037D02*
X105195Y013037D01*
X105195Y012899D02*
X103295Y012899D01*
X103295Y012760D02*
X105195Y012760D01*
X105195Y012622D02*
X103295Y012622D01*
X103295Y012483D02*
X105195Y012483D01*
X105195Y012345D02*
X103295Y012345D01*
X103295Y012206D02*
X105195Y012206D01*
X105195Y012068D02*
X103295Y012068D01*
X103295Y011929D02*
X105195Y011929D01*
X105195Y011791D02*
X103295Y011791D01*
X103295Y011652D02*
X105195Y011652D01*
X105195Y011514D02*
X103295Y011514D01*
X103295Y011375D02*
X105195Y011375D01*
X105195Y011237D02*
X103295Y011237D01*
X103295Y011098D02*
X105195Y011098D01*
X105195Y010960D02*
X103295Y010960D01*
X103295Y010821D02*
X105195Y010821D01*
X105195Y010683D02*
X103295Y010683D01*
X103263Y010544D02*
X105195Y010544D01*
X105195Y010406D02*
X103134Y010406D01*
X102996Y010267D02*
X105195Y010267D01*
X105195Y010129D02*
X102857Y010129D01*
X102719Y009990D02*
X105195Y009990D01*
X105195Y009852D02*
X102580Y009852D01*
X102442Y009713D02*
X105195Y009713D01*
X105195Y009575D02*
X102291Y009575D01*
X105195Y009436D02*
X094890Y009436D01*
X094890Y009265D02*
X094450Y009265D01*
X094450Y008825D01*
X094615Y008825D01*
X094890Y009100D01*
X094890Y009265D01*
X094890Y009159D02*
X105195Y009159D01*
X105195Y009021D02*
X094810Y009021D01*
X094672Y008882D02*
X105195Y008882D01*
X105195Y008744D02*
X094636Y008744D01*
X094615Y008765D02*
X094450Y008765D01*
X094450Y008325D01*
X094390Y008325D01*
X094390Y008765D01*
X094225Y008765D01*
X093950Y008490D01*
X093950Y008325D01*
X094390Y008325D01*
X094390Y008265D01*
X093950Y008265D01*
X093950Y008100D01*
X094225Y007825D01*
X094390Y007825D01*
X094390Y008265D01*
X094450Y008265D01*
X094450Y008325D01*
X094890Y008325D01*
X094890Y008490D01*
X094615Y008765D01*
X094450Y008744D02*
X094390Y008744D01*
X094390Y008882D02*
X094450Y008882D01*
X094450Y009021D02*
X094390Y009021D01*
X094390Y009159D02*
X094450Y009159D01*
X094450Y009298D02*
X105195Y009298D01*
X105195Y008605D02*
X094775Y008605D01*
X094890Y008467D02*
X105195Y008467D01*
X105195Y008328D02*
X094890Y008328D01*
X094890Y008265D02*
X094450Y008265D01*
X094450Y007825D01*
X094615Y007825D01*
X094890Y008100D01*
X094890Y008265D01*
X094890Y008190D02*
X105195Y008190D01*
X105195Y008051D02*
X094841Y008051D01*
X094702Y007913D02*
X105195Y007913D01*
X105195Y007774D02*
X006725Y007774D01*
X006725Y007636D02*
X105195Y007636D01*
X105195Y007497D02*
X034644Y007497D01*
X034614Y007513D02*
X034538Y007537D01*
X034460Y007550D01*
X034420Y007550D01*
X034380Y007550D01*
X034302Y007537D01*
X034226Y007513D01*
X034156Y007477D01*
X034091Y007430D01*
X034035Y007374D01*
X033988Y007309D01*
X033952Y007239D01*
X033928Y007163D01*
X033915Y007085D01*
X033915Y007045D01*
X033915Y007005D01*
X033928Y006927D01*
X033952Y006851D01*
X033988Y006781D01*
X034035Y006716D01*
X034091Y006660D01*
X034156Y006613D01*
X034226Y006577D01*
X034302Y006553D01*
X034380Y006540D01*
X034420Y006540D01*
X034460Y006540D01*
X034538Y006553D01*
X034614Y006577D01*
X034684Y006613D01*
X034749Y006660D01*
X034805Y006716D01*
X034852Y006781D01*
X034888Y006851D01*
X034912Y006927D01*
X034925Y007005D01*
X034925Y007045D01*
X034925Y007085D01*
X034912Y007163D01*
X034888Y007239D01*
X034852Y007309D01*
X034805Y007374D01*
X034749Y007430D01*
X034684Y007477D01*
X034614Y007513D01*
X034420Y007497D02*
X034420Y007497D01*
X034420Y007550D02*
X034420Y007045D01*
X034925Y007045D01*
X034420Y007045D01*
X034420Y007045D01*
X034420Y007045D01*
X034420Y007550D01*
X034420Y007359D02*
X034420Y007359D01*
X034420Y007220D02*
X034420Y007220D01*
X034420Y007082D02*
X034420Y007082D01*
X034420Y007045D02*
X034420Y007045D01*
X034420Y006540D01*
X034420Y007045D01*
X034420Y007045D01*
X033915Y007045D01*
X034420Y007045D01*
X034420Y006943D02*
X034420Y006943D01*
X034420Y006805D02*
X034420Y006805D01*
X034420Y006666D02*
X034420Y006666D01*
X034755Y006666D02*
X036327Y006666D01*
X036322Y006681D02*
X036346Y006609D01*
X036380Y006541D01*
X036425Y006479D01*
X036479Y006425D01*
X036541Y006380D01*
X036609Y006346D01*
X036681Y006322D01*
X036757Y006310D01*
X036785Y006310D01*
X036785Y006785D01*
X036805Y006785D01*
X036805Y006805D01*
X037280Y006805D01*
X037280Y006833D01*
X037268Y006909D01*
X037244Y006981D01*
X037210Y007049D01*
X037165Y007111D01*
X037111Y007165D01*
X037049Y007210D01*
X036981Y007244D01*
X036909Y007268D01*
X036833Y007280D01*
X036805Y007280D01*
X036805Y006805D01*
X036785Y006805D01*
X036785Y007280D01*
X036757Y007280D01*
X036681Y007268D01*
X036609Y007244D01*
X036541Y007210D01*
X036479Y007165D01*
X036425Y007111D01*
X036380Y007049D01*
X036346Y006981D01*
X036322Y006909D01*
X036310Y006833D01*
X036310Y006805D01*
X036785Y006805D01*
X036785Y006785D01*
X036310Y006785D01*
X036310Y006757D01*
X036322Y006681D01*
X036390Y006528D02*
X007479Y006528D01*
X007561Y006493D02*
X007388Y006565D01*
X007202Y006565D01*
X007029Y006493D01*
X006897Y006361D01*
X006825Y006188D01*
X006825Y005402D01*
X006897Y005229D01*
X007029Y005097D01*
X007202Y005025D01*
X007388Y005025D01*
X007561Y005097D01*
X007693Y005229D01*
X007765Y005402D01*
X007765Y006188D01*
X007693Y006361D01*
X007561Y006493D01*
X007666Y006389D02*
X036529Y006389D01*
X036785Y006389D02*
X036805Y006389D01*
X036805Y006310D02*
X036833Y006310D01*
X036909Y006322D01*
X036981Y006346D01*
X037049Y006380D01*
X037111Y006425D01*
X037165Y006479D01*
X037210Y006541D01*
X037244Y006609D01*
X037268Y006681D01*
X037280Y006757D01*
X037280Y006785D01*
X036805Y006785D01*
X036805Y006310D01*
X036785Y006528D02*
X036805Y006528D01*
X036805Y006666D02*
X036785Y006666D01*
X036785Y006805D02*
X034864Y006805D01*
X034915Y006943D02*
X036333Y006943D01*
X036404Y007082D02*
X034925Y007082D01*
X034894Y007220D02*
X036561Y007220D01*
X036785Y007220D02*
X036805Y007220D01*
X036805Y007082D02*
X036785Y007082D01*
X036785Y006943D02*
X036805Y006943D01*
X036805Y006805D02*
X037310Y006805D01*
X037310Y006943D02*
X037257Y006943D01*
X037310Y006996D02*
X037310Y006594D01*
X037594Y006310D01*
X037996Y006310D01*
X038280Y006594D01*
X038280Y006996D01*
X037996Y007280D01*
X037594Y007280D01*
X037310Y006996D01*
X037396Y007082D02*
X037186Y007082D01*
X037029Y007220D02*
X037534Y007220D01*
X038056Y007220D02*
X105195Y007220D01*
X105195Y007082D02*
X038194Y007082D01*
X038280Y006943D02*
X105195Y006943D01*
X105195Y006805D02*
X038280Y006805D01*
X038280Y006666D02*
X105195Y006666D01*
X105195Y006528D02*
X038213Y006528D01*
X038075Y006389D02*
X105195Y006389D01*
X105195Y006251D02*
X007739Y006251D01*
X007765Y006112D02*
X105195Y006112D01*
X105195Y005974D02*
X007765Y005974D01*
X007765Y005835D02*
X105195Y005835D01*
X105195Y005697D02*
X007765Y005697D01*
X007765Y005558D02*
X105195Y005558D01*
X105195Y005420D02*
X007765Y005420D01*
X007715Y005281D02*
X105195Y005281D01*
X105195Y005143D02*
X007607Y005143D01*
X006983Y005143D02*
X006607Y005143D01*
X006561Y005097D02*
X006693Y005229D01*
X006765Y005402D01*
X006765Y006188D01*
X006693Y006361D01*
X006581Y006473D01*
X006725Y006617D01*
X006725Y006973D01*
X006473Y007225D01*
X006117Y007225D01*
X005865Y006973D01*
X005865Y006617D01*
X006009Y006473D01*
X005897Y006361D01*
X005825Y006188D01*
X005825Y005402D01*
X005897Y005229D01*
X006029Y005097D01*
X006202Y005025D01*
X006388Y005025D01*
X006561Y005097D01*
X006715Y005281D02*
X006875Y005281D01*
X006825Y005420D02*
X006765Y005420D01*
X006765Y005558D02*
X006825Y005558D01*
X006825Y005697D02*
X006765Y005697D01*
X006765Y005835D02*
X006825Y005835D01*
X006825Y005974D02*
X006765Y005974D01*
X006765Y006112D02*
X006825Y006112D01*
X006851Y006251D02*
X006739Y006251D01*
X006666Y006389D02*
X006924Y006389D01*
X007111Y006528D02*
X006636Y006528D01*
X006725Y006666D02*
X034085Y006666D01*
X033976Y006805D02*
X006725Y006805D01*
X006725Y006943D02*
X033925Y006943D01*
X033915Y007082D02*
X006617Y007082D01*
X006478Y007220D02*
X033946Y007220D01*
X034024Y007359D02*
X000640Y007359D01*
X000640Y007497D02*
X003985Y007497D01*
X003865Y007617D02*
X004117Y007365D01*
X004473Y007365D01*
X004725Y007617D01*
X004725Y007973D01*
X004473Y008225D01*
X004117Y008225D01*
X003865Y007973D01*
X003865Y007617D01*
X003865Y007636D02*
X000640Y007636D01*
X000640Y007774D02*
X003865Y007774D01*
X003865Y007913D02*
X000640Y007913D01*
X000640Y008051D02*
X003943Y008051D01*
X004081Y008190D02*
X000640Y008190D01*
X000640Y008328D02*
X022950Y008328D01*
X022950Y008190D02*
X006509Y008190D01*
X006473Y008225D02*
X006117Y008225D01*
X005865Y007973D01*
X005865Y007617D01*
X006117Y007365D01*
X006473Y007365D01*
X006725Y007617D01*
X006725Y007973D01*
X006473Y008225D01*
X006647Y008051D02*
X022950Y008051D01*
X022950Y007925D02*
X023050Y007825D01*
X023790Y007825D01*
X023890Y007925D01*
X023890Y008665D01*
X023790Y008765D01*
X023050Y008765D01*
X022950Y008665D01*
X022950Y007925D01*
X022962Y007913D02*
X006725Y007913D01*
X006605Y007497D02*
X034196Y007497D01*
X034225Y007825D02*
X033950Y008100D01*
X033950Y008265D01*
X034390Y008265D01*
X034390Y008325D01*
X034390Y008765D01*
X034225Y008765D01*
X033950Y008490D01*
X033950Y008325D01*
X034390Y008325D01*
X034450Y008325D01*
X034450Y008765D01*
X034615Y008765D01*
X034890Y008490D01*
X034890Y008325D01*
X034450Y008325D01*
X034450Y008265D01*
X034890Y008265D01*
X034890Y008100D01*
X034615Y007825D01*
X034450Y007825D01*
X034450Y008265D01*
X034390Y008265D01*
X034390Y007825D01*
X034225Y007825D01*
X034138Y007913D02*
X033878Y007913D01*
X033890Y007925D02*
X033890Y008665D01*
X033790Y008765D01*
X033050Y008765D01*
X032950Y008665D01*
X032950Y007925D01*
X033050Y007825D01*
X033790Y007825D01*
X033890Y007925D01*
X033890Y008051D02*
X033999Y008051D01*
X033950Y008190D02*
X033890Y008190D01*
X033890Y008328D02*
X033950Y008328D01*
X033950Y008467D02*
X033890Y008467D01*
X033890Y008605D02*
X034065Y008605D01*
X034204Y008744D02*
X033812Y008744D01*
X033672Y008882D02*
X034168Y008882D01*
X034030Y009021D02*
X033810Y009021D01*
X033890Y009159D02*
X033950Y009159D01*
X034390Y009159D02*
X034450Y009159D01*
X034450Y009021D02*
X034390Y009021D01*
X034390Y008882D02*
X034450Y008882D01*
X034450Y008744D02*
X034390Y008744D01*
X034390Y008605D02*
X034450Y008605D01*
X034450Y008467D02*
X034390Y008467D01*
X034390Y008328D02*
X034450Y008328D01*
X034450Y008190D02*
X034390Y008190D01*
X034390Y008051D02*
X034450Y008051D01*
X034450Y007913D02*
X034390Y007913D01*
X034702Y007913D02*
X042962Y007913D01*
X042950Y007925D02*
X043050Y007825D01*
X043790Y007825D01*
X043890Y007925D01*
X043890Y008665D01*
X043790Y008765D01*
X043050Y008765D01*
X042950Y008665D01*
X042950Y007925D01*
X042950Y008051D02*
X034841Y008051D01*
X034890Y008190D02*
X042950Y008190D01*
X042950Y008328D02*
X034890Y008328D01*
X034890Y008467D02*
X042950Y008467D01*
X042950Y008605D02*
X034775Y008605D01*
X034636Y008744D02*
X043028Y008744D01*
X043168Y008882D02*
X034672Y008882D01*
X034810Y009021D02*
X043030Y009021D01*
X043672Y008882D02*
X044168Y008882D01*
X044225Y008765D02*
X043950Y008490D01*
X043950Y008325D01*
X044390Y008325D01*
X044390Y008765D01*
X044225Y008765D01*
X044204Y008744D02*
X043812Y008744D01*
X043890Y008605D02*
X044065Y008605D01*
X043950Y008467D02*
X043890Y008467D01*
X043890Y008328D02*
X043950Y008328D01*
X043950Y008265D02*
X043950Y008100D01*
X044225Y007825D01*
X044390Y007825D01*
X044390Y008265D01*
X043950Y008265D01*
X043950Y008190D02*
X043890Y008190D01*
X043890Y008051D02*
X043999Y008051D01*
X043878Y007913D02*
X044138Y007913D01*
X044390Y007913D02*
X044450Y007913D01*
X044450Y007825D02*
X044615Y007825D01*
X044890Y008100D01*
X044890Y008265D01*
X044450Y008265D01*
X044450Y008325D01*
X044390Y008325D01*
X044390Y008265D01*
X044450Y008265D01*
X044450Y007825D01*
X044450Y008051D02*
X044390Y008051D01*
X044390Y008190D02*
X044450Y008190D01*
X044450Y008325D02*
X044890Y008325D01*
X044890Y008490D01*
X044615Y008765D01*
X044450Y008765D01*
X044450Y008325D01*
X044450Y008328D02*
X044390Y008328D01*
X044390Y008467D02*
X044450Y008467D01*
X044450Y008605D02*
X044390Y008605D01*
X044390Y008744D02*
X044450Y008744D01*
X044450Y008882D02*
X044390Y008882D01*
X044390Y009021D02*
X044450Y009021D01*
X044450Y009159D02*
X044390Y009159D01*
X044030Y009021D02*
X043810Y009021D01*
X043890Y009159D02*
X043950Y009159D01*
X044672Y008882D02*
X053168Y008882D01*
X053050Y008765D02*
X052950Y008665D01*
X052950Y007925D01*
X053050Y007825D01*
X053790Y007825D01*
X053890Y007925D01*
X053890Y008665D01*
X053790Y008765D01*
X053050Y008765D01*
X053028Y008744D02*
X044636Y008744D01*
X044775Y008605D02*
X052950Y008605D01*
X052950Y008467D02*
X044890Y008467D01*
X044890Y008328D02*
X052950Y008328D01*
X052950Y008190D02*
X044890Y008190D01*
X044841Y008051D02*
X052950Y008051D01*
X052962Y007913D02*
X044702Y007913D01*
X044810Y009021D02*
X053030Y009021D01*
X053672Y008882D02*
X054168Y008882D01*
X054225Y008765D02*
X053950Y008490D01*
X053950Y008325D01*
X054390Y008325D01*
X054390Y008765D01*
X054225Y008765D01*
X054204Y008744D02*
X053812Y008744D01*
X053890Y008605D02*
X054065Y008605D01*
X053950Y008467D02*
X053890Y008467D01*
X053890Y008328D02*
X053950Y008328D01*
X053950Y008265D02*
X053950Y008100D01*
X054225Y007825D01*
X054390Y007825D01*
X054390Y008265D01*
X053950Y008265D01*
X053950Y008190D02*
X053890Y008190D01*
X053890Y008051D02*
X053999Y008051D01*
X053878Y007913D02*
X054138Y007913D01*
X054390Y007913D02*
X054450Y007913D01*
X054450Y007825D02*
X054615Y007825D01*
X054890Y008100D01*
X054890Y008265D01*
X054450Y008265D01*
X054450Y008325D01*
X054390Y008325D01*
X054390Y008265D01*
X054450Y008265D01*
X054450Y007825D01*
X054450Y008051D02*
X054390Y008051D01*
X054390Y008190D02*
X054450Y008190D01*
X054450Y008325D02*
X054890Y008325D01*
X054890Y008490D01*
X054615Y008765D01*
X054450Y008765D01*
X054450Y008325D01*
X054450Y008328D02*
X054390Y008328D01*
X054390Y008467D02*
X054450Y008467D01*
X054450Y008605D02*
X054390Y008605D01*
X054390Y008744D02*
X054450Y008744D01*
X054450Y008882D02*
X054390Y008882D01*
X054390Y009021D02*
X054450Y009021D01*
X054450Y009159D02*
X054390Y009159D01*
X054030Y009021D02*
X053810Y009021D01*
X053890Y009159D02*
X053950Y009159D01*
X054672Y008882D02*
X063168Y008882D01*
X063050Y008765D02*
X062950Y008665D01*
X062950Y007925D01*
X063050Y007825D01*
X063790Y007825D01*
X063890Y007925D01*
X063890Y008665D01*
X063790Y008765D01*
X063050Y008765D01*
X063028Y008744D02*
X054636Y008744D01*
X054775Y008605D02*
X062950Y008605D01*
X062950Y008467D02*
X054890Y008467D01*
X054890Y008328D02*
X062950Y008328D01*
X062950Y008190D02*
X054890Y008190D01*
X054841Y008051D02*
X062950Y008051D01*
X062962Y007913D02*
X054702Y007913D01*
X054810Y009021D02*
X063030Y009021D01*
X063672Y008882D02*
X064168Y008882D01*
X064225Y008765D02*
X063950Y008490D01*
X063950Y008325D01*
X064390Y008325D01*
X064390Y008765D01*
X064225Y008765D01*
X064204Y008744D02*
X063812Y008744D01*
X063890Y008605D02*
X064065Y008605D01*
X063950Y008467D02*
X063890Y008467D01*
X063890Y008328D02*
X063950Y008328D01*
X063950Y008265D02*
X063950Y008100D01*
X064225Y007825D01*
X064390Y007825D01*
X064390Y008265D01*
X063950Y008265D01*
X063950Y008190D02*
X063890Y008190D01*
X063890Y008051D02*
X063999Y008051D01*
X063878Y007913D02*
X064138Y007913D01*
X064390Y007913D02*
X064450Y007913D01*
X064450Y007825D02*
X064615Y007825D01*
X064890Y008100D01*
X064890Y008265D01*
X064450Y008265D01*
X064450Y008325D01*
X064390Y008325D01*
X064390Y008265D01*
X064450Y008265D01*
X064450Y007825D01*
X064450Y008051D02*
X064390Y008051D01*
X064390Y008190D02*
X064450Y008190D01*
X064450Y008325D02*
X064890Y008325D01*
X064890Y008490D01*
X064615Y008765D01*
X064450Y008765D01*
X064450Y008325D01*
X064450Y008328D02*
X064390Y008328D01*
X064390Y008467D02*
X064450Y008467D01*
X064450Y008605D02*
X064390Y008605D01*
X064390Y008744D02*
X064450Y008744D01*
X064450Y008882D02*
X064390Y008882D01*
X064390Y009021D02*
X064450Y009021D01*
X064450Y009159D02*
X064390Y009159D01*
X064030Y009021D02*
X063810Y009021D01*
X063890Y009159D02*
X063950Y009159D01*
X064672Y008882D02*
X073168Y008882D01*
X073050Y008765D02*
X072950Y008665D01*
X072950Y007925D01*
X073050Y007825D01*
X073790Y007825D01*
X073890Y007925D01*
X073890Y008665D01*
X073790Y008765D01*
X073050Y008765D01*
X073028Y008744D02*
X064636Y008744D01*
X064775Y008605D02*
X072950Y008605D01*
X072950Y008467D02*
X064890Y008467D01*
X064890Y008328D02*
X072950Y008328D01*
X072950Y008190D02*
X064890Y008190D01*
X064841Y008051D02*
X072950Y008051D01*
X072962Y007913D02*
X064702Y007913D01*
X064810Y009021D02*
X073030Y009021D01*
X073672Y008882D02*
X074168Y008882D01*
X074225Y008765D02*
X073950Y008490D01*
X073950Y008325D01*
X074390Y008325D01*
X074390Y008765D01*
X074225Y008765D01*
X074204Y008744D02*
X073812Y008744D01*
X073890Y008605D02*
X074065Y008605D01*
X073950Y008467D02*
X073890Y008467D01*
X073890Y008328D02*
X073950Y008328D01*
X073950Y008265D02*
X073950Y008100D01*
X074225Y007825D01*
X074390Y007825D01*
X074390Y008265D01*
X073950Y008265D01*
X073950Y008190D02*
X073890Y008190D01*
X073890Y008051D02*
X073999Y008051D01*
X073878Y007913D02*
X074138Y007913D01*
X074390Y007913D02*
X074450Y007913D01*
X074450Y007825D02*
X074615Y007825D01*
X074890Y008100D01*
X074890Y008265D01*
X074450Y008265D01*
X074450Y008325D01*
X074390Y008325D01*
X074390Y008265D01*
X074450Y008265D01*
X074450Y007825D01*
X074450Y008051D02*
X074390Y008051D01*
X074390Y008190D02*
X074450Y008190D01*
X074450Y008325D02*
X074890Y008325D01*
X074890Y008490D01*
X074615Y008765D01*
X074450Y008765D01*
X074450Y008325D01*
X074450Y008328D02*
X074390Y008328D01*
X074390Y008467D02*
X074450Y008467D01*
X074450Y008605D02*
X074390Y008605D01*
X074390Y008744D02*
X074450Y008744D01*
X074450Y008882D02*
X074390Y008882D01*
X074390Y009021D02*
X074450Y009021D01*
X074450Y009159D02*
X074390Y009159D01*
X074030Y009021D02*
X073810Y009021D01*
X073890Y009159D02*
X073950Y009159D01*
X074672Y008882D02*
X083168Y008882D01*
X083050Y008765D02*
X082950Y008665D01*
X082950Y007925D01*
X083050Y007825D01*
X083790Y007825D01*
X083890Y007925D01*
X083890Y008665D01*
X083790Y008765D01*
X083050Y008765D01*
X083028Y008744D02*
X074636Y008744D01*
X074775Y008605D02*
X082950Y008605D01*
X082950Y008467D02*
X074890Y008467D01*
X074890Y008328D02*
X082950Y008328D01*
X082950Y008190D02*
X074890Y008190D01*
X074841Y008051D02*
X082950Y008051D01*
X082962Y007913D02*
X074702Y007913D01*
X074810Y009021D02*
X083030Y009021D01*
X083672Y008882D02*
X084168Y008882D01*
X084225Y008765D02*
X083950Y008490D01*
X083950Y008325D01*
X084390Y008325D01*
X084390Y008765D01*
X084225Y008765D01*
X084204Y008744D02*
X083812Y008744D01*
X083890Y008605D02*
X084065Y008605D01*
X083950Y008467D02*
X083890Y008467D01*
X083890Y008328D02*
X083950Y008328D01*
X083950Y008265D02*
X083950Y008100D01*
X084225Y007825D01*
X084390Y007825D01*
X084390Y008265D01*
X083950Y008265D01*
X083950Y008190D02*
X083890Y008190D01*
X083890Y008051D02*
X083999Y008051D01*
X083878Y007913D02*
X084138Y007913D01*
X084390Y007913D02*
X084450Y007913D01*
X084450Y007825D02*
X084615Y007825D01*
X084890Y008100D01*
X084890Y008265D01*
X084450Y008265D01*
X084450Y008325D01*
X084390Y008325D01*
X084390Y008265D01*
X084450Y008265D01*
X084450Y007825D01*
X084450Y008051D02*
X084390Y008051D01*
X084390Y008190D02*
X084450Y008190D01*
X084450Y008325D02*
X084890Y008325D01*
X084890Y008490D01*
X084615Y008765D01*
X084450Y008765D01*
X084450Y008325D01*
X084450Y008328D02*
X084390Y008328D01*
X084390Y008467D02*
X084450Y008467D01*
X084450Y008605D02*
X084390Y008605D01*
X084390Y008744D02*
X084450Y008744D01*
X084450Y008882D02*
X084390Y008882D01*
X084390Y009021D02*
X084450Y009021D01*
X084450Y009159D02*
X084390Y009159D01*
X084030Y009021D02*
X083810Y009021D01*
X083890Y009159D02*
X083950Y009159D01*
X084672Y008882D02*
X093168Y008882D01*
X093050Y008765D02*
X092950Y008665D01*
X092950Y007925D01*
X093050Y007825D01*
X093790Y007825D01*
X093890Y007925D01*
X093890Y008665D01*
X093790Y008765D01*
X093050Y008765D01*
X093028Y008744D02*
X084636Y008744D01*
X084775Y008605D02*
X092950Y008605D01*
X092950Y008467D02*
X084890Y008467D01*
X084890Y008328D02*
X092950Y008328D01*
X092950Y008190D02*
X084890Y008190D01*
X084841Y008051D02*
X092950Y008051D01*
X092962Y007913D02*
X084702Y007913D01*
X084810Y009021D02*
X093030Y009021D01*
X093672Y008882D02*
X094168Y008882D01*
X094204Y008744D02*
X093812Y008744D01*
X093890Y008605D02*
X094065Y008605D01*
X093950Y008467D02*
X093890Y008467D01*
X093890Y008328D02*
X093950Y008328D01*
X093950Y008190D02*
X093890Y008190D01*
X093890Y008051D02*
X093999Y008051D01*
X093878Y007913D02*
X094138Y007913D01*
X094390Y007913D02*
X094450Y007913D01*
X094450Y008051D02*
X094390Y008051D01*
X094390Y008190D02*
X094450Y008190D01*
X094450Y008328D02*
X094390Y008328D01*
X094390Y008467D02*
X094450Y008467D01*
X094450Y008605D02*
X094390Y008605D01*
X094030Y009021D02*
X093810Y009021D01*
X093890Y009159D02*
X093950Y009159D01*
X084952Y009159D02*
X084890Y009159D01*
X074952Y009159D02*
X074890Y009159D01*
X064952Y009159D02*
X064890Y009159D01*
X054958Y009153D02*
X054958Y009153D01*
X054952Y009159D02*
X054890Y009159D01*
X044952Y009159D02*
X044890Y009159D01*
X037515Y006389D02*
X037061Y006389D01*
X037200Y006528D02*
X037377Y006528D01*
X037310Y006666D02*
X037263Y006666D01*
X034816Y007359D02*
X105195Y007359D01*
X105195Y005004D02*
X000640Y005004D01*
X000640Y004866D02*
X105195Y004866D01*
X105195Y004727D02*
X000640Y004727D01*
X000640Y004589D02*
X105195Y004589D01*
X105195Y004450D02*
X000640Y004450D01*
X000640Y004312D02*
X105195Y004312D01*
X105195Y004173D02*
X000640Y004173D01*
X000640Y004035D02*
X105195Y004035D01*
X105195Y003896D02*
X000640Y003896D01*
X000640Y003758D02*
X105195Y003758D01*
X105195Y003619D02*
X000640Y003619D01*
X000640Y003481D02*
X012486Y003481D01*
X012435Y003467D02*
X012148Y003301D01*
X011914Y003067D01*
X011748Y002780D01*
X011663Y002461D01*
X011663Y002129D01*
X011748Y001810D01*
X011914Y001523D01*
X012148Y001289D01*
X012435Y001123D01*
X012754Y001038D01*
X013086Y001038D01*
X013405Y001123D01*
X013692Y001289D01*
X013926Y001523D01*
X014092Y001810D01*
X014177Y002129D01*
X014177Y002461D01*
X014092Y002780D01*
X013926Y003067D01*
X013692Y003301D01*
X013405Y003467D01*
X013086Y003552D01*
X012754Y003552D01*
X012435Y003467D01*
X012219Y003342D02*
X000640Y003342D01*
X000640Y003204D02*
X012050Y003204D01*
X011913Y003065D02*
X000640Y003065D01*
X000640Y002927D02*
X011833Y002927D01*
X011753Y002788D02*
X000640Y002788D01*
X000640Y002650D02*
X011713Y002650D01*
X011676Y002511D02*
X000640Y002511D01*
X000640Y002373D02*
X011663Y002373D01*
X011663Y002234D02*
X000640Y002234D01*
X000640Y002096D02*
X011672Y002096D01*
X011709Y001957D02*
X000640Y001957D01*
X000640Y001819D02*
X011746Y001819D01*
X011823Y001680D02*
X000640Y001680D01*
X000640Y001542D02*
X011903Y001542D01*
X012034Y001403D02*
X000640Y001403D01*
X000640Y001265D02*
X012190Y001265D01*
X012430Y001126D02*
X000640Y001126D01*
X000640Y000988D02*
X105195Y000988D01*
X105195Y001126D02*
X094410Y001126D01*
X094405Y001123D02*
X094692Y001289D01*
X094926Y001523D01*
X095092Y001810D01*
X095177Y002129D01*
X095177Y002461D01*
X095092Y002780D01*
X094926Y003067D01*
X094692Y003301D01*
X094405Y003467D01*
X094086Y003552D01*
X093754Y003552D01*
X093435Y003467D01*
X093148Y003301D01*
X092914Y003067D01*
X092748Y002780D01*
X092663Y002461D01*
X092663Y002129D01*
X092748Y001810D01*
X092914Y001523D01*
X093148Y001289D01*
X093435Y001123D01*
X093754Y001038D01*
X094086Y001038D01*
X094405Y001123D01*
X094650Y001265D02*
X105195Y001265D01*
X105195Y001403D02*
X094806Y001403D01*
X094937Y001542D02*
X105195Y001542D01*
X105195Y001680D02*
X095017Y001680D01*
X095094Y001819D02*
X105195Y001819D01*
X105195Y001957D02*
X095131Y001957D01*
X095168Y002096D02*
X105195Y002096D01*
X105195Y002234D02*
X095177Y002234D01*
X095177Y002373D02*
X105195Y002373D01*
X105195Y002511D02*
X095164Y002511D01*
X095127Y002650D02*
X105195Y002650D01*
X105195Y002788D02*
X095087Y002788D01*
X095007Y002927D02*
X105195Y002927D01*
X105195Y003065D02*
X094927Y003065D01*
X094790Y003204D02*
X105195Y003204D01*
X105195Y003342D02*
X094621Y003342D01*
X094354Y003481D02*
X105195Y003481D01*
X105195Y000849D02*
X000640Y000849D01*
X000640Y005143D02*
X003983Y005143D01*
X004029Y005097D02*
X004202Y005025D01*
X004388Y005025D01*
X004561Y005097D01*
X004693Y005229D01*
X004765Y005402D01*
X004765Y006188D01*
X004693Y006361D01*
X004581Y006473D01*
X004725Y006617D01*
X004725Y006973D01*
X004473Y007225D01*
X004117Y007225D01*
X003865Y006973D01*
X003865Y006617D01*
X004009Y006473D01*
X003897Y006361D01*
X003825Y006188D01*
X003825Y005402D01*
X003897Y005229D01*
X004029Y005097D01*
X003875Y005281D02*
X000640Y005281D01*
X000640Y005420D02*
X003825Y005420D01*
X003825Y005558D02*
X000640Y005558D01*
X000640Y005697D02*
X003825Y005697D01*
X003825Y005835D02*
X000640Y005835D01*
X000640Y005974D02*
X003825Y005974D01*
X003825Y006112D02*
X000640Y006112D01*
X000640Y006251D02*
X003851Y006251D01*
X003924Y006389D02*
X000640Y006389D01*
X000640Y006528D02*
X003954Y006528D01*
X003865Y006666D02*
X000640Y006666D01*
X000640Y006805D02*
X003865Y006805D01*
X003865Y006943D02*
X000640Y006943D01*
X000640Y007082D02*
X003973Y007082D01*
X004112Y007220D02*
X000640Y007220D01*
X000640Y008467D02*
X022950Y008467D01*
X022950Y008605D02*
X000640Y008605D01*
X000640Y008744D02*
X005316Y008744D01*
X005324Y008740D02*
X006016Y008740D01*
X006174Y008805D01*
X006295Y008926D01*
X006360Y009084D01*
X006360Y009256D01*
X006295Y009414D01*
X006174Y009535D01*
X006016Y009600D01*
X005324Y009600D01*
X005166Y009535D01*
X005045Y009414D01*
X004980Y009256D01*
X004980Y009084D01*
X005045Y008926D01*
X005166Y008805D01*
X005324Y008740D01*
X005090Y008882D02*
X000640Y008882D01*
X000640Y009021D02*
X005006Y009021D01*
X004980Y009159D02*
X000640Y009159D01*
X000640Y009298D02*
X004997Y009298D01*
X005068Y009436D02*
X000640Y009436D01*
X000640Y009575D02*
X005263Y009575D01*
X005324Y009740D02*
X005166Y009805D01*
X005052Y009920D01*
X004903Y009920D01*
X004723Y009740D01*
X004367Y009740D01*
X004115Y009992D01*
X004115Y010348D01*
X004367Y010600D01*
X004723Y010600D01*
X004903Y010420D01*
X005052Y010420D01*
X005166Y010535D01*
X005324Y010600D01*
X006016Y010600D01*
X006174Y010535D01*
X006288Y010420D01*
X008052Y010420D01*
X008166Y010535D01*
X008324Y010600D01*
X009016Y010600D01*
X009174Y010535D01*
X009295Y010414D01*
X009360Y010256D01*
X009360Y010084D01*
X009295Y009926D01*
X009174Y009805D01*
X009016Y009740D01*
X008324Y009740D01*
X008166Y009805D01*
X008052Y009920D01*
X006288Y009920D01*
X006174Y009805D01*
X006016Y009740D01*
X005324Y009740D01*
X005120Y009852D02*
X004835Y009852D01*
X004255Y009852D02*
X003835Y009852D01*
X003723Y009740D02*
X003975Y009992D01*
X003975Y010348D01*
X003723Y010600D01*
X003367Y010600D01*
X003115Y010348D01*
X003115Y009992D01*
X003367Y009740D01*
X003723Y009740D01*
X003973Y009990D02*
X004117Y009990D01*
X004115Y010129D02*
X003975Y010129D01*
X003975Y010267D02*
X004115Y010267D01*
X004172Y010406D02*
X003918Y010406D01*
X003779Y010544D02*
X004311Y010544D01*
X004779Y010544D02*
X005189Y010544D01*
X005324Y010740D02*
X005166Y010805D01*
X005045Y010926D01*
X004980Y011084D01*
X004980Y011256D01*
X005045Y011414D01*
X005166Y011535D01*
X005324Y011600D01*
X005420Y011600D01*
X005420Y011740D01*
X005324Y011740D01*
X005166Y011805D01*
X005045Y011926D01*
X004980Y012084D01*
X004980Y012256D01*
X005045Y012414D01*
X005166Y012535D01*
X005324Y012600D01*
X006016Y012600D01*
X006174Y012535D01*
X006295Y012414D01*
X006360Y012256D01*
X006360Y012084D01*
X006295Y011926D01*
X006174Y011805D01*
X006016Y011740D01*
X005920Y011740D01*
X005920Y011600D01*
X006016Y011600D01*
X006174Y011535D01*
X006295Y011414D01*
X006360Y011256D01*
X006360Y011084D01*
X006295Y010926D01*
X006174Y010805D01*
X006016Y010740D01*
X005324Y010740D01*
X005151Y010821D02*
X000640Y010821D01*
X000640Y010683D02*
X011070Y010683D01*
X011001Y010544D02*
X009151Y010544D01*
X009298Y010406D02*
X010985Y010406D01*
X011013Y010267D02*
X009355Y010267D01*
X009360Y010129D02*
X011099Y010129D01*
X009761Y009990D02*
X009321Y009990D01*
X009220Y009852D02*
X009623Y009852D01*
X009484Y009713D02*
X000640Y009713D01*
X000640Y009852D02*
X003255Y009852D01*
X003117Y009990D02*
X000640Y009990D01*
X000640Y010129D02*
X003115Y010129D01*
X003115Y010267D02*
X000640Y010267D01*
X000640Y010406D02*
X003172Y010406D01*
X003311Y010544D02*
X000640Y010544D01*
X000640Y010960D02*
X005032Y010960D01*
X004980Y011098D02*
X000640Y011098D01*
X000640Y011237D02*
X004980Y011237D01*
X005029Y011375D02*
X000640Y011375D01*
X000640Y011514D02*
X005145Y011514D01*
X005203Y011791D02*
X000640Y011791D01*
X000640Y011929D02*
X005044Y011929D01*
X004987Y012068D02*
X000640Y012068D01*
X000640Y012206D02*
X004980Y012206D01*
X005017Y012345D02*
X003387Y012345D01*
X003414Y012355D02*
X003535Y012476D01*
X003600Y012634D01*
X003600Y012806D01*
X003535Y012964D01*
X003414Y013085D01*
X003256Y013150D01*
X003084Y013150D01*
X002926Y013085D01*
X002805Y012964D01*
X002740Y012806D01*
X002740Y012634D01*
X002805Y012476D01*
X002926Y012355D01*
X003084Y012290D01*
X003256Y012290D01*
X003414Y012355D01*
X003537Y012483D02*
X005115Y012483D01*
X005276Y012760D02*
X003600Y012760D01*
X003595Y012622D02*
X011033Y012622D01*
X010985Y012483D02*
X009225Y012483D01*
X009174Y012535D02*
X009016Y012600D01*
X008324Y012600D01*
X008166Y012535D01*
X008045Y012414D01*
X007980Y012256D01*
X007980Y012084D01*
X008045Y011926D01*
X008166Y011805D01*
X008324Y011740D01*
X009016Y011740D01*
X009174Y011805D01*
X009288Y011920D01*
X009907Y011920D01*
X009907Y011843D01*
X009966Y011700D01*
X010075Y011591D01*
X010218Y011532D01*
X010372Y011532D01*
X010515Y011591D01*
X010624Y011700D01*
X010683Y011843D01*
X010683Y011997D01*
X010624Y012140D01*
X010515Y012249D01*
X010372Y012308D01*
X010261Y012308D01*
X010187Y012382D01*
X010095Y012420D01*
X009288Y012420D01*
X009174Y012535D01*
X009064Y012760D02*
X011148Y012760D01*
X011220Y013037D02*
X009340Y013037D01*
X009360Y013084D02*
X009360Y013256D01*
X009295Y013414D01*
X009174Y013535D01*
X009016Y013600D01*
X008324Y013600D01*
X008166Y013535D01*
X008045Y013414D01*
X007980Y013256D01*
X007980Y013084D01*
X008045Y012926D01*
X008166Y012805D01*
X008324Y012740D01*
X009016Y012740D01*
X009174Y012805D01*
X009295Y012926D01*
X009360Y013084D01*
X009360Y013176D02*
X011052Y013176D01*
X010994Y013314D02*
X009336Y013314D01*
X009256Y013453D02*
X010985Y013453D01*
X011021Y013591D02*
X009037Y013591D01*
X009236Y013868D02*
X010424Y013868D01*
X010916Y013868D02*
X012514Y013868D01*
X012376Y013730D02*
X012223Y013730D01*
X012046Y014007D02*
X012653Y014007D01*
X012791Y014145D02*
X012257Y014145D01*
X012637Y014284D02*
X012930Y014284D01*
X013068Y014422D02*
X012776Y014422D01*
X012914Y014561D02*
X013207Y014561D01*
X013345Y014699D02*
X013053Y014699D01*
X013191Y014838D02*
X013484Y014838D01*
X013622Y014976D02*
X013330Y014976D01*
X013468Y015115D02*
X013761Y015115D01*
X013899Y015253D02*
X013607Y015253D01*
X013745Y015392D02*
X014038Y015392D01*
X014176Y015530D02*
X013884Y015530D01*
X014022Y015669D02*
X014315Y015669D01*
X014453Y015807D02*
X014161Y015807D01*
X014299Y015946D02*
X014592Y015946D01*
X014730Y016084D02*
X014438Y016084D01*
X014576Y016223D02*
X014869Y016223D01*
X015007Y016361D02*
X014715Y016361D01*
X014853Y016500D02*
X015146Y016500D01*
X015170Y016638D02*
X014992Y016638D01*
X015130Y016777D02*
X015170Y016777D01*
X014700Y017054D02*
X014407Y017054D01*
X014546Y017192D02*
X014795Y017192D01*
X014795Y017331D02*
X014684Y017331D01*
X014561Y016915D02*
X014269Y016915D01*
X014130Y016777D02*
X014423Y016777D01*
X014284Y016638D02*
X013992Y016638D01*
X013853Y016500D02*
X014146Y016500D01*
X014007Y016361D02*
X013715Y016361D01*
X013576Y016223D02*
X013869Y016223D01*
X013730Y016084D02*
X013438Y016084D01*
X013299Y015946D02*
X013592Y015946D01*
X013453Y015807D02*
X013161Y015807D01*
X013022Y015669D02*
X013315Y015669D01*
X013176Y015530D02*
X012884Y015530D01*
X012745Y015392D02*
X013038Y015392D01*
X012899Y015253D02*
X012607Y015253D01*
X012761Y015115D02*
X012227Y015115D01*
X012037Y014838D02*
X012484Y014838D01*
X012622Y014976D02*
X009314Y014976D01*
X009328Y015005D02*
X009349Y015069D01*
X009360Y015136D01*
X009360Y015160D01*
X008680Y015160D01*
X008680Y015180D01*
X008660Y015180D01*
X008660Y015600D01*
X008376Y015600D01*
X008309Y015589D01*
X008245Y015568D01*
X008185Y015538D01*
X008130Y015498D01*
X008082Y015450D01*
X008042Y015395D01*
X008012Y015335D01*
X007991Y015271D01*
X007980Y015204D01*
X007980Y015180D01*
X008660Y015180D01*
X008660Y015160D01*
X008680Y015160D01*
X008680Y014740D01*
X008964Y014740D01*
X009031Y014751D01*
X009095Y014772D01*
X009155Y014802D01*
X009210Y014842D01*
X009258Y014890D01*
X009298Y014945D01*
X009328Y015005D01*
X009357Y015115D02*
X011113Y015115D01*
X011019Y015253D02*
X009352Y015253D01*
X009349Y015271D02*
X009328Y015335D01*
X009298Y015395D01*
X009258Y015450D01*
X009210Y015498D01*
X009155Y015538D01*
X009095Y015568D01*
X009031Y015589D01*
X008964Y015600D01*
X008680Y015600D01*
X008680Y015180D01*
X009360Y015180D01*
X009360Y015204D01*
X009349Y015271D01*
X009300Y015392D02*
X010985Y015392D01*
X010995Y015530D02*
X009166Y015530D01*
X008680Y015530D02*
X008660Y015530D01*
X008660Y015392D02*
X008680Y015392D01*
X008680Y015253D02*
X008660Y015253D01*
X008660Y015160D02*
X007980Y015160D01*
X007980Y015136D01*
X007991Y015069D01*
X008012Y015005D01*
X008042Y014945D01*
X008082Y014890D01*
X008130Y014842D01*
X008185Y014802D01*
X008245Y014772D01*
X008309Y014751D01*
X008376Y014740D01*
X008660Y014740D01*
X008660Y015160D01*
X008660Y015115D02*
X008680Y015115D01*
X008680Y014976D02*
X008660Y014976D01*
X008660Y014838D02*
X008680Y014838D01*
X009111Y014561D02*
X011008Y014561D01*
X010985Y014422D02*
X010966Y014422D01*
X011058Y014145D02*
X011083Y014145D01*
X011022Y014007D02*
X011294Y014007D01*
X011117Y013730D02*
X005920Y013730D01*
X005920Y013740D02*
X006016Y013740D01*
X006174Y013805D01*
X006295Y013926D01*
X006360Y014084D01*
X006360Y014256D01*
X006295Y014414D01*
X006174Y014535D01*
X006016Y014600D01*
X005324Y014600D01*
X005166Y014535D01*
X005045Y014414D01*
X004980Y014256D01*
X004980Y014084D01*
X005045Y013926D01*
X005166Y013805D01*
X005324Y013740D01*
X005420Y013740D01*
X005420Y013600D01*
X005324Y013600D01*
X005166Y013535D01*
X005045Y013414D01*
X004980Y013256D01*
X004980Y013084D01*
X005045Y012926D01*
X005166Y012805D01*
X005324Y012740D01*
X006016Y012740D01*
X006174Y012805D01*
X006295Y012926D01*
X006360Y013084D01*
X006360Y013256D01*
X006295Y013414D01*
X006174Y013535D01*
X006016Y013600D01*
X005920Y013600D01*
X005920Y013740D01*
X006037Y013591D02*
X008303Y013591D01*
X008084Y013453D02*
X006256Y013453D01*
X006336Y013314D02*
X008004Y013314D01*
X007980Y013176D02*
X006360Y013176D01*
X006340Y013037D02*
X008000Y013037D01*
X008073Y012899D02*
X006267Y012899D01*
X006064Y012760D02*
X008276Y012760D01*
X008115Y012483D02*
X006225Y012483D01*
X006323Y012345D02*
X008017Y012345D01*
X007980Y012206D02*
X006360Y012206D01*
X006353Y012068D02*
X007987Y012068D01*
X008044Y011929D02*
X006296Y011929D01*
X006137Y011791D02*
X008203Y011791D01*
X008324Y011600D02*
X008166Y011535D01*
X008045Y011414D01*
X007980Y011256D01*
X007980Y011084D01*
X008045Y010926D01*
X008166Y010805D01*
X008324Y010740D01*
X009016Y010740D01*
X009174Y010805D01*
X009295Y010926D01*
X009360Y011084D01*
X009360Y011256D01*
X009295Y011414D01*
X009174Y011535D01*
X009016Y011600D01*
X008324Y011600D01*
X008145Y011514D02*
X006195Y011514D01*
X006311Y011375D02*
X008029Y011375D01*
X007980Y011237D02*
X006360Y011237D01*
X006360Y011098D02*
X007980Y011098D01*
X008032Y010960D02*
X006308Y010960D01*
X006189Y010821D02*
X008151Y010821D01*
X008189Y010544D02*
X006151Y010544D01*
X006220Y009852D02*
X008120Y009852D01*
X008263Y009575D02*
X006077Y009575D01*
X006272Y009436D02*
X006513Y009436D01*
X006428Y009298D02*
X006343Y009298D01*
X006360Y009159D02*
X006407Y009159D01*
X006437Y009021D02*
X006334Y009021D01*
X006250Y008882D02*
X006535Y008882D01*
X007055Y008882D02*
X008090Y008882D01*
X008316Y008744D02*
X006024Y008744D01*
X006081Y008190D02*
X004509Y008190D01*
X004647Y008051D02*
X005943Y008051D01*
X005865Y007913D02*
X004725Y007913D01*
X004725Y007774D02*
X005865Y007774D01*
X005865Y007636D02*
X004725Y007636D01*
X004605Y007497D02*
X005985Y007497D01*
X006112Y007220D02*
X004478Y007220D01*
X004617Y007082D02*
X005973Y007082D01*
X005865Y006943D02*
X004725Y006943D01*
X004725Y006805D02*
X005865Y006805D01*
X005865Y006666D02*
X004725Y006666D01*
X004636Y006528D02*
X005111Y006528D01*
X005029Y006493D02*
X004897Y006361D01*
X004825Y006188D01*
X004825Y005402D01*
X004897Y005229D01*
X005029Y005097D01*
X005202Y005025D01*
X005388Y005025D01*
X005561Y005097D01*
X005693Y005229D01*
X005765Y005402D01*
X005765Y006188D01*
X005693Y006361D01*
X005561Y006493D01*
X005388Y006565D01*
X005202Y006565D01*
X005029Y006493D01*
X004924Y006389D02*
X004666Y006389D01*
X004739Y006251D02*
X004851Y006251D01*
X004825Y006112D02*
X004765Y006112D01*
X004765Y005974D02*
X004825Y005974D01*
X004825Y005835D02*
X004765Y005835D01*
X004765Y005697D02*
X004825Y005697D01*
X004825Y005558D02*
X004765Y005558D01*
X004765Y005420D02*
X004825Y005420D01*
X004875Y005281D02*
X004715Y005281D01*
X004607Y005143D02*
X004983Y005143D01*
X005607Y005143D02*
X005983Y005143D01*
X005875Y005281D02*
X005715Y005281D01*
X005765Y005420D02*
X005825Y005420D01*
X005825Y005558D02*
X005765Y005558D01*
X005765Y005697D02*
X005825Y005697D01*
X005825Y005835D02*
X005765Y005835D01*
X005765Y005974D02*
X005825Y005974D01*
X005825Y006112D02*
X005765Y006112D01*
X005739Y006251D02*
X005851Y006251D01*
X005924Y006389D02*
X005666Y006389D01*
X005479Y006528D02*
X005954Y006528D01*
X009024Y008744D02*
X023028Y008744D01*
X023168Y008882D02*
X009250Y008882D01*
X009499Y009021D02*
X023030Y009021D01*
X022950Y009159D02*
X009638Y009159D01*
X009776Y009298D02*
X022950Y009298D01*
X022950Y009436D02*
X009915Y009436D01*
X009346Y009575D02*
X009077Y009575D01*
X008068Y009436D02*
X007077Y009436D01*
X009189Y010821D02*
X011264Y010821D01*
X011130Y011098D02*
X009360Y011098D01*
X009360Y011237D02*
X011026Y011237D01*
X010985Y011375D02*
X009311Y011375D01*
X009195Y011514D02*
X010989Y011514D01*
X011046Y011652D02*
X010575Y011652D01*
X010661Y011791D02*
X011190Y011791D01*
X011160Y012068D02*
X010654Y012068D01*
X010683Y011929D02*
X012575Y011929D01*
X012437Y011791D02*
X012150Y011791D01*
X012180Y012068D02*
X012714Y012068D01*
X012852Y012206D02*
X012557Y012206D01*
X012698Y012345D02*
X012991Y012345D01*
X013129Y012483D02*
X012837Y012483D01*
X012975Y012622D02*
X013268Y012622D01*
X013406Y012760D02*
X013114Y012760D01*
X013252Y012899D02*
X013545Y012899D01*
X013683Y013037D02*
X013391Y013037D01*
X013529Y013176D02*
X013822Y013176D01*
X013960Y013314D02*
X013668Y013314D01*
X013806Y013453D02*
X014099Y013453D01*
X014237Y013591D02*
X013945Y013591D01*
X014083Y013730D02*
X014376Y013730D01*
X014514Y013868D02*
X014222Y013868D01*
X014360Y014007D02*
X014653Y014007D01*
X014791Y014145D02*
X014499Y014145D01*
X014637Y014284D02*
X014930Y014284D01*
X015068Y014422D02*
X014776Y014422D01*
X014914Y014561D02*
X015207Y014561D01*
X015345Y014699D02*
X015053Y014699D01*
X015191Y014838D02*
X015484Y014838D01*
X015622Y014976D02*
X015330Y014976D01*
X015468Y015115D02*
X015761Y015115D01*
X015899Y015253D02*
X015607Y015253D01*
X015745Y015392D02*
X015920Y015392D01*
X015920Y015530D02*
X015884Y015530D01*
X015453Y015807D02*
X015161Y015807D01*
X015299Y015946D02*
X015545Y015946D01*
X015545Y016084D02*
X015438Y016084D01*
X015315Y015669D02*
X015022Y015669D01*
X014884Y015530D02*
X015176Y015530D01*
X015038Y015392D02*
X014745Y015392D01*
X014607Y015253D02*
X014899Y015253D01*
X014761Y015115D02*
X014468Y015115D01*
X014330Y014976D02*
X014622Y014976D01*
X014484Y014838D02*
X014191Y014838D01*
X014053Y014699D02*
X014345Y014699D01*
X014207Y014561D02*
X013914Y014561D01*
X013776Y014422D02*
X014068Y014422D01*
X013930Y014284D02*
X013637Y014284D01*
X013499Y014145D02*
X013791Y014145D01*
X013653Y014007D02*
X013360Y014007D01*
X013222Y013868D02*
X013514Y013868D01*
X013376Y013730D02*
X013083Y013730D01*
X012945Y013591D02*
X013237Y013591D01*
X013099Y013453D02*
X012806Y013453D01*
X012668Y013314D02*
X012960Y013314D01*
X012822Y013176D02*
X012483Y013176D01*
X012683Y013037D02*
X012120Y013037D01*
X012192Y012760D02*
X012406Y012760D01*
X012545Y012899D02*
X009267Y012899D01*
X010224Y012345D02*
X010985Y012345D01*
X011038Y012206D02*
X010557Y012206D01*
X009929Y011791D02*
X009137Y011791D01*
X010015Y011652D02*
X005920Y011652D01*
X005420Y011652D02*
X000640Y011652D01*
X000640Y012345D02*
X002953Y012345D01*
X002803Y012483D02*
X000640Y012483D01*
X000640Y012622D02*
X002745Y012622D01*
X002740Y012760D02*
X000640Y012760D01*
X000640Y012899D02*
X002779Y012899D01*
X002879Y013037D02*
X000640Y013037D01*
X000640Y013176D02*
X004980Y013176D01*
X005004Y013314D02*
X000640Y013314D01*
X000640Y013453D02*
X005084Y013453D01*
X005303Y013591D02*
X000640Y013591D01*
X000640Y013730D02*
X005420Y013730D01*
X005104Y013868D02*
X000640Y013868D01*
X000640Y014007D02*
X005012Y014007D01*
X004980Y014145D02*
X000640Y014145D01*
X000640Y014284D02*
X002898Y014284D01*
X002926Y014255D02*
X003084Y014190D01*
X003256Y014190D01*
X003414Y014255D01*
X003535Y014376D01*
X003600Y014534D01*
X003600Y014706D01*
X003535Y014864D01*
X003414Y014985D01*
X003256Y015050D01*
X003084Y015050D01*
X002926Y014985D01*
X002805Y014864D01*
X002740Y014706D01*
X002740Y014534D01*
X002805Y014376D01*
X002926Y014255D01*
X002787Y014422D02*
X000640Y014422D01*
X000640Y014561D02*
X002740Y014561D01*
X002740Y014699D02*
X000640Y014699D01*
X000640Y014838D02*
X002795Y014838D01*
X002918Y014976D02*
X000640Y014976D01*
X000640Y015115D02*
X004980Y015115D01*
X004980Y015084D02*
X005045Y014926D01*
X005166Y014805D01*
X005324Y014740D01*
X006016Y014740D01*
X006174Y014805D01*
X006295Y014926D01*
X006360Y015084D01*
X006360Y015256D01*
X006295Y015414D01*
X006174Y015535D01*
X006016Y015600D01*
X005324Y015600D01*
X005166Y015535D01*
X005045Y015414D01*
X004980Y015256D01*
X004980Y015084D01*
X005025Y014976D02*
X003422Y014976D01*
X003545Y014838D02*
X005134Y014838D01*
X005229Y014561D02*
X003600Y014561D01*
X003600Y014699D02*
X011087Y014699D01*
X011303Y014838D02*
X009204Y014838D01*
X009286Y014422D02*
X010374Y014422D01*
X012253Y014699D02*
X012345Y014699D01*
X012453Y015807D02*
X012110Y015807D01*
X012196Y016084D02*
X012730Y016084D01*
X012592Y015946D02*
X000640Y015946D01*
X000640Y016084D02*
X011144Y016084D01*
X011032Y016223D02*
X004456Y016223D01*
X004348Y016115D02*
X004600Y016367D01*
X004600Y016723D01*
X004348Y016975D01*
X003992Y016975D01*
X003740Y016723D01*
X003740Y016367D01*
X003992Y016115D01*
X004348Y016115D01*
X004594Y016361D02*
X005871Y016361D01*
X005992Y016240D02*
X005740Y016492D01*
X005740Y016848D01*
X005992Y017100D01*
X006348Y017100D01*
X006600Y016848D01*
X006600Y016492D01*
X006348Y016240D01*
X005992Y016240D01*
X005740Y016500D02*
X004600Y016500D01*
X004600Y016638D02*
X005740Y016638D01*
X005740Y016777D02*
X004547Y016777D01*
X004408Y016915D02*
X005807Y016915D01*
X005945Y017054D02*
X000640Y017054D01*
X000640Y017192D02*
X011044Y017192D01*
X010987Y017331D02*
X004439Y017331D01*
X004348Y017240D02*
X004600Y017492D01*
X004600Y017848D01*
X004348Y018100D01*
X003992Y018100D01*
X003740Y017848D01*
X003740Y017492D01*
X003992Y017240D01*
X004348Y017240D01*
X004577Y017469D02*
X010985Y017469D01*
X011027Y017608D02*
X004600Y017608D01*
X004600Y017746D02*
X011134Y017746D01*
X011254Y018023D02*
X004425Y018023D01*
X004564Y017885D02*
X012531Y017885D01*
X012669Y018023D02*
X012086Y018023D01*
X012274Y018162D02*
X012808Y018162D01*
X012946Y018300D02*
X012654Y018300D01*
X012792Y018439D02*
X013085Y018439D01*
X013223Y018577D02*
X012931Y018577D01*
X013069Y018716D02*
X013362Y018716D01*
X013500Y018854D02*
X013208Y018854D01*
X013346Y018993D02*
X013639Y018993D01*
X013670Y019131D02*
X013485Y019131D01*
X013623Y019270D02*
X013670Y019270D01*
X013295Y019649D02*
X012316Y018670D01*
X012282Y018670D01*
X012170Y019058D02*
X012282Y019170D01*
X012470Y019170D01*
X012562Y019208D01*
X012632Y019278D01*
X013295Y019941D01*
X013295Y019649D01*
X013295Y019685D02*
X013039Y019685D01*
X013177Y019824D02*
X013295Y019824D01*
X013193Y019547D02*
X012900Y019547D01*
X012762Y019408D02*
X013054Y019408D01*
X012916Y019270D02*
X012623Y019270D01*
X012777Y019131D02*
X012243Y019131D01*
X012170Y019058D02*
X012013Y018993D01*
X012639Y018993D01*
X012013Y018993D02*
X011327Y018993D01*
X011097Y019131D02*
X000640Y019131D01*
X000640Y018993D02*
X002634Y018993D01*
X002742Y019100D02*
X002490Y018848D01*
X002490Y018492D01*
X002742Y018240D01*
X003098Y018240D01*
X003350Y018492D01*
X003350Y018848D01*
X003098Y019100D01*
X002742Y019100D01*
X002496Y018854D02*
X000640Y018854D01*
X000640Y018716D02*
X002490Y018716D01*
X002490Y018577D02*
X000640Y018577D01*
X000640Y018439D02*
X002543Y018439D01*
X002682Y018300D02*
X000640Y018300D01*
X000640Y018162D02*
X011066Y018162D01*
X011000Y018300D02*
X004408Y018300D01*
X004547Y018439D02*
X010985Y018439D01*
X011015Y018577D02*
X004600Y018577D01*
X004600Y018716D02*
X011104Y018716D01*
X011012Y019270D02*
X000640Y019270D01*
X000640Y019408D02*
X010985Y019408D01*
X011002Y019547D02*
X000640Y019547D01*
X000640Y019685D02*
X011073Y019685D01*
X011270Y019824D02*
X000640Y019824D01*
X000640Y019962D02*
X003088Y019962D01*
X003225Y019825D02*
X002950Y020100D01*
X002950Y020490D01*
X003225Y020765D01*
X003615Y020765D01*
X003835Y020545D01*
X004005Y020545D01*
X004225Y020765D01*
X004615Y020765D01*
X004835Y020545D01*
X005005Y020545D01*
X005225Y020765D01*
X005615Y020765D01*
X005835Y020545D01*
X006005Y020545D01*
X006225Y020765D01*
X006615Y020765D01*
X006638Y020742D01*
X006920Y021024D01*
X006920Y022345D01*
X006958Y022437D01*
X007028Y022507D01*
X007295Y022774D01*
X007295Y023345D01*
X007333Y023437D01*
X007403Y023507D01*
X008528Y024632D01*
X008620Y024670D01*
X009497Y024670D01*
X009575Y024749D01*
X009718Y024808D01*
X009872Y024808D01*
X010015Y024749D01*
X010124Y024640D01*
X010183Y024497D01*
X010183Y024343D01*
X010124Y024200D01*
X010015Y024091D01*
X009872Y024032D01*
X009718Y024032D01*
X009575Y024091D01*
X009497Y024170D01*
X008774Y024170D01*
X007795Y023191D01*
X007795Y022778D01*
X007867Y022850D01*
X008223Y022850D01*
X008475Y022598D01*
X008475Y022242D01*
X008223Y021990D01*
X007867Y021990D01*
X007615Y022242D01*
X007615Y022386D01*
X007420Y022191D01*
X007420Y020870D01*
X007382Y020778D01*
X007312Y020708D01*
X006890Y020286D01*
X006890Y020100D01*
X006615Y019825D01*
X006225Y019825D01*
X006005Y020045D01*
X005835Y020045D01*
X005615Y019825D01*
X005225Y019825D01*
X005005Y020045D01*
X004835Y020045D01*
X004615Y019825D01*
X004225Y019825D01*
X004005Y020045D01*
X003835Y020045D01*
X003615Y019825D01*
X003225Y019825D01*
X002950Y020101D02*
X000640Y020101D01*
X000640Y020239D02*
X002950Y020239D01*
X002950Y020378D02*
X000640Y020378D01*
X000640Y020516D02*
X002976Y020516D01*
X003115Y020655D02*
X000640Y020655D01*
X000640Y020793D02*
X006689Y020793D01*
X006615Y020825D02*
X006890Y021100D01*
X006890Y021490D01*
X006615Y021765D01*
X006304Y021765D01*
X005920Y022149D01*
X005920Y022803D01*
X005920Y022801D01*
X006041Y022680D01*
X006199Y022615D01*
X006891Y022615D01*
X007049Y022680D01*
X007170Y022801D01*
X007235Y022959D01*
X007235Y023131D01*
X007170Y023289D01*
X007049Y023410D01*
X006891Y023475D01*
X006199Y023475D01*
X006041Y023410D01*
X005920Y023289D01*
X005920Y023287D01*
X005920Y023795D01*
X005927Y023795D01*
X006041Y023680D01*
X006199Y023615D01*
X006891Y023615D01*
X007049Y023680D01*
X007170Y023801D01*
X007235Y023959D01*
X007235Y024131D01*
X007170Y024289D01*
X007049Y024410D01*
X006891Y024475D01*
X006199Y024475D01*
X006041Y024410D01*
X005927Y024295D01*
X005745Y024295D01*
X005653Y024257D01*
X005528Y024132D01*
X005458Y024062D01*
X005420Y023970D01*
X005420Y021995D01*
X005458Y021903D01*
X005596Y021765D01*
X005304Y021765D01*
X005295Y021774D01*
X005295Y025316D01*
X005774Y025795D01*
X005927Y025795D01*
X006041Y025680D01*
X006199Y025615D01*
X006891Y025615D01*
X007049Y025680D01*
X007170Y025801D01*
X007235Y025959D01*
X007235Y026131D01*
X007170Y026289D01*
X007049Y026410D01*
X006891Y026475D01*
X006199Y026475D01*
X006041Y026410D01*
X005927Y026295D01*
X005620Y026295D01*
X005528Y026257D01*
X004903Y025632D01*
X004833Y025562D01*
X004795Y025470D01*
X004795Y025295D01*
X004163Y025295D01*
X004049Y025410D01*
X003891Y025475D01*
X003199Y025475D01*
X003041Y025410D01*
X002920Y025289D01*
X002855Y025131D01*
X002855Y024959D01*
X002920Y024801D01*
X003041Y024680D01*
X003199Y024615D01*
X003891Y024615D01*
X004049Y024680D01*
X004163Y024795D01*
X004795Y024795D01*
X004795Y021620D01*
X004820Y021560D01*
X004615Y021765D01*
X004225Y021765D01*
X003950Y021490D01*
X003950Y021100D01*
X004225Y020825D01*
X004615Y020825D01*
X004890Y021100D01*
X004890Y021471D01*
X004903Y021458D01*
X004950Y021411D01*
X004950Y021100D01*
X005225Y020825D01*
X005615Y020825D01*
X005890Y021100D01*
X005890Y021471D01*
X005950Y021411D01*
X005950Y021100D01*
X006225Y020825D01*
X006615Y020825D01*
X006721Y020932D02*
X006828Y020932D01*
X006860Y021070D02*
X006920Y021070D01*
X006920Y021209D02*
X006890Y021209D01*
X006890Y021347D02*
X006920Y021347D01*
X006920Y021486D02*
X006890Y021486D01*
X006920Y021624D02*
X006756Y021624D01*
X006617Y021763D02*
X006920Y021763D01*
X006920Y021901D02*
X006168Y021901D01*
X006029Y022040D02*
X006920Y022040D01*
X006920Y022178D02*
X005920Y022178D01*
X005920Y022317D02*
X006920Y022317D01*
X006976Y022455D02*
X005920Y022455D01*
X005920Y022594D02*
X007115Y022594D01*
X007100Y022732D02*
X007253Y022732D01*
X007295Y022871D02*
X007198Y022871D01*
X007235Y023009D02*
X007295Y023009D01*
X007295Y023148D02*
X007228Y023148D01*
X007171Y023286D02*
X007295Y023286D01*
X007328Y023425D02*
X007012Y023425D01*
X007070Y023702D02*
X007598Y023702D01*
X007736Y023840D02*
X007186Y023840D01*
X007235Y023979D02*
X007875Y023979D01*
X008013Y024117D02*
X007235Y024117D01*
X007183Y024256D02*
X008152Y024256D01*
X008290Y024394D02*
X007064Y024394D01*
X006970Y024647D02*
X007030Y024677D01*
X007085Y024717D01*
X007133Y024765D01*
X007173Y024820D01*
X007203Y024880D01*
X007224Y024944D01*
X007235Y025011D01*
X007235Y025035D01*
X006555Y025035D01*
X006555Y025055D01*
X006535Y025055D01*
X006535Y025475D01*
X006251Y025475D01*
X006184Y025464D01*
X006120Y025443D01*
X006060Y025413D01*
X006005Y025373D01*
X005957Y025325D01*
X005917Y025270D01*
X005887Y025210D01*
X005866Y025146D01*
X005855Y025079D01*
X005855Y025055D01*
X006535Y025055D01*
X006535Y025035D01*
X006555Y025035D01*
X006555Y024615D01*
X006839Y024615D01*
X006906Y024626D01*
X006970Y024647D01*
X007018Y024671D02*
X009498Y024671D01*
X009550Y024117D02*
X008721Y024117D01*
X008582Y023979D02*
X013658Y023979D01*
X013801Y024117D02*
X012229Y024117D01*
X012170Y024058D02*
X012290Y024178D01*
X012355Y024335D01*
X012355Y024505D01*
X012290Y024662D01*
X012170Y024782D01*
X012013Y024847D01*
X011327Y024847D01*
X011170Y024782D01*
X011050Y024662D01*
X010985Y024505D01*
X010985Y024335D01*
X011050Y024178D01*
X011170Y024058D01*
X011327Y023993D01*
X012013Y023993D01*
X012170Y024058D01*
X012322Y024256D02*
X013943Y024256D01*
X014086Y024394D02*
X012355Y024394D01*
X012344Y024533D02*
X014229Y024533D01*
X014371Y024671D02*
X012281Y024671D01*
X012104Y024810D02*
X014514Y024810D01*
X014656Y024948D02*
X007225Y024948D01*
X007235Y025055D02*
X007235Y025079D01*
X007224Y025146D01*
X007203Y025210D01*
X007173Y025270D01*
X007133Y025325D01*
X007085Y025373D01*
X007030Y025413D01*
X006970Y025443D01*
X006906Y025464D01*
X006839Y025475D01*
X006555Y025475D01*
X006555Y025055D01*
X007235Y025055D01*
X007234Y025087D02*
X011141Y025087D01*
X011170Y025058D02*
X011327Y024993D01*
X012013Y024993D01*
X012170Y025058D01*
X012290Y025178D01*
X012355Y025335D01*
X012355Y025505D01*
X012290Y025662D01*
X012170Y025782D01*
X012013Y025847D01*
X011327Y025847D01*
X011170Y025782D01*
X011050Y025662D01*
X010985Y025505D01*
X010985Y025335D01*
X011050Y025178D01*
X011170Y025058D01*
X011031Y025225D02*
X007196Y025225D01*
X007095Y025364D02*
X010985Y025364D01*
X010985Y025502D02*
X005481Y025502D01*
X005619Y025641D02*
X006138Y025641D01*
X005943Y025779D02*
X005758Y025779D01*
X005995Y025364D02*
X005342Y025364D01*
X005295Y025225D02*
X005894Y025225D01*
X005856Y025087D02*
X005295Y025087D01*
X005295Y024948D02*
X005865Y024948D01*
X005866Y024944D02*
X005887Y024880D01*
X005917Y024820D01*
X005957Y024765D01*
X006005Y024717D01*
X006060Y024677D01*
X006120Y024647D01*
X006184Y024626D01*
X006251Y024615D01*
X006535Y024615D01*
X006535Y025035D01*
X005855Y025035D01*
X005855Y025011D01*
X005866Y024944D01*
X005925Y024810D02*
X005295Y024810D01*
X005295Y024671D02*
X006072Y024671D01*
X006026Y024394D02*
X005295Y024394D01*
X005295Y024256D02*
X005652Y024256D01*
X005513Y024117D02*
X005295Y024117D01*
X005295Y023979D02*
X005424Y023979D01*
X005420Y023840D02*
X005295Y023840D01*
X005295Y023702D02*
X005420Y023702D01*
X005420Y023563D02*
X005295Y023563D01*
X005295Y023425D02*
X005420Y023425D01*
X005420Y023286D02*
X005295Y023286D01*
X005295Y023148D02*
X005420Y023148D01*
X005420Y023009D02*
X005295Y023009D01*
X005295Y022871D02*
X005420Y022871D01*
X005420Y022732D02*
X005295Y022732D01*
X005295Y022594D02*
X005420Y022594D01*
X005420Y022455D02*
X005295Y022455D01*
X005295Y022317D02*
X005420Y022317D01*
X005420Y022178D02*
X005295Y022178D01*
X005295Y022040D02*
X005420Y022040D01*
X005460Y021901D02*
X005295Y021901D01*
X004795Y021901D02*
X000640Y021901D01*
X000640Y021763D02*
X003223Y021763D01*
X003225Y021765D02*
X002950Y021490D01*
X002950Y021100D01*
X003225Y020825D01*
X003615Y020825D01*
X003890Y021100D01*
X003890Y021490D01*
X003615Y021765D01*
X003225Y021765D01*
X003084Y021624D02*
X000640Y021624D01*
X000640Y021486D02*
X002950Y021486D01*
X002950Y021347D02*
X000640Y021347D01*
X000640Y021209D02*
X002950Y021209D01*
X002980Y021070D02*
X000640Y021070D01*
X000640Y020932D02*
X003119Y020932D01*
X003721Y020932D02*
X004119Y020932D01*
X003980Y021070D02*
X003860Y021070D01*
X003890Y021209D02*
X003950Y021209D01*
X003950Y021347D02*
X003890Y021347D01*
X003890Y021486D02*
X003950Y021486D01*
X004084Y021624D02*
X003756Y021624D01*
X003617Y021763D02*
X004223Y021763D01*
X004617Y021763D02*
X004795Y021763D01*
X004795Y021624D02*
X004756Y021624D01*
X004890Y021347D02*
X004950Y021347D01*
X004950Y021209D02*
X004890Y021209D01*
X004860Y021070D02*
X004980Y021070D01*
X005119Y020932D02*
X004721Y020932D01*
X004725Y020655D02*
X005115Y020655D01*
X005725Y020655D02*
X006115Y020655D01*
X006119Y020932D02*
X005721Y020932D01*
X005860Y021070D02*
X005980Y021070D01*
X005950Y021209D02*
X005890Y021209D01*
X005890Y021347D02*
X005950Y021347D01*
X004795Y022040D02*
X000640Y022040D01*
X000640Y022178D02*
X004795Y022178D01*
X004795Y022317D02*
X000640Y022317D01*
X000640Y022455D02*
X004795Y022455D01*
X004795Y022594D02*
X000640Y022594D01*
X000640Y022732D02*
X002990Y022732D01*
X003041Y022680D02*
X002920Y022801D01*
X002855Y022959D01*
X002855Y023131D01*
X002920Y023289D01*
X003041Y023410D01*
X003199Y023475D01*
X003891Y023475D01*
X004049Y023410D01*
X004170Y023289D01*
X004235Y023131D01*
X004235Y022959D01*
X004170Y022801D01*
X004049Y022680D01*
X003891Y022615D01*
X003199Y022615D01*
X003041Y022680D01*
X002892Y022871D02*
X000640Y022871D01*
X000640Y023009D02*
X002855Y023009D01*
X002862Y023148D02*
X000640Y023148D01*
X000640Y023286D02*
X002919Y023286D01*
X003078Y023425D02*
X000640Y023425D01*
X000640Y023563D02*
X004795Y023563D01*
X004795Y023425D02*
X004012Y023425D01*
X004171Y023286D02*
X004795Y023286D01*
X004795Y023148D02*
X004228Y023148D01*
X004235Y023009D02*
X004795Y023009D01*
X004795Y022871D02*
X004198Y022871D01*
X004100Y022732D02*
X004795Y022732D01*
X005920Y022732D02*
X005990Y022732D01*
X005920Y023425D02*
X006078Y023425D01*
X005920Y023563D02*
X007459Y023563D01*
X007890Y023286D02*
X011005Y023286D01*
X010985Y023335D02*
X011050Y023178D01*
X011170Y023058D01*
X011327Y022993D01*
X012013Y022993D01*
X012170Y023058D01*
X012290Y023178D01*
X012355Y023335D01*
X012355Y023505D01*
X012290Y023662D01*
X012170Y023782D01*
X012013Y023847D01*
X011327Y023847D01*
X011170Y023782D01*
X011050Y023662D01*
X010985Y023505D01*
X010985Y023335D01*
X010985Y023425D02*
X008028Y023425D01*
X008167Y023563D02*
X011009Y023563D01*
X011090Y023702D02*
X008305Y023702D01*
X008444Y023840D02*
X011310Y023840D01*
X011111Y024117D02*
X010040Y024117D01*
X010147Y024256D02*
X011018Y024256D01*
X010985Y024394D02*
X010183Y024394D01*
X010168Y024533D02*
X010996Y024533D01*
X011059Y024671D02*
X010092Y024671D01*
X011236Y024810D02*
X007165Y024810D01*
X006555Y024810D02*
X006535Y024810D01*
X006535Y024948D02*
X006555Y024948D01*
X006555Y025087D02*
X006535Y025087D01*
X006535Y025225D02*
X006555Y025225D01*
X006555Y025364D02*
X006535Y025364D01*
X006952Y025641D02*
X011041Y025641D01*
X011167Y025779D02*
X007147Y025779D01*
X007218Y025918D02*
X015654Y025918D01*
X015797Y026056D02*
X012166Y026056D01*
X012170Y026058D02*
X012290Y026178D01*
X012355Y026335D01*
X012355Y026505D01*
X012290Y026662D01*
X012170Y026782D01*
X012013Y026847D01*
X011327Y026847D01*
X011170Y026782D01*
X011050Y026662D01*
X010985Y026505D01*
X010985Y026335D01*
X011050Y026178D01*
X011170Y026058D01*
X011327Y025993D01*
X012013Y025993D01*
X012170Y026058D01*
X012297Y026195D02*
X015939Y026195D01*
X016082Y026333D02*
X012354Y026333D01*
X012355Y026472D02*
X016225Y026472D01*
X016367Y026610D02*
X012311Y026610D01*
X012203Y026749D02*
X016510Y026749D01*
X016652Y026887D02*
X007205Y026887D01*
X007235Y026959D02*
X007170Y026801D01*
X007049Y026680D01*
X006891Y026615D01*
X006199Y026615D01*
X006041Y026680D01*
X005920Y026801D01*
X005855Y026959D01*
X005855Y027131D01*
X005920Y027289D01*
X006041Y027410D01*
X006199Y027475D01*
X006891Y027475D01*
X007049Y027410D01*
X007170Y027289D01*
X007235Y027131D01*
X007235Y026959D01*
X007235Y027026D02*
X011248Y027026D01*
X011170Y027058D02*
X011327Y026993D01*
X012013Y026993D01*
X012170Y027058D01*
X012290Y027178D01*
X012355Y027335D01*
X012355Y027505D01*
X012290Y027662D01*
X012170Y027782D01*
X012013Y027847D01*
X011327Y027847D01*
X011170Y027782D01*
X011050Y027662D01*
X010985Y027505D01*
X010985Y027335D01*
X011050Y027178D01*
X011170Y027058D01*
X011064Y027164D02*
X007221Y027164D01*
X007156Y027303D02*
X010998Y027303D01*
X010985Y027441D02*
X006972Y027441D01*
X006906Y027626D02*
X006970Y027647D01*
X007030Y027677D01*
X007085Y027717D01*
X007133Y027765D01*
X007173Y027820D01*
X007203Y027880D01*
X007224Y027944D01*
X007235Y028011D01*
X007235Y028035D01*
X006555Y028035D01*
X006555Y028055D01*
X006535Y028055D01*
X006535Y028475D01*
X006251Y028475D01*
X006184Y028464D01*
X006120Y028443D01*
X006060Y028413D01*
X006005Y028373D01*
X005957Y028325D01*
X005917Y028270D01*
X005887Y028210D01*
X005866Y028146D01*
X005855Y028079D01*
X005855Y028055D01*
X006535Y028055D01*
X006535Y028035D01*
X006555Y028035D01*
X006555Y027615D01*
X006839Y027615D01*
X006906Y027626D01*
X007086Y027718D02*
X011106Y027718D01*
X011016Y027580D02*
X000640Y027580D01*
X000640Y027718D02*
X003004Y027718D01*
X003041Y027680D02*
X003199Y027615D01*
X003891Y027615D01*
X004049Y027680D01*
X004170Y027801D01*
X004235Y027959D01*
X004235Y028131D01*
X004170Y028289D01*
X004049Y028410D01*
X003891Y028475D01*
X003199Y028475D01*
X003041Y028410D01*
X002920Y028289D01*
X002855Y028131D01*
X002855Y027959D01*
X002920Y027801D01*
X003041Y027680D01*
X002898Y027857D02*
X000640Y027857D01*
X000640Y027995D02*
X002855Y027995D01*
X002856Y028134D02*
X000640Y028134D01*
X000640Y028272D02*
X002914Y028272D01*
X003044Y028411D02*
X000640Y028411D01*
X000640Y028549D02*
X008115Y028549D01*
X008115Y028598D02*
X008115Y028430D01*
X008535Y028430D01*
X008535Y028850D01*
X008367Y028850D01*
X008115Y028598D01*
X008204Y028688D02*
X007045Y028688D01*
X007030Y028677D02*
X007085Y028717D01*
X007133Y028765D01*
X007173Y028820D01*
X007203Y028880D01*
X007224Y028944D01*
X007235Y029011D01*
X007235Y029035D01*
X006555Y029035D01*
X006555Y029055D01*
X006535Y029055D01*
X006535Y029475D01*
X006251Y029475D01*
X006184Y029464D01*
X006120Y029443D01*
X006060Y029413D01*
X006005Y029373D01*
X005957Y029325D01*
X005917Y029270D01*
X005887Y029210D01*
X005866Y029146D01*
X005855Y029079D01*
X005855Y029055D01*
X006535Y029055D01*
X006535Y029035D01*
X006555Y029035D01*
X006555Y028615D01*
X006839Y028615D01*
X006906Y028626D01*
X006970Y028647D01*
X007030Y028677D01*
X007176Y028826D02*
X008343Y028826D01*
X008535Y028826D02*
X008555Y028826D01*
X008555Y028850D02*
X008723Y028850D01*
X008975Y028598D01*
X008975Y028430D01*
X008555Y028430D01*
X008555Y028410D01*
X008975Y028410D01*
X008975Y028242D01*
X008723Y027990D01*
X008555Y027990D01*
X008555Y028410D01*
X008535Y028410D01*
X008535Y027990D01*
X008367Y027990D01*
X008115Y028242D01*
X008115Y028410D01*
X008535Y028410D01*
X008535Y028430D01*
X008555Y028430D01*
X008555Y028850D01*
X008555Y028688D02*
X008535Y028688D01*
X008535Y028549D02*
X008555Y028549D01*
X008555Y028411D02*
X009115Y028411D01*
X009115Y028549D02*
X008975Y028549D01*
X009115Y028598D02*
X009115Y028242D01*
X009367Y027990D01*
X009723Y027990D01*
X009975Y028242D01*
X009975Y028598D01*
X009723Y028850D01*
X009367Y028850D01*
X009115Y028598D01*
X009204Y028688D02*
X008886Y028688D01*
X008747Y028826D02*
X009343Y028826D01*
X009747Y028826D02*
X011276Y028826D01*
X011327Y028847D02*
X011170Y028782D01*
X011050Y028662D01*
X010985Y028505D01*
X010985Y028335D01*
X011050Y028178D01*
X011170Y028058D01*
X011327Y027993D01*
X012013Y027993D01*
X012170Y028058D01*
X012290Y028178D01*
X012355Y028335D01*
X012355Y028505D01*
X012290Y028662D01*
X012170Y028782D01*
X012013Y028847D01*
X011327Y028847D01*
X011327Y028993D02*
X012013Y028993D01*
X012170Y029058D01*
X012290Y029178D01*
X012355Y029335D01*
X012355Y029505D01*
X012290Y029662D01*
X012170Y029782D01*
X012013Y029847D01*
X011327Y029847D01*
X011170Y029782D01*
X011050Y029662D01*
X010985Y029505D01*
X010985Y029335D01*
X011050Y029178D01*
X011170Y029058D01*
X011327Y028993D01*
X011125Y029103D02*
X007231Y029103D01*
X007235Y029079D02*
X007224Y029146D01*
X007203Y029210D01*
X007173Y029270D01*
X007133Y029325D01*
X007085Y029373D01*
X007030Y029413D01*
X006970Y029443D01*
X006906Y029464D01*
X006839Y029475D01*
X006555Y029475D01*
X006555Y029055D01*
X007235Y029055D01*
X007235Y029079D01*
X007228Y028965D02*
X018545Y028965D01*
X018545Y029103D02*
X018215Y029103D01*
X018170Y029058D02*
X018290Y029178D01*
X018355Y029335D01*
X018355Y029505D01*
X018290Y029662D01*
X018170Y029782D01*
X018013Y029847D01*
X017327Y029847D01*
X017170Y029782D01*
X017050Y029662D01*
X016985Y029505D01*
X016985Y029335D01*
X017050Y029178D01*
X017170Y029058D01*
X017327Y028993D01*
X018013Y028993D01*
X018170Y029058D01*
X018316Y029242D02*
X018545Y029242D01*
X018545Y029380D02*
X018355Y029380D01*
X018349Y029519D02*
X018545Y029519D01*
X018545Y029657D02*
X018292Y029657D01*
X018138Y029796D02*
X018576Y029796D01*
X018706Y029934D02*
X000640Y029934D01*
X000640Y029796D02*
X011202Y029796D01*
X011048Y029657D02*
X000640Y029657D01*
X000640Y029519D02*
X010991Y029519D01*
X010985Y029380D02*
X007075Y029380D01*
X007187Y029242D02*
X011024Y029242D01*
X012064Y028826D02*
X017276Y028826D01*
X017327Y028847D02*
X017170Y028782D01*
X017050Y028662D01*
X016985Y028505D01*
X016985Y028335D01*
X017050Y028178D01*
X017170Y028058D01*
X017327Y027993D01*
X018013Y027993D01*
X018170Y028058D01*
X018290Y028178D01*
X018355Y028335D01*
X018355Y028505D01*
X018290Y028662D01*
X018170Y028782D01*
X018013Y028847D01*
X017327Y028847D01*
X017076Y028688D02*
X012264Y028688D01*
X012337Y028549D02*
X017003Y028549D01*
X016985Y028411D02*
X012355Y028411D01*
X012329Y028272D02*
X017011Y028272D01*
X017094Y028134D02*
X012246Y028134D01*
X012019Y027995D02*
X017321Y027995D01*
X017106Y027718D02*
X012234Y027718D01*
X012324Y027580D02*
X017016Y027580D01*
X016985Y027441D02*
X012355Y027441D01*
X012342Y027303D02*
X016998Y027303D01*
X016981Y027164D02*
X012276Y027164D01*
X012092Y027026D02*
X016795Y027026D01*
X016942Y026472D02*
X016985Y026472D01*
X016986Y026333D02*
X016800Y026333D01*
X016657Y026195D02*
X017043Y026195D01*
X016827Y026056D02*
X016514Y026056D01*
X016372Y025918D02*
X016689Y025918D01*
X016550Y025779D02*
X016229Y025779D01*
X016087Y025641D02*
X016412Y025641D01*
X016273Y025502D02*
X015944Y025502D01*
X015802Y025364D02*
X016135Y025364D01*
X015996Y025225D02*
X015659Y025225D01*
X015516Y025087D02*
X015858Y025087D01*
X015719Y024948D02*
X015374Y024948D01*
X015231Y024810D02*
X015581Y024810D01*
X015442Y024671D02*
X015089Y024671D01*
X014946Y024533D02*
X015304Y024533D01*
X015165Y024394D02*
X014804Y024394D01*
X014661Y024256D02*
X015027Y024256D01*
X014888Y024117D02*
X014518Y024117D01*
X014376Y023979D02*
X014750Y023979D01*
X014611Y023840D02*
X014233Y023840D01*
X014091Y023702D02*
X014473Y023702D01*
X014334Y023563D02*
X013948Y023563D01*
X013806Y023425D02*
X014196Y023425D01*
X014057Y023286D02*
X013663Y023286D01*
X013520Y023148D02*
X013919Y023148D01*
X013780Y023009D02*
X013378Y023009D01*
X013235Y022871D02*
X013642Y022871D01*
X013503Y022732D02*
X013093Y022732D01*
X012950Y022594D02*
X013365Y022594D01*
X013226Y022455D02*
X012920Y022455D01*
X012920Y022317D02*
X013088Y022317D01*
X012955Y022178D02*
X012920Y022178D01*
X012920Y022040D02*
X012920Y022040D01*
X012920Y021901D02*
X012920Y021901D01*
X012920Y021763D02*
X012920Y021763D01*
X012920Y021624D02*
X012920Y021624D01*
X012920Y021486D02*
X012920Y021486D01*
X012920Y021347D02*
X012920Y021347D01*
X012920Y021209D02*
X012920Y021209D01*
X012920Y021070D02*
X012920Y021070D01*
X012920Y020932D02*
X012920Y020932D01*
X012920Y020793D02*
X012920Y020793D01*
X012920Y020655D02*
X012920Y020655D01*
X012920Y020516D02*
X012870Y020516D01*
X012920Y020378D02*
X012731Y020378D01*
X012593Y020239D02*
X012885Y020239D01*
X012747Y020101D02*
X012213Y020101D01*
X012070Y019824D02*
X012470Y019824D01*
X012608Y019962D02*
X006752Y019962D01*
X006890Y020101D02*
X011127Y020101D01*
X011025Y020239D02*
X006890Y020239D01*
X006981Y020378D02*
X008354Y020378D01*
X008240Y020492D02*
X008492Y020240D01*
X008660Y020240D01*
X008660Y020660D01*
X008680Y020660D01*
X008680Y020680D01*
X009100Y020680D01*
X009100Y020848D01*
X008848Y021100D01*
X008680Y021100D01*
X008680Y020680D01*
X008660Y020680D01*
X008660Y021100D01*
X008492Y021100D01*
X008240Y020848D01*
X008240Y020680D01*
X008660Y020680D01*
X008660Y020660D01*
X008240Y020660D01*
X008240Y020492D01*
X008240Y020516D02*
X007120Y020516D01*
X007258Y020655D02*
X008240Y020655D01*
X008240Y020793D02*
X007388Y020793D01*
X007420Y020932D02*
X008323Y020932D01*
X008462Y021070D02*
X007420Y021070D01*
X007420Y021209D02*
X011037Y021209D01*
X011050Y021178D02*
X011170Y021058D01*
X011327Y020993D01*
X012013Y020993D01*
X012170Y021058D01*
X012290Y021178D01*
X012355Y021335D01*
X012355Y021505D01*
X012290Y021662D01*
X012170Y021782D01*
X012013Y021847D01*
X011327Y021847D01*
X011170Y021782D01*
X011050Y021662D01*
X010985Y021505D01*
X010985Y021335D01*
X011050Y021178D01*
X011158Y021070D02*
X009878Y021070D01*
X009848Y021100D02*
X009492Y021100D01*
X009240Y020848D01*
X009240Y020492D01*
X009492Y020240D01*
X009848Y020240D01*
X010100Y020492D01*
X010100Y020848D01*
X009848Y021100D01*
X010017Y020932D02*
X012420Y020932D01*
X012420Y021070D02*
X012182Y021070D01*
X012303Y021209D02*
X012420Y021209D01*
X012420Y021347D02*
X012355Y021347D01*
X012355Y021486D02*
X012420Y021486D01*
X012420Y021624D02*
X012306Y021624D01*
X012420Y021763D02*
X012189Y021763D01*
X012420Y021901D02*
X007420Y021901D01*
X007420Y021763D02*
X011151Y021763D01*
X011034Y021624D02*
X007420Y021624D01*
X007420Y021486D02*
X010985Y021486D01*
X010985Y021347D02*
X007420Y021347D01*
X008660Y021070D02*
X008680Y021070D01*
X008680Y020932D02*
X008660Y020932D01*
X008660Y020793D02*
X008680Y020793D01*
X008680Y020660D02*
X009100Y020660D01*
X009100Y020492D01*
X008848Y020240D01*
X008680Y020240D01*
X008680Y020660D01*
X008680Y020655D02*
X008660Y020655D01*
X008660Y020516D02*
X008680Y020516D01*
X008680Y020378D02*
X008660Y020378D01*
X008986Y020378D02*
X009354Y020378D01*
X009240Y020516D02*
X009100Y020516D01*
X009100Y020655D02*
X009240Y020655D01*
X009240Y020793D02*
X009100Y020793D01*
X009017Y020932D02*
X009323Y020932D01*
X009462Y021070D02*
X008878Y021070D01*
X010100Y020793D02*
X011196Y020793D01*
X011047Y020655D02*
X010100Y020655D01*
X010100Y020516D02*
X010990Y020516D01*
X010985Y020378D02*
X009986Y020378D01*
X012144Y020793D02*
X012420Y020793D01*
X012331Y019685D02*
X012267Y019685D01*
X013931Y018577D02*
X014045Y018577D01*
X014045Y018439D02*
X013792Y018439D01*
X013654Y018300D02*
X013946Y018300D01*
X013808Y018162D02*
X013515Y018162D01*
X013377Y018023D02*
X013669Y018023D01*
X013531Y017885D02*
X013238Y017885D01*
X013100Y017746D02*
X013392Y017746D01*
X013254Y017608D02*
X012961Y017608D01*
X012823Y017469D02*
X013115Y017469D01*
X012977Y017331D02*
X012684Y017331D01*
X012838Y017192D02*
X012523Y017192D01*
X012700Y017054D02*
X012160Y017054D01*
X012175Y016777D02*
X012423Y016777D01*
X012561Y016915D02*
X008533Y016915D01*
X008600Y016848D02*
X008348Y017100D01*
X008180Y017100D01*
X008180Y016680D01*
X008600Y016680D01*
X008600Y016848D01*
X008600Y016777D02*
X011165Y016777D01*
X011040Y016638D02*
X008600Y016638D01*
X008600Y016660D02*
X008180Y016660D01*
X008180Y016680D01*
X008160Y016680D01*
X008160Y017100D01*
X007992Y017100D01*
X007740Y016848D01*
X007740Y016680D01*
X008160Y016680D01*
X008160Y016660D01*
X008180Y016660D01*
X008180Y016240D01*
X008348Y016240D01*
X008600Y016492D01*
X008600Y016660D01*
X008600Y016500D02*
X010985Y016500D01*
X010985Y016361D02*
X008469Y016361D01*
X008180Y016361D02*
X008160Y016361D01*
X008160Y016240D02*
X008160Y016660D01*
X007740Y016660D01*
X007740Y016492D01*
X007992Y016240D01*
X008160Y016240D01*
X008160Y016500D02*
X008180Y016500D01*
X008180Y016638D02*
X008160Y016638D01*
X008160Y016777D02*
X008180Y016777D01*
X008180Y016915D02*
X008160Y016915D01*
X008160Y017054D02*
X008180Y017054D01*
X008395Y017054D02*
X011180Y017054D01*
X012206Y017746D02*
X012392Y017746D01*
X013407Y017054D02*
X013700Y017054D01*
X013838Y017192D02*
X013546Y017192D01*
X013684Y017331D02*
X013977Y017331D01*
X014115Y017469D02*
X013823Y017469D01*
X013961Y017608D02*
X014254Y017608D01*
X014392Y017746D02*
X014100Y017746D01*
X014238Y017885D02*
X014420Y017885D01*
X014420Y018023D02*
X014377Y018023D01*
X013561Y016915D02*
X013269Y016915D01*
X013130Y016777D02*
X013423Y016777D01*
X013284Y016638D02*
X012992Y016638D01*
X012853Y016500D02*
X013146Y016500D01*
X013007Y016361D02*
X012715Y016361D01*
X012576Y016223D02*
X012869Y016223D01*
X011230Y015807D02*
X000640Y015807D01*
X000640Y015669D02*
X011056Y015669D01*
X008174Y015530D02*
X006178Y015530D01*
X006304Y015392D02*
X008040Y015392D01*
X007988Y015253D02*
X006360Y015253D01*
X006360Y015115D02*
X007983Y015115D01*
X008026Y014976D02*
X006315Y014976D01*
X006206Y014838D02*
X008136Y014838D01*
X008229Y014561D02*
X006111Y014561D01*
X006286Y014422D02*
X008054Y014422D01*
X007992Y014284D02*
X006348Y014284D01*
X006360Y014145D02*
X007980Y014145D01*
X008012Y014007D02*
X006328Y014007D01*
X006236Y013868D02*
X008104Y013868D01*
X005054Y014422D02*
X003553Y014422D01*
X003442Y014284D02*
X004992Y014284D01*
X004980Y015253D02*
X000640Y015253D01*
X000640Y015392D02*
X005036Y015392D01*
X005162Y015530D02*
X000640Y015530D01*
X000640Y016223D02*
X002884Y016223D01*
X002992Y016115D02*
X003348Y016115D01*
X003600Y016367D01*
X003600Y016723D01*
X003348Y016975D01*
X002992Y016975D01*
X002740Y016723D01*
X002740Y016367D01*
X002992Y016115D01*
X002746Y016361D02*
X000640Y016361D01*
X000640Y016500D02*
X002740Y016500D01*
X002740Y016638D02*
X000640Y016638D01*
X000640Y016777D02*
X002793Y016777D01*
X002932Y016915D02*
X000640Y016915D01*
X000640Y017331D02*
X002651Y017331D01*
X002742Y017240D02*
X003098Y017240D01*
X003350Y017492D01*
X003350Y017848D01*
X003098Y018100D01*
X002742Y018100D01*
X002490Y017848D01*
X002490Y017492D01*
X002742Y017240D01*
X002513Y017469D02*
X000640Y017469D01*
X000640Y017608D02*
X002490Y017608D01*
X002490Y017746D02*
X000640Y017746D01*
X000640Y017885D02*
X002526Y017885D01*
X002665Y018023D02*
X000640Y018023D01*
X003158Y018300D02*
X003932Y018300D01*
X003793Y018439D02*
X003297Y018439D01*
X003350Y018577D02*
X003740Y018577D01*
X003740Y018716D02*
X003350Y018716D01*
X003344Y018854D02*
X003746Y018854D01*
X003884Y018993D02*
X003206Y018993D01*
X003175Y018023D02*
X003915Y018023D01*
X003776Y017885D02*
X003314Y017885D01*
X003350Y017746D02*
X003740Y017746D01*
X003740Y017608D02*
X003350Y017608D01*
X003327Y017469D02*
X003763Y017469D01*
X003901Y017331D02*
X003189Y017331D01*
X003408Y016915D02*
X003932Y016915D01*
X003793Y016777D02*
X003547Y016777D01*
X003600Y016638D02*
X003740Y016638D01*
X003740Y016500D02*
X003600Y016500D01*
X003594Y016361D02*
X003746Y016361D01*
X003884Y016223D02*
X003456Y016223D01*
X006469Y016361D02*
X007871Y016361D01*
X007740Y016500D02*
X006600Y016500D01*
X006600Y016638D02*
X007740Y016638D01*
X007740Y016777D02*
X006600Y016777D01*
X006533Y016915D02*
X007807Y016915D01*
X007945Y017054D02*
X006395Y017054D01*
X006088Y019962D02*
X005752Y019962D01*
X005088Y019962D02*
X004752Y019962D01*
X004088Y019962D02*
X003752Y019962D01*
X003725Y020655D02*
X004115Y020655D01*
X007420Y022040D02*
X007817Y022040D01*
X007679Y022178D02*
X007420Y022178D01*
X007545Y022317D02*
X007615Y022317D01*
X008273Y022040D02*
X009817Y022040D01*
X009867Y021990D02*
X010035Y021990D01*
X010035Y022410D01*
X010055Y022410D01*
X010055Y022430D01*
X010475Y022430D01*
X010475Y022598D01*
X010223Y022850D01*
X010055Y022850D01*
X010055Y022430D01*
X010035Y022430D01*
X010035Y022850D01*
X009867Y022850D01*
X009615Y022598D01*
X009615Y022430D01*
X010035Y022430D01*
X010035Y022410D01*
X009615Y022410D01*
X009615Y022242D01*
X009867Y021990D01*
X010035Y022040D02*
X010055Y022040D01*
X010055Y021990D02*
X010223Y021990D01*
X010475Y022242D01*
X010475Y022410D01*
X010055Y022410D01*
X010055Y021990D01*
X010055Y022178D02*
X010035Y022178D01*
X010035Y022317D02*
X010055Y022317D01*
X010055Y022455D02*
X010035Y022455D01*
X010035Y022594D02*
X010055Y022594D01*
X010055Y022732D02*
X010035Y022732D01*
X009749Y022732D02*
X008341Y022732D01*
X008475Y022594D02*
X009615Y022594D01*
X009615Y022455D02*
X008475Y022455D01*
X008475Y022317D02*
X009615Y022317D01*
X009679Y022178D02*
X008411Y022178D01*
X007795Y022871D02*
X012517Y022871D01*
X012424Y022732D02*
X012220Y022732D01*
X012206Y022746D02*
X012152Y022786D01*
X012092Y022816D01*
X012028Y022837D01*
X011961Y022847D01*
X011679Y022847D01*
X011679Y022429D01*
X011661Y022429D01*
X011661Y022847D01*
X011379Y022847D01*
X011312Y022837D01*
X011248Y022816D01*
X011188Y022786D01*
X011134Y022746D01*
X011086Y022698D01*
X011047Y022644D01*
X011016Y022584D01*
X010996Y022520D01*
X010985Y022454D01*
X010985Y022429D01*
X011661Y022429D01*
X011661Y022411D01*
X011679Y022411D01*
X011679Y022429D01*
X012355Y022429D01*
X012355Y022454D01*
X012344Y022520D01*
X012324Y022584D01*
X012293Y022644D01*
X012254Y022698D01*
X012206Y022746D01*
X012319Y022594D02*
X012420Y022594D01*
X012420Y022455D02*
X012355Y022455D01*
X012355Y022411D02*
X011679Y022411D01*
X011679Y021993D01*
X011961Y021993D01*
X012028Y022003D01*
X012092Y022024D01*
X012152Y022054D01*
X012206Y022094D01*
X012254Y022142D01*
X012293Y022196D01*
X012324Y022256D01*
X012344Y022320D01*
X012355Y022386D01*
X012355Y022411D01*
X012343Y022317D02*
X012420Y022317D01*
X012420Y022178D02*
X012280Y022178D01*
X012420Y022040D02*
X012122Y022040D01*
X011679Y022040D02*
X011661Y022040D01*
X011661Y021993D02*
X011661Y022411D01*
X010985Y022411D01*
X010985Y022386D01*
X010996Y022320D01*
X011016Y022256D01*
X011047Y022196D01*
X011086Y022142D01*
X011134Y022094D01*
X011188Y022054D01*
X011248Y022024D01*
X011312Y022003D01*
X011379Y021993D01*
X011661Y021993D01*
X011661Y022178D02*
X011679Y022178D01*
X011679Y022317D02*
X011661Y022317D01*
X011661Y022455D02*
X011679Y022455D01*
X011679Y022594D02*
X011661Y022594D01*
X011661Y022732D02*
X011679Y022732D01*
X012052Y023009D02*
X012660Y023009D01*
X012803Y023148D02*
X012260Y023148D01*
X012335Y023286D02*
X012945Y023286D01*
X013088Y023425D02*
X012355Y023425D01*
X012331Y023563D02*
X013231Y023563D01*
X013373Y023702D02*
X012250Y023702D01*
X012030Y023840D02*
X013516Y023840D01*
X011080Y023148D02*
X007795Y023148D01*
X007795Y023009D02*
X011288Y023009D01*
X011120Y022732D02*
X010341Y022732D01*
X010475Y022594D02*
X011021Y022594D01*
X010985Y022455D02*
X010475Y022455D01*
X010475Y022317D02*
X010997Y022317D01*
X011060Y022178D02*
X010411Y022178D01*
X010273Y022040D02*
X011218Y022040D01*
X006020Y023702D02*
X005920Y023702D01*
X004795Y023702D02*
X004070Y023702D01*
X004049Y023680D02*
X004170Y023801D01*
X004235Y023959D01*
X004235Y024131D01*
X004170Y024289D01*
X004049Y024410D01*
X003891Y024475D01*
X003199Y024475D01*
X003041Y024410D01*
X002920Y024289D01*
X002855Y024131D01*
X002855Y023959D01*
X002920Y023801D01*
X003041Y023680D01*
X003199Y023615D01*
X003891Y023615D01*
X004049Y023680D01*
X004186Y023840D02*
X004795Y023840D01*
X004795Y023979D02*
X004235Y023979D01*
X004235Y024117D02*
X004795Y024117D01*
X004795Y024256D02*
X004183Y024256D01*
X004064Y024394D02*
X004795Y024394D01*
X004795Y024533D02*
X000640Y024533D01*
X000640Y024671D02*
X003064Y024671D01*
X002917Y024810D02*
X000640Y024810D01*
X000640Y024948D02*
X002860Y024948D01*
X002855Y025087D02*
X000640Y025087D01*
X000640Y025225D02*
X002894Y025225D01*
X002995Y025364D02*
X000640Y025364D01*
X000640Y025502D02*
X004808Y025502D01*
X004795Y025364D02*
X004095Y025364D01*
X003970Y025647D02*
X004030Y025677D01*
X004085Y025717D01*
X004133Y025765D01*
X004173Y025820D01*
X004203Y025880D01*
X004224Y025944D01*
X004235Y026011D01*
X004235Y026035D01*
X003555Y026035D01*
X003555Y026055D01*
X003535Y026055D01*
X003535Y026475D01*
X003251Y026475D01*
X003184Y026464D01*
X003120Y026443D01*
X003060Y026413D01*
X003005Y026373D01*
X002957Y026325D01*
X002917Y026270D01*
X002887Y026210D01*
X002866Y026146D01*
X002855Y026079D01*
X002855Y026055D01*
X003535Y026055D01*
X003535Y026035D01*
X003555Y026035D01*
X003555Y025615D01*
X003839Y025615D01*
X003906Y025626D01*
X003970Y025647D01*
X003952Y025641D02*
X004912Y025641D01*
X005050Y025779D02*
X004143Y025779D01*
X004216Y025918D02*
X005189Y025918D01*
X005327Y026056D02*
X004235Y026056D01*
X004235Y026055D02*
X004235Y026079D01*
X004224Y026146D01*
X004203Y026210D01*
X004173Y026270D01*
X004133Y026325D01*
X004085Y026373D01*
X004030Y026413D01*
X003970Y026443D01*
X003906Y026464D01*
X003839Y026475D01*
X003555Y026475D01*
X003555Y026055D01*
X004235Y026055D01*
X004209Y026195D02*
X005466Y026195D01*
X005965Y026333D02*
X004125Y026333D01*
X003861Y026472D02*
X006191Y026472D01*
X005973Y026749D02*
X004117Y026749D01*
X004170Y026801D02*
X004235Y026959D01*
X004235Y027131D01*
X004170Y027289D01*
X004049Y027410D01*
X003891Y027475D01*
X003199Y027475D01*
X003041Y027410D01*
X002920Y027289D01*
X002855Y027131D01*
X002855Y026959D01*
X002920Y026801D01*
X003041Y026680D01*
X003199Y026615D01*
X003891Y026615D01*
X004049Y026680D01*
X004170Y026801D01*
X004205Y026887D02*
X005885Y026887D01*
X005855Y027026D02*
X004235Y027026D01*
X004221Y027164D02*
X005869Y027164D01*
X005934Y027303D02*
X004156Y027303D01*
X003972Y027441D02*
X006118Y027441D01*
X006184Y027626D02*
X006251Y027615D01*
X006535Y027615D01*
X006535Y028035D01*
X005855Y028035D01*
X005855Y028011D01*
X005866Y027944D01*
X005887Y027880D01*
X005917Y027820D01*
X005957Y027765D01*
X006005Y027717D01*
X006060Y027677D01*
X006120Y027647D01*
X006184Y027626D01*
X006004Y027718D02*
X004086Y027718D01*
X004192Y027857D02*
X005898Y027857D01*
X005858Y027995D02*
X004235Y027995D01*
X004234Y028134D02*
X005864Y028134D01*
X005918Y028272D02*
X004176Y028272D01*
X004046Y028411D02*
X006057Y028411D01*
X006120Y028647D02*
X006184Y028626D01*
X006251Y028615D01*
X006535Y028615D01*
X006535Y029035D01*
X005855Y029035D01*
X005855Y029011D01*
X005866Y028944D01*
X005887Y028880D01*
X005917Y028820D01*
X005957Y028765D01*
X006005Y028717D01*
X006060Y028677D01*
X006120Y028647D01*
X006045Y028688D02*
X004045Y028688D01*
X004030Y028677D02*
X004085Y028717D01*
X004133Y028765D01*
X004173Y028820D01*
X004203Y028880D01*
X004224Y028944D01*
X004235Y029011D01*
X004235Y029035D01*
X003555Y029035D01*
X003555Y029055D01*
X003535Y029055D01*
X003535Y029475D01*
X003251Y029475D01*
X003184Y029464D01*
X003120Y029443D01*
X003060Y029413D01*
X003005Y029373D01*
X002957Y029325D01*
X002917Y029270D01*
X002887Y029210D01*
X002866Y029146D01*
X002855Y029079D01*
X002855Y029055D01*
X003535Y029055D01*
X003535Y029035D01*
X003555Y029035D01*
X003555Y028615D01*
X003839Y028615D01*
X003906Y028626D01*
X003970Y028647D01*
X004030Y028677D01*
X004176Y028826D02*
X005914Y028826D01*
X005862Y028965D02*
X004228Y028965D01*
X004235Y029055D02*
X003555Y029055D01*
X003555Y029475D01*
X003839Y029475D01*
X003906Y029464D01*
X003970Y029443D01*
X004030Y029413D01*
X004085Y029373D01*
X004133Y029325D01*
X004173Y029270D01*
X004203Y029210D01*
X004224Y029146D01*
X004235Y029079D01*
X004235Y029055D01*
X004231Y029103D02*
X005859Y029103D01*
X005903Y029242D02*
X004187Y029242D01*
X004075Y029380D02*
X006015Y029380D01*
X006535Y029380D02*
X006555Y029380D01*
X006555Y029242D02*
X006535Y029242D01*
X006535Y029103D02*
X006555Y029103D01*
X006555Y028965D02*
X006535Y028965D01*
X006535Y028826D02*
X006555Y028826D01*
X006555Y028688D02*
X006535Y028688D01*
X006555Y028475D02*
X006555Y028055D01*
X007235Y028055D01*
X007235Y028079D01*
X007224Y028146D01*
X007203Y028210D01*
X007173Y028270D01*
X007133Y028325D01*
X007085Y028373D01*
X007030Y028413D01*
X006970Y028443D01*
X006906Y028464D01*
X006839Y028475D01*
X006555Y028475D01*
X006555Y028411D02*
X006535Y028411D01*
X006535Y028272D02*
X006555Y028272D01*
X006555Y028134D02*
X006535Y028134D01*
X006535Y027995D02*
X006555Y027995D01*
X006555Y027857D02*
X006535Y027857D01*
X006535Y027718D02*
X006555Y027718D01*
X007192Y027857D02*
X018503Y027857D01*
X018545Y027995D02*
X018019Y027995D01*
X018246Y028134D02*
X018545Y028134D01*
X018545Y028272D02*
X018329Y028272D01*
X018355Y028411D02*
X018545Y028411D01*
X018545Y028549D02*
X018337Y028549D01*
X018264Y028688D02*
X018545Y028688D01*
X018545Y028826D02*
X018064Y028826D01*
X017125Y029103D02*
X012215Y029103D01*
X012316Y029242D02*
X017024Y029242D01*
X016985Y029380D02*
X012355Y029380D01*
X012349Y029519D02*
X016991Y029519D01*
X017048Y029657D02*
X012292Y029657D01*
X012138Y029796D02*
X017202Y029796D01*
X019045Y029519D02*
X019160Y029519D01*
X019670Y028549D02*
X095740Y028549D01*
X095821Y028411D02*
X019670Y028411D01*
X019670Y028272D02*
X095960Y028272D01*
X096380Y028272D02*
X097045Y028272D01*
X097045Y028134D02*
X019670Y028134D01*
X019757Y027995D02*
X024016Y027995D01*
X023878Y027857D02*
X019808Y027857D01*
X018364Y027718D02*
X018234Y027718D01*
X023662Y027718D02*
X023739Y027718D01*
X024949Y027995D02*
X034016Y027995D01*
X033878Y027857D02*
X025087Y027857D01*
X025226Y027718D02*
X033178Y027718D01*
X033040Y027580D02*
X025364Y027580D01*
X023823Y028965D02*
X095856Y028965D01*
X096249Y029103D02*
X023850Y029103D01*
X023850Y029242D02*
X096295Y029242D01*
X096295Y029380D02*
X023818Y029380D01*
X023806Y030073D02*
X096295Y030073D01*
X096164Y030211D02*
X023850Y030211D01*
X023850Y030350D02*
X096097Y030350D01*
X096075Y030488D02*
X023835Y030488D01*
X032248Y032810D02*
X032163Y033129D01*
X032163Y033461D01*
X032248Y033780D01*
X032414Y034067D01*
X032648Y034301D01*
X032935Y034467D01*
X033254Y034552D01*
X033586Y034552D01*
X033905Y034467D01*
X034192Y034301D01*
X034426Y034067D01*
X034592Y033780D01*
X034677Y033461D01*
X034677Y033129D01*
X034592Y032810D01*
X034426Y032523D01*
X034192Y032289D01*
X033905Y032123D01*
X033586Y032038D01*
X033254Y032038D01*
X032935Y032123D01*
X032648Y032289D01*
X032414Y032523D01*
X032248Y032810D01*
X032239Y032843D02*
X014101Y032843D01*
X014138Y032981D02*
X032202Y032981D01*
X032165Y033120D02*
X014175Y033120D01*
X014177Y033258D02*
X032163Y033258D01*
X032163Y033397D02*
X014177Y033397D01*
X014157Y033535D02*
X032183Y033535D01*
X032220Y033674D02*
X014120Y033674D01*
X014073Y033812D02*
X032267Y033812D01*
X032347Y033951D02*
X013993Y033951D01*
X013904Y034089D02*
X032436Y034089D01*
X032574Y034228D02*
X013766Y034228D01*
X013580Y034366D02*
X032760Y034366D01*
X033076Y034505D02*
X013264Y034505D01*
X014031Y032704D02*
X032309Y032704D01*
X032389Y032566D02*
X013951Y032566D01*
X013830Y032427D02*
X032510Y032427D01*
X032648Y032289D02*
X013692Y032289D01*
X013452Y032150D02*
X032888Y032150D01*
X033952Y032150D02*
X053388Y032150D01*
X053435Y032123D02*
X053754Y032038D01*
X054086Y032038D01*
X054405Y032123D01*
X054692Y032289D01*
X054926Y032523D01*
X055092Y032810D01*
X055177Y033129D01*
X055177Y033461D01*
X055092Y033780D01*
X054926Y034067D01*
X054692Y034301D01*
X054405Y034467D01*
X054086Y034552D01*
X053754Y034552D01*
X053435Y034467D01*
X053148Y034301D01*
X052914Y034067D01*
X052748Y033780D01*
X052663Y033461D01*
X052663Y033129D01*
X052748Y032810D01*
X052914Y032523D01*
X053148Y032289D01*
X053435Y032123D01*
X053148Y032289D02*
X034192Y032289D01*
X034330Y032427D02*
X053010Y032427D01*
X052889Y032566D02*
X034451Y032566D01*
X034531Y032704D02*
X052809Y032704D01*
X052739Y032843D02*
X034601Y032843D01*
X034638Y032981D02*
X052702Y032981D01*
X052665Y033120D02*
X034675Y033120D01*
X034677Y033258D02*
X052663Y033258D01*
X052663Y033397D02*
X034677Y033397D01*
X034657Y033535D02*
X052683Y033535D01*
X052720Y033674D02*
X034620Y033674D01*
X034573Y033812D02*
X052767Y033812D01*
X052847Y033951D02*
X034493Y033951D01*
X034404Y034089D02*
X052936Y034089D01*
X053074Y034228D02*
X034266Y034228D01*
X034080Y034366D02*
X053260Y034366D01*
X053576Y034505D02*
X033764Y034505D01*
X034824Y027995D02*
X044016Y027995D01*
X043878Y027857D02*
X034962Y027857D01*
X034882Y027937D02*
X034882Y027937D01*
X035101Y027718D02*
X043178Y027718D01*
X043040Y027580D02*
X035239Y027580D01*
X033739Y027718D02*
X033662Y027718D01*
X043662Y027718D02*
X043739Y027718D01*
X044824Y027995D02*
X054016Y027995D01*
X053878Y027857D02*
X044962Y027857D01*
X045101Y027718D02*
X053178Y027718D01*
X053040Y027580D02*
X045239Y027580D01*
X053662Y027718D02*
X053739Y027718D01*
X054824Y027995D02*
X064016Y027995D01*
X063878Y027857D02*
X054962Y027857D01*
X055101Y027718D02*
X063178Y027718D01*
X063040Y027580D02*
X055239Y027580D01*
X063662Y027718D02*
X063739Y027718D01*
X064824Y027995D02*
X074016Y027995D01*
X073878Y027857D02*
X064962Y027857D01*
X065101Y027718D02*
X073178Y027718D01*
X073040Y027580D02*
X065239Y027580D01*
X073662Y027718D02*
X073739Y027718D01*
X074824Y027995D02*
X084016Y027995D01*
X083878Y027857D02*
X074962Y027857D01*
X075101Y027718D02*
X083178Y027718D01*
X083040Y027580D02*
X075239Y027580D01*
X083662Y027718D02*
X083739Y027718D01*
X084824Y027995D02*
X097045Y027995D01*
X097045Y027857D02*
X084962Y027857D01*
X085101Y027718D02*
X093178Y027718D01*
X093040Y027580D02*
X085239Y027580D01*
X093662Y027718D02*
X094178Y027718D01*
X094040Y027580D02*
X093800Y027580D01*
X093890Y027441D02*
X093950Y027441D01*
X094662Y027718D02*
X097045Y027718D01*
X097045Y027580D02*
X094800Y027580D01*
X094890Y027441D02*
X097045Y027441D01*
X097045Y027303D02*
X094890Y027303D01*
X094890Y027164D02*
X097045Y027164D01*
X097045Y027026D02*
X094815Y027026D01*
X094677Y026887D02*
X097045Y026887D01*
X097045Y026749D02*
X094631Y026749D01*
X094770Y026610D02*
X097045Y026610D01*
X097045Y026472D02*
X094890Y026472D01*
X094890Y026333D02*
X097045Y026333D01*
X097045Y026195D02*
X094890Y026195D01*
X094846Y026056D02*
X096948Y026056D01*
X096865Y025918D02*
X094707Y025918D01*
X094739Y025641D02*
X096865Y025641D01*
X096865Y025779D02*
X094008Y025779D01*
X094101Y025641D02*
X093869Y025641D01*
X093878Y025502D02*
X093962Y025502D01*
X094878Y025502D02*
X096980Y025502D01*
X097045Y025364D02*
X094890Y025364D01*
X094890Y025225D02*
X097045Y025225D01*
X097045Y025087D02*
X096362Y025087D01*
X096348Y025100D02*
X095992Y025100D01*
X095740Y024848D01*
X095740Y024492D01*
X095992Y024240D01*
X096348Y024240D01*
X096600Y024492D01*
X096600Y024848D01*
X096348Y025100D01*
X096500Y024948D02*
X097045Y024948D01*
X097045Y024810D02*
X096600Y024810D01*
X096600Y024671D02*
X097045Y024671D01*
X097045Y024533D02*
X096600Y024533D01*
X096502Y024394D02*
X097045Y024394D01*
X097106Y024256D02*
X096364Y024256D01*
X095976Y024256D02*
X094890Y024256D01*
X094890Y024394D02*
X095838Y024394D01*
X095740Y024533D02*
X094847Y024533D01*
X094709Y024671D02*
X095740Y024671D01*
X095740Y024810D02*
X094038Y024810D01*
X094131Y024671D02*
X093900Y024671D01*
X093847Y024533D02*
X093993Y024533D01*
X093915Y024394D02*
X093890Y024394D01*
X094069Y023840D02*
X094210Y023840D01*
X094162Y023702D02*
X093930Y023702D01*
X094023Y023563D02*
X093817Y023563D01*
X093890Y023425D02*
X093946Y023425D01*
X094678Y023702D02*
X097660Y023702D01*
X097521Y023840D02*
X094630Y023840D01*
X094768Y023979D02*
X097383Y023979D01*
X097244Y024117D02*
X094890Y024117D01*
X094817Y023563D02*
X097798Y023563D01*
X097937Y023425D02*
X094890Y023425D01*
X094890Y023286D02*
X098075Y023286D01*
X098214Y023148D02*
X094890Y023148D01*
X094799Y023009D02*
X098352Y023009D01*
X098491Y022871D02*
X094660Y022871D01*
X094648Y022732D02*
X098629Y022732D01*
X098768Y022594D02*
X094786Y022594D01*
X094890Y022455D02*
X098906Y022455D01*
X099045Y022317D02*
X094890Y022317D01*
X094890Y022178D02*
X098095Y022178D01*
X097928Y022040D02*
X094829Y022040D01*
X094691Y021901D02*
X097869Y021901D01*
X097860Y021763D02*
X094617Y021763D01*
X094756Y021624D02*
X097896Y021624D01*
X097992Y021486D02*
X094890Y021486D01*
X094890Y021347D02*
X099295Y021347D01*
X099295Y021209D02*
X098921Y021209D01*
X099098Y021486D02*
X099251Y021486D01*
X098169Y021209D02*
X094890Y021209D01*
X094860Y021070D02*
X097958Y021070D01*
X098995Y022178D02*
X099183Y022178D01*
X094223Y021763D02*
X093991Y021763D01*
X094084Y021624D02*
X093853Y021624D01*
X093890Y021486D02*
X093950Y021486D01*
X094130Y021901D02*
X094149Y021901D01*
X093950Y022455D02*
X093890Y022455D01*
X093822Y022594D02*
X094054Y022594D01*
X093961Y022732D02*
X094192Y022732D01*
X094180Y022871D02*
X094099Y022871D01*
X097675Y024394D02*
X099115Y024394D01*
X099115Y024473D02*
X099115Y024117D01*
X097952Y024117D01*
X098090Y023979D02*
X099253Y023979D01*
X099367Y023865D02*
X099723Y023865D01*
X099975Y024117D01*
X101115Y024117D01*
X101367Y023865D01*
X101535Y023865D01*
X101535Y024285D01*
X101555Y024285D01*
X101555Y023865D01*
X101723Y023865D01*
X101555Y023979D02*
X101535Y023979D01*
X101535Y024117D02*
X101555Y024117D01*
X101555Y024256D02*
X101535Y024256D01*
X101535Y024285D02*
X101115Y024285D01*
X101115Y024117D01*
X101115Y024256D02*
X099975Y024256D01*
X099975Y024394D02*
X101115Y024394D01*
X101174Y024533D02*
X099916Y024533D01*
X099975Y024473D02*
X099723Y024725D01*
X099367Y024725D01*
X099115Y024473D01*
X099174Y024533D02*
X097545Y024533D01*
X097545Y024671D02*
X099313Y024671D01*
X099115Y024256D02*
X097813Y024256D01*
X099115Y024117D02*
X099367Y023865D01*
X099837Y023979D02*
X101253Y023979D01*
X101535Y024285D02*
X101535Y024305D01*
X101313Y024671D02*
X099777Y024671D01*
X099975Y024473D02*
X099975Y024117D01*
X100865Y025641D02*
X097725Y025641D01*
X097725Y025779D02*
X100865Y025779D01*
X100865Y025918D02*
X097725Y025918D01*
X097642Y026056D02*
X100948Y026056D01*
X095978Y025087D02*
X094876Y025087D01*
X094738Y024948D02*
X095840Y024948D01*
X093950Y026472D02*
X093890Y026472D01*
X093839Y026610D02*
X094070Y026610D01*
X093977Y026749D02*
X094209Y026749D01*
X094163Y026887D02*
X094116Y026887D01*
X096519Y028411D02*
X097045Y028411D01*
X097045Y028549D02*
X096600Y028549D01*
X096600Y028688D02*
X097045Y028688D01*
X097097Y028826D02*
X096680Y028826D01*
X096782Y028965D02*
X097236Y028965D01*
X097153Y028882D02*
X097153Y028882D01*
X097295Y029103D02*
X096795Y029103D01*
X096795Y029242D02*
X097295Y029242D01*
X097295Y029380D02*
X096795Y029380D01*
X096795Y029519D02*
X097295Y029519D01*
X097295Y029657D02*
X096795Y029657D01*
X096795Y029796D02*
X097295Y029796D01*
X097295Y029934D02*
X096795Y029934D01*
X096795Y030073D02*
X097295Y030073D01*
X097164Y030211D02*
X096926Y030211D01*
X096993Y030350D02*
X097097Y030350D01*
X097075Y030488D02*
X097015Y030488D01*
X097015Y030627D02*
X097075Y030627D01*
X097075Y030765D02*
X097015Y030765D01*
X098015Y030765D02*
X100750Y030765D01*
X100551Y030627D02*
X098015Y030627D01*
X098015Y030488D02*
X100463Y030488D01*
X100420Y030350D02*
X097993Y030350D01*
X097926Y030211D02*
X100420Y030211D01*
X100463Y030073D02*
X097795Y030073D01*
X097795Y029934D02*
X100549Y029934D01*
X100745Y029796D02*
X097795Y029796D01*
X093388Y032150D02*
X074452Y032150D01*
X074405Y032123D02*
X074692Y032289D01*
X074926Y032523D01*
X075092Y032810D01*
X075177Y033129D01*
X075177Y033461D01*
X075092Y033780D01*
X074926Y034067D01*
X074692Y034301D01*
X074405Y034467D01*
X074086Y034552D01*
X073754Y034552D01*
X073435Y034467D01*
X073148Y034301D01*
X072914Y034067D01*
X072748Y033780D01*
X072663Y033461D01*
X072663Y033129D01*
X072748Y032810D01*
X072914Y032523D01*
X073148Y032289D01*
X073435Y032123D01*
X073754Y032038D01*
X074086Y032038D01*
X074405Y032123D01*
X074692Y032289D02*
X093148Y032289D01*
X093010Y032427D02*
X074830Y032427D01*
X074951Y032566D02*
X092889Y032566D01*
X092809Y032704D02*
X075031Y032704D01*
X075101Y032843D02*
X092739Y032843D01*
X092702Y032981D02*
X075138Y032981D01*
X075175Y033120D02*
X092665Y033120D01*
X092663Y033258D02*
X075177Y033258D01*
X075177Y033397D02*
X092663Y033397D01*
X092683Y033535D02*
X075157Y033535D01*
X075120Y033674D02*
X092720Y033674D01*
X092767Y033812D02*
X075073Y033812D01*
X074993Y033951D02*
X092847Y033951D01*
X092936Y034089D02*
X074904Y034089D01*
X074766Y034228D02*
X093074Y034228D01*
X093260Y034366D02*
X074580Y034366D01*
X074264Y034505D02*
X093576Y034505D01*
X073576Y034505D02*
X054264Y034505D01*
X054580Y034366D02*
X073260Y034366D01*
X073074Y034228D02*
X054766Y034228D01*
X054904Y034089D02*
X072936Y034089D01*
X072847Y033951D02*
X054993Y033951D01*
X055073Y033812D02*
X072767Y033812D01*
X072720Y033674D02*
X055120Y033674D01*
X055157Y033535D02*
X072683Y033535D01*
X072663Y033397D02*
X055177Y033397D01*
X055177Y033258D02*
X072663Y033258D01*
X072665Y033120D02*
X055175Y033120D01*
X055138Y032981D02*
X072702Y032981D01*
X072739Y032843D02*
X055101Y032843D01*
X055031Y032704D02*
X072809Y032704D01*
X072889Y032566D02*
X054951Y032566D01*
X054830Y032427D02*
X073010Y032427D01*
X073148Y032289D02*
X054692Y032289D01*
X054452Y032150D02*
X073388Y032150D01*
X101961Y017192D02*
X105195Y017192D01*
X105195Y017054D02*
X102148Y017054D01*
X102215Y016915D02*
X105195Y016915D01*
X105195Y016777D02*
X102230Y016777D01*
X102200Y016638D02*
X105195Y016638D01*
X105195Y016500D02*
X102112Y016500D01*
X102118Y016084D02*
X105195Y016084D01*
X105195Y015946D02*
X102203Y015946D01*
X102230Y015807D02*
X105195Y015807D01*
X105195Y015669D02*
X102213Y015669D01*
X102142Y015530D02*
X105195Y015530D01*
X105195Y015392D02*
X101945Y015392D01*
X102088Y015115D02*
X105195Y015115D01*
X105195Y015253D02*
X094890Y015253D01*
X094890Y015115D02*
X098002Y015115D01*
X098145Y015392D02*
X094890Y015392D01*
X094850Y015530D02*
X097948Y015530D01*
X098071Y014422D02*
X094890Y014422D01*
X100613Y012206D02*
X101163Y012206D01*
X100955Y012068D02*
X100751Y012068D01*
X101927Y012206D02*
X102170Y012206D01*
X102170Y012068D02*
X102135Y012068D01*
X102065Y013453D02*
X102534Y013453D01*
X102883Y014561D02*
X105195Y014561D01*
X105195Y014699D02*
X102745Y014699D01*
X102606Y014838D02*
X105195Y014838D01*
X105195Y014976D02*
X102468Y014976D01*
X074405Y003467D02*
X074086Y003552D01*
X073754Y003552D01*
X073435Y003467D01*
X073148Y003301D01*
X072914Y003067D01*
X072748Y002780D01*
X072663Y002461D01*
X072663Y002129D01*
X072748Y001810D01*
X072914Y001523D01*
X073148Y001289D01*
X073435Y001123D01*
X073754Y001038D01*
X074086Y001038D01*
X074405Y001123D01*
X074692Y001289D01*
X074926Y001523D01*
X075092Y001810D01*
X075177Y002129D01*
X075177Y002461D01*
X075092Y002780D01*
X074926Y003067D01*
X074692Y003301D01*
X074405Y003467D01*
X074354Y003481D02*
X093486Y003481D01*
X093219Y003342D02*
X074621Y003342D01*
X074790Y003204D02*
X093050Y003204D01*
X092913Y003065D02*
X074927Y003065D01*
X075007Y002927D02*
X092833Y002927D01*
X092753Y002788D02*
X075087Y002788D01*
X075127Y002650D02*
X092713Y002650D01*
X092676Y002511D02*
X075164Y002511D01*
X075177Y002373D02*
X092663Y002373D01*
X092663Y002234D02*
X075177Y002234D01*
X075168Y002096D02*
X092672Y002096D01*
X092709Y001957D02*
X075131Y001957D01*
X075094Y001819D02*
X092746Y001819D01*
X092823Y001680D02*
X075017Y001680D01*
X074937Y001542D02*
X092903Y001542D01*
X093034Y001403D02*
X074806Y001403D01*
X074650Y001265D02*
X093190Y001265D01*
X093430Y001126D02*
X074410Y001126D01*
X073430Y001126D02*
X054410Y001126D01*
X054405Y001123D02*
X054692Y001289D01*
X054926Y001523D01*
X055092Y001810D01*
X055177Y002129D01*
X055177Y002461D01*
X055092Y002780D01*
X054926Y003067D01*
X054692Y003301D01*
X054405Y003467D01*
X054086Y003552D01*
X053754Y003552D01*
X053435Y003467D01*
X053148Y003301D01*
X052914Y003067D01*
X052748Y002780D01*
X052663Y002461D01*
X052663Y002129D01*
X052748Y001810D01*
X052914Y001523D01*
X053148Y001289D01*
X053435Y001123D01*
X053754Y001038D01*
X054086Y001038D01*
X054405Y001123D01*
X054650Y001265D02*
X073190Y001265D01*
X073034Y001403D02*
X054806Y001403D01*
X054937Y001542D02*
X072903Y001542D01*
X072823Y001680D02*
X055017Y001680D01*
X055094Y001819D02*
X072746Y001819D01*
X072709Y001957D02*
X055131Y001957D01*
X055168Y002096D02*
X072672Y002096D01*
X072663Y002234D02*
X055177Y002234D01*
X055177Y002373D02*
X072663Y002373D01*
X072676Y002511D02*
X055164Y002511D01*
X055127Y002650D02*
X072713Y002650D01*
X072753Y002788D02*
X055087Y002788D01*
X055007Y002927D02*
X072833Y002927D01*
X072913Y003065D02*
X054927Y003065D01*
X054790Y003204D02*
X073050Y003204D01*
X073219Y003342D02*
X054621Y003342D01*
X054354Y003481D02*
X073486Y003481D01*
X053486Y003481D02*
X033854Y003481D01*
X033905Y003467D02*
X033586Y003552D01*
X033254Y003552D01*
X032935Y003467D01*
X032648Y003301D01*
X032414Y003067D01*
X032248Y002780D01*
X032163Y002461D01*
X032163Y002129D01*
X032248Y001810D01*
X032414Y001523D01*
X032648Y001289D01*
X032935Y001123D01*
X033254Y001038D01*
X033586Y001038D01*
X033905Y001123D01*
X034192Y001289D01*
X034426Y001523D01*
X034592Y001810D01*
X034677Y002129D01*
X034677Y002461D01*
X034592Y002780D01*
X034426Y003067D01*
X034192Y003301D01*
X033905Y003467D01*
X034121Y003342D02*
X053219Y003342D01*
X053050Y003204D02*
X034290Y003204D01*
X034427Y003065D02*
X052913Y003065D01*
X052833Y002927D02*
X034507Y002927D01*
X034587Y002788D02*
X052753Y002788D01*
X052713Y002650D02*
X034627Y002650D01*
X034664Y002511D02*
X052676Y002511D01*
X052663Y002373D02*
X034677Y002373D01*
X034677Y002234D02*
X052663Y002234D01*
X052672Y002096D02*
X034668Y002096D01*
X034631Y001957D02*
X052709Y001957D01*
X052746Y001819D02*
X034594Y001819D01*
X034517Y001680D02*
X052823Y001680D01*
X052903Y001542D02*
X034437Y001542D01*
X034306Y001403D02*
X053034Y001403D01*
X053190Y001265D02*
X034150Y001265D01*
X033910Y001126D02*
X053430Y001126D01*
X032930Y001126D02*
X013410Y001126D01*
X013650Y001265D02*
X032690Y001265D01*
X032534Y001403D02*
X013806Y001403D01*
X013937Y001542D02*
X032403Y001542D01*
X032323Y001680D02*
X014017Y001680D01*
X014094Y001819D02*
X032246Y001819D01*
X032209Y001957D02*
X014131Y001957D01*
X014168Y002096D02*
X032172Y002096D01*
X032163Y002234D02*
X014177Y002234D01*
X014177Y002373D02*
X032163Y002373D01*
X032176Y002511D02*
X014164Y002511D01*
X014127Y002650D02*
X032213Y002650D01*
X032253Y002788D02*
X014087Y002788D01*
X014007Y002927D02*
X032333Y002927D01*
X032413Y003065D02*
X013927Y003065D01*
X013790Y003204D02*
X032550Y003204D01*
X032719Y003342D02*
X013621Y003342D01*
X013354Y003481D02*
X032986Y003481D01*
X032962Y007913D02*
X024702Y007913D01*
X024615Y007825D02*
X024890Y008100D01*
X024890Y008265D01*
X024450Y008265D01*
X024450Y008325D01*
X024390Y008325D01*
X024390Y008765D01*
X024225Y008765D01*
X023950Y008490D01*
X023950Y008325D01*
X024390Y008325D01*
X024390Y008265D01*
X023950Y008265D01*
X023950Y008100D01*
X024225Y007825D01*
X024390Y007825D01*
X024390Y008265D01*
X024450Y008265D01*
X024450Y007825D01*
X024615Y007825D01*
X024450Y007913D02*
X024390Y007913D01*
X024390Y008051D02*
X024450Y008051D01*
X024450Y008190D02*
X024390Y008190D01*
X024390Y008328D02*
X024450Y008328D01*
X024450Y008325D02*
X024450Y008765D01*
X024615Y008765D01*
X024890Y008490D01*
X024890Y008325D01*
X024450Y008325D01*
X024450Y008467D02*
X024390Y008467D01*
X024390Y008605D02*
X024450Y008605D01*
X024450Y008744D02*
X024390Y008744D01*
X024390Y008882D02*
X024450Y008882D01*
X024450Y009021D02*
X024390Y009021D01*
X024390Y009159D02*
X024450Y009159D01*
X024672Y008882D02*
X033168Y008882D01*
X033030Y009021D02*
X024810Y009021D01*
X024890Y009159D02*
X024952Y009159D01*
X024636Y008744D02*
X033028Y008744D01*
X032950Y008605D02*
X024775Y008605D01*
X024890Y008467D02*
X032950Y008467D01*
X032950Y008328D02*
X024890Y008328D01*
X024890Y008190D02*
X032950Y008190D01*
X032950Y008051D02*
X024841Y008051D01*
X024138Y007913D02*
X023878Y007913D01*
X023890Y008051D02*
X023999Y008051D01*
X023950Y008190D02*
X023890Y008190D01*
X023890Y008328D02*
X023950Y008328D01*
X023950Y008467D02*
X023890Y008467D01*
X023890Y008605D02*
X024065Y008605D01*
X024204Y008744D02*
X023812Y008744D01*
X023672Y008882D02*
X024168Y008882D01*
X024030Y009021D02*
X023810Y009021D01*
X023890Y009159D02*
X023950Y009159D01*
X013991Y012345D02*
X013698Y012345D01*
X013837Y012483D02*
X014129Y012483D01*
X014268Y012622D02*
X013975Y012622D01*
X014114Y012760D02*
X014406Y012760D01*
X014545Y012899D02*
X014252Y012899D01*
X014391Y013037D02*
X014683Y013037D01*
X014822Y013176D02*
X014529Y013176D01*
X014668Y013314D02*
X014960Y013314D01*
X015099Y013453D02*
X014806Y013453D01*
X014945Y013591D02*
X015237Y013591D01*
X015376Y013730D02*
X015083Y013730D01*
X015222Y013868D02*
X015514Y013868D01*
X015653Y014007D02*
X015360Y014007D01*
X015499Y014145D02*
X015791Y014145D01*
X015930Y014284D02*
X015637Y014284D01*
X015776Y014422D02*
X016068Y014422D01*
X016207Y014561D02*
X015914Y014561D01*
X016053Y014699D02*
X016295Y014699D01*
X016295Y014838D02*
X016191Y014838D01*
X013852Y012206D02*
X013560Y012206D01*
X013421Y012068D02*
X013714Y012068D01*
X013575Y011929D02*
X013283Y011929D01*
X013144Y011791D02*
X013437Y011791D01*
X013298Y011652D02*
X013006Y011652D01*
X012867Y011514D02*
X013160Y011514D01*
X013021Y011375D02*
X012729Y011375D01*
X012590Y011237D02*
X012883Y011237D01*
X012744Y011098D02*
X012210Y011098D01*
X012076Y010821D02*
X012467Y010821D01*
X012329Y010683D02*
X012270Y010683D01*
X012606Y010960D02*
X009308Y010960D01*
X005073Y012899D02*
X003561Y012899D01*
X003461Y013037D02*
X005000Y013037D01*
X034890Y009159D02*
X034952Y009159D01*
X003020Y023702D02*
X000640Y023702D01*
X000640Y023840D02*
X002904Y023840D01*
X002855Y023979D02*
X000640Y023979D01*
X000640Y024117D02*
X002855Y024117D01*
X002907Y024256D02*
X000640Y024256D01*
X000640Y024394D02*
X003026Y024394D01*
X004026Y024671D02*
X004795Y024671D01*
X005295Y024533D02*
X008429Y024533D01*
X006555Y024671D02*
X006535Y024671D01*
X003555Y025641D02*
X003535Y025641D01*
X003535Y025615D02*
X003535Y026035D01*
X002855Y026035D01*
X002855Y026011D01*
X002866Y025944D01*
X002887Y025880D01*
X002917Y025820D01*
X002957Y025765D01*
X003005Y025717D01*
X003060Y025677D01*
X003120Y025647D01*
X003184Y025626D01*
X003251Y025615D01*
X003535Y025615D01*
X003535Y025779D02*
X003555Y025779D01*
X003555Y025918D02*
X003535Y025918D01*
X003535Y026056D02*
X003555Y026056D01*
X003555Y026195D02*
X003535Y026195D01*
X003535Y026333D02*
X003555Y026333D01*
X003555Y026472D02*
X003535Y026472D01*
X003229Y026472D02*
X000640Y026472D01*
X000640Y026610D02*
X008127Y026610D01*
X008115Y026598D02*
X008367Y026850D01*
X008535Y026850D01*
X008535Y026430D01*
X008555Y026430D01*
X008975Y026430D01*
X008975Y026598D01*
X008723Y026850D01*
X008555Y026850D01*
X008555Y026430D01*
X008555Y026410D01*
X008975Y026410D01*
X008975Y026242D01*
X008723Y025990D01*
X008555Y025990D01*
X008555Y026410D01*
X008535Y026410D01*
X008535Y025990D01*
X008367Y025990D01*
X008115Y026242D01*
X008115Y026410D01*
X008535Y026410D01*
X008535Y026430D01*
X008115Y026430D01*
X008115Y026598D01*
X008115Y026472D02*
X006899Y026472D01*
X007125Y026333D02*
X008115Y026333D01*
X008162Y026195D02*
X007208Y026195D01*
X007235Y026056D02*
X008301Y026056D01*
X008535Y026056D02*
X008555Y026056D01*
X008555Y026195D02*
X008535Y026195D01*
X008535Y026333D02*
X008555Y026333D01*
X008555Y026472D02*
X008535Y026472D01*
X008535Y026610D02*
X008555Y026610D01*
X008555Y026749D02*
X008535Y026749D01*
X008265Y026749D02*
X007117Y026749D01*
X008825Y026749D02*
X009265Y026749D01*
X009367Y026850D02*
X009115Y026598D01*
X009115Y026242D01*
X009367Y025990D01*
X009723Y025990D01*
X009975Y026242D01*
X009975Y026598D01*
X009723Y026850D01*
X009367Y026850D01*
X009127Y026610D02*
X008963Y026610D01*
X008975Y026472D02*
X009115Y026472D01*
X009115Y026333D02*
X008975Y026333D01*
X008928Y026195D02*
X009162Y026195D01*
X009301Y026056D02*
X008789Y026056D01*
X009789Y026056D02*
X011174Y026056D01*
X011043Y026195D02*
X009928Y026195D01*
X009975Y026333D02*
X010986Y026333D01*
X010985Y026472D02*
X009975Y026472D01*
X009963Y026610D02*
X011029Y026610D01*
X011137Y026749D02*
X009825Y026749D01*
X009728Y027995D02*
X011321Y027995D01*
X011094Y028134D02*
X009867Y028134D01*
X009975Y028272D02*
X011011Y028272D01*
X010985Y028411D02*
X009975Y028411D01*
X009975Y028549D02*
X011003Y028549D01*
X011076Y028688D02*
X009886Y028688D01*
X009223Y028134D02*
X008867Y028134D01*
X008975Y028272D02*
X009115Y028272D01*
X009362Y027995D02*
X008728Y027995D01*
X008555Y027995D02*
X008535Y027995D01*
X008535Y028134D02*
X008555Y028134D01*
X008555Y028272D02*
X008535Y028272D01*
X008535Y028411D02*
X007033Y028411D01*
X007172Y028272D02*
X008115Y028272D01*
X008223Y028134D02*
X007226Y028134D01*
X007232Y027995D02*
X008362Y027995D01*
X003555Y028688D02*
X003535Y028688D01*
X003535Y028615D02*
X003535Y029035D01*
X002855Y029035D01*
X002855Y029011D01*
X002866Y028944D01*
X002887Y028880D01*
X002917Y028820D01*
X002957Y028765D01*
X003005Y028717D01*
X003060Y028677D01*
X003120Y028647D01*
X003184Y028626D01*
X003251Y028615D01*
X003535Y028615D01*
X003535Y028826D02*
X003555Y028826D01*
X003555Y028965D02*
X003535Y028965D01*
X003535Y029103D02*
X003555Y029103D01*
X003555Y029242D02*
X003535Y029242D01*
X003535Y029380D02*
X003555Y029380D01*
X003015Y029380D02*
X000640Y029380D01*
X000640Y029242D02*
X002903Y029242D01*
X002859Y029103D02*
X000640Y029103D01*
X000640Y028965D02*
X002862Y028965D01*
X002914Y028826D02*
X000640Y028826D01*
X000640Y028688D02*
X003045Y028688D01*
X003118Y027441D02*
X000640Y027441D01*
X000640Y027303D02*
X002934Y027303D01*
X002869Y027164D02*
X000640Y027164D01*
X000640Y027026D02*
X002855Y027026D01*
X002885Y026887D02*
X000640Y026887D01*
X000640Y026749D02*
X002973Y026749D01*
X002965Y026333D02*
X000640Y026333D01*
X000640Y026195D02*
X002881Y026195D01*
X002855Y026056D02*
X000640Y026056D01*
X000640Y025918D02*
X002874Y025918D01*
X002947Y025779D02*
X000640Y025779D01*
X000640Y025641D02*
X003138Y025641D01*
X012173Y025779D02*
X015512Y025779D01*
X015369Y025641D02*
X012299Y025641D01*
X012355Y025502D02*
X015227Y025502D01*
X015084Y025364D02*
X012355Y025364D01*
X012309Y025225D02*
X014941Y025225D01*
X014799Y025087D02*
X012199Y025087D01*
D27*
X009795Y024420D03*
X019420Y027795D03*
X010670Y014170D03*
X010295Y011920D03*
X006795Y009170D03*
X021295Y011920D03*
X025920Y012795D03*
D28*
X044170Y010295D02*
X044420Y010295D01*
X044670Y010295D01*
X054170Y017295D02*
X054420Y017295D01*
X054670Y017295D01*
M02*
